<?xml version="1.0" encoding="UTF-8" standalone="no"?>
<!-- Created with Inkscape (http://www.inkscape.org/) -->

<svg
   version="1.1"
   id="svg1"
   width="320"
   height="320"
   viewBox="0 0 320 320"
   sodipodi:docname="emoji.svg"
   inkscape:version="1.4.1 (93de688d07, 2025-03-30)"
   inkscape:export-filename="../../skip-emoji.png"
   inkscape:export-xdpi="153.60001"
   inkscape:export-ydpi="153.60001"
   xmlns:inkscape="http://www.inkscape.org/namespaces/inkscape"
   xmlns:sodipodi="http://sodipodi.sourceforge.net/DTD/sodipodi-0.dtd"
   xmlns="http://www.w3.org/2000/svg"
   xmlns:svg="http://www.w3.org/2000/svg">
  <defs
     id="defs1" />
  <sodipodi:namedview
     id="namedview1"
     pagecolor="#ffffff"
     bordercolor="#000000"
     borderopacity="0.25"
     inkscape:showpageshadow="2"
     inkscape:pageopacity="0.0"
     inkscape:pagecheckerboard="0"
     inkscape:deskcolor="#d1d1d1"
     inkscape:zoom="3.4883935"
     inkscape:cx="119.2526"
     inkscape:cy="173.1456"
     inkscape:window-width="3440"
     inkscape:window-height="1395"
     inkscape:window-x="0"
     inkscape:window-y="22"
     inkscape:window-maximized="1"
     inkscape:current-layer="g1" />
  <g
     inkscape:groupmode="layer"
     inkscape:label="Image"
     id="g1"
     transform="translate(-167,-80)">
    <rect
       style="fill:#007ba0;fill-opacity:1;stroke:none;stroke-width:4.81096;stroke-linecap:round;stroke-linejoin:round;stroke-miterlimit:6.5;stroke-dasharray:none;stroke-opacity:1;paint-order:markers stroke fill"
       id="rect18"
       width="320"
       height="320"
       x="167"
       y="80"
       inkscape:export-filename="../../skip-emoji.pdf"
       inkscape:export-xdpi="153.60001"
       inkscape:export-ydpi="153.60001" />
    <g
       id="g22"
       inkscape:label="undershadow"
       style="display:inline;fill:#000000;fill-opacity:1;stroke:#000000;stroke-opacity:1;paint-order:markers stroke fill;filter:url(#filter18)"
       transform="rotate(-3.5403022,472.42189,320.5624)">
      <path
         id="path18"
         style="font-size:148.089px;font-family:'Franklin Gothic';-inkscape-font-specification:'Franklin Gothic';letter-spacing:3.08521px;word-spacing:1.5426px;fill:#000000;fill-opacity:1;stroke:#000000;stroke-width:5.43552;stroke-linecap:round;stroke-linejoin:round;stroke-miterlimit:6.5;stroke-opacity:1;paint-order:markers stroke fill"
         d="m 453.96664,198.06575 c -5.47297,0.12367 -17.18012,0.77186 -23.1732,13.72062 l -1.74799,0.0946 0.37171,-9.61931 -24.60219,2.85726 -5.24512,95.00668 25.46369,-4.12417 2.32509,-33.09581 c 5.19528,6.57184 9.49612,9.10983 16.55089,9.43564 3.80055,0.17547 8.21288,-1.45664 11.62191,-3.05582 3.42809,-1.60812 6.58952,-3.97749 8.95077,-7.06216 4.32669,-5.65225 8.78772,-12.52412 10.48912,-24.19506 0.97384,-6.68011 1.42929,-13.57038 0.55269,-20.24897 -0.79437,-6.05209 -3.41314,-10.82738 -6.59108,-14.57877 -3.679,-4.34286 -10.04373,-5.14169 -14.96629,-5.13475 -10e-6,0 0,2e-5 0,2e-5 z m -14.7304,17.2744 c 3.37306,-0.15476 6.18175,0.82996 7.84496,4.1867 1.66834,3.36709 2.04319,8.32091 1.75687,14.52059 -0.40367,8.74129 -1.59116,13.6839 -3.31065,17.41318 -1.71949,3.72925 -6.23783,6.98264 -9.75334,6.82029 -4.87586,-0.25165 -7.28266,-4.67861 -6.988,-9.6615 l 1.39597,-23.60662 c 0.31308,-5.29443 6.03908,-9.5343 9.05419,-9.67264 z"
         sodipodi:nodetypes="scccccccsssssssssssscsss" />
      <path
         style="font-size:148.089px;font-family:'Franklin Gothic';-inkscape-font-specification:'Franklin Gothic';letter-spacing:3.08521px;word-spacing:1.5426px;fill:#000000;fill-opacity:1;stroke:#000000;stroke-width:5.51;stroke-linecap:round;stroke-linejoin:round;stroke-miterlimit:6.5;stroke-dasharray:none;stroke-opacity:1;paint-order:markers stroke fill"
         d="m 363.28796,254.17162 0.25706,-16.39773 26.68919,-3.14639 -0.75876,16.6844 z"
         id="path19"
         sodipodi:nodetypes="ccccc" />
      <path
         style="font-size:148.089px;font-family:'Franklin Gothic';-inkscape-font-specification:'Franklin Gothic';letter-spacing:3.08521px;word-spacing:1.5426px;fill:#000000;fill-opacity:1;stroke:#000000;stroke-width:5.50963;stroke-linecap:round;stroke-linejoin:round;stroke-miterlimit:6.5;stroke-opacity:1;paint-order:markers stroke fill"
         d="m 364.67333,228.48385 3.97223,-71.87917 26.71449,-2.33559 -4.69227,70.40234 z"
         id="path20"
         sodipodi:nodetypes="ccccc" />
      <path
         style="font-size:148.089px;font-family:'Franklin Gothic';-inkscape-font-specification:'Franklin Gothic';letter-spacing:3.08521px;word-spacing:1.5426px;fill:#000000;fill-opacity:1;stroke:#000000;stroke-width:5.06302;stroke-linecap:round;stroke-linejoin:round;stroke-miterlimit:6.5;stroke-opacity:1;paint-order:markers stroke fill"
         d="m 279.53206,291.79964 5.77289,-97.0456 26.38448,-2.2534 -3.44036,54.56342 27.41603,-33.5952 20.74287,-1.81498 -22.09266,26.3889 21.63535,44.09065 -27.36732,3.24641 -12.72512,-28.62423 -9.50402,12.5579 -0.43766,19.08609 z"
         id="path21"
         sodipodi:nodetypes="ccccccccccccc" />
      <path
         style="font-size:148.089px;font-family:'Franklin Gothic';-inkscape-font-specification:'Franklin Gothic';letter-spacing:3.08521px;word-spacing:1.5426px;fill:#000000;fill-opacity:1;stroke:#000000;stroke-width:5.50963;stroke-linecap:round;stroke-linejoin:round;stroke-miterlimit:6.5;stroke-opacity:1;paint-order:markers stroke fill"
         d="m 184.64057,276.80437 25.94508,-6.63037 c 2.84768,4.37577 3.56781,5.17285 5.00386,6.17878 1.49436,1.04678 7.30215,2.66696 12.7694,2.45429 4.64837,-0.18083 7.79061,-1.01335 10.4703,-2.7614 2.70738,-1.76612 3.90156,-3.59134 3.79569,-6.31292 -0.13772,-3.54047 -3.21962,-5.82993 -9.33192,-7.17731 -4.38132,-0.96581 -14.46073,-0.31372 -20.33451,-1.85951 -6.47082,-1.70292 -9.89564,-3.28139 -14.72207,-7.31952 -2.48024,-2.07514 -5.30815,-5.54438 -5.59593,-14.24392 -0.20231,-6.11575 1.34304,-12.47943 4.36724,-17.3915 3.07997,-5.00265 7.12177,-9.38839 12.28598,-12.82592 5.91748,-3.93894 16.84129,-9.55467 29.18928,-9.4378 18.08834,0.1712 27.0613,5.28736 33.08328,17.70532 l -23.40004,9.91035 c -3.0473,-3.30669 -3.91607,-4.51711 -6.78676,-5.85998 -2.36737,-1.10743 -5.42301,-1.40286 -9.30207,-1.29429 -3.2039,0.0897 -6.27893,1.37802 -7.42972,2.0819 -2.53919,1.55308 -3.40262,2.99346 -4.04611,5.29125 -1.0764,3.84367 1.844,7.16619 9.08969,8.24297 6.02243,0.895 9.44977,-0.36409 16.23788,0.74606 6.88301,1.12568 12.71338,1.88926 17.5675,6.07805 4.85501,4.18956 7.7273,7.51355 8.07676,16.49719 0.25672,6.59924 -2.97668,14.78077 -6.02552,19.89799 -3.04211,5.10594 -11.20113,11.18461 -16.02376,13.85551 -4.03789,2.23629 -17.43994,7.35248 -25.17543,8.23153 -22.87404,2.59937 -37.62898,-10.52641 -39.7081,-24.05675 z"
         id="path22"
         sodipodi:nodetypes="ccsssssssssssccsssssssssssc" />
    </g>
    <g
       id="g5"
       inkscape:label="sk!p"
       style="fill:#ffffff;fill-opacity:1;stroke:#000000;stroke-opacity:1;filter:url(#filter18);paint-order:markers stroke fill"
       transform="rotate(-3.5403022,261.28339,248.38513)">
      <path
         id="path5"
         style="font-size:148.089px;font-family:'Franklin Gothic';-inkscape-font-specification:'Franklin Gothic';letter-spacing:3.08521px;word-spacing:1.5426px;fill:#ffffff;fill-opacity:1;stroke:#000000;stroke-width:5.43552;stroke-linecap:round;stroke-linejoin:round;stroke-miterlimit:6.5;stroke-opacity:1;paint-order:markers stroke fill"
         d="m 453.96664,198.06575 c -5.47297,0.12367 -17.18012,0.77186 -23.1732,13.72062 l -1.74799,0.0946 0.37171,-9.61931 -24.60219,2.85726 -5.24512,95.00668 25.46369,-4.12417 2.32509,-33.09581 c 5.19528,6.57184 9.49612,9.10983 16.55089,9.43564 3.80055,0.17547 8.21288,-1.45664 11.62191,-3.05582 3.42809,-1.60812 6.58952,-3.97749 8.95077,-7.06216 4.32669,-5.65225 8.78772,-12.52412 10.48912,-24.19506 0.97384,-6.68011 1.42929,-13.57038 0.55269,-20.24897 -0.79437,-6.05209 -3.41314,-10.82738 -6.59108,-14.57877 -3.679,-4.34286 -10.04373,-5.14169 -14.96629,-5.13475 -10e-6,0 0,2e-5 0,2e-5 z m -14.7304,17.2744 c 3.37306,-0.15476 6.18175,0.82996 7.84496,4.1867 1.66834,3.36709 2.04319,8.32091 1.75687,14.52059 -0.40367,8.74129 -1.59116,13.6839 -3.31065,17.41318 -1.71949,3.72925 -6.23783,6.98264 -9.75334,6.82029 -4.87586,-0.25165 -7.28266,-4.67861 -6.988,-9.6615 l 1.39597,-23.60662 c 0.31308,-5.29443 6.03908,-9.5343 9.05419,-9.67264 z"
         sodipodi:nodetypes="scccccccsssssssssssscsss" />
      <path
         style="font-size:148.089px;font-family:'Franklin Gothic';-inkscape-font-specification:'Franklin Gothic';letter-spacing:3.08521px;word-spacing:1.5426px;fill:#ff0202;fill-opacity:1;stroke:#000000;stroke-width:5.51;stroke-linecap:round;stroke-linejoin:round;stroke-miterlimit:6.5;stroke-dasharray:none;stroke-opacity:1;paint-order:markers stroke fill"
         d="m 363.28796,254.17162 0.25706,-16.39773 26.68919,-3.14639 -0.75876,16.6844 z"
         id="path3"
         sodipodi:nodetypes="ccccc" />
      <path
         style="font-size:148.089px;font-family:'Franklin Gothic';-inkscape-font-specification:'Franklin Gothic';letter-spacing:3.08521px;word-spacing:1.5426px;fill:#ffffff;fill-opacity:1;stroke:#000000;stroke-width:5.50963;stroke-linecap:round;stroke-linejoin:round;stroke-miterlimit:6.5;stroke-opacity:1;paint-order:markers stroke fill"
         d="m 364.67333,228.48385 3.97223,-71.87917 26.71449,-2.33559 -4.69227,70.40234 z"
         id="path2"
         sodipodi:nodetypes="ccccc" />
      <path
         style="font-size:148.089px;font-family:'Franklin Gothic';-inkscape-font-specification:'Franklin Gothic';letter-spacing:3.08521px;word-spacing:1.5426px;fill:#ffffff;fill-opacity:1;stroke:#000000;stroke-width:5.06302;stroke-linecap:round;stroke-linejoin:round;stroke-miterlimit:6.5;stroke-opacity:1;paint-order:markers stroke fill"
         d="m 279.53206,291.79964 5.77289,-97.0456 26.38448,-2.2534 -3.44036,54.56342 27.41603,-33.5952 20.74287,-1.81498 -22.09266,26.3889 21.63535,44.09065 -27.36732,3.24641 -12.72512,-28.62423 -9.50402,12.5579 -0.43766,19.08609 z"
         id="path1"
         sodipodi:nodetypes="ccccccccccccc" />
      <path
         style="font-size:148.089px;font-family:'Franklin Gothic';-inkscape-font-specification:'Franklin Gothic';letter-spacing:3.08521px;word-spacing:1.5426px;fill:#ffffff;fill-opacity:1;stroke:#000000;stroke-width:5.50963;stroke-linecap:round;stroke-linejoin:round;stroke-miterlimit:6.5;stroke-opacity:1;paint-order:markers stroke fill"
         d="m 184.64057,276.80437 25.94508,-6.63037 c 2.84768,4.37577 3.56781,5.17285 5.00386,6.17878 1.49436,1.04678 7.30215,2.66696 12.7694,2.45429 4.64837,-0.18083 7.79061,-1.01335 10.4703,-2.7614 2.70738,-1.76612 3.90156,-3.59134 3.79569,-6.31292 -0.13772,-3.54047 -3.21962,-5.82993 -9.33192,-7.17731 -4.38132,-0.96581 -14.46073,-0.31372 -20.33451,-1.85951 -6.47082,-1.70292 -9.89564,-3.28139 -14.72207,-7.31952 -2.48024,-2.07514 -5.30815,-5.54438 -5.59593,-14.24392 -0.20231,-6.11575 1.34304,-12.47943 4.36724,-17.3915 3.07997,-5.00265 7.12177,-9.38839 12.28598,-12.82592 5.91748,-3.93894 16.84129,-9.55467 29.18928,-9.4378 18.08834,0.1712 27.0613,5.28736 33.08328,17.70532 l -23.40004,9.91035 c -3.0473,-3.30669 -3.91607,-4.51711 -6.78676,-5.85998 -2.36737,-1.10743 -5.42301,-1.40286 -9.30207,-1.29429 -3.2039,0.0897 -6.27893,1.37802 -7.42972,2.0819 -2.53919,1.55308 -3.40262,2.99346 -4.04611,5.29125 -1.0764,3.84367 1.844,7.16619 9.08969,8.24297 6.02243,0.895 9.44977,-0.36409 16.23788,0.74606 6.88301,1.12568 12.71338,1.88926 17.5675,6.07805 4.85501,4.18956 7.7273,7.51355 8.07676,16.49719 0.25672,6.59924 -2.97668,14.78077 -6.02552,19.89799 -3.04211,5.10594 -11.20113,11.18461 -16.02376,13.85551 -4.03789,2.23629 -17.43994,7.35248 -25.17543,8.23153 -22.87404,2.59937 -37.62898,-10.52641 -39.7081,-24.05675 z"
         id="text1"
         sodipodi:nodetypes="ccsssssssssssccsssssssssssc" />
    </g>
  </g>
</svg>
