<?xml version="1.0" encoding="UTF-8" standalone="no"?>
<!-- Created with Inkscape (http://www.inkscape.org/) -->

<svg
   version="1.1"
   id="svg1"
   width="355.85361"
   height="355.85361"
   viewBox="0 0 355.85361 355.85361"
   sodipodi:docname="sticker.svg"
   inkscape:version="1.4.1 (93de688d07, 2025-03-30)"
   inkscape:export-filename="../../skip-sticker.png"
   inkscape:export-xdpi="2184.0891"
   inkscape:export-ydpi="2184.0891"
   xmlns:inkscape="http://www.inkscape.org/namespaces/inkscape"
   xmlns:sodipodi="http://sodipodi.sourceforge.net/DTD/sodipodi-0.dtd"
   xmlns="http://www.w3.org/2000/svg"
   xmlns:svg="http://www.w3.org/2000/svg">
  <defs
     id="defs1" />
  <sodipodi:namedview
     id="namedview1"
     pagecolor="#ffffff"
     bordercolor="#000000"
     borderopacity="0.25"
     inkscape:showpageshadow="2"
     inkscape:pageopacity="0.0"
     inkscape:pagecheckerboard="0"
     inkscape:deskcolor="#d1d1d1"
     inkscape:zoom="1.7441968"
     inkscape:cx="330.23797"
     inkscape:cy="144.47911"
     inkscape:window-width="3440"
     inkscape:window-height="1395"
     inkscape:window-x="0"
     inkscape:window-y="22"
     inkscape:window-maximized="1"
     inkscape:current-layer="g1" />
  <g
     inkscape:groupmode="layer"
     inkscape:label="Image"
     id="g1"
     transform="translate(-164.51213,-82.09877)">
    <circle
       style="fill:#007ba0;fill-opacity:1;stroke-width:4.90188;stroke-linecap:round;stroke-linejoin:round;stroke-miterlimit:6.5;paint-order:markers stroke fill"
       id="path4"
       cx="342.43893"
       cy="260.02557"
       r="177.9268" />
    <g
       id="g4"
       transform="matrix(0.99908401,0,0,0.99908401,2.7398422,1.8513562)">
      <g
         id="g22"
         inkscape:label="undershadow"
         style="display:inline;fill:#000000;fill-opacity:1;stroke:#000000;stroke-opacity:1;paint-order:markers stroke fill;filter:url(#filter18)"
         transform="rotate(-3.5403022,472.42189,320.5624)">
        <path
           id="path18"
           style="font-size:148.089px;font-family:'Franklin Gothic';-inkscape-font-specification:'Franklin Gothic';letter-spacing:3.08521px;word-spacing:1.5426px;fill:#000000;fill-opacity:1;stroke:#000000;stroke-width:5.43552;stroke-linecap:round;stroke-linejoin:round;stroke-miterlimit:6.5;stroke-opacity:1;paint-order:markers stroke fill"
           d="m 453.96664,198.06575 c -5.47297,0.12367 -17.18012,0.77186 -23.1732,13.72062 l -1.74799,0.0946 0.37171,-9.61931 -24.60219,2.85726 -5.24512,95.00668 25.46369,-4.12417 2.32509,-33.09581 c 5.19528,6.57184 9.49612,9.10983 16.55089,9.43564 3.80055,0.17547 8.21288,-1.45664 11.62191,-3.05582 3.42809,-1.60812 6.58952,-3.97749 8.95077,-7.06216 4.32669,-5.65225 8.78772,-12.52412 10.48912,-24.19506 0.97384,-6.68011 1.42929,-13.57038 0.55269,-20.24897 -0.79437,-6.05209 -3.41314,-10.82738 -6.59108,-14.57877 -3.679,-4.34286 -10.04373,-5.14169 -14.96629,-5.13475 -10e-6,0 0,2e-5 0,2e-5 z m -14.7304,17.2744 c 3.37306,-0.15476 6.18175,0.82996 7.84496,4.1867 1.66834,3.36709 2.04319,8.32091 1.75687,14.52059 -0.40367,8.74129 -1.59116,13.6839 -3.31065,17.41318 -1.71949,3.72925 -6.23783,6.98264 -9.75334,6.82029 -4.87586,-0.25165 -7.28266,-4.67861 -6.988,-9.6615 l 1.39597,-23.60662 c 0.31308,-5.29443 6.03908,-9.5343 9.05419,-9.67264 z"
           sodipodi:nodetypes="scccccccsssssssssssscsss" />
        <path
           style="font-size:148.089px;font-family:'Franklin Gothic';-inkscape-font-specification:'Franklin Gothic';letter-spacing:3.08521px;word-spacing:1.5426px;fill:#000000;fill-opacity:1;stroke:#000000;stroke-width:5.51;stroke-linecap:round;stroke-linejoin:round;stroke-miterlimit:6.5;stroke-dasharray:none;stroke-opacity:1;paint-order:markers stroke fill"
           d="m 363.28796,254.17162 0.25706,-16.39773 26.68919,-3.14639 -0.75876,16.6844 z"
           id="path19"
           sodipodi:nodetypes="ccccc" />
        <path
           style="font-size:148.089px;font-family:'Franklin Gothic';-inkscape-font-specification:'Franklin Gothic';letter-spacing:3.08521px;word-spacing:1.5426px;fill:#000000;fill-opacity:1;stroke:#000000;stroke-width:5.50963;stroke-linecap:round;stroke-linejoin:round;stroke-miterlimit:6.5;stroke-opacity:1;paint-order:markers stroke fill"
           d="m 364.67333,228.48385 3.97223,-71.87917 26.71449,-2.33559 -4.69227,70.40234 z"
           id="path20"
           sodipodi:nodetypes="ccccc" />
        <path
           style="font-size:148.089px;font-family:'Franklin Gothic';-inkscape-font-specification:'Franklin Gothic';letter-spacing:3.08521px;word-spacing:1.5426px;fill:#000000;fill-opacity:1;stroke:#000000;stroke-width:5.06302;stroke-linecap:round;stroke-linejoin:round;stroke-miterlimit:6.5;stroke-opacity:1;paint-order:markers stroke fill"
           d="m 279.53206,291.79964 5.77289,-97.0456 26.38448,-2.2534 -3.44036,54.56342 27.41603,-33.5952 20.74287,-1.81498 -22.09266,26.3889 21.63535,44.09065 -27.36732,3.24641 -12.72512,-28.62423 -9.50402,12.5579 -0.43766,19.08609 z"
           id="path21"
           sodipodi:nodetypes="ccccccccccccc" />
        <path
           style="font-size:148.089px;font-family:'Franklin Gothic';-inkscape-font-specification:'Franklin Gothic';letter-spacing:3.08521px;word-spacing:1.5426px;fill:#000000;fill-opacity:1;stroke:#000000;stroke-width:5.50963;stroke-linecap:round;stroke-linejoin:round;stroke-miterlimit:6.5;stroke-opacity:1;paint-order:markers stroke fill"
           d="m 184.64057,276.80437 25.94508,-6.63037 c 2.84768,4.37577 3.56781,5.17285 5.00386,6.17878 1.49436,1.04678 7.30215,2.66696 12.7694,2.45429 4.64837,-0.18083 7.79061,-1.01335 10.4703,-2.7614 2.70738,-1.76612 3.90156,-3.59134 3.79569,-6.31292 -0.13772,-3.54047 -3.21962,-5.82993 -9.33192,-7.17731 -4.38132,-0.96581 -14.46073,-0.31372 -20.33451,-1.85951 -6.47082,-1.70292 -9.89564,-3.28139 -14.72207,-7.31952 -2.48024,-2.07514 -5.30815,-5.54438 -5.59593,-14.24392 -0.20231,-6.11575 1.34304,-12.47943 4.36724,-17.3915 3.07997,-5.00265 7.12177,-9.38839 12.28598,-12.82592 5.91748,-3.93894 16.84129,-9.55467 29.18928,-9.4378 18.08834,0.1712 27.0613,5.28736 33.08328,17.70532 l -23.40004,9.91035 c -3.0473,-3.30669 -3.91607,-4.51711 -6.78676,-5.85998 -2.36737,-1.10743 -5.42301,-1.40286 -9.30207,-1.29429 -3.2039,0.0897 -6.27893,1.37802 -7.42972,2.0819 -2.53919,1.55308 -3.40262,2.99346 -4.04611,5.29125 -1.0764,3.84367 1.844,7.16619 9.08969,8.24297 6.02243,0.895 9.44977,-0.36409 16.23788,0.74606 6.88301,1.12568 12.71338,1.88926 17.5675,6.07805 4.85501,4.18956 7.7273,7.51355 8.07676,16.49719 0.25672,6.59924 -2.97668,14.78077 -6.02552,19.89799 -3.04211,5.10594 -11.20113,11.18461 -16.02376,13.85551 -4.03789,2.23629 -17.43994,7.35248 -25.17543,8.23153 -22.87404,2.59937 -37.62898,-10.52641 -39.7081,-24.05675 z"
           id="path22"
           sodipodi:nodetypes="ccsssssssssssccsssssssssssc" />
      </g>
      <g
         id="g5"
         inkscape:label="sk!p"
         style="fill:#ffffff;fill-opacity:1;stroke:#000000;stroke-opacity:1;paint-order:markers stroke fill;filter:url(#filter18)"
         transform="rotate(-3.5403022,261.28339,248.38513)">
        <path
           id="path5"
           style="font-size:148.089px;font-family:'Franklin Gothic';-inkscape-font-specification:'Franklin Gothic';letter-spacing:3.08521px;word-spacing:1.5426px;fill:#ffffff;fill-opacity:1;stroke:#000000;stroke-width:5.43552;stroke-linecap:round;stroke-linejoin:round;stroke-miterlimit:6.5;stroke-opacity:1;paint-order:markers stroke fill"
           d="m 453.96664,198.06575 c -5.47297,0.12367 -17.18012,0.77186 -23.1732,13.72062 l -1.74799,0.0946 0.37171,-9.61931 -24.60219,2.85726 -5.24512,95.00668 25.46369,-4.12417 2.32509,-33.09581 c 5.19528,6.57184 9.49612,9.10983 16.55089,9.43564 3.80055,0.17547 8.21288,-1.45664 11.62191,-3.05582 3.42809,-1.60812 6.58952,-3.97749 8.95077,-7.06216 4.32669,-5.65225 8.78772,-12.52412 10.48912,-24.19506 0.97384,-6.68011 1.42929,-13.57038 0.55269,-20.24897 -0.79437,-6.05209 -3.41314,-10.82738 -6.59108,-14.57877 -3.679,-4.34286 -10.04373,-5.14169 -14.96629,-5.13475 -10e-6,0 0,2e-5 0,2e-5 z m -14.7304,17.2744 c 3.37306,-0.15476 6.18175,0.82996 7.84496,4.1867 1.66834,3.36709 2.04319,8.32091 1.75687,14.52059 -0.40367,8.74129 -1.59116,13.6839 -3.31065,17.41318 -1.71949,3.72925 -6.23783,6.98264 -9.75334,6.82029 -4.87586,-0.25165 -7.28266,-4.67861 -6.988,-9.6615 l 1.39597,-23.60662 c 0.31308,-5.29443 6.03908,-9.5343 9.05419,-9.67264 z"
           sodipodi:nodetypes="scccccccsssssssssssscsss" />
        <path
           style="font-size:148.089px;font-family:'Franklin Gothic';-inkscape-font-specification:'Franklin Gothic';letter-spacing:3.08521px;word-spacing:1.5426px;fill:#ff0202;fill-opacity:1;stroke:#000000;stroke-width:5.51;stroke-linecap:round;stroke-linejoin:round;stroke-miterlimit:6.5;stroke-dasharray:none;stroke-opacity:1;paint-order:markers stroke fill"
           d="m 363.28796,254.17162 0.25706,-16.39773 26.68919,-3.14639 -0.75876,16.6844 z"
           id="path3"
           sodipodi:nodetypes="ccccc" />
        <path
           style="font-size:148.089px;font-family:'Franklin Gothic';-inkscape-font-specification:'Franklin Gothic';letter-spacing:3.08521px;word-spacing:1.5426px;fill:#ffffff;fill-opacity:1;stroke:#000000;stroke-width:5.50963;stroke-linecap:round;stroke-linejoin:round;stroke-miterlimit:6.5;stroke-opacity:1;paint-order:markers stroke fill"
           d="m 364.67333,228.48385 3.97223,-71.87917 26.71449,-2.33559 -4.69227,70.40234 z"
           id="path2"
           sodipodi:nodetypes="ccccc" />
        <path
           style="font-size:148.089px;font-family:'Franklin Gothic';-inkscape-font-specification:'Franklin Gothic';letter-spacing:3.08521px;word-spacing:1.5426px;fill:#ffffff;fill-opacity:1;stroke:#000000;stroke-width:5.06302;stroke-linecap:round;stroke-linejoin:round;stroke-miterlimit:6.5;stroke-opacity:1;paint-order:markers stroke fill"
           d="m 279.53206,291.79964 5.77289,-97.0456 26.38448,-2.2534 -3.44036,54.56342 27.41603,-33.5952 20.74287,-1.81498 -22.09266,26.3889 21.63535,44.09065 -27.36732,3.24641 -12.72512,-28.62423 -9.50402,12.5579 -0.43766,19.08609 z"
           id="path1"
           sodipodi:nodetypes="ccccccccccccc" />
        <path
           style="font-size:148.089px;font-family:'Franklin Gothic';-inkscape-font-specification:'Franklin Gothic';letter-spacing:3.08521px;word-spacing:1.5426px;fill:#ffffff;fill-opacity:1;stroke:#000000;stroke-width:5.50963;stroke-linecap:round;stroke-linejoin:round;stroke-miterlimit:6.5;stroke-opacity:1;paint-order:markers stroke fill"
           d="m 184.64057,276.80437 25.94508,-6.63037 c 2.84768,4.37577 3.56781,5.17285 5.00386,6.17878 1.49436,1.04678 7.30215,2.66696 12.7694,2.45429 4.64837,-0.18083 7.79061,-1.01335 10.4703,-2.7614 2.70738,-1.76612 3.90156,-3.59134 3.79569,-6.31292 -0.13772,-3.54047 -3.21962,-5.82993 -9.33192,-7.17731 -4.38132,-0.96581 -14.46073,-0.31372 -20.33451,-1.85951 -6.47082,-1.70292 -9.89564,-3.28139 -14.72207,-7.31952 -2.48024,-2.07514 -5.30815,-5.54438 -5.59593,-14.24392 -0.20231,-6.11575 1.34304,-12.47943 4.36724,-17.3915 3.07997,-5.00265 7.12177,-9.38839 12.28598,-12.82592 5.91748,-3.93894 16.84129,-9.55467 29.18928,-9.4378 18.08834,0.1712 27.0613,5.28736 33.08328,17.70532 l -23.40004,9.91035 c -3.0473,-3.30669 -3.91607,-4.51711 -6.78676,-5.85998 -2.36737,-1.10743 -5.42301,-1.40286 -9.30207,-1.29429 -3.2039,0.0897 -6.27893,1.37802 -7.42972,2.0819 -2.53919,1.55308 -3.40262,2.99346 -4.04611,5.29125 -1.0764,3.84367 1.844,7.16619 9.08969,8.24297 6.02243,0.895 9.44977,-0.36409 16.23788,0.74606 6.88301,1.12568 12.71338,1.88926 17.5675,6.07805 4.85501,4.18956 7.7273,7.51355 8.07676,16.49719 0.25672,6.59924 -2.97668,14.78077 -6.02552,19.89799 -3.04211,5.10594 -11.20113,11.18461 -16.02376,13.85551 -4.03789,2.23629 -17.43994,7.35248 -25.17543,8.23153 -22.87404,2.59937 -37.62898,-10.52641 -39.7081,-24.05675 z"
           id="text1"
           sodipodi:nodetypes="ccsssssssssssccsssssssssssc" />
      </g>
      <path
         style="font-size:29.5152px;font-family:McLaren;-inkscape-font-specification:McLaren;letter-spacing:0px;word-spacing:0.790587px;fill:#ffffff;stroke-width:4.35613;stroke-linecap:round;stroke-linejoin:round;stroke-miterlimit:6.5;paint-order:markers stroke fill"
         d="m 260.8231,340.29444 0.20176,-2.03205 q -1.75823,1.12412 -3.45881,1.62853 -1.68617,0.50441 -3.15617,0.50441 -1.03764,0 -2.01764,-0.27383 -0.96558,-0.25941 -1.71499,-0.80705 -0.735,-0.56206 -1.19618,-1.41235 -0.44676,-0.86471 -0.44676,-2.03205 0,-1.16735 0.34588,-2.0897 0.34588,-0.92235 0.95117,-1.62853 0.6053,-0.70617 1.42677,-1.21058 0.82146,-0.50441 1.75822,-0.82147 0.95118,-0.31706 1.98882,-0.46117 1.03765,-0.15853 2.06088,-0.15853 0.95117,0 1.77264,0.072 0.82147,0.0721 1.45558,0.18736 -0.18735,-0.72059 -0.46117,-1.41235 -0.27383,-0.70618 -0.70618,-1.25382 -0.41794,-0.56206 -1.03764,-0.90794 -0.6197,-0.34588 -1.48441,-0.34588 -0.56205,0 -1.28264,0.17294 -0.72059,0.15853 -1.58529,0.59088 -0.8647,0.43235 -1.88793,1.19617 -1.02324,0.74941 -2.19059,1.93117 l -1.74381,-2.11852 q 1.38352,-1.29705 2.65175,-2.11852 1.26823,-0.82147 2.37794,-1.28264 1.12411,-0.47559 2.07528,-0.64853 0.96559,-0.17294 1.72941,-0.17294 1.32588,0 2.36352,0.46117 1.03765,0.44677 1.81588,1.23941 0.79264,0.77823 1.32588,1.8447 0.54764,1.05206 0.89352,2.27705 0.34588,1.21059 0.49,2.52205 0.15853,1.31147 0.15853,2.60852 0,1.38353 -0.15853,2.96882 -0.15853,1.58529 -0.49,3.45881 z m 0.40352,-5.24586 q 0.0288,-0.72059 0.0432,-1.42676 0.0144,-0.70618 -0.0721,-1.47 -0.70617,-0.21617 -1.48441,-0.34588 -0.77823,-0.1297 -1.55646,-0.1297 -1.29706,0 -2.52205,0.30264 -1.21059,0.30265 -2.0897,0.87912 -0.87912,0.57647 -1.32588,1.41235 -0.43235,0.83587 -0.17294,1.90234 0.20176,0.8647 0.77823,1.21059 0.59088,0.34588 1.41235,0.34588 0.83588,0 1.80147,-0.27383 0.97999,-0.28823 1.93117,-0.69176 0.96558,-0.41794 1.81587,-0.87911 0.85029,-0.46118 1.44117,-0.83588 z m 12.49496,5.0441 q -1.02323,-0.0144 -1.81587,-0.34588 -0.77823,-0.33147 -1.38353,-0.85029 -0.59088,-0.53324 -1.02323,-1.21059 -0.41794,-0.67735 -0.70617,-1.36911 -0.69177,-1.64294 -0.86471,-3.71822 l 0.38912,-18.27406 h 3.01205 q -0.0721,2.56528 -0.14412,4.71263 -0.0576,2.13293 -0.10088,3.89116 -0.0432,1.74382 -0.0865,3.12735 -0.0288,1.38352 -0.0577,2.43558 -0.0576,2.47881 -0.0865,3.90557 0.0288,1.34029 0.38912,2.39235 0.14412,0.44676 0.3747,0.87911 0.245,0.43235 0.57647,0.77823 0.34588,0.34589 0.80706,0.56206 0.47559,0.20177 1.09529,0.21618 z m 17.04907,-7.69586 q 0,1.81588 -0.6053,3.35793 -0.60529,1.54206 -1.65734,2.68058 -1.05206,1.13853 -2.46441,1.77264 -1.41235,0.64853 -3.01205,0.64853 -1.5997,0 -2.99763,-0.60529 -1.39794,-0.60529 -2.45,-1.715 -1.03764,-1.12411 -1.64293,-2.68058 -0.60529,-1.55646 -0.60529,-3.45881 0,-1.91676 0.60529,-3.47322 0.60529,-1.57088 1.64293,-2.68058 1.05206,-1.1097 2.45,-1.715 1.39793,-0.60529 2.99763,-0.60529 1.5997,0 3.01205,0.64853 1.41235,0.63411 2.46441,1.77264 1.05205,1.12411 1.65734,2.68058 0.6053,1.54205 0.6053,3.37234 z m -3.04088,-0.0288 q 0,-1.03765 -0.25941,-2.0897 -0.25941,-1.06647 -0.82146,-1.90235 -0.56206,-0.85029 -1.45559,-1.38352 -0.89352,-0.53324 -2.16176,-0.53324 -1.22499,0 -2.10411,0.53324 -0.87911,0.53323 -1.44117,1.38352 -0.56206,0.83588 -0.82147,1.90235 -0.25941,1.05205 -0.25941,2.0897 0,1.03764 0.27382,2.0897 0.28824,1.05205 0.86471,1.90234 0.57647,0.83588 1.44117,1.36912 0.87911,0.53323 2.04646,0.53323 1.225,0 2.10411,-0.53323 0.89353,-0.53324 1.47,-1.36912 0.57647,-0.85029 0.85029,-1.90234 0.27382,-1.05206 0.27382,-2.0897 z m 6.64381,8.08497 q -0.0865,-2.47881 -0.15853,-4.48204 -0.0721,-2.01764 -0.12971,-3.60293 -0.0576,-1.58529 -0.10088,-2.79588 -0.0288,-1.21058 -0.0576,-2.08969 -0.0577,-2.06088 -0.0865,-3.05529 l 3.28587,-0.0577 0.0576,4.15058 q 0.47559,-0.82147 1.08088,-1.54205 0.6053,-0.735 1.31147,-1.29706 0.70617,-0.56206 1.49882,-0.90794 0.80705,-0.34588 1.68617,-0.40353 1.09529,-0.072 1.90235,0.18736 0.82146,0.25941 1.39793,0.72058 0.57647,0.46118 0.95118,1.09529 0.3747,0.61971 0.59088,1.29706 0.21617,0.66294 0.30264,1.32588 0.10088,0.66294 0.12971,1.21058 0.0865,2.47882 0.0432,4.98646 -0.0432,2.50763 -0.10088,5.20263 l -2.9544,-0.10089 q 0.11529,-2.32028 0.20176,-4.64057 0.10089,-2.32029 -0.0144,-4.68381 0,-0.25941 -0.0432,-0.66294 -0.0288,-0.41794 -0.15853,-0.87911 -0.1153,-0.46118 -0.33147,-0.90794 -0.21618,-0.46118 -0.56206,-0.79265 -0.34588,-0.34588 -0.85029,-0.51882 -0.49,-0.17294 -1.15294,-0.0721 -1.13852,0.17294 -2.32028,1.67176 -1.16735,1.48441 -2.52206,4.35234 0.0577,2.32029 0.0865,3.70381 0.0432,1.36912 0.0721,2.07529 0.0288,0.83588 0.0432,1.12412 z m 33.0893,-17.03465 -0.0865,16.55907 q -0.0144,0.93676 -0.24499,1.85911 -0.23059,0.93676 -0.69177,1.80146 -0.44676,0.87912 -1.12411,1.64294 -0.66294,0.77823 -1.54206,1.36911 -0.8647,0.60529 -1.94558,0.98 -1.08088,0.38911 -2.36352,0.49 -1.74382,0.0576 -3.28587,-0.3603 -0.66294,-0.17294 -1.3547,-0.47558 -0.67735,-0.30265 -1.31147,-0.77824 -0.63411,-0.46117 -1.16735,-1.12411 -0.53323,-0.64853 -0.87911,-1.54205 l 2.78146,-1.21059 q 0.27382,0.61971 0.66294,1.06647 0.38911,0.44676 0.83588,0.74941 0.44676,0.30264 0.90794,0.49 0.47558,0.18735 0.92235,0.27382 1.05205,0.23059 2.2194,0.0865 1.00882,-0.20176 1.74382,-0.6197 0.74941,-0.41794 1.26823,-0.93677 0.51882,-0.50441 0.83588,-1.08087 0.33147,-0.56206 0.51882,-1.08088 0.18735,-0.51883 0.245,-0.95118 0.0721,-0.41794 0.0721,-0.64852 v -1.88794 q -0.8647,0.82147 -1.80147,1.26823 -0.92235,0.43235 -1.71499,0.63412 -0.92235,0.245 -1.81588,0.27382 -1.67176,0 -3.11293,-0.59088 -1.44117,-0.57647 -2.50764,-1.65735 -1.06646,-1.09529 -1.68617,-2.65175 -0.60529,-1.55647 -0.60529,-3.50205 0,-1.96 0.67735,-3.48764 0.67735,-1.54205 1.77264,-2.59411 1.1097,-1.05205 2.49323,-1.5997 1.39794,-0.56206 2.81028,-0.56206 0.98,0.1153 1.97441,0.43236 0.85029,0.27382 1.83029,0.77823 0.97999,0.50441 1.81587,1.36911 l 0.0288,-2.86793 z m -8.31556,14.08025 q 0.95118,0 1.8447,-0.33147 0.89353,-0.33147 1.61412,-0.92235 0.73499,-0.60529 1.2394,-1.42676 0.50441,-0.83588 0.69177,-1.83029 v -1.88793 q -0.15853,-1.02324 -0.67735,-1.85911 -0.51883,-0.8503 -1.26824,-1.45559 -0.74941,-0.60529 -1.67176,-0.93676 -0.90793,-0.33147 -1.85911,-0.33147 -1.03764,0 -1.91676,0.43235 -0.87911,0.41794 -1.51323,1.16735 -0.6197,0.74941 -0.97999,1.77264 -0.34588,1.02323 -0.34588,2.205 0,1.18176 0.36029,2.17617 0.36029,0.9944 0.99441,1.71499 0.64852,0.70617 1.52764,1.1097 0.89353,0.40353 1.95999,0.40353 z m 39.70223,-3.74705 q 0.0432,1.52765 -0.49,2.62294 -0.53323,1.09529 -1.45558,1.8447 -0.90794,0.73499 -2.13294,1.18176 -1.21058,0.46117 -2.55087,0.69176 -1.32588,0.245 -2.68058,0.31706 -1.3547,0.0721 -2.53647,0.0721 -1.19617,0 -2.66616,-0.0721 -1.45559,-0.0577 -3.1994,-0.20177 l -0.61971,-20.98346 q 1.49882,-0.27382 2.91117,-0.40353 1.41235,-0.14411 2.52205,-0.20176 1.29705,-0.0576 2.44999,-0.0432 1.09529,0.0288 2.20499,0.12971 1.10971,0.10088 2.11853,0.34588 1.02323,0.23059 1.90234,0.64853 0.87912,0.41794 1.52765,1.06646 0.64852,0.64853 1.02323,1.57088 0.3747,0.90794 0.3747,2.14735 0,1.61411 -0.59088,2.76705 -0.59088,1.13852 -1.54205,1.88793 0.60529,0.20177 1.08088,0.50441 0.47558,0.28824 0.82147,0.64853 0.36029,0.36029 0.60529,0.76382 0.25941,0.38912 0.43235,0.77823 0.38912,0.89353 0.49,1.91676 z m -10.39085,-12.5526 q -0.67735,0 -1.47,0.0432 -0.67735,0.0288 -1.55646,0.1153 -0.86471,0.0865 -1.8447,0.23058 l 0.23058,7.34998 q 1.23941,-0.0288 2.24823,-0.0721 1.02323,-0.0577 1.75823,-0.10088 0.86471,-0.0576 1.54206,-0.1153 1.06646,-0.0576 2.03205,-0.34588 0.98,-0.30264 1.70058,-0.82146 0.72059,-0.51883 1.1097,-1.26824 0.40353,-0.74941 0.30265,-1.7294 -0.0865,-0.72059 -0.40353,-1.25382 -0.30264,-0.54765 -0.77823,-0.92235 -0.46118,-0.38912 -1.06647,-0.61971 -0.59088,-0.24499 -1.23941,-0.36029 -0.63411,-0.1297 -1.29705,-0.14412 -0.66294,-0.0288 -1.26823,0.0144 z m 2.73822,9.77114 q -0.36029,0.0288 -0.63411,0.0577 -0.25941,0.0144 -0.46118,0.0288 -0.18735,0.0144 -0.34588,0.0288 -0.14411,0.0144 -0.27382,0.0144 -0.79264,0.0721 -1.70058,0.1297 -0.77824,0.0577 -1.78706,0.12971 -1.00882,0.0576 -2.08969,0.11529 l 0.21617,6.38439 q 0.40353,0.0288 0.79265,0.0288 0.38911,0 0.76382,0 0.67735,0 1.70058,0 1.03764,-0.0144 2.16176,-0.10089 1.13852,-0.10088 2.26264,-0.33147 1.13852,-0.24499 2.03205,-0.69176 0.90794,-0.46117 1.44117,-1.18176 0.54765,-0.72058 0.50441,-1.80146 -0.1297,-0.77824 -0.66294,-1.39794 -0.23059,-0.25941 -0.57647,-0.51882 -0.33147,-0.25941 -0.80705,-0.44677 -0.47559,-0.20176 -1.10971,-0.31705 -0.6197,-0.12971 -1.42676,-0.12971 z m 21.73288,0.30265 q -0.0144,-0.70618 -0.12971,-1.225 -0.10088,-0.51882 -0.27382,-0.89353 -0.15853,-0.3747 -0.3747,-0.6197 -0.20177,-0.245 -0.41794,-0.40353 -0.50441,-0.36029 -1.13853,-0.34588 -0.40353,0.0576 -0.8647,0.34588 -0.44677,0.27383 -0.92235,0.72059 -0.47559,0.43235 -0.96559,0.99441 -0.47559,0.54764 -0.92235,1.13852 -0.44676,0.57647 -0.85029,1.15294 -0.40353,0.57647 -0.72059,1.05206 0.0144,1.08088 0.0432,2.13293 0.0288,1.03764 0.0432,1.94558 0.0288,0.89353 0.0577,1.62853 0.0432,0.72058 0.0865,1.16735 l -3.09852,0.38911 q -0.0865,-2.47881 -0.15853,-4.48204 -0.0721,-2.01764 -0.1297,-3.60293 -0.0576,-1.58529 -0.10088,-2.79588 -0.0288,-1.21058 -0.0577,-2.08969 -0.0576,-2.06088 -0.0865,-3.05529 l 3.28587,-0.0577 q 0.0144,0.87912 0.0144,1.80147 0.0144,0.90794 0.0288,1.67176 0.0144,0.89353 0.0144,1.74382 0.41794,-0.66294 1.00882,-1.45559 0.60529,-0.79264 1.3547,-1.49882 0.76382,-0.70617 1.65735,-1.22499 0.90794,-0.53324 1.93117,-0.66294 1.15293,-0.0576 2.10411,0.49 0.40353,0.23058 0.79264,0.6197 0.40353,0.37471 0.735,0.98 0.34588,0.59088 0.57647,1.42676 0.23059,0.82147 0.31706,1.94558 z m 19.68641,1.12411 q 0,1.81588 -0.60529,3.35793 -0.6053,1.54206 -1.65735,2.68058 -1.05206,1.13853 -2.4644,1.77264 -1.41235,0.64853 -3.01205,0.64853 -1.5997,0 -2.99764,-0.60529 -1.39794,-0.60529 -2.44999,-1.715 -1.03765,-1.12411 -1.64294,-2.68058 -0.60529,-1.55646 -0.60529,-3.45881 0,-1.91676 0.60529,-3.47322 0.60529,-1.57088 1.64294,-2.68058 1.05205,-1.1097 2.44999,-1.715 1.39794,-0.60529 2.99764,-0.60529 1.5997,0 3.01205,0.64853 1.41234,0.63411 2.4644,1.77264 1.05205,1.12411 1.65735,2.68058 0.60529,1.54205 0.60529,3.37234 z m -3.04087,-0.0288 q 0,-1.03765 -0.25941,-2.0897 -0.25942,-1.06647 -0.82147,-1.90235 -0.56206,-0.85029 -1.45559,-1.38352 -0.89352,-0.53324 -2.16175,-0.53324 -1.225,0 -2.10411,0.53324 -0.87912,0.53323 -1.44118,1.38352 -0.56205,0.83588 -0.82146,1.90235 -0.25942,1.05205 -0.25942,2.0897 0,1.03764 0.27383,2.0897 0.28823,1.05205 0.8647,1.90234 0.57647,0.83588 1.44117,1.36912 0.87912,0.53323 2.04647,0.53323 1.22499,0 2.10411,-0.53323 0.89352,-0.53324 1.46999,-1.36912 0.57647,-0.85029 0.85029,-1.90234 0.27383,-1.05206 0.27383,-2.0897 z m 17.45259,7.92644 0.20176,-2.03205 q -1.75823,1.12412 -3.45881,1.62853 -1.68617,0.50441 -3.15616,0.50441 -1.03765,0 -2.01765,-0.27383 -0.96558,-0.25941 -1.71499,-0.80705 -0.735,-0.56206 -1.19617,-1.41235 -0.44677,-0.86471 -0.44677,-2.03205 0,-1.16735 0.34589,-2.0897 0.34588,-0.92235 0.95117,-1.62853 0.60529,-0.70617 1.42676,-1.21058 0.82147,-0.50441 1.75823,-0.82147 0.95117,-0.31706 1.98882,-0.46117 1.03764,-0.15853 2.06087,-0.15853 0.95118,0 1.77264,0.072 0.82147,0.0721 1.45559,0.18736 -0.18736,-0.72059 -0.46118,-1.41235 -0.27382,-0.70618 -0.70617,-1.25382 -0.41794,-0.56206 -1.03765,-0.90794 -0.6197,-0.34588 -1.4844,-0.34588 -0.56206,0 -1.28265,0.17294 -0.72058,0.15853 -1.58529,0.59088 -0.8647,0.43235 -1.88793,1.19617 -1.02323,0.74941 -2.19058,1.93117 l -1.74382,-2.11852 q 1.38353,-1.29705 2.65176,-2.11852 1.26823,-0.82147 2.37793,-1.28264 1.12411,-0.47559 2.07529,-0.64853 0.96558,-0.17294 1.7294,-0.17294 1.32588,0 2.36353,0.46117 1.03764,0.44677 1.81587,1.23941 0.79265,0.77823 1.32588,1.8447 0.54765,1.05206 0.89353,2.27705 0.34588,1.21059 0.49,2.52205 0.15852,1.31147 0.15852,2.60852 0,1.38353 -0.15852,2.96882 -0.15853,1.58529 -0.49,3.45881 z m 0.40353,-5.24586 q 0.0288,-0.72059 0.0432,-1.42676 0.0144,-0.70618 -0.0721,-1.47 -0.70617,-0.21617 -1.4844,-0.34588 -0.77824,-0.1297 -1.55647,-0.1297 -1.29705,0 -2.52205,0.30264 -1.21058,0.30265 -2.0897,0.87912 -0.87911,0.57647 -1.32588,1.41235 -0.43235,0.83587 -0.17294,1.90234 0.20177,0.8647 0.77824,1.21059 0.59088,0.34588 1.41234,0.34588 0.83588,0 1.80147,-0.27383 0.98,-0.28823 1.93117,-0.69176 0.96558,-0.41794 1.81588,-0.87911 0.85029,-0.46118 1.44117,-0.83588 z m 22.02109,-16.32848 -0.0576,21.25729 h -2.9544 l 0.0288,-1.83029 q -0.43235,0.40353 -0.89353,0.70617 -0.44676,0.30265 -0.90794,0.53324 -0.44676,0.21617 -0.87911,0.36029 -0.43235,0.15853 -0.82147,0.25941 -0.90794,0.23059 -1.80146,0.25941 -1.67176,0 -3.11293,-0.59088 -1.44118,-0.57647 -2.50764,-1.65735 -1.06647,-1.09529 -1.68617,-2.65175 -0.6053,-1.55647 -0.6053,-3.50205 0,-1.96 0.67735,-3.48764 0.67735,-1.54205 1.77265,-2.59411 1.1097,-1.05205 2.49322,-1.5997 1.39794,-0.56206 2.81029,-0.56206 0.96558,0.0144 1.95999,0.25942 0.85029,0.20176 1.83029,0.67735 0.98,0.46117 1.83029,1.34029 l 0.11529,-7.3788 z m -8.28673,18.89376 q 0.89352,0 1.74381,-0.28823 0.8503,-0.28824 1.55647,-0.80706 0.72059,-0.53323 1.25382,-1.26823 0.53323,-0.735 0.80706,-1.61411 l 0.0288,-3.0697 q -0.25941,-0.92235 -0.80706,-1.68617 -0.54764,-0.77823 -1.28264,-1.32588 -0.735,-0.54764 -1.61411,-0.85029 -0.86471,-0.30264 -1.77264,-0.30264 -1.06647,0 -1.96,0.44676 -0.89352,0.43235 -1.54205,1.19617 -0.64853,0.76382 -1.00882,1.80147 -0.36029,1.03764 -0.36029,2.24823 0,1.21058 0.36029,2.2194 0.3747,1.00882 1.02323,1.74382 0.66294,0.735 1.57088,1.15294 0.92235,0.40352 2.00323,0.40352 z m 31.73461,-12.78319 -2.86793,15.06025 -4.28028,0.11529 -2.53647,-10.59261 -3.48763,10.0882 -4.30911,0.33147 -2.79587,-14.94495 2.96881,-0.23059 2.19058,12.10584 4.28029,-12.10584 2.76705,0.17294 2.92557,12.24996 1.94559,-12.36525 z m 14.22436,15.46377 0.20177,-2.03205 q -1.75823,1.12412 -3.45882,1.62853 -1.68617,0.50441 -3.15616,0.50441 -1.03765,0 -2.01764,-0.27383 -0.96559,-0.25941 -1.715,-0.80705 -0.73499,-0.56206 -1.19617,-1.41235 -0.44676,-0.86471 -0.44676,-2.03205 0,-1.16735 0.34588,-2.0897 0.34588,-0.92235 0.95117,-1.62853 0.60529,-0.70617 1.42676,-1.21058 0.82147,-0.50441 1.75823,-0.82147 0.95117,-0.31706 1.98882,-0.46117 1.03764,-0.15853 2.06087,-0.15853 0.95118,0 1.77265,0.072 0.82146,0.0721 1.45558,0.18736 -0.18735,-0.72059 -0.46118,-1.41235 -0.27382,-0.70618 -0.70617,-1.25382 -0.41794,-0.56206 -1.03764,-0.90794 -0.61971,-0.34588 -1.48441,-0.34588 -0.56206,0 -1.28264,0.17294 -0.72059,0.15853 -1.58529,0.59088 -0.86471,0.43235 -1.88794,1.19617 -1.02323,0.74941 -2.19058,1.93117 l -1.74382,-2.11852 q 1.38353,-1.29705 2.65176,-2.11852 1.26823,-0.82147 2.37793,-1.28264 1.12412,-0.47559 2.07529,-0.64853 0.96559,-0.17294 1.72941,-0.17294 1.32587,0 2.36352,0.46117 1.03764,0.44677 1.81588,1.23941 0.79264,0.77823 1.32587,1.8447 0.54765,1.05206 0.89353,2.27705 0.34588,1.21059 0.49,2.52205 0.15853,1.31147 0.15853,2.60852 0,1.38353 -0.15853,2.96882 -0.15853,1.58529 -0.49,3.45881 z m 0.40353,-5.24586 q 0.0288,-0.72059 0.0432,-1.42676 0.0144,-0.70618 -0.0721,-1.47 -0.70618,-0.21617 -1.48441,-0.34588 -0.77823,-0.1297 -1.55647,-0.1297 -1.29705,0 -2.52205,0.30264 -1.21058,0.30265 -2.0897,0.87912 -0.87911,0.57647 -1.32587,1.41235 -0.43235,0.83587 -0.17294,1.90234 0.20176,0.8647 0.77823,1.21059 0.59088,0.34588 1.41235,0.34588 0.83588,0 1.80146,-0.27383 0.98,-0.28823 1.93117,-0.69176 0.96559,-0.41794 1.81588,-0.87911 0.85029,-0.46118 1.44117,-0.83588 z m 19.94582,-10.24673 q -0.76383,2.24822 -1.39794,4.10734 -0.61971,1.85911 -1.12412,3.35793 -0.50441,1.49881 -0.90793,2.66616 -0.40353,1.16735 -0.70618,2.04647 -0.70617,2.06087 -1.1097,3.17058 -0.28823,0.85029 -0.67735,1.80146 -0.37471,0.96559 -0.93676,1.91676 -0.54765,0.95117 -1.29706,1.83029 -0.735,0.89352 -1.7294,1.58529 -0.98,0.70617 -2.24823,1.15293 -1.26823,0.44677 -2.85352,0.51883 l -0.56206,-2.81029 q 0.89353,0.11529 1.67176,-0.0577 0.79264,-0.15852 1.45558,-0.51882 0.67735,-0.34588 1.23941,-0.85029 0.57647,-0.50441 1.03765,-1.06647 0.47558,-0.56205 0.83587,-1.15293 0.3603,-0.57647 0.63412,-1.08088 l -6.08174,-16.14113 3.30028,-0.44676 4.25146,12.69672 q 0.34588,-1.06646 0.80705,-2.50764 0.47559,-1.45558 0.99441,-3.12734 0.53323,-1.67176 1.09529,-3.48763 0.56206,-1.83029 1.09529,-3.63176 z"
         id="text2"
         aria-label="along Broadway" />
    </g>
  </g>
</svg>
