<?xml version="1.0" encoding="utf-8"?>
<!-- Generator: Adobe Illustrator 18.0.0, SVG Export Plug-In . SVG Version: 6.00 Build 0)  -->
<!DOCTYPE svg PUBLIC "-//W3C//DTD SVG 1.1//EN" "http://www.w3.org/Graphics/SVG/1.1/DTD/svg11.dtd">
<svg version="1.1" id="Layer_1" xmlns="http://www.w3.org/2000/svg" xmlns:xlink="http://www.w3.org/1999/xlink" x="0px" y="0px"
	 viewBox="0 0 349 136" enable-background="new 0 0 349 136" xml:space="preserve">
<g>
	<g>
		<path d="M107.2,41.8C104,31.5,96.8,25.2,86.8,22c-15.5-5-30.7-3.5-45.6,2.4c-13.6,5.4-22.5,15.3-26.5,29.4
			c-4,14.3,0.8,24.6,14.4,31c6.7,3.1,13.8,4.7,21.3,6.1c3.3,0.5,6.9,1.3,10.4,2.4c4.6,1.4,6.9,4.2,6.9,8.1c0,3.4-2.4,6.5-6.4,8
			c-5.8,2.1-11.8,2.3-17.7,1c-6-1.3-10.4-4.7-11.9-10.8c-0.4-1.7-1.2-1.9-2.7-1.6c-9,1.7-18,3.4-27,5c-1.6,0.3-2.1,0.7-1.9,2.5
			c2,13.7,9.8,22.8,22.9,26.8c18.3,5.7,36.4,3.8,53.6-4.4c15.1-7.2,24.6-18.8,25.8-36c0.7-10.3-4.3-19-13.6-23.5
			c-5.9-2.9-12.3-4.4-18.7-5.8c-5.8-1.2-11.7-1.9-17.2-3.9c-2.9-1.1-5.3-2.7-5.5-6c-0.1-3.5,1.4-6.3,4.4-8.1
			c2.8-1.7,5.9-2.4,9.1-2.5c8-0.2,15,1.4,18.2,9.8c0.6,1.6,1.5,0.9,2.4,0.6c8-2.4,15.9-4.9,23.9-7.1
			C107.8,44.6,107.8,43.7,107.2,41.8z M179.7,78.7c3.5-3.2,6.9-6.5,10.4-9.8c5.8-5.5,11.6-11,17.8-16.9c-8.4,0.1-16.1,0.2-23.8,0.3
			c-0.8,0-1.4,0.3-2,0.9c-9.1,8.9-18.7,17.4-27.5,26.7c-2.5,2.7-5.1,5.4-8.2,8.7c0.3-1.8,0.5-2.7,0.7-3.6c3.6-19.7,7.2-39.5,11-59.2
			c0.5-2.5-0.4-2.7-2.4-2.7c-8.2,0.2-16.5,0.4-24.7,0.3c-2.4,0-3.1,0.5-3.6,2.9c-6.5,35.6-13.1,71.2-19.7,106.8
			c-0.2,0.9-0.3,1.8-0.5,2.8c9.7-0.1,19.2-0.3,28.6-0.3c1.6,0,2-0.6,2.3-2c1.1-6.3,2.3-12.6,3.5-18.9c0.2-1.1,0.3-2.1,1.2-3
			c3.9-3.9,7.7-7.9,11.5-11.8c0.8,0.7,0.8,1.7,1.1,2.6c2.9,10.1,5.9,20.3,8.7,30.5c0.5,1.9,1.3,2.5,3.2,2.4
			c8.8-0.2,17.6-0.3,26.4-0.3c2.5,0,3.1-0.4,2.2-3c-5.7-16.7-11.3-33.6-17-50.3C178.4,80.4,178.6,79.6,179.7,78.7z M254.4,0
			c-8.1,0.2-16.2,0.3-24.3,0.3c-1.7,0-2.1,0.6-2.4,2.1c-4.3,23.8-8.7,47.6-13.2,71.3c-0.4,2,0,2.6,2.1,2.6
			c7.7-0.2,15.4-0.3,23.1-0.3c1.9,0,2.5-0.5,2.8-2.3c2.1-11.9,4.3-23.7,6.5-35.5c2.2-12,4.4-24,6.6-36C255.7,1.1,256.5,0,254.4,0z
			 M238.5,86.1c-8.2,0.1-16.4,0.3-24.6,0.4c-1.3,0-1.8,0.4-2,1.6c-0.8,4.8-1.6,9.5-2.6,14.3c-0.4,1.9,0.3,2.4,2.1,2.3
			c8-0.1,15.9-0.2,23.9-0.3c1.2,0,1.7-0.5,1.9-1.6c0.4-2.5,0.9-5,1.4-7.5c0,0,0,0,0,0c0.5-2.5,0.9-5,1.4-7.5
			C240,86.8,239.9,86.1,238.5,86.1z M346.9,38.3c-1.9-5.8-5.4-10.3-11.1-13c-12.2-5.7-29.3-0.8-36.4,10.5c-0.2,0.3-0.4,0.6-0.6,1
			c-0.7,1.1-1.9,0.8-2.8,0.6c-1-0.2-0.3-1.3-0.2-1.9c0.4-2.7,0.8-5.3,1.5-7.9c0.6-2.1-0.2-2.4-2.1-2.4c-7.6,0.2-15.1,0.3-22.7,0.2
			c-2.2,0-3.1,0.6-3.5,2.9c-6.3,34.8-12.8,69.6-19.2,104.4c-0.2,0.9-0.3,1.8-0.5,2.9c9.5-0.1,18.5-0.2,27.6-0.2c2.4,0,3.1-0.8,3.4-3
			c2-11.3,4.1-22.7,6.2-34c0.1-0.6-0.2-1.5,0.8-1.9c0.3,0.4,0.5,0.8,0.7,1.2c2.7,6.2,7.2,10.1,14,11.2c13.9,2.4,24.4-3.2,32.9-13.6
			c6.9-8.4,10.4-18.4,12.5-28.8C349.3,57.1,350,47.6,346.9,38.3z M316.7,58.8c-1,8.3-2.5,16.5-5.9,24.2c-1.9,4.4-5.1,7.5-10.1,8.3
			c-6.2,1-10.1-2.2-10.5-8.5c-0.2-2.9,0.4-5.7,0.8-8.6c0.5-3,1.1-6,1.6-9c0.1,0,0.1,0,0.2,0c0.8-4.6,1.6-9.1,2.6-13.7
			c1.1-5,5.9-9.2,11-9.9c4.6-0.6,8.3,2,9.8,6.9C317.2,51.9,317.1,55.4,316.7,58.8z"/>
	</g>
</g>
</svg>
