<?xml version="1.0" encoding="utf-8"?>
<!-- Generator: Adobe Illustrator 18.0.0, SVG Export Plug-In . SVG Version: 6.00 Build 0)  -->
<!DOCTYPE svg PUBLIC "-//W3C//DTD SVG 1.1//EN" "http://www.w3.org/Graphics/SVG/1.1/DTD/svg11.dtd">
<svg version="1.1" id="Layer_1" xmlns="http://www.w3.org/2000/svg" xmlns:xlink="http://www.w3.org/1999/xlink" x="0px" y="0px"
	 viewBox="0 0 506 136" enable-background="new 0 0 506 136" xml:space="preserve">
<g>
	<g>
		<path d="M101.1,21.4C95.5,15,88.9,9.8,81.4,5.9C73.8,1.9,65.7,0,57.1,0L2.5,0.2L0,3.5l0.4,127.8l2.5,3.3l56.5-0.2
			c5.4,0,10.7-1,15.8-2.9c5.1-1.9,9.9-4.5,14.3-7.8c4.4-3.3,8.5-7.1,12.1-11.5c3.7-4.4,6.8-9,9.4-14c2.6-5,4.7-10.1,6.1-15.4
			c1.5-5.3,2.2-10.4,2.2-15.6c0-8.2-1.7-16.3-4.9-24.3C111.2,34.9,106.8,27.7,101.1,21.4z M106.4,70.5l0.6,0.8l-0.4,0.6l0.4,0.8
			l-0.6,0.6l-0.4-0.6l0.4-0.8l-0.4-0.6L106.4,70.5z M105.8,54l-1.4-1.3C105.3,52.6,105.8,53.1,105.8,54z M104,48l0.4,0.2l-0.6,0.6
			l-0.2-0.4L104,48z M103.9,68l0.6,1.3l-0.6,0.6l-0.8-1.3L103.9,68z M101.9,43l1.2,1.9l-0.6,0.4l-1.4-1.9L101.9,43z M101.1,40.6l0,1
			l-0.6,0l0-1L101.1,40.6z M98,35.2l1.4,2.9c-0.5,0-0.9-0.3-1.1-0.9c-0.2-0.6-0.3-1.1-0.3-1.4V35.2z M99.2,45l-0.4-0.4l0.2-0.2h0.2
			L99.2,45z M98,42.5l0.4,0.6L98,43.4l-0.6-0.4L98,42.5z M97.2,41.5L97,41.9l-0.4-0.4l0.4-0.2L97.2,41.5z M96.1,34.8l0-1l1.2,1
			L96.1,34.8z M94.1,31l-2.3,1.4l2.3-2.9l2.7,1.5l-1.2,1.2L94.1,31z M94.9,43.1l-1.7-0.6l1,0l0.2-0.2C94.7,42.3,94.9,42.6,94.9,43.1
			z M96.1,37.7l0.4,0.8L96.1,39l-0.8-0.6L96.1,37.7z M95.9,47.3l0.2,0c0,0.6-0.3,1-1,1L95.9,47.3z M96.1,41.5l-0.8-0.4l0.8-0.6
			l0.4,0.6L96.1,41.5z M96.6,27.5l0.4,0.8l-0.4,0.6l-0.4-0.6L96.6,27.5z M91.2,19.9l3.5,0.8l-3.5,0.6l-0.4-0.6L91.2,19.9z M88.9,25
			l0.8,1.1l-0.8,1.3l-0.6-1.3L88.9,25z M89.4,28.4c1.1-0.7,2.2-1.1,3.4-1.1l0,1.2c-0.9,0-1.7,0.6-2.3,1.7c-0.6,1.2-1.2,2.1-1.5,2.7
			l-0.6-1.2l1-0.8l-1-1L87,31C87.5,30,88.3,29.1,89.4,28.4z M88.9,35.2c-0.8,0-1.3-0.1-1.5-0.4l1.5,0L88.9,35.2z M87,33.9l-0.4,0.4
			l-0.2-0.4l0.4-0.2L87,33.9z M86.9,27l-0.6,0.6l-1-0.6l1-0.8L86.9,27z M86.3,22.4v0.8l-1,0L86.3,22.4z M85.7,30.8
			c0.2,1,0.3,1.9,0.3,2.5c-0.9,0-1.6-0.3-1.9-1c-0.4-0.7-0.6-1.4-0.6-2.2l1-1.2C85.1,29.2,85.5,29.8,85.7,30.8z M84.8,20.5l-0.4-0.6
			l0.4,0L84.8,20.5z M84.8,16c-0.3,0.9-0.7,1.5-1.3,1.9L84.8,16z M83.4,25c0.5-0.1,0.9-0.1,1.2-0.1l-1.7,1.3l-0.4-0.6
			C82.6,25.3,82.9,25,83.4,25z M82.5,27.6l0.2,0.4l-0.4,0.4l-0.2-0.4L82.5,27.6z M80.9,19.3l0,1.2l-0.4-0.6L80.9,19.3z M80.7,23.7
			h0.2l0.2,0.4l-0.4,0.4l-0.4-0.4L80.7,23.7z M81.1,29.9l-0.4,0.4l-0.4-0.4l0.4-0.4h0.2L81.1,29.9z M79.6,28.9l0.4,0.2l-0.4,0.4
			l-0.2-0.4L79.6,28.9z M79,28.1l-0.2,0.4l-0.4-0.4l0.4-0.2L79,28.1z M77.6,16.1l1,0l0,0.6l-1,0V16.1z M78.4,27.6l-0.8,0.6l-0.4-0.6
			l0.4-0.6L78.4,27.6z M77,12.8l0.4,0.8L77,14.1l-0.4-0.6L77,12.8z M77.1,24.3l-0.2-0.4l0.2-0.2L77.1,24.3z M76.7,16.6l0,1.3
			l-0.8-0.6L76.7,16.6z M74.5,17.4L74.1,17l0.4-0.4L74.5,17.4z M74.5,13.6l0,0.6l-0.8,0l0-0.6L74.5,13.6z M74.1,21.3l-1.5,1.5l0-1.5
			L74.1,21.3z M73.8,24.3l-1.2,0v-0.6C73,23.7,73.4,23.9,73.8,24.3z M70.5,15c0.5,0.1,1,0.4,1.4,1.1l-1.2,0.6l-1.9-1.9
			C69.4,14.9,69.9,15,70.5,15z M69.3,19.3l-0.6,0l0-1.3L69.3,19.3z M68.7,10.9l0,0.8l-0.4-0.4L68.7,10.9z M67.4,13.2l0.6,0.2v0.2
			L67.4,14l-0.6-0.4L67.4,13.2z M59.6,16.7l5.4,0.8L59.6,18l-0.4-0.6L59.6,16.7z M62.9,18.6l0.6-0.6v0.6L62.9,18.6z M62.9,22.4
			c0,0.5-0.3,0.8-0.8,0.8c0-0.1,0.2-0.4,0.6-0.8L62.9,22.4z M61.4,21.3L61,21.9l-0.6-0.6l0.6-0.8L61.4,21.3z M58.3,14.2l0.6,0.8
			l-0.6,0.6L57.9,15L58.3,14.2z M56.9,13.6l0.2,0l0,0.6l-0.4-0.4L56.9,13.6z M54.4,7.9L55,8.5L54.4,9L54,8.5L54.4,7.9z M52.1,19.2
			c0.4,0,0.7,0.2,0.9,0.7c0.2,0.4,0.3,0.8,0.3,1.1c-0.3-0.1-0.6-0.3-1-0.4c-0.4-0.1-0.7-0.3-1-0.6L52.1,19.2z M50.5,13.7l0,1.2
			l-0.8,0C49.8,14,50,13.7,50.5,13.7z M49.4,18.1l0,1.3l-0.8,0l0-1.3H49.4z M47.4,10.4l0.4,0.8l-0.4,0.6l-0.6-0.6L47.4,10.4z
			 M43.6,14.3L44,15l-0.4,0.6L43,15L43.6,14.3z M41.7,20.6L40.9,20l0.8,0L41.7,20.6z M41.6,9.8l-0.8,0.6c-0.1-0.4-0.3-0.8-0.4-1.2
			c-0.1-0.4-0.2-0.9-0.2-1.2l0-0.8L41.6,9.8z M39.7,11.8l0,1.3c-0.3,0-0.5-0.1-0.8-0.2c-0.3-0.1-0.5-0.3-0.6-0.6L39.7,11.8z
			 M38.4,19.5l0.4,0.6l-0.4,0.6L38,20L38.4,19.5z M36.4,11L36,11.4l0-0.6L36.4,11z M36.4,17.2c-0.1,0.4,0.1,0.7,0.6,1l-1.2,1l0-2.9
			C36.3,16.5,36.5,16.8,36.4,17.2z M33.6,9.5c0.2,0.8,0.3,1.3,0.3,1.7c-0.5,0-0.9-0.4-1.1-1.1c-0.2-0.8-0.3-1.3-0.3-1.7
			C33,8.3,33.4,8.7,33.6,9.5z M31.8,15.6l2.9,0.6l-2.9,0.6l-0.4-0.6L31.8,15.6z M33.7,19.5l-0.6,0v-0.8l0.6,0L33.7,19.5z M30,12
			c0.1-0.4,0.3-0.7,0.6-1l0,1.9l-1,0C29.8,12.7,29.9,12.4,30,12z M28.6,8L29,8.5l-0.4,0.6l-0.8-0.6L28.6,8z M27.5,15.5l1.2,0.8
			L27.3,17l0-1.3L27.5,15.5z M25.8,11.8l1.6,1.3l-0.6,1.2L23.8,13L25.8,11.8z M22,49.4l-0.4-0.4l0.4-0.6l0.8,0.6L22,49.4z M23,51
			l0.4,0.8L23,52.3l-0.8-0.6L23,51z M22.5,78.6c-0.8,0-1.4-0.4-1.8-1.1C20.2,76.7,20,76,20,75.4l0.8,0c0,0.6,0.3,1.2,0.9,1.6
			C22.2,77.4,22.5,78,22.5,78.6z M23,119.1l-0.8,0.6l-0.4-0.6l0.4-0.8L23,119.1z M22.7,120.2c0.2-0.6,0.5-0.9,1.1-1.1
			c0,1-0.5,1.9-1.5,2.5C22.4,121.2,22.5,120.8,22.7,120.2z M23.6,14.3c0,0.8-0.3,1.2-0.8,1.3l0-1.3L23.6,14.3z M22.9,40.8l0.4,0.6
			L23,41.8l-0.8-0.4L22.9,40.8z M23,47.5l-1.3,1l0.4-1.3L23,47.5z M22,38.9l0,0.4h-0.4l0-0.4L22,38.9z M21.3,22h0.2l0,0.6l-0.4-0.4
			L21.3,22z M20.2,72.1l-0.4-0.6l0.4-0.8l0.8,0.8L20.2,72.1z M19.6,74.6L19.2,74l0.4-0.6L20,74L19.6,74.6z M19.6,81.5v0.2l-0.2,0.4
			l-0.2-0.4L19.6,81.5z M19.1,57.1c-0.1-0.4-0.1-0.7,0-1c0.1,0.3,0.3,0.6,0.4,1c0.1,0.4,0.1,0.7,0,1C19.4,57.8,19.3,57.5,19.1,57.1z
			 M20,37.4l0,0.6l-0.6-0.6H20z M20.1,50.4l0.4,0.6l-1,1.3l-0.4-1.1L20.1,50.4z M18.8,12.4l0.2,0V13l-0.4-0.4L18.8,12.4z M19.1,47.2
			l0,1.3l-0.8-0.6L19.1,47.2z M11.7,42.8l-1.3,0l0-1.3h0.2C11.3,41.4,11.7,41.9,11.7,42.8z M11.3,24.5c-0.1-0.6-0.1-1.3,0-1.9
			c0.1-0.6,0.2-1.3,0.4-1.9L11.3,24.5z M13.3,43.7l0,1l-1-1L13.3,43.7z M12.5,26.6l0.8-0.8l0,1.3L12.5,26.6z M14.3,43.3l0.8,0.8
			l-0.8,0.6l-0.4-0.6L14.3,43.3z M14.2,33.2l1,0.4l-1,0L14.2,33.2z M16,56.8l-0.4,0.6l-0.4-0.6l0.4-0.6L16,56.8z M15.8,55.6l0.4-0.8
			l0.8,0.8l-0.8,0.6L15.8,55.6z M15,52.1c-0.2-0.1-0.4-0.2-0.7-0.5l1.4,0l0,0.8C15.4,52.2,15.2,52.1,15,52.1z M13.7,38l-0.4-0.4
			l0.4-0.6l0.4,0.6L13.7,38z M13.7,46.6h-0.4l0-1l0.4,0L13.7,46.6z M12.3,48.5l1.7,0.8L11.4,51L12.3,48.5z M11.2,62h0.2l0,0.6
			L11,62.2L11.2,62z M11.4,57.5l0.4-0.8l0.4,0.8l-0.4,0.6L11.4,57.5z M11.9,92.1l0.4,0.6l-0.4,0.6l-0.4-0.6L11.9,92.1z M11.8,73.5
			l0.6,0v0.6L11.8,73.5z M11.8,65l0-1.9l1,0c0,0.4,0,0.8-0.1,1.2C12.6,64.8,12.3,65,11.8,65z M12.4,60l0-0.8l1,0l0,0.8L12.4,60z
			 M11.4,54.3l1-0.8l1.7,2.1L11.4,54.3z M13.7,60.6c0.5,0,0.9,0.3,1.3,1c0.3,0.6,0.6,1.2,0.7,1.5l-0.2,0.2l-1.7-2.1V60.6z M16.3,85
			l-0.4,0.8l0.4,0.6l-1.7-0.6L16.3,85z M16.3,72.1l-0.6,0l0-1.3l1.5,0L16.3,72.1z M16.2,57.3l1.4,1.3l-1.4,0L16.2,57.3z M17.6,55.4
			l-0.4-0.6l0.4-0.6l0.4,0.6L17.6,55.4z M17.2,50.4l0-1.3l1.4,0C18.5,50,18.1,50.4,17.2,50.4z M14.4,40.6l0.8-0.8l3.1,1.5L14.4,40.6
			z M15.8,36.2l0.4-0.8l0.8,0.8L16.2,37L15.8,36.2z M17.5,31.2l-0.2-0.4l0.2-0.6L17.5,31.2z M17.5,25.3l-0.4,0.6l0-0.6L17.5,25.3z
			 M15.5,13.8l0,0.6c-0.5,0-1-0.2-1.4-0.6L15.5,13.8z M15.2,22l-1,0v-0.6l1,0L15.2,22z M13.6,31.1l1.2-1.3l2.3,0l-3.5,1.5V31.1z
			 M13.6,18.8l0,1.3l-0.4-0.6L13.6,18.8z M12.2,18.8l-0.4-0.6l0.4-0.6l0.8,0.6L12.2,18.8z M11.7,17.4c0-0.4,0.2-0.8,0.6-1.2l0.4,0.4
			l-1,1V17.4z M11.4,10.9l0.2,0.2l-0.2,0.4l-0.4-0.4L11.4,10.9z M11.3,35.5V36l-1,0L11.3,35.5z M9.2,20.7l0.4,0.8L9.2,22l-0.6-0.6
			L9.2,20.7z M8.5,124l0.2-0.4l0.4,0.4H8.5z M9.3,69.6l-0.6-0.6l0.6-0.8l0.4,0.8L9.3,69.6z M9.5,56.2l0.4-0.8l0.4,0.8l-0.4,0.6
			L9.5,56.2z M10.1,123v-0.6l2.5-0.8l1,1.9L10.1,123z M13.3,105l-0.2-0.4l0.4-0.4l0.2,0.4L13.3,105z M13.9,107c-0.3-1.2-0.3-2,0-2.2
			l0.4,4.1C14.2,108.4,14.1,107.8,13.9,107z M14.5,109.6l1.4,0.6l-1.4,0L14.5,109.6z M15.5,122.2l0.4-0.2v0.2l-0.2,0.4L15.5,122.2z
			 M15.7,123.6l1.9-1.9c0-0.1,0-0.2-0.1-0.3c-0.1-0.1-0.1-0.2-0.1-0.3l0.4,0.8L15.7,123.6z M17.8,117.8l-0.4-0.6l0.4-0.8l0.4,0.8
			L17.8,117.8z M17.6,69.2l-0.4-0.4l0.4-0.2l0.6,0.2C18.2,69.1,18,69.2,17.6,69.2z M19.2,72.1l0,1.3l-1-0.8L19.2,72.1z M19.2,88.2
			l0,1.2c-0.3-0.1-0.5-0.3-0.8-0.6C18.7,88.6,19,88.4,19.2,88.2z M19.3,104.7l0,1.5l-0.8-0.8L19.3,104.7z M18.6,124.3l0.4-0.8
			l-0.4-0.6l0.8-0.8l0,2.7L18.6,124.3z M19.7,114c0,0.1-0.1,0.2-0.2,0.2c-0.1,0-0.2-0.1-0.2-0.2c0-0.1,0.1-0.2,0.4-0.2V114z
			 M20.3,124.1l-0.4-0.6l0.4-0.6l0.8,0.6L20.3,124.1z M20.3,116.4l-0.6-1.1l1.6,0L20.3,116.4z M22.2,116.6c0,0.8-0.3,1.3-1,1.7
			L22.2,116.6z M21.9,125.5l-0.6-1l0-0.4l1,0.8L21.9,125.5z M22.3,123l1-0.8l1.4,2.1C23.5,124.1,22.8,123.6,22.3,123z M24.8,18.7
			l0.8,0c0,0.8-0.3,1.2-0.8,1.3L24.8,18.7z M25.7,113.9l0.4,0.4l-0.4,1l-0.6-1L25.7,113.9z M27.1,118.3l-1.9,1.3
			c0.1-0.6,0.4-1.2,1-1.8c0.5-0.6,1-1.1,1.5-1.4l0.4,0.8l1.2-1l-0.2,1.5l1,1.3L27.1,118.3z M31,123.5l-1-1l1.5-2.3l0.8,1.5L31,123.5
			z M33.5,120.2l-0.4-0.6l0.4-0.6l0.4,0.6L33.5,120.2z M33.1,117.2l0.4-0.8l0.4,0.8l-0.4,0.6L33.1,117.2z M33.5,118.3l0.6-0.6l0,0.6
			L33.5,118.3z M35,121.6l0.4-0.6l0.6,0.6l-0.6,0.6L35,121.6z M34.8,116.4l1.2-1.5c0.6,0,1,0.3,1.2,0.9c0.1,0.6,0.2,1.1,0.2,1.4
			l-1.2-1.3L34.8,116.4z M36.2,125.4l-0.6-0.6l0.6-0.8l0.4,0.8L36.2,125.4z M38.1,117.7c0.3,0.5,0.5,1,0.9,1.5
			c0.3,0.5,0.5,1.1,0.5,1.7l-2.7,0L38.1,117.7z M39.1,124.1l-0.2-0.2l0.4-0.4l0.4,0.4L39.1,124.1z M40,118.3h0.6l0,0.8L40,118.3z
			 M40.8,115.8l0.4-0.6l0.6,0.6l-0.6,0.6L40.8,115.8z M42,121l-0.4-0.4l0.4-0.4V121z M45.1,127.3l-0.4-0.4l0.2-0.2h0.2l0.4,0.4
			L45.1,127.3z M46.4,123.7l-0.6-0.8l1.4,0l1.2-0.8L46.4,123.7z M48.2,115.8l-0.2-0.6l0.4-1l0.2,0.8L48.2,115.8z M49,124l0.8-0.6
			l0.6,0.6L49,124z M48.9,119v-0.8l1.4,0C49.8,118.8,49.3,119,48.9,119z M51.9,123.4l0.4-0.6l0.4,0.6l-0.4,0.6L51.9,123.4z
			 M52.8,126.7l-0.4-0.6l0.4-0.8l0.6,0.8L52.8,126.7z M52.8,119.6l0.8-0.6l0.6,0.6L52.8,119.6z M53.6,117.1l0.6,1.1l-0.6-0.6
			L53.6,117.1z M54.8,122.9l-0.6,0l0.4-0.4l0.2,0.2V122.9z M54.3,113.1l0.4-0.8l0.6,0.8l-0.6,0.8L54.3,113.1z M55.5,122.1l-0.6-0.6
			l0.6-0.6l0.4,0.6L55.5,122.1z M56.1,126.7c0-0.6,0.2-1.1,0.6-1.3l0.2,0.2L56.1,126.7z M59,124.6l0.2-0.4l-0.6-0.8l-0.4,0.6l-1-1.7
			l1.4-1.3l1.4,2.5L59,124.6z M57.4,118.2l0.6,0c0,0.5-0.2,1-0.6,1.3L57.4,118.2z M60,125.3l-0.4-0.6L60,124l0.4,0.8L60,125.3z
			 M61,125.5l-0.4-0.2l0.4-0.2l0.4,0.2C61.2,125.5,61.1,125.5,61,125.5z M60.6,122.1l0.8-1.2l0.6,1.1L60.6,122.1z M60.5,119l0.4-0.4
			l0.4,0.4L60.5,119z M62.3,122.8l1,0v0.6l1.2,0l-1.2,2.5L62.3,122.8z M64.4,125.3l-0.2-0.6h0.2l0.4,0.4L64.4,125.3z M65.4,119
			l0.4-0.8l0.4,0.8l-0.4,0.6L65.4,119z M65.9,111.9l0.4-0.6l0.8,0.6l0.4,0.8l-0.4,0.6l-0.6-0.6l0-0.2L65.9,111.9z M66.7,121.1
			l-0.6,0.6l-0.4-0.2L66.7,121.1z M66.4,125.3l-0.6-0.6l1.3-1.3l0.6,0L66.4,125.3z M67.7,114.2v-0.4l0.6,0l0,0.4L67.7,114.2z
			 M69.7,125.3l-0.4-0.6l0.4-0.8l0.4,0.8L69.7,125.3z M70.2,125.3l0.8-0.6l0,0.6L70.2,125.3z M69.3,121.5l-0.8-0.6h0.2l2.9-1.4
			L69.3,121.5z M69,111.9l1.2-1.5l0,1.5L69,111.9z M72.1,109.9l-0.4-0.8l0.4-0.8l0.6,0.8L72.1,109.9z M72.5,116.3l-1,0l0-1.2
			C72.2,115.4,72.5,115.8,72.5,116.3z M71.9,113l-0.4,0.8l-0.4-0.8l0.4-0.8L71.9,113z M72.2,120.9l0.8-0.8l0,0.8L72.2,120.9z
			 M72.9,112.2l-0.6-0.4l0.6-0.6l0.4,0.6L72.9,112.2z M74.1,113.8l-0.4-0.8l0.4-0.8l0.6,0.8L74.1,113.8z M69.1,101.1
			c-3.7,2.3-7.8,3.5-12.5,3.5l-24.6,0.1l-0.2-75.1l24.6-0.1c4.8,0,9,1.2,12.6,3.5c3.6,2.4,6.7,5.4,9.2,9.1c2.5,3.7,4.4,7.8,5.7,12.3
			c1.3,4.5,2,8.8,2,12.9c0,4.1-0.6,8.4-1.9,12.8c-1.3,4.4-3.2,8.5-5.7,12.1C75.9,95.8,72.8,98.8,69.1,101.1z M82.6,113.2h0.2v0.6
			l-0.4-0.4L82.6,113.2z M76.8,117.2c0-0.3,0.1-0.4,0.4-0.4c0.3,0,0.4,0.1,0.4,0.4l3.5,0.4L76.8,117.2z M78.9,114.1l0.4-1
			C79.3,113.7,79.2,114,78.9,114.1z M79.5,108l0.4-0.6l0.8,0.6l-0.8,0.4L79.5,108z M79.8,105.5l-0.6-1.5l1.5-0.4l0.4,0.4L79.8,105.5
			z M81.8,117.6l0-0.6l1,0L81.8,117.6z M83.2,115.7l-0.4-0.8l0.4-0.8l0.4,0.8L83.2,115.7z M82.8,109.3l1-3.3l0.4,0.8L82.8,109.3z
			 M85.1,109.9l-0.4-0.8l0.4-0.8l0.4,0.8L85.1,109.9z M86.6,112.2l-0.8-0.4l0.8-0.6l0.4,0.6L86.6,112.2z M86.2,93.4l0.4-0.4l0,0.8
			L86.2,93.4z M86.8,107.6l0.2-0.2l0.2,0l0.2,0.6L86.8,107.6z M87.6,94.9l-0.2-0.4l0.2-0.2l0.4,0.4L87.6,94.9z M89.1,100.7l-0.4-0.4
			c0-0.4,0.1-0.6,0.4-0.6l0.2,0.6L89.1,100.7z M90.5,115.1l-0.8-0.6l0.8-0.8l0.4,0.8L90.5,115.1z M91,93.8h0.4l0,1.2L91,93.8z
			 M91.3,47.3l-0.2,0.2l0-0.2l0.2-0.4v0.2L91.3,47.3z M90.9,41.2l-2.5-0.6L87,41.2l0.6-1.2L86,37.7c0.8,0,1.3,0.1,1.5,0.3
			c0.3,0.2,0.5,0.4,0.8,0.6c0.3,0.2,0.6,0.3,1.2,0.4c0.5,0.1,1.4,0,2.7-0.3L90.9,41.2z M92.8,49.2v-0.4l0.4,0L92.8,49.2z M95.1,95.7
			l0.4,0.4l-0.4,0.4l-0.4-0.4L95.1,95.7z M94.8,79l0.4-0.6L96,79l-0.8,0.6L94.8,79z M95.3,98.2l-0.4-0.6l0.4-0.8l0.8,0.8L95.3,98.2z
			 M96.9,100.7l-0.4-0.4l0.4-0.6l0.4,0.6L96.9,100.7z M96.3,74.5c-0.7,0.6-1.5,1-2.4,1c0-0.9,0.4-1.6,1.2-2.2c0.8-0.6,1.4-1.3,1.6-2
			l0.6,0.8C97.3,73.1,97,73.9,96.3,74.5z M97.3,47.3l0.8-0.4l0,1.3L97.3,47.3z M98.1,76.5l0.6,0l-0.6,1.2L98.1,76.5z M99.3,78.9v0.6
			l-0.4-0.4l0.2-0.2H99.3z M99.3,68l0.8,0l0,1.3l-0.8,0L99.3,68z M99.1,90.5L98.8,91l-0.4-0.6l0.4-0.6L99.1,90.5z M98.8,96.2l-0.6-1
			l1.2-1l0.8,1.5L98.8,96.2z M100.1,92.4l-0.6-0.6l0.6-0.8l0.4,0.8L100.1,92.4z M98.6,50.2c0.6-0.5,1.1-1.1,1.3-1.7
			c0.2-0.6,0.6-1.2,1.3-1.5l0.8,0.4C101,48.7,99.9,49.6,98.6,50.2z M102.2,74.1l-0.2-0.4l0.4-0.2l0.2,0.2L102.2,74.1z M102.6,73.2
			l1.4,3.8l-1.4-0.6L102.6,73.2z M104,91l-0.6-0.6l0.6-0.6l0.4,0.6L104,91z M104.5,78.4l-0.4-0.6l0.4-0.8l0.6,0.8L104.5,78.4z
			 M105.5,77.6l1,0l0,1.3C105.8,78.7,105.5,78.2,105.5,77.6z M106.8,75.3l0.2-0.2l0.2,0l0,0.6L106.8,75.3z M108.3,50.7l-0.4-0.8
			l0.4-0.8l0.6,0.8l-0.2,0.2c0,0.1,0,0.1,0.1,0.2c0,0.1-0.1,0.1-0.1,0.1c0,0,0,0,0,0l0.1-0.1c0,0,0.1,0,0.1,0c0.1,0,0.2-0.1,0.2-0.2
			l0.4,0.6l-0.4,0.6L108.3,50.7z M109.7,55.1l-0.4-0.6l0.4-0.6l0.4,0.6L109.7,55.1z M111.2,66.4l0-0.6l0.4,0.2L111.2,66.4z
			 M66.9,111.9l-0.4,0.4C66.8,112.3,66.9,112.1,66.9,111.9z M108.7,50.4l-0.2,0.3C108.6,50.6,108.7,50.5,108.7,50.4z M219.7,95.4
			C219.8,95.4,219.8,95.4,219.7,95.4l0.2-0.5C219.8,95.1,219.8,95.2,219.7,95.4z M249.8,111.4c-2.4-5.3-5.2-11.4-8.3-18.1
			c-3.1-6.7-6.4-13.6-9.9-20.7c-3.4-7.1-6.8-14.1-10.1-21.1c-3.3-7-6.4-13.4-9.3-19.4c-2.9-6-5.4-11.1-7.5-15.4
			c-2.1-4.3-3.6-7.4-4.5-9.3c-0.8-1.5-1.6-3-2.6-4.6c-1-1.6-2.5-2.3-4.5-2.3c-1.6,0-2.9,0.4-3.6,1.2c-0.8,0.8-1.5,1.9-2.1,3.3
			c-0.6,1.3-1.9,4-3.9,8.2c-2,4.2-4.3,9.4-7.2,15.4c-2.8,6-6,12.7-9.4,20c-3.5,7.3-6.9,14.7-10.4,22.2c-3.5,7.5-6.8,14.8-10.1,21.8
			c-3.3,7.1-6.2,13.4-8.7,18.9c-2.5,5.5-4.6,10.1-6.1,13.6c-1.6,3.5-2.4,5.5-2.4,5.9c0.1,0.5,0.4,1.2,0.9,2.2c0.4,0.9,1,1.4,1.6,1.4
			l24.7-0.1c1.9,0,3.4-1,4.5-2.9c1.1-2,2-4.1,2.9-6.5c0.9-2.4,1.7-4.6,2.5-6.5c0.8-2,1.7-2.9,2.8-2.9l49.1-0.2c0.5,0,1.2,1,2,2.9
			c0.8,1.9,1.8,4.1,2.8,6.5c1,2.4,2.1,4.6,3.3,6.5c1.1,1.9,2.3,2.9,3.4,2.9l25.7-0.1c1,0,1.7-0.4,2-1.3c0.3-0.9,0.5-1.6,0.5-2.3
			c0-0.6-0.7-2.6-2.2-6C254.2,121.1,252.2,116.7,249.8,111.4z M141.7,120.1l-0.4-0.2l0.4-0.2l0.4,0.2
			C141.9,120.1,141.8,120.1,141.7,120.1z M144.5,119.4l-1.3,0l0-0.8l1.3,0V119.4z M144.5,123.1l0.6-1.3c0.3,0.1,0.4,0.3,0.6,0.6
			c0.1,0.3,0.2,0.5,0.2,0.8L144.5,123.1z M146.4,117.5l-0.6,0l0.4-0.4l0.2,0.2V117.5z M222.5,80.4l0.4,0.4l-0.4,0.4l-0.2-0.4
			L222.5,80.4z M222.9,83.1l-0.4,0.6l-0.2-0.6l0.2-0.8L222.9,83.1z M221.4,78c-0.3,0.9-0.8,1.3-1.5,1.3
			C219.9,78.4,220.4,78,221.4,78z M220.1,88.7l-0.6,0.4l-0.8-0.4l0.8-0.2L220.1,88.7z M218.7,84.2l-0.2-0.4l0.2-0.8l0.4,0.6
			L218.7,84.2z M219.5,74.2c0,0.8-0.3,1.1-0.8,1.1l0-1.1L219.5,74.2z M218.2,81.2l0.6,0v0.6l-0.6,0V81.2z M217.4,70.4l0.2,0l0,0.6
			l-0.4-0.4L217.4,70.4z M216.2,75.4l0-1.1l1,0C217.2,75,216.9,75.4,216.2,75.4z M216.8,79.9l-0.6,0l0-1.3h0.6L216.8,79.9z
			 M216.2,58.2v0.2l-0.4,0.4l-0.2-0.4L216.2,58.2z M211.1,79.3l-0.4-0.6l0.4-0.8l0.6,0.8L211.1,79.3z M211.5,94.6l-0.4,0.4l-0.2-0.4
			l0.2-0.2L211.5,94.6z M211.1,67.8l0.6,0.8l-0.6,0.6l-0.4-0.6L211.1,67.8z M210.9,70.8l0.2,0.2l-0.2,0.4l-0.4-0.4L210.9,70.8z
			 M209.9,55.9l0.4,0.8l-0.4,0.6l-0.6-0.6L209.9,55.9z M210.3,76.1l-0.4,0.6l-0.6-0.6l0.6-0.8L210.3,76.1z M210,96.5l0,0.4l-0.8,0
			L210,96.5z M208.9,51.4l-0.4,0.8l-0.4-0.8l0.4-0.8L208.9,51.4z M208.6,61.6v0.6l-0.2-0.2L208.6,61.6z M208.5,45l0,0.9
			c-0.6,0-1.1-0.3-1.3-0.9L208.5,45z M208,54.1c0,0.9-0.4,1.3-1.3,1.3C206.7,54.5,207.1,54.1,208,54.1z M206,39.4l0.4,0.8l-0.4,0.6
			l-0.6-0.6L206,39.4z M204.7,48.4l0.4,0.8l-0.4,0.6l-0.4-0.6L204.7,48.4z M204.7,41.2l0,0.9h-0.6l0-0.9L204.7,41.2z M203.4,45
			l-0.6,0.9l-0.6-0.9L203.4,45z M201.3,50.7l0.8-0.4l0.2,0l-0.4,0.6L201.3,50.7z M201.4,59.7l-0.4,0.6l-0.4-0.6l0.4-0.6L201.4,59.7z
			 M202.3,56l0.4,0.8l-0.4,0.6l-0.6-0.6L202.3,56z M202.2,34.3l0,0.8l-1.9,0C200.7,34.5,201.3,34.3,202.2,34.3z M199,36.5l-0.6,0
			c-0.9,0-1.3-0.6-1.3-1.7C198,35.4,198.6,35.9,199,36.5z M198.4,40.3l-0.8,0l0.4-0.4L198.4,40.3z M197.1,50.7l-0.4,0.4l0-0.6
			L197.1,50.7z M197.3,30.5l0.4,0.2l-1,0.6h-0.2L197.3,30.5z M194.6,41.3c0,0.3,0,0.6-0.1,0.9c-0.1,0.4-0.3,0.6-0.7,0.6
			C193.9,42.5,194.1,42,194.6,41.3z M194.7,55.4l-0.8,0.6l0-0.6L194.7,55.4z M193.7,37.3l0.2,0.2l-0.4,0.4l-0.2-0.4L193.7,37.3z
			 M192,43.2l0.6,0.8l-0.6,0.8l-0.4-0.8L192,43.2z M191.4,46l2.5,0.6l-2.5,0.4l-0.4-0.4L191.4,46z M189.7,46.6l-3.4,0.4l-0.4-0.4
			l0.4-0.6L189.7,46.6z M187.1,55.5c0,0.5-0.2,0.9-0.5,1c-0.3,0.2-0.6,0.5-0.9,0.9L187.1,55.5z M185.9,49.2l0.4-0.8l0.6,0.8
			l-0.6,0.6L185.9,49.2z M188.9,38.8c-0.3,0-0.4-0.1-0.4-0.4l0.4,0L188.9,38.8z M187,28.9l0.4,0.6L187,30l-0.6-0.6L187,28.9z
			 M185.8,36.4c1.3-0.6,2.4-1.1,3.1-1.3c0,1-0.2,1.7-0.5,2.1c-0.3,0.4-0.7,0.6-1.2,0.8c-0.5,0.1-1.1,0.2-1.7,0.3
			c-0.6,0.1-1.2,0.3-1.7,0.7C183.8,37.9,184.5,37,185.8,36.4z M185.7,53.6l-0.6,0l0-0.8L185.7,53.6z M185.1,44.7l-1.3,0l0-0.6l1.3,0
			L185.1,44.7z M182.5,52.3l0.6,0.8l-0.6,0.6l-0.4-0.6L182.5,52.3z M177.9,45.9c0.1,0.3,0.2,0.5,0.2,0.8l-0.6,0l0-1.5
			C177.7,45.4,177.8,45.6,177.9,45.9z M176.2,50.8l0.4,0.8l-0.4,0.8l-0.4-0.8L176.2,50.8z M172.9,83.2l0-0.8l1,0.8L172.9,83.2z
			 M173,95.1c0,0.6-0.1,1.1-0.4,1.3v-0.2C172.6,95.8,172.7,95.4,173,95.1z M173.8,73.6l-1,0l0-0.6l1,0L173.8,73.6z M172.9,68.7
			l0-0.8l1,0.8L172.9,68.7z M173.8,65.5l0,0.6l-1,0l0-0.6L173.8,65.5z M172.5,78.1h0.4v0.6l-0.4,0V78.1z M170,76.8l0.4,0.8l-0.4,0.6
			l-0.8-0.6L170,76.8z M170.4,80l-0.4,0.6l-0.8-0.6l0.8-0.6L170.4,80z M168.5,81.4h0.2v0.6l-0.4-0.4L168.5,81.4z M151.7,105
			l-0.4,0.4l-0.2-0.4l0.4-0.4L151.7,105z M147.7,116.1l0.6-0.6l0.6,0.6L147.7,116.1z M149.6,108.6l0.6,0l0,0.4l-0.6,0L149.6,108.6z
			 M150.2,115.6l-0.4-0.6l0.4-0.8l0.4,0.8L150.2,115.6z M150.3,101l0.4-0.6l0.6,0.6l-0.6,0.4L150.3,101z M150.8,121.8l1.3-1.7l0,1.7
			L150.8,121.8z M152.7,113.9c-0.4-1.3-0.8-2.3-1.3-3l1.7,1.9L152.7,113.9z M153.4,98l0-0.9l1.1,0C154.5,97.7,154.1,98,153.4,98z
			 M159.1,95.2l0,0.9c-0.9,0-1.7-0.2-2.6-0.7c-0.8-0.5-1.2-1.3-1.2-2.3L159.1,95.2z M156,97.1c0,0.1-0.1,0.5-0.2,1.1
			c-0.1,0.6-0.2,0.9-0.4,0.9l-0.2-0.2L156,97.1z M155.9,112.3l-0.6-3.4c0.1,0.4,0.3,1,0.5,1.8C156,111.6,156,112.1,155.9,112.3z
			 M155.9,108.6l0-1.5l1,1.3L155.9,108.6z M158.4,113.7l-0.2,0.2c-0.1,0-0.3-0.1-0.4-0.2l0.4-0.4l0.2,0.2V113.7z M157.6,111.8
			l3.8-3.6C161.4,110.6,160.1,111.8,157.6,111.8z M161.6,102.3l0-0.9h0.6l0,0.9L161.6,102.3z M162.3,107.4l0.8-0.8l0,1.3
			L162.3,107.4z M160.6,91.2c-0.4-1.4-0.6-2.6-0.6-3.6l0.8,0c0,1.3,0.4,2.2,1.2,2.9c0.8,0.7,1.2,1.6,1.2,2.7
			C161.9,93.3,161,92.6,160.6,91.2z M164.3,70.6l0.4,0.6l-0.4,0.6l-0.8-0.6L164.3,70.6z M164.3,74.4l0.4,0.6l-0.4,0.6l-0.8-0.6
			L164.3,74.4z M163.6,94.6l0.8-0.8l0.6,1.3l0,0.6C164.5,95.2,164,94.8,163.6,94.6z M164.4,106.7l-0.4-0.6l1.3-2.6L164.4,106.7z
			 M164.6,99.7l0.4-0.8l0,2.1L164.6,99.7z M165,96.7l-0.2-0.4l0.4-0.6h0.2l0.2,0.4L165,96.7z M166.2,67.4l-0.8-0.6l0.8-0.8l0.4,0.8
			L166.2,67.4z M166.5,99.7l0.4-0.8l0,1.5L166.5,99.7z M168.7,86.3l-1.9-2.4l0.4-0.6l1.9,1.9L168.7,86.3z M169.2,109.8l1-0.9l0,0.9
			L169.2,109.8z M169.8,105.5c0-2.1,1.1-3.2,3.2-3.2l1,0.8L169.8,105.5z M175.1,105.1l-0.4-0.4l0.4-0.6l0.6,0.6L175.1,105.1z
			 M177.6,67.9l0,0.8l-1.9,0L177.6,67.9z M176.4,98.9l0-0.4L177,97L176.4,98.9z M177.8,72.7l-0.4-0.4l0.4-0.2l0.4,0.4L177.8,72.7z
			 M178.5,97.9l-0.2-0.4L179,97l0.4,0L178.5,97.9z M178.7,50.8l0-0.9l0.8,0C179.5,50.2,179.2,50.5,178.7,50.8z M180,47.9l1.3,0
			l0,0.6l-1.3,0L180,47.9z M180.6,56l0,0.6l-0.6,0L180.6,56z M180.1,70.6l0-1.3l0.6,0.6L180.1,70.6z M180.7,87.5
			c2.1-4.5,4.2-9.1,6.2-13.7c2-4.6,4.2-9.1,6.4-13.5c1,0.8,2.1,2.3,3.2,4.7c1.1,2.4,2.2,5,3.3,7.7c1.1,2.8,2.1,5.5,3.2,8.2
			c1,2.7,2,4.7,3.1,5.9l0.2,0l0,1.1l-24.7,0.1L180.7,87.5z M197.1,98.3l-0.4,0.6l-0.6-0.6l0.6-0.8L197.1,98.3z M182.1,103.2l0.6-0.6
			l0.8,0.6L182.1,103.2z M183.4,100.7l1.1-0.8l1.9,0.7L183.4,100.7z M187.8,107.9l-0.4-0.6l0.4-0.8l0.4,0.8L187.8,107.9z
			 M187.2,103.2c0.1-0.5,0.5-0.8,1.1-0.8l0,0.8L187.2,103.2z M190.3,97.5l-0.4-0.4l0.4-0.6l0.6,0.6L190.3,97.5z M194.1,98.6
			l-0.6-0.4l0.6-0.2l0.8,0.4L194.1,98.6z M197.2,105.3c-0.2,0.4-0.6,0.7-1.2,0.7c0-0.5,0.2-0.9,0.7-1.1c0.4-0.3,0.9-0.5,1.2-0.8
			C197.6,104.5,197.4,104.9,197.2,105.3z M203,99.4l0.6,0l0,1.3C203.2,100.6,203,100.1,203,99.4z M206.2,96.5l-0.6-0.8l0.6-0.8
			l0.4,0.8L206.2,96.5z M206.8,105.6l-0.2,0c0-0.2,0.1-0.4,0.2-0.6V105.6z M206.8,100.7v-0.4h0.6l0,0.4H206.8z M207.5,74.8l0.6-0.6
			l0.4,0.6l-0.4,0.6L207.5,74.8z M208.2,103.1l0.6-0.6l0.6,0.6L208.2,103.1z M209.3,107.8l0-0.9l0.8,0l0,0.9L209.3,107.8z M210,99.3
			l0.6-0.2l0.6,0.2l-0.6,0.4L210,99.3z M211.2,106.5l-0.4-0.8l0.4-0.8l0.6,0.8L211.2,106.5z M212.4,65.9l0,1.3l-0.6-1.3L212.4,65.9z
			 M211.9,96.5h0.6l0,0.4L211.9,96.5z M212.4,74.2l-0.4-0.6l0.4-0.8l0.4,0.8L212.4,74.2z M213.7,59.7l0,1.3
			c-0.5-0.4-0.8-0.8-0.8-1.3L213.7,59.7z M213.8,100.3l-0.6-0.8l0.6-0.8l0.4,0.8L213.8,100.3z M215.4,67.3c0.2-0.6,0.6-0.9,1.2-0.9
			c-0.5,1.3-1.3,2-2.3,2.1C214.8,68.3,215.2,67.9,215.4,67.3z M214.9,70.5l0.6,0.6l-0.6,0.6l-0.4-0.6L214.9,70.5z M214.9,76.7
			l0.6,0.8l-0.6,0.6l-0.4-0.6L214.9,76.7z M214.8,94l0.2-0.4l0.4,0.4l-0.4,0.4L214.8,94z M215.8,104l-0.6-0.8l0.6-0.8l0.4,0.8
			L215.8,104z M216.3,96.5l-0.4-0.8l0.4-0.8l0.4,0.8L216.3,96.5z M215.9,86.3l0.4-0.8l0.4,0.8l-0.4,0.6L215.9,86.3z M216.3,83.1
			l-0.6-0.8l1.1,0.8H216.3z M216.9,105.9l0.4-0.4l0.4,0.4H216.9z M217.7,99.3l0-1.9l1.5,1.9L217.7,99.3z M218.8,110.3l-0.4-0.8
			l0.4-0.8l0.6,0.8L218.8,110.3z M219.8,95.4C219.8,95.4,219.8,95.4,219.8,95.4L219.8,95.4C219.7,95.5,219.7,95.5,219.8,95.4
			c-0.1,0-0.2,0-0.3,0.1L219,95l0.6-0.6c0.5,0.5,0.8,0.9,1,1.3l-0.4,0.8l-0.4-0.8C219.9,95.6,219.9,95.5,219.8,95.4z M220,105.2
			v-0.4l0.2-0.4l0.4,0.4L220,105.2z M221.4,94.4v-0.8l0.6,0L221.4,94.4z M222.3,91c-0.7,0.4-1.4,0.6-2.2,0.8l3.2-3l0,0.4
			C223.3,90,223,90.6,222.3,91z M224.3,85.1l0.2,0.2v0.2l-0.2,0.4l-0.4-0.4L224.3,85.1z M224,108.4l0-1.5l0.9,0
			C224.6,107.6,224.3,108.1,224,108.4z M225.3,113.4l-0.4-1.7l0.4-1.5C225.5,111.4,225.6,112.4,225.3,113.4z M223.9,96.5l0-1.5
			l1.7,0L223.9,96.5z M234.9,95.5l0,0.9l-0.6-0.9L234.9,95.5z M235,122.1l0,1.3l-0.4-0.6L235,122.1z M233.1,100.2
			c0.3,0.1,0.4,0.4,0.4,0.9l-0.4-0.8V100.2z M233.1,107.6v0.2l-1.5-1.1v-0.2C232.6,106.4,233.1,106.8,233.1,107.6z M231.5,104
			l-0.4-0.8l0.4-0.8l0.8,0.8L231.5,104z M231.5,92.5l0.8,0.6l-0.8,0.6l-0.4-0.6L231.5,92.5z M231.5,96.8c-0.4,0-0.8-0.1-1.3-0.4
			L231.5,96.8z M227.7,93.1l0.6,1.9l-1.9-0.9L227.7,93.1z M228.1,99.5l-0.4,0.8l-0.4-0.8l0.4-0.8L228.1,99.5z M226.4,108.7l0-0.4
			l1,0.4L226.4,108.7z M227.4,104.9l0-0.6l0.9,0L227.4,104.9z M230.2,113.4l0.4-0.4l0.6,0.4L230.2,113.4z M231.6,117.2l0.4-0.4
			l0.6,0.4L231.6,117.2z M232,111.9c-0.5-0.6-1.1-1.1-1.7-1.3l-0.9,2.5l0-4.3c0.6,0.4,1.6,1,2.8,1.8c1.2,0.8,1.8,1.6,1.8,2.4
			C233.1,112.8,232.5,112.5,232,111.9z M234.1,117.2l0.4,0.8C234.2,117.8,234.1,117.6,234.1,117.2z M234.5,125.3l0-0.6h0.2
			c0.3,0,0.5,0.2,0.8,0.6L234.5,125.3z M235.6,113.2l0.8-0.8l0.4,0.8l-0.4,0.8L235.6,113.2z M236.5,120.9l0.4-0.8l0,1.3L236.5,120.9
			z M237,105.2c-0.4,0.4-1,0.7-1.6,0.7H235l2.7-2.1l0.6,0.2C237.8,104.3,237.4,104.8,237,105.2z M238.5,123l0.2-0.2h0.2l0,0.6
			L238.5,123z M240.9,105.7l0.4-0.8l0.6,0.8l-0.6,0.8L240.9,105.7z M242.6,117.2c-0.2,0.9-0.6,1.3-1.1,1.3l-0.2-0.2L242.6,117.2z
			 M241.3,121.5v-0.6l0.8,0L241.3,121.5z M242.1,125.3l0-0.6l0.6,0l0,0.6L242.1,125.3z M243.2,121.5l0-0.6l0.8,0l0,0.6L243.2,121.5z
			 M246.2,122.8l0.2,0l0,0.6l-0.4-0.4L246.2,122.8z M246.5,128.5l-0.4-0.4l0.4-0.4V128.5z M344.1,112.4
			C344.2,112.4,344.2,112.4,344.1,112.4l0.2-0.5C344.2,112,344.2,112.2,344.1,112.4z M314.3,126c0.1,0,0.3-0.1,0.4-0.2
			C314.6,125.8,314.5,125.9,314.3,126z M341.5,23.2C341.5,23.2,341.5,23.2,341.5,23.2C341.5,23.2,341.5,23.2,341.5,23.2
			C341.4,23.2,341.4,23.3,341.5,23.2C341.4,23.3,341.4,23.2,341.5,23.2z M330.8,116.3l0.2-0.6C330.9,115.9,330.8,116.1,330.8,116.3z
			 M346.7,66.9c-4.4-3.4-9.1-6.4-14.1-8.9c-5-2.5-9.7-4.9-14.1-7.1c-4.4-2.3-8-4.5-10.9-6.9c-2.9-2.3-4.3-5-4.3-8.2
			c0-3,1-5.3,3.1-6.9c2.1-1.6,4.6-2.4,7.5-2.4c2.9,0,5.7,0.5,8.4,1.7c2.7,1.1,5.2,2.4,7.6,3.8c2.4,1.4,4.7,2.7,6.9,3.8
			c2.2,1.1,4.2,1.7,6.1,1.7c1.5,0,3.2-0.8,4.9-2.4c1.8-1.6,3.4-3.4,5-5.6c1.6-2.1,2.9-4.3,3.9-6.6c1-2.3,1.5-4.1,1.5-5.5
			c0-1.8-0.9-3.4-2.6-5c-1.7-1.6-3.9-3-6.7-4.3c-2.7-1.3-5.7-2.5-9-3.5c-3.3-1-6.6-1.8-9.8-2.5c-3.2-0.7-6.2-1.2-8.8-1.6
			c-2.7-0.4-4.7-0.6-6.1-0.5c-5.6,0-11,0.9-16.2,2.5c-5.2,1.7-9.8,4.1-13.9,7.2c-4,3.2-7.3,7-9.7,11.6c-2.5,4.6-3.7,9.9-3.7,16
			c0,6.4,1.4,11.9,4.1,16.5c2.7,4.6,6.2,8.6,10.3,11.9c4.1,3.4,8.6,6.3,13.4,8.8c4.8,2.5,9.3,4.9,13.4,7.2c4.1,2.3,7.6,4.7,10.3,7.1
			c2.7,2.4,4.1,5.3,4.1,8.6c0,3.6-1.2,6.3-3.8,8c-2.5,1.7-5.5,2.6-8.9,2.6c-3.3,0-6.3-0.5-9-1.6c-2.7-1.1-5.3-2.2-7.8-3.6
			c-2.5-1.3-4.8-2.5-7-3.6c-2.2-1.1-4.3-1.6-6.3-1.6c-0.8,0-1.8,0.9-3.2,2.7c-1.4,1.8-2.7,3.8-4.1,6c-1.3,2.3-2.5,4.5-3.4,6.7
			c-0.9,2.2-1.4,3.7-1.4,4.4c0,3.1,1.9,5.9,5.5,8.2c3.7,2.3,8,4.2,12.9,5.7c4.9,1.5,9.9,2.6,14.7,3.3c4.9,0.7,8.5,1,10.9,1
			c5.6,0,11.1-1,16.5-2.9c5.4-1.9,10.3-4.6,14.5-8.1c4.2-3.5,7.6-7.6,10.2-12.5c2.6-4.9,3.9-10.3,3.8-16.3c0-6.7-1.5-12.4-4.3-17.1
			C354.8,74.4,351.1,70.4,346.7,66.9z M346.9,19.1l0.2,0.6l-0.4,0.6l-0.2-0.4L346.9,19.1z M341.4,20.8l0.4,0.4l-0.4,0.2V20.8z
			 M341.2,22.1l0.4,0.8l-0.2,0.2c0,0.1,0,0.1,0.1,0.2c0-0.1,0.1-0.1,0.1-0.2c0,0.1,0,0.1-0.1,0.2c0,0,0,0,0.1,0
			c0.1,0,0.2-0.1,0.2-0.2l0.4,0.6l-0.4,0.4l-1.1-1.1L341.2,22.1z M336.6,19.7l-0.6,0.6l0-1.1L336.6,19.7z M334.7,15.9l0,1.3h-0.6
			L334.7,15.9z M333.6,22.1l0.2,0.8l-0.4,0.6l-0.2-0.6L333.6,22.1z M332.2,18.9l0,1.7l-1.3-0.9L332.2,18.9z M330.9,21.6l0.6,0.8
			l-0.6,0.8l-0.4-0.8L330.9,21.6z M322.7,17.8l-0.4-0.6l0.4-0.8l0.4,0.8L322.7,17.8z M328.4,9.7l0.4,0.6l-0.4,0.6l-0.4-0.6
			L328.4,9.7z M325.5,13.9c0.2-0.4,0.5-0.6,1-0.6c0,0.4-0.1,0.8-0.3,1.1c-0.2,0.4-0.5,0.6-1,0.6C325.2,14.6,325.3,14.2,325.5,13.9z
			 M322.7,11.6l1.3,0c-0.4,0.4-0.8,0.6-1.3,0.6V11.6z M322.9,14.1l-1.5,0l0-0.6L322.9,14.1z M320.8,12.2l0.4,0.8l-0.4,0.6l-0.4-0.6
			L320.8,12.2z M318.3,14.1l-1.3,1.3v-0.2l0.8-1.1L318.3,14.1z M316.4,9l0.4,0.9l0.2-0.2l0.4,0.6l-0.4,0.6l-1.1-1.1L316.4,9z
			 M314,11.5c0.4-0.1,0.8-0.1,1-0.1l0,0.8l-1.9,0C313.3,11.8,313.6,11.6,314,11.5z M311.7,11.8l0,0.4l3,0.4l-3.4-0.4L311.7,11.8z
			 M310.1,8.1l0.6,0.4l-0.6,0.4l-0.4-0.4L310.1,8.1z M308.8,9.8l0.4,0.6l-0.4,0.6l-0.8-0.6L308.8,9.8z M308.8,14.6
			c0.6-0.7,1.3-1,1.9-1l0.6,0.6c-0.8,0.6-1.3,1.3-1.5,2.1c-0.3,0.8-0.6,1.5-0.9,2.3l-1-1.9C307.9,15.9,308.2,15.3,308.8,14.6z
			 M307.9,9.8l-0.4-0.9l0-0.9L307.9,9.8z M306,10.9l1,2.6c-0.5,0-1.2-0.1-2-0.3c-0.8-0.2-1.2-0.6-1.2-1.2L306,10.9z M302.2,14.7
			l1.5,1.1c0,0.6-0.2,1.1-0.6,1.4c-0.4,0.3-0.8,0.6-1.2,0.9c-0.4,0.3-0.9,0.5-1.3,0.9c-0.4,0.3-0.7,0.7-0.8,1.2l0-0.4
			c0-1,0.4-1.8,1.2-2.4C301.8,16.9,302.2,16,302.2,14.7z M300.9,24.1l0.6,0.8l-0.6,0.6l-0.4-0.6L300.9,24.1z M300.5,21.1l0.4-0.8
			l0.6,0.8l-0.6,0.6L300.5,21.1z M301.4,12.2l-0.6,0.6l-0.4-0.6l0.4-0.6L301.4,12.2z M298.7,8.9l-0.4,0.2l0.4,0.4l0.2-0.4L298.7,8.9
			l2.1-0.4c-0.3,0.1-0.4,0.3-0.4,0.7c0,0.3,0.1,0.5,0.4,0.7l-4.2-0.6L298.7,8.9z M297,10.9l0,1.3l-0.6-1.3H297z M296.5,40.2l0.4,0.6
			l-0.4,0.4l-0.4-0.4L296.5,40.2z M295.7,26h0.2c0,0.6-0.3,0.9-0.8,0.9L295.7,26z M294.8,41.5l0.4-0.8l0.6,0.8l-0.6,0.6L294.8,41.5z
			 M295.1,47.7l-0.4,0.6l-0.4-0.6l0.4-0.8L295.1,47.7z M294.6,37.4l-0.4-0.4l0.4-0.6L295,37L294.6,37.4z M294.6,23.2l-0.4-0.8
			l0.4-0.8l0.4,0.8L294.6,23.2z M294.6,11.7l0.4,0.6l-0.4,0.6l-0.4-0.6L294.6,11.7z M287.5,20.2l0.8,0.2l-0.6,0.4l-0.8-0.4
			L287.5,20.2z M286.4,19.3l0.4,0.6l-0.4,0.6l-0.6-0.6L286.4,19.3z M286,25.3c0.3-0.1,0.5-0.3,0.8-0.6l0.2,0.4l-1.3,0.9
			C285.7,25.7,285.8,25.4,286,25.3z M286.4,31.7l0.4,0.8l-0.4,0.8l-0.6-0.8L286.4,31.7z M286.1,30.4c0-0.4,0.1-0.6,0.4-0.6v0.9
			L286.1,30.4z M285.7,33.2l0.6,0.8l-0.6,0.6l-0.4-0.6L285.7,33.2z M282.6,25.5l0,0.6l-0.8,0l0-0.6L282.6,25.5z M283.6,29.1
			l-2.5,2.5C281.1,29.9,281.9,29.1,283.6,29.1z M280.8,38.4l-0.6-0.6l0.6-0.8l0.4,0.8L280.8,38.4z M283.2,38.3l0,0.6l-0.6,0
			L283.2,38.3z M283.3,48.3l-0.6,0l0.6-0.2V48.3z M283.2,42.1l-0.4-0.6l0.4-0.8l0.4,0.8L283.2,42.1z M285.7,50.8l0-0.6l0.8,0
			L285.7,50.8z M286.3,46.4l-1.1-0.6l1.3-0.8l0.6,0.8L286.3,46.4z M287.6,40.2l-0.4-0.6l0.4-0.8l0.6,0.8L287.6,40.2z M287.6,31.7
			l0-0.6h0.8L287.6,31.7z M288.3,17.4v-0.8l0.6,0L288.3,17.4z M289.1,43.4l0.4-0.8l0.6,0.8l-0.6,0.6L289.1,43.4z M289.5,48.3
			l0.6,0.8l-0.6,0.6l-0.4-0.6L289.5,48.3z M289.6,51.5l0.6,0.6l-0.6,0.6l-0.4-0.6L289.6,51.5z M289.6,56.4l-0.4-0.6l0.4-0.6l0.6,0.6
			L289.6,56.4z M289.5,32.7l0.6-0.9h0.2C290.2,32.3,290,32.7,289.5,32.7z M290.8,25.5l0.4,0.8l-0.4,0.8l-0.4-0.8L290.8,25.5z
			 M290.8,31.7l0.4,0.8l-0.4,0.8l-0.4-0.8L290.8,31.7z M290.5,37.8l0.4-0.8l0.4,0.8l-0.4,0.6L290.5,37.8z M290.9,54.5v-0.4l0.6-1.5
			l0.8,0.8L290.9,54.5z M292.1,22.3l-0.6-0.4l0.6-0.6l0.4,0.6L292.1,22.3z M292.7,34.5l0.4-0.4l0.2,0.2v0.2l-0.2,0.2
			C293,34.7,292.9,34.7,292.7,34.5z M293.3,44.5l-0.6,1.3C292.8,45.2,293,44.8,293.3,44.5z M292.8,51.5l0.6-1.3l0,1.3H292.8z
			 M293.3,21.7l-0.4-0.6l0.4-0.8l0.6,0.8L293.3,21.7z M294.1,58.3l1.1-1.1l1.3,1.1l-1.9,0.8L294.1,58.3z M295.3,62.8l1.3-1.3l0,2.5
			L295.3,62.8z M297.2,55.3l-0.4-0.6l0.4-0.8l0.6,0.8L297.2,55.3z M297.6,17.2l0.6-0.6h0.2l0.2,0.4l-0.8,0.4L297.6,17.2z
			 M298.5,46.8V47l2.3,0.4l-2.9-0.4L298.5,46.8z M298.5,48.3l0.4,0.8l-0.4,0.6l-0.4-0.6L298.5,48.3z M298.5,51.5l0.4,0.6l-0.4,0.6
			l-0.4-0.6L298.5,51.5z M298.5,57.7l-0.4-0.6l0.4-0.8l0.4,0.8L298.5,57.7z M299.9,62.1l0-1.1l0.6,0.6L299.9,62.1z M300,53.4l-1-0.7
			l1.9-0.6L300,53.4z M301.8,64.7l-0.6-0.6l0.6-0.8l0.4,1.3H301.8z M302.7,64.3l0.2,0.2v0.2l-0.2,0.4l-0.4-0.4L302.7,64.3z
			 M302.3,68.5v-1.3c0.6,0.2,1,0.7,1,1.3L302.3,68.5z M304.2,50.2l0.4,0.8l-0.4,0.6l-0.4-0.6L304.2,50.2z M303.8,60.9l1,0l-1,0.6
			V60.9z M304.8,65.8l-0.6-1.1l0.6-1.3l1.3,1.3L304.8,65.8z M316.6,62l-0.8,1.9l-0.6-0.6L316.6,62z M314.1,68.1l0.6,0.4l-0.6,0.4
			l-0.4-0.4L314.1,68.1z M313.4,63.3l-0.6,0.6l0-1.7L313.4,63.3z M310.9,55.8l0,1.9l-1.9-1.9L310.9,55.8z M308,54.5l0.8,0.8
			l-0.8,0.6l-0.4-0.6L308,54.5z M307.3,59l0.4-0.8l0,1.3L307.3,59z M308,62l0,0.8l-0.4-0.8L308,62z M307.7,67.1l1.3-2.5l1,0.6
			L307.7,67.1z M310.9,73.5l-0.8-0.6l0.8-0.8l0.4,0.8L310.9,73.5z M311.1,58.4l0.4-0.8l0,1.3L311.1,58.4z M313.4,67.1l-0.6,0.6
			l-1-0.6L313.4,67.1z M312.4,73c0-1.1,0.5-2,1.6-2.7c1.1-0.7,2.1-1,3.1-1l0,1.1L312.4,73z M317.2,75.4l-0.4-0.4l0.4-0.4V75.4z
			 M317.2,66.5l-0.4-0.6l0.4-0.8l0.4,0.8L317.2,66.5z M318.5,65.2l-0.6-0.6l0.6-0.8l0.4,0.8L318.5,65.2z M322.3,70.3l-0.8,0l0-0.8
			l0.8,0V70.3z M324.8,77.8l-0.4-0.6l0.4-0.8l0.4,0.8L324.8,77.8z M326.2,79.1l-0.8-1.3l0.6-0.2l1.3,0.8L326.2,79.1z M326.1,69
			l1.1-1.3l0.2,0.6L326.1,69z M289.9,113.4l-0.8,0l0-3.2C289.7,111.5,289.9,112.5,289.9,113.4z M282.2,113.4l-0.4-0.4l0.4-0.4
			l0.4,0.4L282.2,113.4z M283.5,117.2l-0.8-3.6l1.5,2.3L283.5,117.2z M284.2,112.1l-0.2-0.2c0-0.4,0.2-0.6,0.6-0.6l0.2,0.2
			C284.8,111.9,284.6,112.1,284.2,112.1z M285.4,121l-0.4-0.6l0.4-0.8l0.8,0.8L285.4,121z M285,117.8l0.4-0.6l0.4,0.6l-0.4,0.6
			L285,117.8z M289.6,120.6l-0.4-0.4l0.4-0.2l0.2,0.2L289.6,120.6z M289.9,116.7c-0.6,1.1-1.2,1.9-2,2.4l-3.1-6.4l1.1-1.1l1.9,1.9
			l-0.6,1.1l1.9,1.3l1.9-1.9C290.8,114.7,290.4,115.6,289.9,116.7z M352.6,94.2l-0.6,0.6l-0.4-0.6l0.4-0.8L352.6,94.2z M351.5,85.9
			l0.4,0.8l-0.4,0.6l-0.4-0.6L351.5,85.9z M350.9,91.5l0,1.3l-0.8,0l0-1.3L350.9,91.5z M350,99.4l-0.4,0.6l-0.4-0.6l0.4-0.8
			L350,99.4z M349.6,87.2v0.6H349L349.6,87.2z M349,96.2l0.4,0.6l-0.4,0.4l-0.6-0.4L349,96.2z M348,84.5l0.2,0.2v0.2l-0.2,0.2
			c-0.1,0-0.3-0.1-0.4-0.2L348,84.5z M348,88.9l-1.7,2.1l-1.1-0.4C345.7,89.5,346.7,88.9,348,88.9z M345.7,82.9l0.4,0.6l-0.4,0.6
			l-0.4-0.6L345.7,82.9z M345.2,85.9l0.4,0.8l-0.4,0.6l-0.6-0.6L345.2,85.9z M345.2,100l0.6,0.9l-1.3,0L345.2,100z M343.3,76.5
			l0.4,0.8l-0.4,0.6l-0.6-0.6L343.3,76.5z M343.9,91.5l-0.6,0.4l-2.1-2.3L343.9,91.5z M341.4,79.1l0.6,1.1l-0.8-0.8L341.4,79.1z
			 M340.7,84.9c0.2,0,0.4,0.1,0.7,0.4l-1.3,0V85l0.2-0.4C340.4,84.8,340.5,85,340.7,84.9z M341.3,105.5l-0.6,0.8l-0.4-0.8l0.4-0.8
			L341.3,105.5z M340.4,82.9l-0.4,0.6l-0.4-0.6l0.4-0.8L340.4,82.9z M339.5,77.8l0.4,0.8l-0.4,0.6l-0.6-0.6L339.5,77.8z M340.1,93.4
			l0,0.9l-1.3,0L340.1,93.4z M335.7,101l-0.6-0.4l0.6-0.6l0.4,0.6L335.7,101z M335.8,106.9l-0.8,0.8l0-0.8L335.8,106.9z M334.9,91.6
			V91l0.8,0.6L334.9,91.6z M335.3,87.6l-0.4-0.4l2.7-1.3l0,0.9L335.3,87.6z M339.1,97.8l0.4,0.4l-3.2,0L339.1,97.8z M337.8,97
			l0.4,0.2l-0.4,0.4L337.8,97z M338.4,93.6l-0.2-0.2l0.6-0.6L338.4,93.6z M338.7,90.6l-1.1,0l0.6-0.4L338.7,90.6z M337.6,81.6l0.6,0
			c-0.3,0.3-0.6,0.5-0.9,0.7c-0.4,0.2-0.7,0.4-0.9,0.7C336.5,82.3,336.9,81.8,337.6,81.6z M335.7,77.8l-0.2-0.2l0.8-1.1
			C336.2,77.1,336,77.5,335.7,77.8z M334.9,68.9l0.6,0.8l-0.6,0.6l-0.4-0.6L334.9,68.9z M333,75.9l1.3,0l0,0.6l-1.3,0V75.9z
			 M331.1,79.1l-1.1,0v-0.8c0.3,0,0.5,0.1,0.8,0.2C331,78.7,331.1,78.9,331.1,79.1z M330,81.6l-0.4-0.4l0.2-0.2l0.2,0L330,81.6z
			 M326.3,115.8l0,0.6l-0.8-0.6H326.3z M323.6,117.6l0.2,0.4h-0.6L323.6,117.6z M315.8,119l-0.4,0.6l-0.4-0.6l0.4-0.8L315.8,119z
			 M315.8,124.1l-0.4,0.6l-0.4-0.6l0.4-0.8L315.8,124.1z M315.1,117.5l0.4,0.2l-0.4,0.2l-0.4-0.4L315.1,117.5z M309.6,121.5h0.2
			l-0.6,0.6l-0.2-0.2L309.6,121.5z M300,118.3l0,1.3l-0.4-0.6L300,118.3z M298.1,113.4l1.5,3.8c-0.9,0-1.5-0.4-1.8-1.1
			c-0.3-0.8-0.5-1.4-0.5-2.1L298.1,113.4z M297.8,121.5h-0.4l0-0.6L297.8,121.5z M291.7,117l1.9,0.7l-1.1,1.3L291.7,117z
			 M293.4,121.9l0.2-0.4l0.4,0.4L293.4,121.9z M294.1,114.2c-0.3,0-0.4-0.1-0.6-0.2l0.4-0.2l0.4,0.2L294.1,114.2z M294.9,117.2
			l-0.4-0.6l0.4-0.8l-0.4-0.6l0.4-0.8l0.4,0.8l-0.4,0.6l0.4,0.8L294.9,117.2z M296.6,119.6c-0.4,0-0.7-0.3-0.9-0.9
			c-0.2-0.6-0.3-1.1-0.3-1.3c0.4,0,0.7,0.3,0.9,0.9c0.2,0.6,0.3,1.1,0.5,1.3H296.6z M297.4,124.7l-0.4-0.6l0.4-0.8l3.4,0.7
			L297.4,124.7z M300.6,120.9l-0.2-0.4l0.2-0.4l0.4,0.4L300.6,120.9z M301,121.9l0.2-0.4l0.4,0.4H301z M302.5,118.3l0.8-0.6
			c0.3,0.3,0.2,0.4-0.1,0.5C302.9,118.3,302.6,118.3,302.5,118.3z M303.3,120.9l0.8-0.8l0,1.3L303.3,120.9z M304.6,119l0.4-0.8
			l0.8,0.8l-0.8,0.6L304.6,119z M305,122l1,0.7l-1,0V122z M305.6,125.6l-0.6-0.4l0.4-0.2l0.6,0.2L305.6,125.6z M307.8,118.3h0.4
			l0,1.3h-0.4L307.8,118.3z M308.2,121.5c0,0.1-0.1,0.2-0.2,0.2c-0.1,0-0.2-0.1-0.2-0.2c0-0.1,0.1-0.2,0.4-0.2V121.5z M309.8,123.9
			l-0.9,0l0.9-1.1V123.9z M310.1,126.6l0.4-0.4l0.6,0.4L310.1,126.6z M310.9,118.3c-0.4-0.5-0.7-0.9-1-1.3c0.6,0,1.2,0.2,1.7,0.6
			c0.5,0.4,0.8,0.9,0.8,1.5C311.8,119,311.3,118.8,310.9,118.3z M311.8,121.3c-0.1,0.3-0.2,0.5-0.2,0.8l-0.4-1.1l1.1,0
			C312.2,120.9,312,121,311.8,121.3z M314.9,127.1l-0.8-0.6c0.1-0.1,0.2-0.3,0.2-0.6c0-0.2-0.1-0.3-0.4-0.2l0.8-0.6h0.2l1.3,0.6
			C315.5,126.3,315,126.7,314.9,127.1z M316.1,129l-0.4-0.6l0.4-0.8l0.6,0.8L316.1,129z M316.8,121.4l-0.2-0.4l0.4-0.4l0.4,0.2
			L316.8,121.4z M317.9,126.5v-1.3l0.8,0l0,1.3H317.9z M319.8,119l-0.6,0v-0.8l0.6,0V119z M320.2,121.4l1.5,1.3l-0.6,1.1
			L320.2,121.4z M321.7,125.2l-0.4-0.6l0.4-0.8l0.6,0.8L321.7,125.2z M323.7,128.4l-0.4-0.6c0.1-0.1,0.2-0.2,0.1-0.3c0,0,0,0-0.1,0
			l0,0.1c0,0,0-0.1,0-0.1c-0.1,0-0.1,0-0.2,0.1l-0.4-0.6l0.4-0.6c0.5,0.5,0.9,0.9,1.1,1.3L323.7,128.4z M324.4,122l0-1.1l1.9,0
			L325,122L324.4,122z M325.5,126.5l0.8-1.9l0,1.9L325.5,126.5z M327.4,119l-0.4-0.8l0.2-0.6l0.2,0l0.4,0.8L327.4,119z M328.2,121.4
			L328,121l0.4-0.4l0.4,0.2L328.2,121.4z M329.9,67.6l0.4,0.8l-0.4,0.6l-0.6-0.6L329.9,67.6z M331.2,119.5l-0.4-0.6l0.4-0.8l0.4,0.6
			L331.2,119.5z M331.2,117.1l-1.7-1.9l0.6-0.8l1.7,2.1L331.2,117.1z M332.1,82.3l0.4-0.8l0.4,0.8l-0.4,0.6L332.1,82.3z
			 M332.6,124.6v-0.8l0.6,0l0,0.8L332.6,124.6z M333,85.9l0-0.6l1.3,0l0,0.6L333,85.9z M334.3,72.7l0.6-0.6c0.3,0.4,0.5,0.8,0.8,1.3
			c-0.3,0-0.5-0.1-0.8-0.2C334.6,73.1,334.4,73,334.3,72.7z M335,109.5l0.6,0.6l-0.6,0.6l-0.4-0.6L335,109.5z M334.6,117.6l0.4-0.6
			l0.6,0.6l-0.6,0.6L334.6,117.6z M335.6,120.9c-0.1,0.3-0.3,0.5-0.6,0.5c0-0.4,0.2-0.8,0.8-1.3
			C335.8,120.3,335.7,120.6,335.6,120.9z M336.4,124.6L336,124l0.4-0.8l0.4,0.8L336.4,124.6z M336.9,116.3l-0.4-0.6l0.4-0.6l0.6,0.6
			L336.9,116.3z M337.7,115.1l-0.6-0.6l0.6-0.8l0.4,0.8L337.7,115.1z M338.8,101.9l1.3,0.9l-0.6,0.9l-0.8-1.3V101.9z M339.9,111
			l1.5,1.5l-2.7,0L339.9,111z M339.8,117l0.4-0.8l0.4,0.8l-0.4,0.6L339.8,117z M340.9,117.6l-0.4-0.2l0.8-0.6l0.2,0.2L340.9,117.6z
			 M340.7,106.8c0.1-0.2,0.3-0.4,0.6-0.5c0.3-0.1,0.5-0.1,0.8-0.1l0,1.3L340.7,106.8z M341.2,97.2c0.4,0.3,0.8,0.5,1.1,0.7
			c0.4,0.2,0.7,0.5,1,0.8l-0.8,0.4L341.2,97.2z M342.8,110.8l0.6-0.8l0.4,0.8l-0.4,0.6L342.8,110.8z M344.5,113.2l-0.4-0.6
			c0.1-0.1,0.2-0.2,0.1-0.3c0,0,0,0-0.1,0l0,0.1c0,0,0-0.1,0-0.1c-0.1,0-0.1,0-0.2,0.1l-0.4-0.6l0.4-0.6c0.5,0.5,0.9,0.9,1.1,1.3
			L344.5,113.2z M345.3,116.3l0-0.6l0.6,0.6L345.3,116.3z M346.8,109.6l0.2-0.2h0.2l0,0.6L346.8,109.6z M347.8,113.8l-0.4-0.6
			l0.4-0.8l0.4,0.8L347.8,113.8z M347.2,105.3l-3.2,2.3c0-0.9,0.2-1.8,0.7-2.7c0.5-0.9,1.3-1.4,2.3-1.4l3.4,3l-0.8,1.1L347.2,105.3z
			 M350.4,111.9c-0.1,0-0.2-0.1-0.2-0.3c0-0.2,0.1-0.3,0.2-0.3l-0.6-0.6l0.4-0.8l0.6,0.8c-0.3,0.1-0.3,0.3-0.3,0.5
			c0.1,0.2,0.2,0.2,0.5,0.1L350.4,111.9z M350.2,103.2c0-0.4,0-0.8,0.1-1.2c0.1-0.4,0.3-0.8,0.7-1l0.6,1.1L350.2,103.2z M351.7,99.1
			l0.4-0.9l-0.6-1.3l1.1-0.9l1.2,3.2L351.7,99.1z M323.3,127.5C323.3,127.5,323.3,127.5,323.3,127.5l0.2-0.5
			C323.4,127.2,323.3,127.3,323.3,127.5z M505.6,3.8l-2.5-2.6l-24.9,0.1c-0.6,0-1.2,0.3-1.7,0.9c-0.5,0.6-0.9,1.2-1.1,1.7l0.2,47.9
			L422.6,52l-0.2-47.4l-3.6-3.2l-24.7,0.1l-2.5,2.6l0.4,126.8l2.5,2.6l25.5-0.1l2.8-3.2l-0.2-49.2l52.9-0.2l0.2,50.6l2.1,1.9
			l26.2-0.1l1.9-1.9L505.6,3.8z M416,50.9l-1.3-1.7l1.3-1.1L416,50.9z M413.5,55.8l-0.2,0l0.6-0.6l0.2,0
			C414.1,55.7,413.9,55.8,413.5,55.8z M413.8,67.5l-0.4,0.4l-0.2-0.4l0.2-0.4L413.8,67.5z M413.3,54.7l-0.4-0.6l0.4-0.8l0.6,1.3
			L413.3,54.7z M413.5,101.9l-0.4-0.6l0.4-0.8l0.6,0.8L413.5,101.9z M413.5,110.9l-0.6,0.6v-0.6H413.5z M413.6,70.4l0.6-0.6l0.4,0.6
			l-0.4,0.6L413.6,70.4z M414.9,111.5l0.4,0.8l-0.4,0.6l-0.4-0.6L414.9,111.5z M414.7,56.6l-0.4-0.6l0.4-0.8l0.4,0.8L414.7,56.6z
			 M414.2,35.7l0.4-0.8l0.4,0.8l-0.4,0.6L414.2,35.7z M415.2,33c0,0.8-0.4,1.4-1.1,1.9L415,33H415.2z M414,21.5l0.4,0.2l0.2,0
			c0,0.5-0.3,0.8-0.8,0.8l-0.6,0L414,21.5z M413.2,19.2l-0.6,0l0-0.6h0.6L413.2,19.2z M402.6,36.8l1.1,1.3l-3.8,1.5L402.6,36.8z
			 M401.5,36.4l0.4-0.6l0.6,0.6l-0.6,0.4L401.5,36.4z M401.2,14.9l0.6-1.3l2.7,1.3L401.2,14.9z M402.4,25.7l-0.6,0.6l-0.4-0.6
			l0.4-0.8L402.4,25.7z M403.7,11.7l0.8,0l0,0.6l-0.8,0L403.7,11.7z M403.2,27.4l0,0.8l-0.6,0l0-0.8L403.2,27.4z M403.2,32.1
			l0.4,3.6l-0.4-2.6c-0.3,0-0.4-0.1-0.4-0.4C402.8,32.4,402.9,32.2,403.2,32.1z M403.8,49.1l-0.6-1.1v-0.2l1.3,0.4L403.8,49.1z
			 M403.8,54l0.6,2.1l-1-1.3L403.8,54z M402,64.2l0-1.3l1.7,1.3L402,64.2z M403.2,86.3l-0.4,0.6l-0.6-0.6l0.6-0.8L403.2,86.3z
			 M402,72.3c0,0.3-0.3,0.5-0.8,0.8c0.2-0.4,0.4-0.8,0.7-1.1C401.9,72,402,72.1,402,72.3z M402.1,95.9l-0.6,0.4l0-0.4L402.1,95.9z
			 M399.6,104.8v-0.4c0.3,0.5,0.5,0.9,0.8,1.1l-0.2,0.4C399.8,105.5,399.6,105.1,399.6,104.8z M400,107l-0.4,0.8l-0.4-0.8l0.4-0.8
			L400,107z M399.6,94.4l-0.4-0.6l0.4-0.8l0.4,0.8L399.6,94.4z M400.2,95.9l-0.4-0.8l0.4-0.8l0.6,0.8L400.2,95.9z M400,50v-0.4
			l0.8,0L400,50z M401,106.3l0,0.9l-0.4-0.4C400.6,106.4,400.7,106.3,401,106.3z M400.9,83.6l0.6,0l0,0.8L400.9,83.6z M401.2,60.4
			V60l0.2-0.4L401.2,60.4z M401.4,67.2V68l-0.2-0.4L401.4,67.2z M401.9,52.9l0.8,0l0,0.6L401.9,52.9z M402.5,58l-0.6,0.6l-0.4-0.6
			l0.4-0.8L402.5,58z M402.3,41l-0.4-0.4l0.4-0.2l0.4,0.2L402.3,41z M402.1,47l-3.2,0.8l-0.6-0.8l0.6-0.8L402.1,47z M399,96.8
			l0.4,0.8l-0.4,0.6l-0.6-0.6L399,96.8z M399.1,112.9l0.4,0.6l-0.4,0.4l-0.6-0.4L399.1,112.9z M399.3,112.3v-0.6l0.4,0.2
			L399.3,112.3z M399.5,109.7l1.5,0l0,0.4l0.8,0l-0.8,1.5L399.5,109.7z M401.5,100.6l1.3-1.3l0,3L401.5,100.6z M402.9,104.4l0.4,0.8
			l-0.4,0.8l-0.6-0.8L402.9,104.4z M403.2,94.6l0.2-0.2l0,0.6L403.2,94.6z M403.4,106.3v0.9l-0.2-0.4L403.4,106.3z M403.4,109.1
			l-0.6,0.6l0-0.6L403.4,109.1z M403.4,97.8l0.6-0.9l0,1.3L403.4,97.8z M403.4,93l-0.4-0.6l0.4-0.6l-0.4-0.6l0.4-0.8l0.4,0.8
			l-0.4,0.6l0.8,0.6L403.4,93z M403.6,88.1v-1.3l0.4-0.6l0.4,0.8l-0.2,0.4c0.1,0.3,0.3,0.5,0.6,0.7c0.3,0.2,0.4,0.4,0.4,0.7
			l-0.4,0.6L403.6,88.1z M403.7,68.1l0.2-0.2l0.4,0.4l-0.4,0.2L403.7,68.1z M401.8,59.8l2.7-0.6c-0.4-0.1-0.8-0.3-1.2-0.7l1.3,0
			l0,0.7l0.6-0.1c-0.3,0.1-0.4,0.3-0.4,0.7c0,0.3,0.1,0.5,0.4,0.7L401.8,59.8z M405.1,51l-0.4-0.9l-0.8-0.4l0.6-0.6
			c0.5,0.5,0.8,0.9,1,1.3L405.1,51z M404.5,40.6l0.6-2.5c0.6,0.5,1,1.1,1.2,1.9c0.2,0.8,0.4,1.4,0.7,2.1L404.5,40.6z M405.6,30
			l0.8,1.1l-0.8-0.6L405.6,30z M412.5,39.6l-3,2.5l-1.2-4L412.5,39.6z M410.6,32.1l0.8-2.1l0.8,2.1L410.6,32.1z M412.6,45.8
			l-0.4,0.4l-0.6-0.4l0.6-0.6L412.6,45.8z M410.4,90l0.4,0.6l-0.4,0.6l-0.6-0.6L410.4,90z M409.8,66.6l0.6-0.6l0.4,0.6l-0.4,0.6
			L409.8,66.6z M409.6,64.2c0-0.3,0.1-0.5,0.2-0.9c0.1-0.3,0.3-0.5,0.6-0.5h0.6L409.6,64.2z M410.3,44v0.4l-0.8,0L410.3,44z
			 M408.3,24.4l-0.6-0.6l0.6-0.8l0.4,2.6L408.3,24.4z M408.3,12.3l-0.6-0.6l0.6-0.6l0.4,0.6L408.3,12.3z M408.3,27.4l0,0.8l-1.3,0
			L408.3,27.4z M408.3,32.5l-0.8,0.6v-0.6L408.3,32.5z M407.2,83l-0.4,0.4l-0.2-0.4l0.4-0.4l0.2,0.2V83z M407.2,91.1l-0.4,0.4
			l-0.2-0.4L407,91L407.2,91.1z M406.5,53.4v-0.6l0.6,0L406.5,53.4z M406.6,76.1l0.4,0.8l-0.4,0.6l-0.6-0.6L406.6,76.1z M406.6,89.3
			L407,90l-0.4,0.6L406,90L406.6,89.3z M406.6,98.1l0.4,0.8l-0.4,0.8l-0.6-0.8L406.6,98.1z M406.8,95.7l0.4-0.8l0.4,0.8l-0.4,0.6
			L406.8,95.7z M407.7,69.1l-0.4-0.6l0.4-0.6l0.6,0.6L407.7,69.1z M408.3,83.8l-0.6,0.6l-0.4-0.6l0.4-0.8L408.3,83.8z M407.8,111
			l0.6,0.6l-0.6,0.4l-0.4-0.4L407.8,111z M407.1,59.3l0-0.8l3.2-1.9L407.1,59.3z M409.1,91.9l0.4,0.6l-0.4,0.6l-0.4-0.6L409.1,91.9z
			 M408.6,69.3l0.4-0.8l0.4,0.8l-0.4,0.6L408.6,69.3z M408.9,96.6l0.2,0.2l-0.4,0.4l-0.2-0.4L408.9,96.6z M409.1,93.8l3-2.7h0.2
			c-0.6,0.3-1,0.8-1.2,1.5c-0.2,0.8-0.7,1.1-1.6,1.1H409.1z M411.2,97.5l0.4-0.8l0.6,0.8l-0.6,0.6L411.2,97.5z M411.4,99.4L411,100
			l-0.4-0.6l0.4-0.8L411.4,99.4z M411.6,96.2c0.1-0.5,0.4-0.9,0.8-1.3l0,1.3L411.6,96.2z M409.7,96.8l0.6,0.8l-0.6,0.6l-0.4-0.6
			L409.7,96.8z M409.7,99.6l0.8,0.4l0.4,0.8l-0.4,0.8c-0.3-0.4-0.6-0.8-1.1-1.3L409.7,99.6z M410.5,109.6l1.1,0.4l-1.1,0.9l-0.8-0.9
			L410.5,109.6z M411.6,111.5l0.6,0.8l-0.6,0.6l-0.4-0.6L411.6,111.5z M411.6,109.1l0.8-1.3l0,1.9L411.6,109.1z M412.2,52.8
			l-0.6-0.6l0.6-0.8l0.4,3.2L412.2,52.8z M412.1,28.1l-0.8-1.3l0-0.6l1.3,1.1L412.1,28.1z M413,13.6l-1,0l0-1.3
			C412.7,12.5,413,13,413,13.6z M412.1,17.4l-1.3,0.6l0-0.6L412.1,17.4z M410.1,9.8c0-0.1,0.1-0.3,0.3-0.4c0.2-0.1,0.3-0.1,0.3,0.2
			l0,0.2l-3.8,0.4L410.1,9.8z M407,26.8l-3.2-0.6l-0.4-0.6l0.4-0.8l0.6,0.8l-0.6,0.6l2.7,0L407,26.8z M405,20.6v-0.8l0.6,0l0,0.8
			L405,20.6z M405.6,9.8l0.4-0.4l0.4,0.4l-2.7,0.4L405.6,9.8z M401.8,9.8c0.3,0,0.6,0.1,1,0.4c0.4,0.3,0.7,0.6,0.7,0.9
			c-0.4,0-0.8-0.2-1.2-0.5c-0.4-0.3-0.8-0.6-1-0.8L401.8,9.8z M401.2,12.3l0.4,0.8l-0.4,0.6l-0.4-0.6L401.2,12.3z M401.9,31.2l0.8,0
			c-0.5,0.6-1.4,1.1-2.7,1.3L401.9,31.2z M398.7,13.1l-0.6-0.6l0.6-0.8l0.4,0.8L398.7,13.1z M398.7,9.3l0.4,0.6l-0.4,0.6l-0.6-0.6
			L398.7,9.3z M403.5,126.6l0.6,0l0,0.6L403.5,126.6z M407.3,126.6l-0.6,0l0.6-0.2V126.6z M408.5,124.8c-1.3,0.3-2.6,0.5-3.7,0.5
			l0.6-0.6l-0.8-0.6l-2.5,2.5l0-1.3l-1.9,1.3c0.1-0.2,0.1-0.7-0.1-1.2c-0.2-0.6-0.4-1-0.5-1.2l-1.9,1.1l1.9-4.7l0,2.3
			c0.6,0,1.3-0.1,1.9-0.3c0.6-0.2,1.3-0.3,1.9-0.3l-1.3,1.9c0.8-0.3,1.4-0.7,1.9-1.3c0.5-0.6,1.1-1.1,1.9-1.3l-0.6-0.6l1.3-2.6
			l-1.3-0.6l0.4,0.8l-0.4,0.6c-0.1,0-0.2-0.2-0.3-0.6c-0.1-0.4,0-0.6,0.1-0.8l-4.2,2.7l-0.8-1.3l3.8-3.8l1.9-0.6l-0.8-0.4
			c-0.6,0-1.3,0.2-1.9,0.5c-0.6,0.3-1,0.9-1.1,1.6l-0.6-0.6l-1.3,0.8l0.8-1.3l-0.8-1.9v-0.2l0.8,0.6l0.4-0.2l-0.6-0.8l2.7-2.8
			c-0.3,0.6-0.5,1.2-0.7,1.7c-0.2,0.5-0.4,1.1-0.7,1.7l0.6,0.6l0.8-0.2l0-0.9c0.6,0,1.1-0.3,1.5-0.9c0.4-0.6,0.9-0.9,1.5-0.9
			c0,0.3,0,0.8,0.1,1.6c0.1,0.8,0.2,1.7,0.4,2.5c0.2,0.9,0.4,1.6,0.7,2.3c0.3,0.6,0.6,0.9,1,0.9l2.5-3.8l-1.9,1.9l-1.3-1.3l0.8-1.9
			l-0.8-0.6l1.1-0.4c0.6,0.3,1.4,0.6,2.3,1c0.4,0.2,0.7,0.4,1,0.7l0.8-0.4l0.4,0.8l-0.4,0.8l0.4,0.9c-1.4,0-2.5,0.7-3.4,2
			c-0.9,1.3-1.8,2.4-2.6,3.3l0.8,0.6l-0.2,0.4l2.1,0.4l1.1-0.6C410.7,123.6,409.9,124.5,408.5,124.8z M401.4,121.4l0.2-0.4l0,0.6
			L401.4,121.4z M402.3,121l0.6-0.6l0.4,0.6l-0.4,0.6L402.3,121z M413,117.7l-3.2,3.2l-0.6,0c0.6-0.5,1.1-1.2,1.3-2
			c0.3-0.8,0.9-1.2,1.9-1.2L413,117.7z M412.8,120.9l-1.1,0.6l-0.6-0.6l3.2-3.2l1,2.3l-1.9,0.6c0.1-0.2,0-0.6-0.4-0.9l-0.4,0.9
			L412.8,120.9z M414.9,121.5l-0.4,0.4l-0.2-0.4l0.6-0.2L414.9,121.5z M413,127.9l1.3-3.2l0.6,1.3L413,127.9z M414.9,123.4l-0.4-0.6
			l0.4-0.6l0.4,0.6L414.9,123.4z M414.9,63.6l0.4-0.8l0.8,0.6l0.4,0.8l-0.4,0.6C415.5,64.5,415.1,64.1,414.9,63.6z M415.4,98.1
			l0.8,0l-0.8,0.6V98.1z M416.2,100l-0.6-0.6l0.6-0.8l0.4,0.8L416.2,100z M417.9,67.1l-0.6-0.6l0.6-0.6l0.4,0.6L417.9,67.1z
			 M418.5,68.5l-0.2-0.6l0.2-0.8l0.4,0.6L418.5,68.5z M419.3,62.8l-0.2-0.2l0.6-0.6l0.4,0.4L419.3,62.8z M421,60.9l-0.4-0.6l0.4-0.8
			l0.6,0.8L421,60.9z M465.6,60.4l0,0.9l-1.9,0L465.6,60.4z M457.5,57.6l0.4,0.8l-0.4,0.6l-0.6-0.6L457.5,57.6z M449.9,59.5l0.4,0.8
			l-0.4,0.6l-0.6-0.6L449.9,59.5z M448.5,58.4l0.4,0.6l-0.4,0.6l-0.4-0.6L448.5,58.4z M446.8,60.8l0.4,1.9l-1.1,0L446.8,60.8z
			 M442.3,59l0.4,0.8l-0.4,0.6l-0.6-0.6L442.3,59z M433.2,66l0.2,0v0.6l-0.4-0.4L433.2,66z M431.4,64.1h-0.6l0-1.3L431.4,64.1z
			 M429.1,61.8l0.4,0.4l-0.4,0.2l-0.4-0.4L429.1,61.8z M427.4,59l0.2,0l-0.6,0.6l-0.2-0.2L427.4,59z M423.1,62.8
			c0.3-0.2,0.5-0.4,0.8-0.6l0,1.1C423.6,63.2,423.3,63,423.1,62.8z M424.8,64.1l-0.4-0.6l0.4-0.8l0.8,0.8L424.8,64.1z M425,60.9
			c0.3-0.3,0.5-0.4,0.8-0.6l0,1.1C425.5,61.3,425.2,61.2,425,60.9z M427.1,69c0.3-0.2,0.6-0.4,0.9-0.6c0.4-0.1,0.7-0.3,1-0.4l0,1.7
			L427.1,69z M427.6,67.1l-1-1.1l3-1.3L427.6,67.1z M429.9,66.5l0-0.6c0.6,0.4,1.2,1,1.7,1.9C430.5,67.9,429.9,67.4,429.9,66.5z
			 M432.8,69v-0.6l0.6,0.6L432.8,69z M433.7,70.3l-0.4-0.6l0.4-0.8l0.8,0.8L433.7,70.3z M437.7,69l-0.4-0.6l0.4-0.6l0.6,0.6
			L437.7,69z M440.4,69l-0.6-0.6l0.6-0.6l0.4,0.6L440.4,69z M440.9,66.5v-0.6l0.6,0.6L440.9,66.5z M441.5,62.7l-0.4-0.6l0.4-0.8
			l0.6,0.8L441.5,62.7z M442.5,73.1l-0.4-0.6l0.4,0l0.4,0.2L442.5,73.1z M442.5,63.3l1.7,0l-0.8,1.3L442.5,63.3z M444.2,68.4
			l-0.6-0.6l0.6-0.8l0.4,0.8L444.2,68.4z M444.7,59.5l-0.4-0.6l0.4-0.6l0.4,0.6L444.7,59.5z M446.1,71.6l-0.6-0.6l0.6-0.8l0.4,0.8
			L446.1,71.6z M445.9,66.5c0-0.8,0.3-1.2,0.8-1.3l0,1.3H445.9z M446.8,64l0.4-0.8l0.6,0.8l-0.6,0.6L446.8,64z M448.6,72.1l-0.4-0.4
			l0.2-0.2h0.2V72.1z M447.8,69.9l-0.2-0.9c0.3-0.1,0.5-0.3,0.9-0.4c0.3-0.1,0.6-0.2,0.9-0.2l0.6,0C449.3,69,448.6,69.5,447.8,69.9z
			 M449.9,63.6l0-1.5l0.6,0L449.9,63.6z M451,70.8l-0.6-0.9l0-0.2l0.8,0.8L451,70.8z M451.8,68.9l0-1.1l0.4,0.9L451.8,68.9z
			 M451.8,64l0.6-0.8c0.3,0.6,0.5,1.3,0.8,2.1L451.8,64z M453.7,62.1l0-1.9l0.8,1.9L453.7,62.1z M455.6,59.5l0.6,0l0,0.8L455.6,59.5
			z M456.2,66.5l0-1.3c0.5,0.1,0.8,0.6,0.8,1.3L456.2,66.5z M457.5,63.2l-0.8-0.6l1.3,0L457.5,63.2z M458.7,73.4l-0.4-0.6l0.4-0.8
			l0.6,0.8L458.7,73.4z M458.1,68.3c0.1-0.5,0.6-0.8,1.3-0.8l0,0.8L458.1,68.3z M459.4,60.8l0.6-1.3l0,1.3H459.4z M461.6,65.7
			c-0.2-0.5-0.5-1.1-1-1.7l0.8-0.2c0.6,0,1.1,0.3,1.5,0.9c0.4,0.6,0.7,1.2,1,1.7l-0.4,0C462.4,66.4,461.8,66.2,461.6,65.7z
			 M463.6,68.7l0.2-0.4l0,0.6L463.6,68.7z M464.1,64.2l-0.4-0.2l1.1-0.8l0.2,0.4L464.1,64.2z M465.3,64.9l0-0.6l0.4,0.2L465.3,64.9z
			 M465.7,67l0.6-1.9l0,2.6L465.7,67z M468.9,70.8l-0.6-0.6l0.6-0.6l0.4,0.6L468.9,70.8z M468.7,68.3l-0.6,0l1.9-1.9l0.2,0.6
			C470.2,67.9,469.7,68.3,468.7,68.3z M472,71.5l-0.4-0.6l0.4-0.8l0.6,0.8L472,71.5z M472.7,64.5l0.6,0l0,0.6L472.7,64.5z
			 M474.6,60.7l0,0.6l-0.8,0L474.6,60.7z M473.8,68.9l0-0.6h0.8L473.8,68.9z M476.5,64.5l-0.6-0.6l0.6-0.8l0.4,0.8L476.5,64.5z
			 M495.9,14.6l0.4,0.2l-0.4,0.4l-0.2-0.4L495.9,14.6z M495.9,19l0.8,0.8l-0.8,0.6l-0.4-0.6L495.9,19z M496.7,22.2l-0.8,0.6
			l-0.4-0.6l0.4-0.8L496.7,22.2z M495.5,17.6l0,1.3l-0.4-1.3L495.5,17.6z M495,20.3l0.4,0.6l-0.4,0.6l-0.8-0.6L495,20.3z
			 M494.8,35.4l-0.8,0.6l-0.4-0.6l0.4-0.8L494.8,35.4z M494.1,29.7l0,1.1h-0.4l0-1.1H494.1z M493.7,37.5l0,0.9L493,38
			C493.2,37.8,493.5,37.6,493.7,37.5z M493.7,40.3l0.8-0.9l-1.7,3.8L493.7,40.3z M493.9,45.8l-0.6,0.4l0-0.2l0.4-0.4L493.9,45.8z
			 M492.8,50.7l0.8,0.2c-0.1,0-0.4,0-0.7,0c-0.3,0-0.5-0.1-0.7-0.2l0.4-0.4C492.7,50.3,492.8,50.4,492.8,50.7z M492.7,66.1l-0.4,0.2
			l-0.2-0.4l0.2-0.2L492.7,66.1z M492.2,34.1l0-0.3l0.6,0.3L492.2,34.1z M490.8,35.6l0.4,0.2l-0.4,0.2l-0.2-0.4H490.8z M491.3,47.3
			l-0.4,0.2l-0.2-0.6h0.2L491.3,47.3z M489.9,34.1l-0.8-0.6l0.8-0.8L489.9,34.1z M489.8,10.9l0,1.1c-0.3-0.1-0.5-0.3-0.8-0.6
			C489.3,11.2,489.6,11,489.8,10.9z M489.8,15.2l0,0.6l-0.9-0.6L489.8,15.2z M490,37.2c0.6,0.2,0.9,0.8,0.9,1.8
			c-1.6,0-2.5-0.8-2.5-2.4l0-0.6C488.9,36.6,489.4,37,490,37.2z M487,32.2l0-1.9l1.3,0.9L487,32.2z M487.4,40.3l-0.4,0.8l-1.2-2.3
			v-0.4L487.4,40.3z M488.3,13l0,0.4l-0.2,0.4l-0.2-0.4L488.3,13z M487,25.2l1.2,2.3l-2.3-1.1L487,25.2z M485.9,34.7l0.2,0.8
			l-0.4,0.6l-0.2-0.6L485.9,34.7z M482.1,24.7l0.4,0.8l-0.4,0.6l-0.6-0.6L482.1,24.7z M479.5,56.4l-0.4-0.6l0.4-0.8l0.6,0.8
			L479.5,56.4z M481.3,36l0.8,0l0,0.6l-0.8,0V36z M482.2,55.1l-0.6-0.6l0.6-0.8l0.4,0.8L482.2,55.1z M482.6,17.9v-0.2l1.3,1.3
			C483.1,19,482.6,18.6,482.6,17.9z M483,27.1l0.2-0.6l0.4,0.8l-0.4,0.6L483,27.1z M483.5,59.6l0.6-0.8l0.4,0.8l-0.4,0.6L483.5,59.6
			z M484.1,77.1v-0.6l0.6,0l0,0.6H484.1z M485.2,44.1l-0.6,0l0.6-0.4V44.1z M486,53.7l0,1.9l-0.8-1.1L486,53.7z M485.8,119.2
			l0.4-0.4l0.2,0.4L485.8,119.2z M486.6,75.2l-0.4,0.4l-0.2-0.4l0.4-0.4l0.2,0.2V75.2z M487.2,80.3l-0.4-0.6l0.4-0.8l0.8,0.8
			L487.2,80.3z M488.6,105.6l-0.4-0.8l0.4-0.8l0.4,0.8L488.6,105.6z M488.9,76.9l-0.4-0.4l0.4-0.4l0.2,0.2l0,0.2L488.9,76.9z
			 M490,53.1l0,1.3l-0.8-0.6L490,53.1z M490,79.6l0,1.3l-0.8-0.6L490,79.6z M489.4,121.4l0.8-0.8l0,1.3L489.4,121.4z M490.3,39.7
			l0.6,0.6l-0.6,0L490.3,39.7z M490.9,57.5l-0.4-0.6l0.4-0.6l0.8,0.6L490.9,57.5z M492,17.4l0.1,0.3L492,17.4L492,17.4z M492.1,22.2
			l0.4,0.2l-0.4,0.4l-0.2-0.4L492.1,22.2z M492.3,83.3l-0.4-0.6l0.4-0.6l0.4,0.6L492.3,83.3z M493.7,94c-0.1-0.8-0.2-1.5-0.2-2.2
			l0.2-0.2h0.2l0,4.7C493.9,95.6,493.8,94.8,493.7,94z M492.9,75.2c0-0.9,0.4-1.3,1.3-1.3l0,1.3L492.9,75.2z M495.2,82.2l0.4,0.6
			l-0.4,0.6l-0.8-0.6L495.2,82.2z M495.2,88.4l-0.8-0.6l0.8-0.8l0.4,0.8L495.2,88.4z M495.7,62l1.3,0l0,0.6l-1.3,0L495.7,62z
			 M495.9,77.3l0.2-0.2l0.4,0.4l-0.4,0.2L495.9,77.3z M497.1,93.5l-0.8-0.6l0.8-0.8l0.4,0.8L497.1,93.5z M497.2,55.8l0.4-0.8l0,1.3
			L497.2,55.8z M497.7,99.7l0-0.4l0.4,0L497.7,99.7z M499.4,19l-0.4-0.6l0.4-0.8l0.4,0.8L499.4,19z M500.1,81.4l-0.4-0.6l0.4-0.6
			l0.6,0.6L500.1,81.4z M415.8,63.4c-0.3,0.3-0.4,0.5-0.4,0.8L415.8,63.4z M410.1,100.3l0.2-0.3
			C410.1,100.1,410.1,100.2,410.1,100.3C410.1,100.3,410.1,100.3,410.1,100.3z M404.6,59.2l-0.2,0C404.5,59.3,404.5,59.3,404.6,59.2
			L404.6,59.2z M404.3,88.4l-0.2,0.3C404.3,88.6,404.3,88.5,404.3,88.4z M404.3,88.4l0.2-0.3C404.4,88.3,404.3,88.4,404.3,88.4
			C404.3,88.4,404.3,88.4,404.3,88.4z M404.9,49.8c0.1,0,0.1-0.1,0.1-0.2C404.9,49.7,404.8,49.8,404.9,49.8
			C404.8,49.8,404.8,49.8,404.9,49.8z M410.1,100.3l-0.2,0.3C410,100.4,410.1,100.4,410.1,100.3z M401.2,123.6l0.4,0.6l0.4-0.6
			l-0.4-0.8L401.2,123.6z M405.4,122.3l-0.4,0.6l0.4,0.6c0.1-0.1,0.2-0.2,0.3-0.1c0.1,0.1,0,0.2-0.1,0.3l0.4,0.6l0.6-0.6
			c-0.3-0.2-0.5-0.5-0.7-0.7C405.7,122.8,405.5,122.5,405.4,122.3z M406.7,120.4h0.6l-0.6-0.8L406.7,120.4z M405.6,116.1l0.4,0.6
			l0.6-0.6l-0.6-0.8L405.6,116.1z M409,114.3l0.2,0.4l0.2-0.4l-0.2-0.6L409,114.3z M413,115.3c-0.1-0.4-0.4-0.8-0.8-1.1l0,0
			L413,115.3z"/>
	</g>
</g>
</svg>
