<?xml version="1.0" encoding="UTF-8" standalone="no"?>
<!-- Created with Inkscape (http://www.inkscape.org/) -->

<svg
   width="132.03584mm"
   height="42.985115mm"
   viewBox="0 0 132.03584 42.985115"
   version="1.1"
   id="svg1"
   inkscape:version="1.4.1 (93de688d07, 2025-03-30)"
   sodipodi:docname="30th-street-in-a-single-bound-stacked.svg"
   inkscape:export-filename="../../30th-street-in-a-single-bound-stacked.png"
   inkscape:export-xdpi="1557.4437"
   inkscape:export-ydpi="1557.4437"
   xmlns:inkscape="http://www.inkscape.org/namespaces/inkscape"
   xmlns:sodipodi="http://sodipodi.sourceforge.net/DTD/sodipodi-0.dtd"
   xmlns="http://www.w3.org/2000/svg"
   xmlns:svg="http://www.w3.org/2000/svg">
  <sodipodi:namedview
     id="namedview1"
     pagecolor="#ffffff"
     bordercolor="#000000"
     borderopacity="0.25"
     inkscape:showpageshadow="2"
     inkscape:pageopacity="0.0"
     inkscape:pagecheckerboard="0"
     inkscape:deskcolor="#d1d1d1"
     inkscape:document-units="mm"
     inkscape:zoom="1.0547699"
     inkscape:cx="224.69355"
     inkscape:cy="295.79911"
     inkscape:window-width="3440"
     inkscape:window-height="1395"
     inkscape:window-x="0"
     inkscape:window-y="22"
     inkscape:window-maximized="1"
     inkscape:current-layer="layer1" />
  <defs
     id="defs1">
    <filter
       style="color-interpolation-filters:sRGB"
       inkscape:label="Drop Shadow"
       id="filter34"
       x="-0.0064623756"
       y="-0.03295949"
       width="1.0293377"
       height="1.1496256">
      <feFlood
         result="flood"
         in="SourceGraphic"
         flood-opacity="1.000000"
         flood-color="rgb(0,0,0)"
         id="feFlood33" />
      <feGaussianBlur
         result="blur"
         in="SourceGraphic"
         stdDeviation="0.000000"
         id="feGaussianBlur33" />
      <feOffset
         result="offset"
         in="blur"
         dx="1.200000"
         dy="1.200000"
         id="feOffset33" />
      <feComposite
         result="comp1"
         operator="in"
         in="flood"
         in2="offset"
         id="feComposite33" />
      <feComposite
         result="comp2"
         operator="over"
         in="SourceGraphic"
         in2="comp1"
         id="feComposite34" />
    </filter>
    <mask
       maskUnits="userSpaceOnUse"
       id="mask36">
      <rect
         style="fill:#ffffff;fill-opacity:1;stroke:none;stroke-width:0.944999;stroke-linecap:round;stroke-linejoin:round;stroke-miterlimit:6.5;stroke-dasharray:none;stroke-opacity:1;paint-order:markers stroke fill"
         id="rect37"
         width="58.178642"
         height="26.073965"
         x="159.99127"
         y="200.60989" />
    </mask>
    <filter
       style="color-interpolation-filters:sRGB"
       inkscape:label="Drop Shadow"
       id="filter2"
       x="-0.0029895601"
       y="-0.031967752"
       width="1.0135717"
       height="1.1451221">
      <feFlood
         result="flood"
         in="SourceGraphic"
         flood-opacity="1.000000"
         flood-color="rgb(0,0,0)"
         id="feFlood1" />
      <feGaussianBlur
         result="blur"
         in="SourceGraphic"
         stdDeviation="0.000000"
         id="feGaussianBlur1" />
      <feOffset
         result="offset"
         in="blur"
         dx="1.200000"
         dy="1.200000"
         id="feOffset1" />
      <feComposite
         result="comp1"
         operator="in"
         in="flood"
         in2="offset"
         id="feComposite1" />
      <feComposite
         result="comp2"
         operator="over"
         in="SourceGraphic"
         in2="comp1"
         id="feComposite2" />
    </filter>
  </defs>
  <g
     inkscape:label="Layer 1"
     inkscape:groupmode="layer"
     id="layer1"
     transform="translate(-45.761732,-70.120211)">
    <g
       id="g37"
       inkscape:label="30th street in a single bound!"
       transform="translate(-37.774183,-108.1881)">
      <path
         d="m 123.2291,159.09111 c -0.74702,0.0237 -1.72527,0.54547 -2.93474,1.5652 2.22922,0.34387 3.3379,1.2154 3.32604,2.61459 0,1.20947 -0.72924,2.41894 -2.18771,3.62841 -1.44663,1.20947 -2.82803,1.76084 -4.14421,1.65413 -1.51777,-0.13043 -2.33001,-1.24504 -2.43673,-3.34383 l 3.29047,-0.46245 c -0.0474,0.14229 -0.0711,0.2668 -0.0711,0.37352 0,0.20157 0.10079,0.30236 0.30237,0.30236 0.083,0 0.17786,-0.0178 0.28458,-0.0534 0.50987,-0.14229 0.90117,-0.39129 1.1739,-0.74702 0.10671,-0.13043 0.16007,-0.26087 0.16007,-0.3913 0,-0.53359 -0.57509,-0.80039 -1.72527,-0.80039 -0.62845,0 -1.46441,0.0711 -2.50787,0.21344 l 0.60473,-2.9881 c 1.07904,-0.71145 2.11065,-1.40512 3.09482,-2.081 -1.00789,0.083 -2.00392,0.18972 -2.9881,0.32015 l 0.21344,-3.3794 7.16789,-0.40909 c -0.15415,0.87746 -0.36166,2.20551 -0.62252,3.98414 z m 7.2094,-4.64223 c 1.2569,0 2.14621,0.6996 2.66795,2.09879 0.27272,0.72331 0.40908,1.51776 0.40908,2.38336 0,0.83003 -0.1245,1.73121 -0.37351,2.70353 -0.43873,1.66005 -1.19761,3.18968 -2.27665,4.58887 -1.31619,1.70749 -2.70945,2.56123 -4.17979,2.56123 -1.26876,0 -2.16993,-0.6996 -2.70352,-2.09879 -0.26087,-0.68773 -0.3913,-1.45847 -0.3913,-2.31222 0,-0.84189 0.13043,-1.75492 0.3913,-2.73909 0.43873,-1.67192 1.19168,-3.20747 2.25886,-4.60666 1.31619,-1.71935 2.71538,-2.57902 4.19758,-2.57902 z m -0.64031,4.41101 c -0.65217,0 -1.31619,0.53359 -1.99207,1.60077 -0.54545,0.84189 -0.92489,1.66599 -1.13832,2.4723 -0.10672,0.42687 -0.16008,0.81224 -0.16008,1.15611 0,0.48616 0.11857,0.88339 0.35572,1.19168 0.27273,0.34387 0.65217,0.51581 1.13833,0.51581 0.66402,0 1.26283,-0.3498 1.79642,-1.0494 0.42687,-0.5573 0.73517,-1.21539 0.92489,-1.97428 0.22529,-0.88931 0.27272,-1.76677 0.14229,-2.63238 -0.14229,-0.85374 -0.49802,-1.28061 -1.06718,-1.28061 z m 11.51368,-3.80628 -0.10672,3.30826 c -0.83003,0.0475 -1.61855,0.10675 -2.36558,0.17786 -0.7826,3.28455 -1.31026,6.3023 -1.58298,9.05325 l -3.00589,0.78259 1.63634,-9.46232 c -0.32015,0.0474 -0.64031,0.10076 -0.96046,0.16007 l -0.94268,0.17787 -0.21343,-3.32605 z m 0.32608,0.74703 3.29047,-0.56916 c -0.59287,2.26479 -1.0731,4.32801 -1.44069,6.18964 l 1.47627,-0.30237 0.9071,-5.31811 3.29047,-0.56916 c -1.2569,4.84974 -2.05136,8.97024 -2.38337,12.3615 l -3.05925,0.78259 0.81817,-4.83788 c -0.33201,0.0711 -0.83595,0.17787 -1.51183,0.32016 -0.2253,1.45847 -0.38537,2.70352 -0.48023,3.73513 l -3.05925,0.78259 z m 18.66379,3.14818 c -0.37944,0.14229 -0.83003,0.31423 -1.35176,0.5158 l -1.33398,0.51581 c 0,-0.55731 -0.15415,-0.83596 -0.46244,-0.83596 -0.43873,0 -0.87746,0.24901 -1.31619,0.74703 -0.3083,0.36758 -0.43873,0.72331 -0.3913,1.06718 0.0356,0.22529 0.26087,0.33794 0.67588,0.33794 0.22529,0 0.52173,-0.0356 0.88932,-0.10672 0.50987,-0.10672 0.96046,-0.16008 1.35176,-0.16008 0.99603,0 1.57705,0.34387 1.74306,1.03161 0.0474,0.21343 0.0712,0.43873 0.0712,0.67588 0,0.75888 -0.28458,1.57705 -0.85375,2.45451 -0.73516,1.15018 -1.76677,2.11657 -3.09482,2.89917 -0.69959,0.41501 -1.38733,0.62252 -2.06321,0.62252 -0.61659,0 -1.22133,-0.17193 -1.81421,-0.5158 0.29644,-0.71145 0.77075,-1.76085 1.42291,-3.14818 0.37944,0.26087 0.7826,0.3913 1.20947,0.3913 0.18972,0 0.38537,-0.0296 0.58695,-0.0889 0.36758,-0.0949 0.71738,-0.23122 1.04939,-0.40909 0.4743,-0.26087 0.71146,-0.52766 0.71146,-0.80038 0,-0.29644 -0.24308,-0.44466 -0.72924,-0.44466 -0.33202,0 -0.81818,0.0711 -1.45848,0.21344 -0.62845,0.13043 -1.10868,0.19565 -1.4407,0.19565 -0.43872,0 -0.77667,-0.083 -1.01382,-0.24901 -0.46244,-0.3083 -0.65216,-0.78853 -0.56916,-1.4407 0.15415,-1.31619 1.00197,-2.83988 2.54345,-4.57108 1.57705,-1.77863 2.93474,-2.70945 4.07307,-2.79246 1.10275,-0.0711 1.65412,0.75889 1.65412,2.49009 0,0.41501 -0.0296,0.88339 -0.0889,1.40512 z m 8.50779,-3.89521 -0.10672,3.30826 c -0.83003,0.0475 -1.61855,0.10675 -2.36558,0.17786 -0.7826,3.28455 -1.31026,6.3023 -1.58298,9.05325 l -3.00589,0.78259 1.63634,-9.46232 c -0.32015,0.0474 -0.64031,0.10076 -0.96046,0.16007 l -0.94268,0.17787 -0.21343,-3.32605 z m 0.21936,0.72924 c 1.86164,-0.5573 3.38533,-0.83595 4.57109,-0.83595 1.60077,0 2.39522,0.5573 2.38337,1.67191 -0.0119,1.60077 -1.01976,3.20747 -3.02368,4.8201 0.16601,0.45059 0.85375,1.86756 2.06321,4.25093 -0.61659,0.56916 -1.54741,1.40512 -2.79245,2.50787 l -1.90314,-4.90903 h -0.0178 v 0 c -0.28458,1.55334 -0.49801,2.98811 -0.6403,4.3043 l -2.81024,0.78259 c 0.0237,-0.26087 0.15414,-1.04939 0.3913,-2.36558 z m 2.24108,2.81024 c -0.10672,0.40316 -0.20158,0.80632 -0.28458,1.20947 l -0.24901,1.20947 c 0.41501,-0.21343 0.8241,-0.49208 1.22726,-0.83595 0.46244,-0.40316 0.77074,-0.78853 0.92489,-1.15611 0.0593,-0.10672 0.0889,-0.20751 0.0889,-0.30237 0,-0.26087 -0.17194,-0.3913 -0.51581,-0.3913 -0.27272,0 -0.66995,0.0889 -1.19168,0.26679 z m 7.81413,-0.14229 c -0.0949,0.34387 -0.17787,0.68181 -0.24901,1.01382 l -0.19565,0.97825 2.84581,-0.60473 -0.16007,2.45451 c -1.35177,0.23715 -2.41302,0.44466 -3.18376,0.62252 -0.0474,0.23715 -0.0889,0.4743 -0.1245,0.71145 l -0.12451,0.69367 3.30826,-0.48023 -0.23122,3.30826 c -1.70749,0.14229 -3.87149,0.55137 -6.49201,1.22725 l 2.11657,-12.75279 5.92285,-0.85375 -0.23122,3.29047 c -1.16204,0.10672 -2.22922,0.23715 -3.20154,0.3913 z m 6.9426,0 c -0.0949,0.34387 -0.17787,0.68181 -0.24901,1.01382 l -0.19565,0.97825 2.84581,-0.60473 -0.16008,2.45451 c -1.35176,0.23715 -2.41301,0.44466 -3.18375,0.62252 -0.0474,0.23715 -0.0889,0.4743 -0.12451,0.71145 l -0.1245,0.69367 3.30826,-0.48023 -0.23122,3.30826 c -1.70749,0.14229 -3.87149,0.55137 -6.49201,1.22725 l 2.11657,-12.75279 5.92285,-0.85375 -0.23123,3.29047 c -1.16204,0.10672 -2.22922,0.23715 -3.20153,0.3913 z m 11.17574,-3.39719 -0.10672,3.30826 c -0.83003,0.0475 -1.61856,0.10675 -2.36558,0.17786 -0.7826,3.28455 -1.31026,6.3023 -1.58299,9.05325 l -3.00588,0.78259 1.63634,-9.46232 c -0.32016,0.0474 -0.64031,0.10076 -0.96047,0.16007 l -0.94267,0.17787 -0.21344,-3.32605 z"
         style="font-size:18.2132px;font-family:'BadaBoom BB';-inkscape-font-specification:'BadaBoom BB';letter-spacing:0.379441px;word-spacing:0.18972px;fill:#ffe305;stroke:#000000;stroke-width:0.945;stroke-linecap:round;stroke-linejoin:round;stroke-miterlimit:6.5;paint-order:markers stroke fill;filter:url(#filter34)"
         id="path1"
         inkscape:label="30th street"
         transform="matrix(1.4290893,0,0,1.4290893,-74.388604,-41.737686)" />
      <g
         id="g1"
         inkscape:label="in a single bound!"
         transform="translate(-0.18309067)">
        <path
           style="font-size:18.2132px;font-family:'BadaBoom BB';-inkscape-font-specification:'BadaBoom BB';letter-spacing:0.379441px;word-spacing:0.18972px;fill:#ffe305;stroke:#000000;stroke-width:0.945;stroke-linecap:round;stroke-linejoin:round;stroke-miterlimit:6.5;paint-order:markers stroke fill;filter:url(#filter34)"
           d="m 86.379212,206.13403 3.059249,-0.56916 c -1.233185,4.75487 -2.039499,8.87537 -2.418941,12.3615 l -2.828026,0.78259 z m 4.167932,0.0534 3.077034,-0.62252 c -0.02371,0.36758 -0.03557,0.88931 -0.03557,1.56519 0,1.61263 0.05336,3.02961 0.160077,4.25094 0.05929,0.69959 0.148218,1.26283 0.266795,1.6897 l 1.20947,-6.93667 3.059248,-0.56916 c -1.233185,4.75487 -2.039499,8.87537 -2.41894,12.3615 l -2.81024,0.78259 c -0.01186,-0.0237 -0.08893,-0.23124 -0.231222,-0.62252 l -0.924889,-2.63237 c -0.154149,-0.42687 -0.24308,-0.6996 -0.266795,-0.81818 -0.249009,1.39919 -0.444658,2.75688 -0.586949,4.07307 l -2.845813,0.85375 z m 9.005805,12.73501 c 1.743061,-4.44658 3.154111,-8.73309 4.233141,-12.85952 l 5.40705,-0.9071 c -0.61659,3.59284 -0.89525,7.84377 -0.83596,12.7528 l -3.7707,0.87153 0.26679,-2.22329 -1.19168,0.23122 -0.37351,1.5652 z m 5.584911,-4.74895 0.81817,-6.72323 h -0.0178 l -1.67191,6.88331 z m 16.04919,-4.89124 c -0.37944,0.14229 -0.83003,0.31423 -1.35176,0.5158 l -1.33397,0.51581 c 0,-0.55731 -0.15415,-0.83596 -0.46245,-0.83596 -0.43873,0 -0.87746,0.24901 -1.31619,0.74703 -0.30829,0.36758 -0.43872,0.72331 -0.39129,1.06718 0.0355,0.22529 0.26083,0.33794 0.67588,0.33794 0.22529,0 0.52173,-0.0356 0.88931,-0.10672 0.50987,-0.10672 0.96046,-0.16008 1.35176,-0.16008 0.99603,0 1.57705,0.34387 1.74306,1.03161 0.0475,0.21343 0.0712,0.43873 0.0712,0.67588 0,0.75888 -0.28458,1.57705 -0.85375,2.45451 -0.73517,1.15018 -1.76677,2.11657 -3.09482,2.89917 -0.69959,0.41501 -1.38733,0.62252 -2.06321,0.62252 -0.61659,0 -1.22133,-0.17193 -1.81421,-0.5158 0.29644,-0.71145 0.77074,-1.76085 1.42291,-3.14818 0.37944,0.26087 0.7826,0.3913 1.20947,0.3913 0.18972,0 0.38537,-0.0296 0.58695,-0.0889 0.36759,-0.0949 0.71738,-0.23122 1.04939,-0.40909 0.47431,-0.26087 0.71146,-0.52766 0.71146,-0.80038 0,-0.29644 -0.24308,-0.44466 -0.72924,-0.44466 -0.33201,0 -0.81817,0.0712 -1.45848,0.21344 -0.62845,0.13043 -1.10868,0.19565 -1.44069,0.19565 -0.43873,0 -0.77668,-0.083 -1.01383,-0.24901 -0.46244,-0.3083 -0.65216,-0.78853 -0.56916,-1.4407 0.15415,-1.31619 1.00196,-2.83988 2.54345,-4.57108 1.57705,-1.77863 2.93474,-2.70945 4.07307,-2.79246 1.10275,-0.0711 1.65412,0.75889 1.65412,2.49009 0,0.41501 -0.0296,0.88339 -0.0889,1.40512 z m 2.31815,-3.14818 3.05925,-0.56916 c -1.23319,4.75487 -2.0395,8.87537 -2.41894,12.3615 l -2.82802,0.78259 z m 4.16793,0.0534 3.07703,-0.62252 c -0.0237,0.36758 -0.0356,0.88931 -0.0356,1.56519 0,1.61263 0.0534,3.02961 0.16008,4.25094 0.0593,0.69959 0.1482,1.26283 0.26679,1.6897 l 1.20947,-6.93667 3.05925,-0.56916 c -1.23319,4.75487 -2.0395,8.87537 -2.41894,12.3615 l -2.81024,0.78259 c -0.0119,-0.0237 -0.0889,-0.23124 -0.23122,-0.62252 l -0.92489,-2.63237 c -0.15415,-0.42687 -0.24308,-0.6996 -0.2668,-0.81818 -0.24901,1.39919 -0.44466,2.75688 -0.58695,4.07307 l -2.84581,0.85375 z m 9.55718,12.93066 c -1.2569,0 -2.14622,-0.67588 -2.66795,-2.02764 -0.27272,-0.67588 -0.40908,-1.43476 -0.40908,-2.27665 0,-0.79446 0.1245,-1.66599 0.37351,-2.61459 0.41501,-1.62449 1.15611,-3.11261 2.22329,-4.46437 1.29247,-1.6482 2.66795,-2.4723 4.12643,-2.4723 1.26876,0 2.16401,0.6996 2.68574,2.09879 l -1.97429,2.11657 c -0.21343,-0.32015 -0.52766,-0.48023 -0.94267,-0.48023 -0.80631,0 -1.5652,0.5573 -2.27665,1.67191 -0.53359,0.84189 -0.93082,1.77271 -1.19169,2.79246 -0.10671,0.40315 -0.16007,0.76481 -0.16007,1.08496 0,0.48616 0.1245,0.87746 0.37351,1.1739 0.27273,0.33201 0.65217,0.49802 1.13833,0.49802 0.5573,0 1.0731,-0.25494 1.54741,-0.76481 0.37944,-0.40316 0.68774,-0.91304 0.92489,-1.52963 -0.87746,0.17787 -1.6897,0.36166 -2.43673,0.55138 l 0.56916,-2.63238 4.71338,-0.99603 c 0.0237,0.77074 -0.14227,1.65413 -0.49802,2.65016 -0.32015,0.87746 -0.71738,1.68377 -1.19168,2.41894 -1.38733,2.13436 -3.02961,3.20154 -4.92682,3.20154 z m 8.02756,-12.98402 3.05925,-0.56916 c -0.85375,3.28454 -1.51184,6.31414 -1.97428,9.08881 l 3.13039,-0.48023 -0.26679,3.30826 c -1.61263,0.14229 -3.65806,0.55137 -6.13629,1.22725 z m 8.61452,2.65016 c -0.0949,0.34387 -0.17786,0.68181 -0.24901,1.01382 l -0.19565,0.97825 2.84581,-0.60473 -0.16007,2.45451 c -1.35176,0.23715 -2.41301,0.44466 -3.18375,0.62252 -0.0475,0.23715 -0.089,0.4743 -0.12451,0.71145 l -0.1245,0.69367 3.30825,-0.48023 -0.23122,3.30826 c -1.70749,0.14229 -3.87149,0.55137 -6.49201,1.22725 l 2.11657,-12.75279 5.92285,-0.85375 -0.23122,3.29047 c -1.16204,0.10672 -2.22922,0.23715 -3.20154,0.3913 z"
           id="text36"
           inkscape:label="in a single"
           aria-label="30TH STREET IN A SINGLE BOUND!"
           sodipodi:nodetypes="cccccccscccccccccccccccccccccccccccccsccscscsccsccsccsscsccccscccccccccsccccccccccccscsccsccsccscscccccccscccccccccccccccccccccc" />
        <path
           style="font-size:18.2132px;font-family:'BadaBoom BB';-inkscape-font-specification:'BadaBoom BB';letter-spacing:0.379441px;word-spacing:0.18972px;fill:#ffffff;stroke:#000000;stroke-width:0.945;stroke-linecap:round;stroke-linejoin:round;stroke-miterlimit:6.5;paint-order:markers stroke fill;filter:url(#filter34)"
           d="m 7.6332189,209.4245 q -1.1205387,0.0356 -2.9347441,1.5652 3.3438296,0.5158 3.3260433,2.61459 0,1.8142 -2.1877183,3.62841 -2.169932,1.8142 -4.1442144,1.65413 -2.27664996,-0.19565 -2.43672691,-3.34383 l 3.29047061,-0.46245 q -0.071145,0.21344 -0.071145,0.37352 0,0.30236 0.3023676,0.30236 0.1245043,0 0.2845812,-0.0534 0.7648121,-0.21343 1.1738977,-0.74702 0.1600769,-0.19565 0.1600769,-0.3913 0,-0.80039 -1.7252738,-0.80039 -0.9426754,0 -2.5078722,0.21344 l 0.60473515,-2.9881 q 1.61855585,-1.06718 3.09482105,-2.081 -1.5118379,0.1245 -2.98810309,0.32015 l 0.21343589,-3.3794 7.1678901,-0.40909 q -0.2312222,1.31619 -0.6225214,3.98414 z m 7.2093911,-4.64223 q 1.885351,0 2.667949,2.09879 0.409086,1.08496 0.409086,2.38336 0,1.24505 -0.373513,2.70353 -0.658094,2.49008 -2.27665,4.58887 -1.974282,2.56123 -4.179787,2.56123 -1.903137,0 -2.7035217,-2.09879 -0.3912992,-1.0316 -0.3912992,-2.31222 0,-1.26283 0.3912992,-2.73909 0.6580941,-2.50788 2.2588637,-4.60666 1.974282,-2.57902 4.197573,-2.57902 z m -0.640308,4.41101 q -0.978248,0 -1.992068,1.60077 -0.818171,1.26283 -1.138325,2.4723 -0.160077,0.64031 -0.160077,1.15611 0,0.72924 0.355726,1.19168 0.409086,0.51581 1.138325,0.51581 0.996035,0 1.796419,-1.0494 0.640308,-0.83595 0.924889,-1.97428 0.337941,-1.33397 0.142291,-2.63238 -0.213436,-1.28061 -1.06718,-1.28061 z m 11.513683,-3.80628 -0.106718,3.30826 q -1.245043,0.0712 -2.365581,0.17786 -1.173898,4.92682 -1.582983,9.05325 l -3.00589,0.78259 1.636342,-9.46232 q -0.480231,0.0711 -0.960461,0.16007 l -0.942676,0.17787 -0.213436,-3.32605 z m 0.326082,0.74703 3.290471,-0.56916 q -0.889317,3.39719 -1.440693,6.18964 l 1.476265,-0.30237 0.907103,-5.31811 3.290471,-0.56916 q -1.885351,7.27461 -2.383368,12.3615 l -3.059249,0.78259 0.818171,-4.83788 q -0.498017,0.10672 -1.511837,0.32016 -0.337941,2.18771 -0.480231,3.73513 l -3.059249,0.78259 z m 18.663785,3.14818 q -0.569163,0.21344 -1.351761,0.5158 l -1.333975,0.51581 q 0,-0.83596 -0.462444,-0.83596 -0.658094,0 -1.316189,0.74703 -0.462444,0.55137 -0.391299,1.06718 0.05336,0.33794 0.675881,0.33794 0.33794,0 0.889316,-0.10672 0.764812,-0.16008 1.351761,-0.16008 1.494052,0 1.74306,1.03161 0.07115,0.32015 0.07115,0.67588 0,1.13832 -0.853743,2.45451 -1.102753,1.72527 -3.094821,2.89917 -1.049394,0.62252 -2.063214,0.62252 -0.924889,0 -1.814206,-0.5158 0.444658,-1.06718 1.422906,-3.14818 0.569163,0.3913 1.209471,0.3913 0.284581,0 0.586949,-0.0889 0.551376,-0.14229 1.049393,-0.40909 0.711453,-0.3913 0.711453,-0.80038 0,-0.44466 -0.729239,-0.44466 -0.498018,0 -1.458479,0.21344 -0.942676,0.19565 -1.440693,0.19565 -0.658094,0 -1.013821,-0.24901 -0.693666,-0.46245 -0.569162,-1.4407 0.231222,-1.97428 2.543445,-4.57108 2.365581,-2.66795 4.073069,-2.79246 1.654128,-0.10671 1.654128,2.49009 0,0.62252 -0.08893,1.40512 z m 8.507793,-3.89521 -0.106718,3.30826 q -1.245043,0.0712 -2.365582,0.17786 -1.173897,4.92682 -1.582983,9.05325 l -3.005889,0.78259 1.636342,-9.46232 q -0.480231,0.0711 -0.960462,0.16007 l -0.942675,0.17787 -0.213436,-3.32605 z m 0.219362,0.72924 q 2.792453,-0.83595 4.571086,-0.83595 2.401154,0 2.383368,1.67191 -0.01779,2.40116 -3.023676,4.8201 0.249009,0.67588 2.063214,4.25093 -0.924889,0.85374 -2.792453,2.50787 l -1.903137,-4.90903 h -0.01779 v 0 q -0.426871,2.33001 -0.640307,4.3043 l -2.81024,0.78259 q 0.03557,-0.3913 0.391299,-2.36558 z m 2.241077,2.81024 q -0.160077,0.60474 -0.284581,1.20947 l -0.249009,1.20947 q 0.622522,-0.32015 1.227257,-0.83595 0.693667,-0.60474 0.924889,-1.15611 0.08893,-0.16008 0.08893,-0.30237 0,-0.3913 -0.515804,-0.3913 -0.409085,0 -1.191684,0.26679 z m 7.814128,-0.14229 q -0.14229,0.51581 -0.249008,1.01382 l -0.19565,0.97825 2.845812,-0.60473 -0.160076,2.45451 q -2.027642,0.35573 -3.183753,0.62252 -0.07115,0.35573 -0.124504,0.71145 l -0.124505,0.69367 3.308257,-0.48023 -0.231222,3.30826 q -2.561231,0.21343 -6.49201,1.22725 l 2.116573,-12.75279 5.922847,-0.85375 -0.231222,3.29047 q -1.74306,0.16008 -3.201539,0.3913 z m 6.942597,0 Q 70.288518,209.3 70.1818,209.79801 l -0.19565,0.97825 2.845813,-0.60473 -0.160077,2.45451 q -2.027641,0.35573 -3.183753,0.62252 -0.07115,0.35573 -0.124504,0.71145 l -0.124504,0.69367 3.308257,-0.48023 -0.231223,3.30826 q -2.561231,0.21343 -6.492009,1.22725 l 2.116573,-12.75279 5.922847,-0.85375 -0.231222,3.29047 q -1.74306,0.16008 -3.201539,0.3913 z m 11.175742,-3.39719 -0.106718,3.30826 q -1.245043,0.0712 -2.365581,0.17786 -1.173898,4.92682 -1.582984,9.05325 l -3.005889,0.78259 1.636342,-9.46232 q -0.480231,0.0711 -0.960462,0.16007 l -0.942675,0.17787 -0.213436,-3.32605 z m 4.772661,0.74703 3.059249,-0.56916 q -1.849778,7.13231 -2.418941,12.3615 l -2.828026,0.78259 z m 4.167932,0.0534 3.077034,-0.62252 q -0.03557,0.55137 -0.03557,1.56519 0,2.41894 0.160077,4.25094 0.08893,1.04939 0.266795,1.6897 l 1.20947,-6.93667 3.059248,-0.56916 q -1.849778,7.13231 -2.41894,12.3615 l -2.81024,0.78259 q -0.01779,-0.0356 -0.231222,-0.62252 l -0.924889,-2.63237 q -0.231223,-0.64031 -0.266795,-0.81818 -0.373513,2.09879 -0.586949,4.07307 l -2.845813,0.85375 z m 9.005805,12.73501 q 2.614591,-6.66987 4.233141,-12.85952 l 5.40705,-0.9071 q -0.92489,5.38926 -0.83596,12.7528 l -3.7707,0.87153 0.26679,-2.22329 -1.19168,0.23122 -0.37351,1.5652 z m 5.584911,-4.74895 0.81817,-6.72323 h -0.0178 l -1.67191,6.88331 z m 16.04919,-4.89124 q -0.56916,0.21344 -1.35176,0.5158 l -1.33397,0.51581 q 0,-0.83596 -0.46245,-0.83596 -0.65809,0 -1.31619,0.74703 -0.46244,0.55137 -0.39129,1.06718 0.0533,0.33794 0.67588,0.33794 0.33794,0 0.88931,-0.10672 0.76481,-0.16008 1.35176,-0.16008 1.49405,0 1.74306,1.03161 0.0712,0.32015 0.0712,0.67588 0,1.13832 -0.85375,2.45451 -1.10275,1.72527 -3.09482,2.89917 -1.04939,0.62252 -2.06321,0.62252 -0.92489,0 -1.81421,-0.5158 0.44466,-1.06718 1.42291,-3.14818 0.56916,0.3913 1.20947,0.3913 0.28458,0 0.58695,-0.0889 0.55138,-0.14229 1.04939,-0.40909 0.71146,-0.3913 0.71146,-0.80038 0,-0.44466 -0.72924,-0.44466 -0.49802,0 -1.45848,0.21344 -0.94268,0.19565 -1.44069,0.19565 -0.6581,0 -1.01383,-0.24901 -0.69366,-0.46245 -0.56916,-1.4407 0.23122,-1.97428 2.54345,-4.57108 2.36558,-2.66795 4.07307,-2.79246 1.65412,-0.10671 1.65412,2.49009 0,0.62252 -0.0889,1.40512 z m 2.31815,-3.14818 3.05925,-0.56916 q -1.84978,7.13231 -2.41894,12.3615 l -2.82802,0.78259 z m 4.16793,0.0534 3.07703,-0.62252 q -0.0356,0.55137 -0.0356,1.56519 0,2.41894 0.16008,4.25094 0.0889,1.04939 0.26679,1.6897 l 1.20947,-6.93667 3.05925,-0.56916 q -1.84978,7.13231 -2.41894,12.3615 l -2.81024,0.78259 q -0.0178,-0.0356 -0.23122,-0.62252 l -0.92489,-2.63237 q -0.23122,-0.64031 -0.2668,-0.81818 -0.37351,2.09879 -0.58695,4.07307 l -2.84581,0.85375 z m 9.55718,12.93066 q -1.88535,0 -2.66795,-2.02764 -0.40908,-1.01382 -0.40908,-2.27665 0,-1.19169 0.37351,-2.61459 0.62252,-2.43673 2.22329,-4.46437 1.93871,-2.4723 4.12643,-2.4723 1.90314,0 2.68574,2.09879 l -1.97429,2.11657 q -0.32015,-0.48023 -0.94267,-0.48023 -1.20947,0 -2.27665,1.67191 -0.80039,1.26283 -1.19169,2.79246 -0.16007,0.60473 -0.16007,1.08496 0,0.72924 0.37351,1.1739 0.40909,0.49802 1.13833,0.49802 0.83595,0 1.54741,-0.76481 0.56916,-0.60474 0.92489,-1.52963 -1.31619,0.2668 -2.43673,0.55138 l 0.56916,-2.63238 4.71338,-0.99603 q 0.0356,1.15611 -0.49802,2.65016 -0.48023,1.31619 -1.19168,2.41894 -2.081,3.20154 -4.92682,3.20154 z m 8.02756,-12.98402 3.05925,-0.56916 q -1.28062,4.92681 -1.97428,9.08881 l 3.13039,-0.48023 -0.26679,3.30826 q -2.41895,0.21343 -6.13629,1.22725 z m 8.61452,2.65016 q -0.14229,0.51581 -0.24901,1.01382 l -0.19565,0.97825 2.84581,-0.60473 -0.16007,2.45451 q -2.02764,0.35573 -3.18375,0.62252 -0.0712,0.35573 -0.12451,0.71145 l -0.1245,0.69367 3.30825,-0.48023 -0.23122,3.30826 q -2.56123,0.21343 -6.49201,1.22725 l 2.11657,-12.75279 5.92285,-0.85375 -0.23122,3.29047 q -1.74306,0.16008 -3.20154,0.3913 z m 8.52558,-2.5968 q 0.56916,-0.0889 2.13435,-0.48023 1.35177,-0.32016 2.16994,-0.40909 0.32015,-0.0178 0.62252,-0.0178 2.34779,0 2.33001,1.67191 0,2.36558 -2.91696,4.73116 1.83199,-0.1245 2.11657,1.03161 0.0534,0.24901 0.0534,0.5158 0,1.33398 -1.28061,2.70353 -0.97825,1.04939 -2.41894,1.84977 -1.72528,0.96047 -3.96636,0.96047 -0.35572,0 -0.71145,-0.0178 0.69367,-3.6462 1.52963,-9.80027 0.249,-1.74306 0.33794,-2.73909 z m 1.88535,7.39911 q -0.14229,0.67588 -0.30237,1.83199 2.50787,-0.76481 2.50787,-1.74306 0,-0.35572 -0.62252,-0.35572 -0.55138,0 -1.58298,0.26679 z m 0.97824,-4.76673 q -0.14229,0.58694 -0.26679,1.17389 l -0.24901,1.1739 q 1.2984,-0.80038 1.84978,-1.84978 0.1245,-0.23122 0.1245,-0.37351 0,-0.30237 -0.46244,-0.30237 -0.35573,0 -0.99604,0.17787 z m 10.5888,-4.0375 q 1.88535,0 2.66795,2.09879 0.40908,1.08496 0.40908,2.38336 0,1.24505 -0.37351,2.70353 -0.65809,2.49008 -2.27665,4.58887 -1.97428,2.56123 -4.17979,2.56123 -1.90313,0 -2.70352,-2.09879 -0.3913,-1.0316 -0.3913,-2.31222 0,-1.26283 0.3913,-2.73909 0.6581,-2.50788 2.25887,-4.60666 1.97428,-2.57902 4.19757,-2.57902 z m -0.64031,4.41101 q -0.97825,0 -1.99207,1.60077 -0.81817,1.26283 -1.13832,2.4723 -0.16008,0.64031 -0.16008,1.15611 0,0.72924 0.35573,1.19168 0.40908,0.51581 1.13832,0.51581 0.99604,0 1.79642,-1.0494 0.64031,-0.83595 0.92489,-1.97428 0.33794,-1.33397 0.14229,-2.63238 -0.21343,-1.28061 -1.06718,-1.28061 z m 5.07503,-3.05925 3.04146,-0.56916 q -1.22725,4.66002 -1.8142,8.35957 l 1.6897,-0.71145 1.24504,-7.07896 3.04146,-0.56916 q -1.84978,7.29239 -2.40115,12.3615 l -2.84581,0.78259 0.35572,-1.97428 q -1.49405,0.6581 -4.51772,1.97428 z m 8.18765,0.0534 3.07703,-0.62252 q -0.0356,0.55137 -0.0356,1.56519 0,2.41894 0.16008,4.25094 0.0889,1.04939 0.26679,1.6897 l 1.20947,-6.93667 3.05925,-0.56916 q -1.84978,7.13231 -2.41894,12.3615 l -2.81024,0.78259 q -0.0178,-0.0356 -0.23122,-0.62252 l -0.92489,-2.63237 q -0.23122,-0.64031 -0.2668,-0.81818 -0.37351,2.09879 -0.58695,4.07307 l -2.84581,0.85375 z m 8.29435,-0.0711 q 2.04542,-0.67588 3.46833,-0.67588 1.60077,0 2.43673,0.83596 1.15611,1.19168 1.15611,2.89917 0,0.62252 -0.16008,1.31619 -0.69367,3.13039 -3.27268,5.47819 -2.57902,2.33001 -5.74499,2.73909 0.0356,-0.3913 0.37352,-2.33001 l 1.4229,-8.18171 q 0.30237,-1.83199 0.32016,-2.081 z m 2.54344,2.93475 q -0.81817,3.48612 -1.24504,6.59873 1.06718,-1.01383 1.90313,-2.3478 1.03161,-1.63634 1.03161,-2.81024 0,-1.51184 -1.6897,-1.44069 z m 5.87542,6.74102 q 0.62252,-0.0889 1.10275,0.17786 0.56916,0.28458 0.56916,0.88932 0,0.81817 -0.87153,1.49405 -0.67588,0.53359 -1.47626,0.6403 -0.64031,0.0889 -1.10276,-0.14229 -0.55137,-0.28458 -0.55137,-0.88931 0,-0.81817 0.83596,-1.51184 0.67588,-0.55138 1.49405,-0.65809 z m 2.00985,-11.0631 3.71734,0.62252 q -1.47626,2.65016 -2.16993,4.14422 -0.94267,2.04542 -1.67191,4.42879 l -2.4723,-0.10672 z"
           id="text2"
           mask="url(#mask36)"
           inkscape:label="bound!"
           aria-label="30TH STREET IN A SINGLE BOUND!" />
      </g>
    </g>
  </g>
</svg>
