<?xml version="1.0" encoding="UTF-8" standalone="no"?>
<!-- Created with Inkscape (http://www.inkscape.org/) -->

<svg
   version="1.1"
   id="svg1"
   width="418.37018"
   height="221.54689"
   viewBox="0 0 418.37018 221.54689"
   sodipodi:docname="bound-mono.svg"
   xml:space="preserve"
   inkscape:version="1.4.2 (ebf0e940d0, 2025-05-08)"
   inkscape:export-filename="../../bound-emoji.png"
   inkscape:export-xdpi="1659.7485"
   inkscape:export-ydpi="1659.7485"
   xmlns:inkscape="http://www.inkscape.org/namespaces/inkscape"
   xmlns:sodipodi="http://sodipodi.sourceforge.net/DTD/sodipodi-0.dtd"
   xmlns="http://www.w3.org/2000/svg"
   xmlns:svg="http://www.w3.org/2000/svg"><defs
     id="defs1"><mask
       maskUnits="userSpaceOnUse"
       id="mask648"><circle
         style="display:inline;fill:#ffffff;fill-opacity:1;stroke-width:0.992104"
         id="circle649"
         cx="83.661079"
         cy="445.64111"
         r="234.13667"
         inkscape:label="Circle"
         transform="rotate(-31.458284)" /></mask></defs><sodipodi:namedview
     id="namedview1"
     pagecolor="#ffffff"
     bordercolor="#000000"
     borderopacity="0.25"
     inkscape:showpageshadow="2"
     inkscape:pageopacity="0.0"
     inkscape:pagecheckerboard="0"
     inkscape:deskcolor="#d1d1d1"
     inkscape:zoom="2"
     inkscape:cx="210.25"
     inkscape:cy="126.75"
     inkscape:window-width="3840"
     inkscape:window-height="2104"
     inkscape:window-x="0"
     inkscape:window-y="26"
     inkscape:window-maximized="1"
     inkscape:current-layer="g28" /><g
     inkscape:groupmode="layer"
     inkscape:label="Image"
     id="g1"
     transform="translate(-123.7658,-127.52841)"><g
       id="g28"
       inkscape:label="BOUND TO GO YOUR WAY"
       transform="matrix(1.1054192,0.06350083,-0.06237281,1.1254107,-16.385175,-64.227069)"
       style="display:inline"><path
         id="path7"
         style="baseline-shift:baseline;display:inline;overflow:visible;opacity:1;vector-effect:none;stroke-linejoin:round;paint-order:markers stroke fill;enable-background:accumulate;stop-color:#000000;stop-opacity:1"
         d="m 218.41276,158.06501 -4.46805,0.50723 a 0.90008998,0.90008998 87.618179 0 0 -0.1502,0.031 l -1.18524,0.13109 -1.69729,0.32485 a 0.90008998,0.90008998 87.618179 0 0 -0.14423,0.0116 l -70.09003,11.61173 a 0.90008998,0.90008998 87.618179 0 0 -0.0524,0.01 l -0.67251,0.10563 -2.1558,0.27784 7.33655,154.10428 40.3501,31.59978 0.26313,-0.12765 85.84624,-25.5585 0.004,-2e-4 c 14.36021,-4.30989 26.01486,-16.55378 29.58922,-27.84577 0.26316,-0.83136 0.51275,-1.64338 0.74768,-2.43714 l 14.68491,9.71617 -0.002,0.12678 7.68913,-2.41577 0.54792,-12.14628 5.90624,4.25187 c 0.29407,0.25124 0.60737,0.47441 0.93543,0.67091 l 0.10322,0.0757 0.0119,-0.008 c 1.37043,0.78637 3.00621,1.12295 4.73495,1.12295 3.01224,0 5.6745,-2.19423 7.66895,-5.09074 1.99445,-2.8965 3.35451,-6.63841 3.35451,-10.37826 0,-1.67194 -0.16876,-3.1247 -0.51496,-4.36691 0.0209,-0.12038 0.0364,-0.1928 0.0447,-0.20905 l 0.002,-0.002 -10e-5,-0.002 c 0.0674,0 6.40662,4.71655 9.41232,6.95577 0.277,0.30028 0.57721,0.58085 0.90066,0.83774 1.51319,1.20184 3.59956,1.8345 5.81584,1.3032 1.70131,-0.40785 3.00753,-1.64426 4.07921,-2.73273 0.006,-0.006 0.008,-0.009 0.0133,-0.0146 l 0.0361,0.16978 1.27928,-0.21796 c 0,0 0.88646,-0.088 1.7208,-0.44072 0.84058,-0.35539 1.5372,-0.93886 1.5372,-0.93886 l 0.58714,-0.42882 -0.24227,-5.04524 1.04104,-0.40063 c 0.24247,0.42872 0.52064,0.82029 0.83497,1.1764 1.45794,1.65174 3.59593,2.31077 5.89036,2.31077 2.77211,0 5.18202,-2.00358 6.98346,-4.61993 1.80145,-2.61634 3.02787,-5.98859 3.02787,-9.37235 0,-0.89666 -0.0534,-1.72456 -0.16327,-2.4864 l 11.36059,8.82428 0.002,0.12485 0.11292,-0.0341 0.0202,0.0145 0.0526,-0.0377 7.52953,-2.3009 -0.50754,-7.24128 4.96411,3.3054 0.002,0.002 0.17806,0.11838 c 1.25533,0.86311 2.81091,1.2296 4.44414,1.2296 2.61363,0 4.85867,-1.87676 6.53283,-4.30814 1.05689,-1.53492 1.89831,-3.34897 2.37595,-5.26934 l 1.65519,2.09157 c 0.21079,0.33467 0.46756,0.65179 0.77765,0.94361 1.42799,1.34382 3.72517,1.76756 6.93367,1.13599 1.59239,-0.31345 3.24255,-1.02603 4.48718,-2.36006 0.40478,-0.43385 0.75697,-0.93432 1.03934,-1.49562 l 1.60709,0.98879 0.004,0.10736 7.04734,-1.60901 -0.15355,-1.96978 0.72067,-0.19165 0.86218,1.72154 6.65306,-1.89568 -3.22231,-6.38002 c 0.2661,-0.30403 0.54473,-0.63601 0.81306,-1.09063 0.30919,-0.52383 0.59972,-1.15894 0.77765,-1.87481 l 0.0655,-0.0922 9.77308,6.9302 0.0899,0.27781 4.93563,-0.9883 1.09817,-4.58636 1.37793,3.97286 5.35623,-1.42508 0.28542,-0.0456 5.29153,-1.25655 1.19416,-0.25481 0.99708,-3.8101 1.49027,-0.393 1.02498,3.29163 6.67935,-1.68022 0.086,-0.0101 0.004,0.0345 6.60289,-1.37567 -0.38569,-5.95869 4.52047,-10.44406 0.24507,-0.47893 -8.43607,-6.46938 -0.84354,-0.70213 1.30101,-0.27126 c 6.17972,-1.28389 10.49517,-5.91783 13.16629,-10.9666 2.67112,-5.04876 3.85309,-10.57096 3.66038,-14.72727 -0.13879,-2.99352 -1.11113,-8.23855 -3.99156,-13.03036 -1.48163,-2.46481 -3.5678,-4.79643 -6.27874,-6.43838 l -0.0153,-0.02 -4.36862,-2.52159 c -4.43681,-3.28232 -19.68454,-14.50141 -28.15282,-19.97132 -0.94692,-0.61164 -1.98592,-0.92795 -2.94141,-1.1825 -1.23867,-0.32999 -2.51777,-0.59108 -3.83297,-0.57511 -3.06591,0.0373 -7.69405,0.25373 -11.5683,0.45837 -1.93713,0.10232 -3.68369,0.2023 -4.9459,0.27386 -0.6311,0.0358 -1.14142,0.0653 -1.49178,0.0842 -0.17518,0.009 -0.3108,0.0151 -0.39824,0.019 -0.0408,0.002 -0.0687,0.002 -0.0829,0.003 0.008,9e-5 0.0168,0.002 0.0586,0.005 0.0149,0.001 0.0687,0.009 0.0997,0.0135 l -3.5318,0.1906 0.12232,4.20337 -5.38923,-4.13874 a 0.90008998,0.90008998 87.618179 0 0 -0.60575,-0.18275 l -9.07282,0.56399 -3.36634,0.14829 0.60822,11.53091 -13.9074,-10.5601 a 0.90008998,0.90008998 87.618179 0 0 -0.61622,-0.18043 l -10.51845,0.83994 a 0.90008998,0.90008998 87.618179 0 0 -0.0806,0.0115 l -2.86067,0.15447 0.41153,5.88434 -5.99063,-4.62024 a 0.90008998,0.90008998 87.618179 0 0 -0.61465,-0.18398 c 0,0 -2.88486,0.20276 -5.78965,0.41345 -1.45239,0.10534 -2.90998,0.21178 -4.01519,0.29771 -0.5526,0.043 -1.01567,0.0797 -1.35079,0.10919 -0.16756,0.0147 -0.30311,0.0258 -0.40607,0.0368 -0.0515,0.005 -0.0933,0.012 -0.13679,0.0181 -0.0218,0.003 -0.0442,0.005 -0.0771,0.0113 l -0.002,1e-4 -0.002,1e-4 -0.002,0.002 -0.002,0.002 -0.002,1e-4 -0.002,1e-4 -2.33327,0.10735 -0.0426,11.33161 -12.14406,-9.46385 a 0.90008998,0.90008998 87.618179 0 0 -0.66582,-0.18284 l -15.9812,2.0055 a 0.90008998,0.90008998 87.618179 0 0 -0.077,0.013 l -2.29072,0.23512 0.1375,17.8746 -17.31812,-10.75987 c -0.008,-0.007 -0.0242,-0.0261 -0.0319,-0.0329 -0.0786,-0.0687 -0.14162,-0.11326 -0.21974,-0.16809 -0.15623,-0.10967 -0.35757,-0.23874 -0.60885,-0.39431 -0.50257,-0.31115 -1.19517,-0.71955 -1.97889,-1.15871 -1.56744,-0.87832 -3.4791,-1.87918 -4.93281,-2.46893 -3.52873,-1.43154 -7.29098,-1.90158 -10.9406,-1.78805 -3.64962,0.11353 -7.18694,0.81118 -10.26221,1.71751 -3.07527,0.90633 -5.69103,2.02563 -7.52943,3.02286 -0.9192,0.49862 -1.64021,0.96141 -2.1584,1.39042 -0.0968,0.0802 -0.18694,0.1578 -0.27106,0.23743 l -0.0276,0.012 -2.57717,2.01626 c 0,0 -2.82598,2.34863 -4.00068,3.74876 -0.24584,0.29302 -0.53878,0.80677 -0.8115,1.18079 l -0.2153,0.25512 a 0.90008998,0.90008998 87.618179 0 0 -0.16354,0.29558 c -1.69653,2.42754 -3.54388,5.5192 -3.54388,5.5192 l -1.55879,-0.07 -43.38879,-26.14553 a 0.90008998,0.90008998 87.618179 0 0 -0.11281,-0.0579 c 0,0 -0.55641,-0.23701 -1.26118,-0.4946 -0.70476,-0.2576 -1.53433,-0.5417 -2.26428,-0.64279 -1.37762,-0.19079 -3.96424,-0.14598 -3.96424,-0.14598 a 0.90008998,0.90008998 87.618179 0 0 -0.24179,0.0362 c -1.14014,-0.0207 -8.81727,0.0203 -8.81727,0.0203 l -0.17036,0.0183 a 0.90008998,0.90008998 87.618179 0 0 -0.21379,-9e-5 z m 0.10174,0.89498 45.75771,26.48218 c -1.32697,0.13976 -2.64454,0.31022 -3.92715,0.48017 l -46.29861,-26.45513 z m 9.34976,-0.0711 c 0,0 2.64894,-0.0262 3.83303,0.13776 1.14491,0.15856 3.29583,1.07573 3.29583,1.07573 l 44.36179,26.73102 -7.38137,-2.15028 z m -16.95093,1.07099 44.71964,25.87086 -77.97305,12.97112 -36.83496,-27.23208 z m 228.33334,-2.54017 28.42722,21.82843 -10.24837,0.67891 -28.1232,-21.88896 z m -26.34047,1.50187 28.73769,21.81959 -10.59045,1.44274 -28.66569,-22.42239 z m 35.51078,-1.59063 c 0.006,0.0298 12.44891,-0.76623 18.51704,-0.84003 1.18601,-0.0144 2.38814,0.22662 3.5911,0.5471 0.92977,0.2477 1.87573,0.54478 2.68399,1.06686 9.91678,6.40555 29.34438,20.86034 29.34438,20.86034 l -0.39325,0.0135 -0.002,1e-4 c -1.58702,-0.4574 -3.33814,-0.68265 -5.26065,-0.60735 l -20.45401,0.80007 z m -55.17309,3.67714 28.78158,22.19024 -11.68185,0.79451 -28.78393,-22.1068 c 0.14334,-0.0717 11.6842,-0.87795 11.6842,-0.87795 z m -26.92252,2.6784 28.42229,22.14803 -16.21425,1.8208 -28.18924,-21.96334 z m -54.33343,3.37118 c 3.55264,-0.11065 7.19714,0.3434 10.58141,1.71634 2.70151,1.09596 7.43247,3.86532 7.52534,4.07548 l 0.002,0.002 10e-5,0.002 9e-5,0.002 10e-5,0.002 -0.002,0.002 20.8631,12.96348 c -2.7625,-0.68708 -5.73533,-1.05872 -8.90509,-1.09765 -1.27953,-0.0157 -2.55568,0.031 -3.81956,0.13222 -6.25087,0.50062 -12.26695,2.43433 -17.59598,5.67169 L 292.03987,173.7919 c -0.5368,-0.98141 9.28995,-6.40092 19.94787,-6.73288 z m -22.24169,8.16565 28.46214,16.90464 c -0.66885,0.47677 -1.32503,0.9771 -1.96683,1.49762 l -27.92857,-16.96772 z m -3.79872,3.72695 28.31641,16.38875 c -0.53512,0.49556 -1.05939,1.00779 -1.57064,1.53601 l -27.89155,-16.56197 z m -19.23937,7.57799 c 1.13651,-0.0713 2.27058,-0.0948 3.39343,-0.0439 1.49714,0.0677 2.97425,0.26671 4.40849,0.66064 5.06962,1.39243 9.81116,4.56049 13.27774,8.51305 3.6921,4.20969 6.06947,9.7088 7.14438,15.20403 1.16253,5.94317 1.01417,12.41798 -0.96409,18.14155 -2.74492,7.94169 -5.35022,14.21656 -14.49243,20.62473 l -4.05459,2.22979 3.54734,0.71096 c 7.09954,1.47236 10.52112,3.11481 14.44334,6.68751 3.97311,3.61906 6.92395,8.69435 8.10825,13.93655 2.16634,9.58913 1.4892,17.00285 -2.43195,29.39043 -3.28307,10.37177 -14.58033,22.3375 -28.12465,26.40252 l -83.41181,24.83281 -8.96135,-153.71584 c 25.98947,-4.53994 52.12464,-7.62967 78.08236,-12.34904 3.19737,-0.36642 6.62602,-1.01177 10.03554,-1.22574 z m 71.63487,-0.32804 c 1.22274,-0.098 2.45497,-0.14026 3.69276,-0.12506 20.5663,0.25255 31.75313,14.59234 31.93622,39.08239 0.17637,23.59249 -16.60774,42.91447 -37.0284,44.33604 -21.27031,1.48072 -37.26885,-17.72817 -35.1187,-44.03636 1.93642,-23.693 18.17696,-37.78811 36.51812,-39.25701 z m 105.07624,-4.33745 16.6413,26.75924 -1.53973,-27.4135 11.08624,-0.73487 1.3203,48.79481 -9.79024,2.03451 -17.90546,-28.30885 0.34636,4.47882 0.75904,27.88795 -10.75729,2.21229 -1.39618,-54.17919 z m 34.12319,-1.38219 19.40851,-0.76017 c 13.56676,-0.53134 17.11476,14.52957 17.35507,19.71285 0.33497,7.22457 -4.39304,21.21845 -15.07579,23.43789 l -20.2441,4.20711 z m -53.43801,3.92808 0.96386,38.56346 c 1.1547,14.92025 -8.98019,21.73675 -18.95396,23.56473 -21.59113,3.95719 -25.13859,-6.5613 -25.23579,-17.27932 l -1.06508,-40.38868 16.72355,-1.87557 0.96328,41.40274 c 0.0367,1.57955 1.54533,5.68965 7.82976,4.64836 5.03511,-0.83428 6.8441,-4.71278 6.8157,-6.37197 L 411.43523,185.271 Z m 69.45137,5.87801 c -1.11288,0.11272 -3.24305,0.86156 -3.24305,0.86156 l 0.55689,24.27394 c 0,0 2.23245,-0.38058 3.19226,-0.75977 5.70718,-2.25472 7.89994,-8.48133 7.01975,-15.40623 -0.55371,-4.35638 -1.93281,-8.9093 -6.55638,-9.01032 -0.30824,-0.007 -0.63168,0.007 -0.96947,0.0408 z m -154.33351,15.25442 c -6.11724,0.48506 -10.48179,8.79906 -10.6767,22.0217 -0.18864,12.79764 3.79308,22.70632 10.67699,22.16702 6.44554,-0.50496 11.54588,-7.61995 11.25028,-22.09571 -0.25178,-12.32982 -3.4459,-22.06932 -10.55057,-22.11862 -0.22919,-0.002 -0.46265,0.007 -0.7,0.0256 z m -92.03285,16.55683 c -1.83669,-0.0228 -4.05068,0.2206 -6.72228,0.79408 l -19.41803,3.1279 0.45651,25.62633 21.64681,-4.02247 c 5.66201,-1.33908 12.47495,-3.89918 12.71802,-15.15331 0.1113,-5.15302 -0.72204,-10.27373 -8.68103,-10.37253 z m 258.12413,12.29717 -3.7905,8.75764 0.32925,5.11496 -3.93796,0.82094 -0.37283,-5.51167 -4.66021,-6.84383 4.15714,-0.85066 2.66468,4.20049 2.10066,-4.98134 z m -15.0088,2.70556 4.64161,12.62055 -4.1324,1.03843 -1.0293,-3.30527 -3.50284,0.92307 -0.987,3.76961 -3.69774,0.7883 3.87585,-14.7915 z m -8.3487,1.59219 -3.46836,15.06181 -3.35959,0.89416 -2.47593,-7.1493 -1.97713,8.23533 -2.91249,0.58259 -4.51083,-13.80979 3.72506,-0.96165 2.28873,7.30738 0.34756,-0.10291 1.08823,-7.73742 3.24313,-0.73488 2.53596,7.49301 0.26155,-0.0616 1.73752,-8.31726 z m 6.08029,2.92136 -0.39178,0.0707 -0.92454,3.46759 2.43879,-0.42917 z m -36.33833,3.45785 0.002,-1e-4 c 1.79889,-0.0225 3.34403,0.60966 3.95188,3.33995 0.61034,2.74146 -1.73632,5.02263 -1.96408,5.02222 l -0.002,1e-4 -0.002,-0.003 -0.004,2e-4 -0.002,1e-4 -0.004,-0.002 -0.002,1e-4 2.9402,5.8267 -4.00474,1.14057 -2.9395,-5.87708 -1.13732,0.354 0.50518,6.51077 -4.33132,0.98892 -0.66059,-15.68442 c 0,0 4.61995,-1.35158 6.86759,-1.56936 0.26526,-0.0257 0.52833,-0.0448 0.78532,-0.0478 z m -10.69179,2.68411 0.19302,11.12394 c 0.3745,4.1347 -2.41336,6.06227 -5.17347,6.60558 -5.97502,1.17614 -6.99654,-1.72925 -7.06244,-4.70208 l -0.58596,-10.44748 4.59637,-0.83206 0.59655,10.97968 c 0.0238,0.43768 0.45012,1.57303 2.18964,1.26136 1.39372,-0.24972 1.88106,-1.33207 1.86716,-1.79224 l -0.50832,-11.48274 z m 8.41182,0.52848 c -0.49248,0.0423 -1.39536,0.50913 -1.39536,0.50913 l 0.3062,2.6085 c 0,0 0.94559,0.0493 1.44177,2.1e-4 1.07103,-0.10602 2.04602,-0.86247 1.92677,-1.92576 -0.0885,-0.78944 -0.98376,-1.17807 -1.89308,-1.20347 -0.12991,-0.004 -0.25809,3.9e-4 -0.3863,0.0114 z m -29.98498,3.76578 c 0.11911,-0.0106 0.23741,-0.0166 0.35597,-0.0166 3.79406,0 6.21729,1.53986 6.21729,7.16554 0,5.62568 -4.19993,11.66746 -7.994,11.66745 -3.79406,0 -6.15931,-2.01519 -6.15931,-7.64086 0,-5.44988 3.88774,-10.84365 7.58005,-11.17552 z m -8.04834,2.46902 -4.38331,12.06072 0.50783,7.24647 -4.9675,1.51942 -0.10107,-7.27116 -6.41,-9.04634 5.64941,-1.64641 3.31902,4.71198 2.30593,-6.38477 z m 7.79621,1.67391 c -0.19316,0.0215 -0.40423,0.0758 -0.63563,0.16429 -1.31365,0.50232 -2.25978,2.27329 -2.31018,5.15109 -0.0536,3.0659 0.51603,5.74923 2.30974,5.33122 1.45248,-0.3385 2.42804,-2.23099 2.54727,-5.27033 0.10675,-2.72119 -0.0326,-5.3939 -1.72274,-5.3869 -0.0604,2e-4 -0.12406,0.004 -0.18846,0.0106 z m -37.63623,6.75907 c 0.12906,-0.0114 0.25921,-0.0184 0.38768,-0.0184 4.11101,0 6.73521,1.66893 6.73521,7.76456 0,6.09563 -4.55064,12.64229 -8.66164,12.64228 -4.11101,0 -6.67233,-2.18273 -6.67233,-8.27834 0,-5.90515 4.21033,-11.75051 8.21108,-12.1101 z m -16.28873,4.91589 c 4.12104,-0.01 5.13735,3.44086 5.23355,4.91807 l -4.76248,2.05279 c 0,0 -1.28288,-2.25296 -2.25618,-2.00212 -2.49883,0.644 -2.85605,4.73156 -2.58482,7.29775 0.17295,1.63643 0.94241,4.11709 2.58552,4.20669 1.33435,0.0728 2.45746,-3.16707 2.45746,-3.16707 l -2.48353,0.60697 -0.12664,-4.15452 7.27208,-2.22911 0.50747,10.59075 c 0,0 -0.80909,0.59127 -1.26674,0.78476 -0.44905,0.18985 -1.42,0.35433 -1.42,0.35433 l -0.32884,-1.56941 c -0.0343,0.0835 -2.87073,3.83137 -5.16818,4.38213 -3.63037,0.8703 -6.41886,-1.97994 -7.14693,-5.04093 -1.48882,-6.2594 1.68803,-15.51715 7.52601,-16.79888 0.72182,-0.1585 1.37353,-0.2312 1.96225,-0.2322 z m 16.01729,-0.42651 c -0.20928,0.0233 -0.43893,0.0818 -0.68965,0.17775 -1.4234,0.54428 -2.44859,2.46375 -2.50319,5.58196 -0.0581,3.322 0.55917,6.22968 2.50273,5.77676 1.5738,-0.36678 2.62988,-2.41944 2.75907,-5.71267 0.11566,-2.94851 -0.0351,-5.84223 -1.86642,-5.83523 -0.0654,2e-4 -0.13274,0.003 -0.20254,0.0114 z m -131.00231,10.74122 c -1.83668,-0.0228 -4.05224,0.22416 -6.72384,0.79764 l -19.41637,3.12607 0.45661,25.62806 21.64485,-4.02583 c 5.66201,-1.33908 12.47858,-3.89765 12.72165,-15.15178 0.1113,-5.15302 -0.72391,-10.27536 -8.6829,-10.37416 z m 87.99308,-0.0987 c 0.14414,-0.0132 0.28833,-0.0192 0.4318,-0.0192 4.5913,0 7.52315,1.86335 7.52315,8.67114 0,6.8078 -5.08248,14.11902 -9.67378,14.11901 -4.5913,0 -7.45311,-2.4383 -7.45311,-9.24607 0,-6.59505 4.70378,-13.12332 9.17194,-13.52493 z m -10.39049,3.92187 -0.14343,5.66228 -3.94244,2.15057 -0.78777,17.41484 -5.01731,1.57603 0.14443,-16.69824 -3.72647,1.21858 0.50111,-5.30413 z m 10.08502,1.09181 c -0.23396,0.0265 -0.48967,0.0926 -0.76969,0.19962 -1.58969,0.60787 -2.73416,2.7511 -2.79506,6.23362 -0.0649,3.71012 0.62458,6.95682 2.7952,6.45098 1.75768,-0.40962 2.93768,-2.70025 3.08196,-6.37823 0.12918,-3.29299 -0.0399,-6.52681 -2.08521,-6.51881 -0.073,3e-4 -0.14922,0.004 -0.2272,0.0128 z"
         transform="translate(4.508816e-6)" /></g></g></svg>
