<?xml version="1.0" encoding="UTF-8" standalone="no"?>
<!-- Created with Inkscape (http://www.inkscape.org/) -->

<svg
   version="1.1"
   id="svg1"
   width="468.27335"
   height="468.27335"
   viewBox="0 0 468.27335 468.27335"
   sodipodi:docname="bound-sticker.svg"
   xml:space="preserve"
   inkscape:version="1.4.1 (93de688d07, 2025-03-30)"
   inkscape:export-filename="bound-sticker.png"
   inkscape:export-xdpi="1659.7485"
   inkscape:export-ydpi="1659.7485"
   xmlns:inkscape="http://www.inkscape.org/namespaces/inkscape"
   xmlns:sodipodi="http://sodipodi.sourceforge.net/DTD/sodipodi-0.dtd"
   xmlns="http://www.w3.org/2000/svg"
   xmlns:svg="http://www.w3.org/2000/svg"><defs
     id="defs1"><mask
       maskUnits="userSpaceOnUse"
       id="mask648"><circle
         style="display:inline;fill:#ffffff;fill-opacity:1;stroke-width:0.992104"
         id="circle649"
         cx="83.661079"
         cy="445.64111"
         r="234.13667"
         inkscape:label="Circle"
         transform="rotate(-31.458284)" /></mask></defs><sodipodi:namedview
     id="namedview1"
     pagecolor="#ffffff"
     bordercolor="#000000"
     borderopacity="0.25"
     inkscape:showpageshadow="2"
     inkscape:pageopacity="0.0"
     inkscape:pagecheckerboard="0"
     inkscape:deskcolor="#d1d1d1"
     inkscape:zoom="2"
     inkscape:cx="44"
     inkscape:cy="305.5"
     inkscape:window-width="3440"
     inkscape:window-height="1395"
     inkscape:window-x="0"
     inkscape:window-y="22"
     inkscape:window-maximized="1"
     inkscape:current-layer="g1" /><g
     inkscape:groupmode="layer"
     inkscape:label="Image"
     id="g1"
     transform="translate(-93.95134,-5.8018646)"><circle
       style="display:inline;fill:#0039dd;fill-opacity:1;stroke-width:0.992105"
       id="path16"
       cx="328.08801"
       cy="239.93854"
       r="234.13667"
       inkscape:label="Circle" /><g
       id="g648"
       transform="rotate(31.458284,487.40547,331.08959)"
       mask="url(#mask648)"><g
         fill="#000000"
         id="g216"
         inkscape:label="halftones"
         transform="matrix(2.4478926,0,0,2.4478926,232.43883,97.789358)"
         mask="none"
         style="fill:#ff5c88;fill-opacity:1"><circle
           cx="10"
           cy="58"
           r="0.123"
           id="circle1"
           style="fill:#ff5c88;fill-opacity:1" /><circle
           cx="10"
           cy="70"
           r="0.35600001"
           id="circle2"
           style="fill:#ff5c88;fill-opacity:1" /><circle
           cx="10"
           cy="82"
           r="0.56800002"
           id="circle3"
           style="fill:#ff5c88;fill-opacity:1" /><circle
           cx="10"
           cy="94"
           r="0.67799997"
           id="circle4"
           style="fill:#ff5c88;fill-opacity:1" /><circle
           cx="10"
           cy="106"
           r="0.67799997"
           id="circle5"
           style="fill:#ff5c88;fill-opacity:1" /><circle
           cx="10"
           cy="118"
           r="0.56800002"
           id="circle6"
           style="fill:#ff5c88;fill-opacity:1" /><circle
           cx="10"
           cy="130"
           r="0.35600001"
           id="circle7"
           style="fill:#ff5c88;fill-opacity:1" /><circle
           cx="10"
           cy="142"
           r="0.123"
           id="circle8"
           style="fill:#ff5c88;fill-opacity:1" /><circle
           cx="22"
           cy="46"
           r="0.352"
           id="circle9"
           style="fill:#ff5c88;fill-opacity:1" /><circle
           cx="22"
           cy="58"
           r="0.78799999"
           id="circle10"
           style="fill:#ff5c88;fill-opacity:1" /><circle
           cx="22"
           cy="70"
           r="1.135"
           id="circle11"
           style="fill:#ff5c88;fill-opacity:1" /><circle
           cx="22"
           cy="82"
           r="1.381"
           id="circle12"
           style="fill:#ff5c88;fill-opacity:1" /><circle
           cx="22"
           cy="94"
           r="1.5039999"
           id="circle13"
           style="fill:#ff5c88;fill-opacity:1" /><circle
           cx="22"
           cy="106"
           r="1.5039999"
           id="circle14"
           style="fill:#ff5c88;fill-opacity:1" /><circle
           cx="22"
           cy="118"
           r="1.381"
           id="circle15"
           style="fill:#ff5c88;fill-opacity:1" /><circle
           cx="22"
           cy="130"
           r="1.135"
           id="circle16"
           style="fill:#ff5c88;fill-opacity:1" /><circle
           cx="22"
           cy="142"
           r="0.78799999"
           id="circle17"
           style="fill:#ff5c88;fill-opacity:1" /><circle
           cx="22"
           cy="154"
           r="0.352"
           id="circle18"
           style="fill:#ff5c88;fill-opacity:1" /><circle
           cx="34"
           cy="34"
           r="0.45699999"
           id="circle19"
           style="fill:#ff5c88;fill-opacity:1" /><circle
           cx="34"
           cy="46"
           r="1.016"
           id="circle20"
           style="fill:#ff5c88;fill-opacity:1" /><circle
           cx="34"
           cy="58"
           r="1.508"
           id="circle21"
           style="fill:#ff5c88;fill-opacity:1" /><circle
           cx="34"
           cy="70"
           r="1.902"
           id="circle22"
           style="fill:#ff5c88;fill-opacity:1" /><circle
           cx="34"
           cy="82"
           r="2.1900001"
           id="circle23"
           style="fill:#ff5c88;fill-opacity:1" /><circle
           cx="34"
           cy="94"
           r="2.3380001"
           id="circle24"
           style="fill:#ff5c88;fill-opacity:1" /><circle
           cx="34"
           cy="106"
           r="2.3380001"
           id="circle25"
           style="fill:#ff5c88;fill-opacity:1" /><circle
           cx="34"
           cy="118"
           r="2.1900001"
           id="circle26"
           style="fill:#ff5c88;fill-opacity:1" /><circle
           cx="34"
           cy="130"
           r="1.902"
           id="circle27"
           style="fill:#ff5c88;fill-opacity:1" /><circle
           cx="34"
           cy="142"
           r="1.508"
           id="circle28"
           style="fill:#ff5c88;fill-opacity:1" /><circle
           cx="34"
           cy="154"
           r="1.016"
           id="circle29"
           style="fill:#ff5c88;fill-opacity:1" /><circle
           cx="34"
           cy="166"
           r="0.45699999"
           id="circle30"
           style="fill:#ff5c88;fill-opacity:1" /><circle
           cx="46"
           cy="22"
           r="0.352"
           id="circle31"
           style="fill:#ff5c88;fill-opacity:1" /><circle
           cx="46"
           cy="34"
           r="1.016"
           id="circle32"
           style="fill:#ff5c88;fill-opacity:1" /><circle
           cx="46"
           cy="46"
           r="1.643"
           id="circle33"
           style="fill:#ff5c88;fill-opacity:1" /><circle
           cx="46"
           cy="58"
           r="2.1849999"
           id="circle34"
           style="fill:#ff5c88;fill-opacity:1" /><circle
           cx="46"
           cy="70"
           r="2.6470001"
           id="circle35"
           style="fill:#ff5c88;fill-opacity:1" /><circle
           cx="46"
           cy="82"
           r="2.9820001"
           id="circle36"
           style="fill:#ff5c88;fill-opacity:1" /><circle
           cx="46"
           cy="94"
           r="3.164"
           id="circle37"
           style="fill:#ff5c88;fill-opacity:1" /><circle
           cx="46"
           cy="106"
           r="3.164"
           id="circle38"
           style="fill:#ff5c88;fill-opacity:1" /><circle
           cx="46"
           cy="118"
           r="2.9820001"
           id="circle39"
           style="fill:#ff5c88;fill-opacity:1" /><circle
           cx="46"
           cy="130"
           r="2.6470001"
           id="circle40"
           style="fill:#ff5c88;fill-opacity:1" /><circle
           cx="46"
           cy="142"
           r="2.1849999"
           id="circle41"
           style="fill:#ff5c88;fill-opacity:1" /><circle
           cx="46"
           cy="154"
           r="1.643"
           id="circle42"
           style="fill:#ff5c88;fill-opacity:1" /><circle
           cx="46"
           cy="166"
           r="1.016"
           id="circle43"
           style="fill:#ff5c88;fill-opacity:1" /><circle
           cx="46"
           cy="178"
           r="0.352"
           id="circle44"
           style="fill:#ff5c88;fill-opacity:1" /><circle
           cx="58"
           cy="10"
           r="0.123"
           id="circle45"
           style="fill:#ff5c88;fill-opacity:1" /><circle
           cx="58"
           cy="22"
           r="0.78799999"
           id="circle46"
           style="fill:#ff5c88;fill-opacity:1" /><circle
           cx="58"
           cy="34"
           r="1.508"
           id="circle47"
           style="fill:#ff5c88;fill-opacity:1" /><circle
           cx="58"
           cy="46"
           r="2.1849999"
           id="circle48"
           style="fill:#ff5c88;fill-opacity:1" /><circle
           cx="58"
           cy="58"
           r="2.8080001"
           id="circle49"
           style="fill:#ff5c88;fill-opacity:1" /><circle
           cx="58"
           cy="70"
           r="3.3540001"
           id="circle50"
           style="fill:#ff5c88;fill-opacity:1" /><circle
           cx="58"
           cy="82"
           r="3.7609999"
           id="circle51"
           style="fill:#ff5c88;fill-opacity:1" /><circle
           cx="58"
           cy="94"
           r="3.9849999"
           id="circle52"
           style="fill:#ff5c88;fill-opacity:1" /><circle
           cx="58"
           cy="106"
           r="3.9849999"
           id="circle53"
           style="fill:#ff5c88;fill-opacity:1" /><circle
           cx="58"
           cy="118"
           r="3.7609999"
           id="circle54"
           style="fill:#ff5c88;fill-opacity:1" /><circle
           cx="58"
           cy="130"
           r="3.3540001"
           id="circle55"
           style="fill:#ff5c88;fill-opacity:1" /><circle
           cx="58"
           cy="142"
           r="2.8080001"
           id="circle56"
           style="fill:#ff5c88;fill-opacity:1" /><circle
           cx="58"
           cy="154"
           r="2.1849999"
           id="circle57"
           style="fill:#ff5c88;fill-opacity:1" /><circle
           cx="58"
           cy="166"
           r="1.508"
           id="circle58"
           style="fill:#ff5c88;fill-opacity:1" /><circle
           cx="58"
           cy="178"
           r="0.78799999"
           id="circle59"
           style="fill:#ff5c88;fill-opacity:1" /><circle
           cx="58"
           cy="190"
           r="0.123"
           id="circle60"
           style="fill:#ff5c88;fill-opacity:1" /><circle
           cx="70"
           cy="10"
           r="0.35600001"
           id="circle61"
           style="fill:#ff5c88;fill-opacity:1" /><circle
           cx="70"
           cy="22"
           r="1.135"
           id="circle62"
           style="fill:#ff5c88;fill-opacity:1" /><circle
           cx="70"
           cy="34"
           r="1.902"
           id="circle63"
           style="fill:#ff5c88;fill-opacity:1" /><circle
           cx="70"
           cy="46"
           r="2.6470001"
           id="circle64"
           style="fill:#ff5c88;fill-opacity:1" /><circle
           cx="70"
           cy="58"
           r="3.3540001"
           id="circle65"
           style="fill:#ff5c88;fill-opacity:1" /><circle
           cx="70"
           cy="70"
           r="3.994"
           id="circle66"
           style="fill:#ff5c88;fill-opacity:1" /><circle
           cx="70"
           cy="82"
           r="4.5019999"
           id="circle67"
           style="fill:#ff5c88;fill-opacity:1" /><circle
           cx="70"
           cy="94"
           r="4.8109999"
           id="circle68"
           style="fill:#ff5c88;fill-opacity:1" /><circle
           cx="70"
           cy="106"
           r="4.8109999"
           id="circle69"
           style="fill:#ff5c88;fill-opacity:1" /><circle
           cx="70"
           cy="118"
           r="4.5019999"
           id="circle70"
           style="fill:#ff5c88;fill-opacity:1" /><circle
           cx="70"
           cy="130"
           r="3.994"
           id="circle71"
           style="fill:#ff5c88;fill-opacity:1" /><circle
           cx="70"
           cy="142"
           r="3.3540001"
           id="circle72"
           style="fill:#ff5c88;fill-opacity:1" /><circle
           cx="70"
           cy="154"
           r="2.6470001"
           id="circle73"
           style="fill:#ff5c88;fill-opacity:1" /><circle
           cx="70"
           cy="166"
           r="1.902"
           id="circle74"
           style="fill:#ff5c88;fill-opacity:1" /><circle
           cx="70"
           cy="178"
           r="1.135"
           id="circle75"
           style="fill:#ff5c88;fill-opacity:1" /><circle
           cx="70"
           cy="190"
           r="0.35600001"
           id="circle76"
           style="fill:#ff5c88;fill-opacity:1" /><circle
           cx="82"
           cy="10"
           r="0.56800002"
           id="circle77"
           style="fill:#ff5c88;fill-opacity:1" /><circle
           cx="82"
           cy="22"
           r="1.381"
           id="circle78"
           style="fill:#ff5c88;fill-opacity:1" /><circle
           cx="82"
           cy="34"
           r="2.1900001"
           id="circle79"
           style="fill:#ff5c88;fill-opacity:1" /><circle
           cx="82"
           cy="46"
           r="2.9820001"
           id="circle80"
           style="fill:#ff5c88;fill-opacity:1" /><circle
           cx="82"
           cy="58"
           r="3.7609999"
           id="circle81"
           style="fill:#ff5c88;fill-opacity:1" /><circle
           cx="82"
           cy="70"
           r="4.5019999"
           id="circle82"
           style="fill:#ff5c88;fill-opacity:1" /><circle
           cx="82"
           cy="82"
           r="5.1539998"
           id="circle83"
           style="fill:#ff5c88;fill-opacity:1" /><circle
           cx="82"
           cy="94"
           r="5.375"
           id="circle84"
           style="fill:#ff5c88;fill-opacity:1" /><circle
           cx="82"
           cy="106"
           r="5.375"
           id="circle85"
           style="fill:#ff5c88;fill-opacity:1" /><circle
           cx="82"
           cy="118"
           r="5.1539998"
           id="circle86"
           style="fill:#ff5c88;fill-opacity:1" /><circle
           cx="82"
           cy="130"
           r="4.5019999"
           id="circle87"
           style="fill:#ff5c88;fill-opacity:1" /><circle
           cx="82"
           cy="142"
           r="3.7609999"
           id="circle88"
           style="fill:#ff5c88;fill-opacity:1" /><circle
           cx="82"
           cy="154"
           r="2.9820001"
           id="circle89"
           style="fill:#ff5c88;fill-opacity:1" /><circle
           cx="82"
           cy="166"
           r="2.1900001"
           id="circle90"
           style="fill:#ff5c88;fill-opacity:1" /><circle
           cx="82"
           cy="178"
           r="1.381"
           id="circle91"
           style="fill:#ff5c88;fill-opacity:1" /><circle
           cx="82"
           cy="190"
           r="0.56800002"
           id="circle92"
           style="fill:#ff5c88;fill-opacity:1" /><circle
           cx="94"
           cy="10"
           r="0.67799997"
           id="circle93"
           style="fill:#ff5c88;fill-opacity:1" /><circle
           cx="94"
           cy="22"
           r="1.5039999"
           id="circle94"
           style="fill:#ff5c88;fill-opacity:1" /><circle
           cx="94"
           cy="34"
           r="2.3380001"
           id="circle95"
           style="fill:#ff5c88;fill-opacity:1" /><circle
           cx="94"
           cy="46"
           r="3.164"
           id="circle96"
           style="fill:#ff5c88;fill-opacity:1" /><circle
           cx="94"
           cy="58"
           r="3.9849999"
           id="circle97"
           style="fill:#ff5c88;fill-opacity:1" /><circle
           cx="94"
           cy="70"
           r="4.8109999"
           id="circle98"
           style="fill:#ff5c88;fill-opacity:1" /><circle
           cx="94"
           cy="82"
           r="5.375"
           id="circle99"
           style="fill:#ff5c88;fill-opacity:1" /><circle
           cx="94"
           cy="94"
           r="5.4000001"
           id="circle100"
           style="fill:#ff5c88;fill-opacity:1" /><circle
           cx="94"
           cy="106"
           r="5.4000001"
           id="circle101"
           style="fill:#ff5c88;fill-opacity:1" /><circle
           cx="94"
           cy="118"
           r="5.375"
           id="circle102"
           style="fill:#ff5c88;fill-opacity:1" /><circle
           cx="94"
           cy="130"
           r="4.8109999"
           id="circle103"
           style="fill:#ff5c88;fill-opacity:1" /><circle
           cx="94"
           cy="142"
           r="3.9849999"
           id="circle104"
           style="fill:#ff5c88;fill-opacity:1" /><circle
           cx="94"
           cy="154"
           r="3.164"
           id="circle105"
           style="fill:#ff5c88;fill-opacity:1" /><circle
           cx="94"
           cy="166"
           r="2.3380001"
           id="circle106"
           style="fill:#ff5c88;fill-opacity:1" /><circle
           cx="94"
           cy="178"
           r="1.5039999"
           id="circle107"
           style="fill:#ff5c88;fill-opacity:1" /><circle
           cx="94"
           cy="190"
           r="0.67799997"
           id="circle108"
           style="fill:#ff5c88;fill-opacity:1" /><circle
           cx="106"
           cy="10"
           r="0.67799997"
           id="circle109"
           style="fill:#ff5c88;fill-opacity:1" /><circle
           cx="106"
           cy="22"
           r="1.5039999"
           id="circle110"
           style="fill:#ff5c88;fill-opacity:1" /><circle
           cx="106"
           cy="34"
           r="2.3380001"
           id="circle111"
           style="fill:#ff5c88;fill-opacity:1" /><circle
           cx="106"
           cy="46"
           r="3.164"
           id="circle112"
           style="fill:#ff5c88;fill-opacity:1" /><circle
           cx="106"
           cy="58"
           r="3.9849999"
           id="circle113"
           style="fill:#ff5c88;fill-opacity:1" /><circle
           cx="106"
           cy="70"
           r="4.8109999"
           id="circle114"
           style="fill:#ff5c88;fill-opacity:1" /><circle
           cx="106"
           cy="82"
           r="5.375"
           id="circle115"
           style="fill:#ff5c88;fill-opacity:1" /><circle
           cx="106"
           cy="94"
           r="5.4000001"
           id="circle116"
           style="fill:#ff5c88;fill-opacity:1" /><circle
           cx="106"
           cy="106"
           r="5.4000001"
           id="circle117"
           style="fill:#ff5c88;fill-opacity:1" /><circle
           cx="106"
           cy="118"
           r="5.375"
           id="circle118"
           style="fill:#ff5c88;fill-opacity:1" /><circle
           cx="106"
           cy="130"
           r="4.8109999"
           id="circle119"
           style="fill:#ff5c88;fill-opacity:1" /><circle
           cx="106"
           cy="142"
           r="3.9849999"
           id="circle120"
           style="fill:#ff5c88;fill-opacity:1" /><circle
           cx="106"
           cy="154"
           r="3.164"
           id="circle121"
           style="fill:#ff5c88;fill-opacity:1" /><circle
           cx="106"
           cy="166"
           r="2.3380001"
           id="circle122"
           style="fill:#ff5c88;fill-opacity:1" /><circle
           cx="106"
           cy="178"
           r="1.5039999"
           id="circle123"
           style="fill:#ff5c88;fill-opacity:1" /><circle
           cx="106"
           cy="190"
           r="0.67799997"
           id="circle124"
           style="fill:#ff5c88;fill-opacity:1" /><circle
           cx="118"
           cy="10"
           r="0.56800002"
           id="circle125"
           style="fill:#ff5c88;fill-opacity:1" /><circle
           cx="118"
           cy="22"
           r="1.381"
           id="circle126"
           style="fill:#ff5c88;fill-opacity:1" /><circle
           cx="118"
           cy="34"
           r="2.1900001"
           id="circle127"
           style="fill:#ff5c88;fill-opacity:1" /><circle
           cx="118"
           cy="46"
           r="2.9820001"
           id="circle128"
           style="fill:#ff5c88;fill-opacity:1" /><circle
           cx="118"
           cy="58"
           r="3.7609999"
           id="circle129"
           style="fill:#ff5c88;fill-opacity:1" /><circle
           cx="118"
           cy="70"
           r="4.5019999"
           id="circle130"
           style="fill:#ff5c88;fill-opacity:1" /><circle
           cx="118"
           cy="82"
           r="5.1539998"
           id="circle131"
           style="fill:#ff5c88;fill-opacity:1" /><circle
           cx="118"
           cy="94"
           r="5.375"
           id="circle132"
           style="fill:#ff5c88;fill-opacity:1" /><circle
           cx="118"
           cy="106"
           r="5.375"
           id="circle133"
           style="fill:#ff5c88;fill-opacity:1" /><circle
           cx="118"
           cy="118"
           r="5.1539998"
           id="circle134"
           style="fill:#ff5c88;fill-opacity:1" /><circle
           cx="118"
           cy="130"
           r="4.5019999"
           id="circle135"
           style="fill:#ff5c88;fill-opacity:1" /><circle
           cx="118"
           cy="142"
           r="3.7609999"
           id="circle136"
           style="fill:#ff5c88;fill-opacity:1" /><circle
           cx="118"
           cy="154"
           r="2.9820001"
           id="circle137"
           style="fill:#ff5c88;fill-opacity:1" /><circle
           cx="118"
           cy="166"
           r="2.1900001"
           id="circle138"
           style="fill:#ff5c88;fill-opacity:1" /><circle
           cx="118"
           cy="178"
           r="1.381"
           id="circle139"
           style="fill:#ff5c88;fill-opacity:1" /><circle
           cx="118"
           cy="190"
           r="0.56800002"
           id="circle140"
           style="fill:#ff5c88;fill-opacity:1" /><circle
           cx="130"
           cy="10"
           r="0.35600001"
           id="circle141"
           style="fill:#ff5c88;fill-opacity:1" /><circle
           cx="130"
           cy="22"
           r="1.135"
           id="circle142"
           style="fill:#ff5c88;fill-opacity:1" /><circle
           cx="130"
           cy="34"
           r="1.902"
           id="circle143"
           style="fill:#ff5c88;fill-opacity:1" /><circle
           cx="130"
           cy="46"
           r="2.6470001"
           id="circle144"
           style="fill:#ff5c88;fill-opacity:1" /><circle
           cx="130"
           cy="58"
           r="3.3540001"
           id="circle145"
           style="fill:#ff5c88;fill-opacity:1" /><circle
           cx="130"
           cy="70"
           r="3.994"
           id="circle146"
           style="fill:#ff5c88;fill-opacity:1" /><circle
           cx="130"
           cy="82"
           r="4.5019999"
           id="circle147"
           style="fill:#ff5c88;fill-opacity:1" /><circle
           cx="130"
           cy="94"
           r="4.8109999"
           id="circle148"
           style="fill:#ff5c88;fill-opacity:1" /><circle
           cx="130"
           cy="106"
           r="4.8109999"
           id="circle149"
           style="fill:#ff5c88;fill-opacity:1" /><circle
           cx="130"
           cy="118"
           r="4.5019999"
           id="circle150"
           style="fill:#ff5c88;fill-opacity:1" /><circle
           cx="130"
           cy="130"
           r="3.994"
           id="circle151"
           style="fill:#ff5c88;fill-opacity:1" /><circle
           cx="130"
           cy="142"
           r="3.3540001"
           id="circle152"
           style="fill:#ff5c88;fill-opacity:1" /><circle
           cx="130"
           cy="154"
           r="2.6470001"
           id="circle153"
           style="fill:#ff5c88;fill-opacity:1" /><circle
           cx="130"
           cy="166"
           r="1.902"
           id="circle154"
           style="fill:#ff5c88;fill-opacity:1" /><circle
           cx="130"
           cy="178"
           r="1.135"
           id="circle155"
           style="fill:#ff5c88;fill-opacity:1" /><circle
           cx="130"
           cy="190"
           r="0.35600001"
           id="circle156"
           style="fill:#ff5c88;fill-opacity:1" /><circle
           cx="142"
           cy="10"
           r="0.123"
           id="circle157"
           style="fill:#ff5c88;fill-opacity:1" /><circle
           cx="142"
           cy="22"
           r="0.78799999"
           id="circle158"
           style="fill:#ff5c88;fill-opacity:1" /><circle
           cx="142"
           cy="34"
           r="1.508"
           id="circle159"
           style="fill:#ff5c88;fill-opacity:1" /><circle
           cx="142"
           cy="46"
           r="2.1849999"
           id="circle160"
           style="fill:#ff5c88;fill-opacity:1" /><circle
           cx="142"
           cy="58"
           r="2.8080001"
           id="circle161"
           style="fill:#ff5c88;fill-opacity:1" /><circle
           cx="142"
           cy="70"
           r="3.3540001"
           id="circle162"
           style="fill:#ff5c88;fill-opacity:1" /><circle
           cx="142"
           cy="82"
           r="3.7609999"
           id="circle163"
           style="fill:#ff5c88;fill-opacity:1" /><circle
           cx="142"
           cy="94"
           r="3.9849999"
           id="circle164"
           style="fill:#ff5c88;fill-opacity:1" /><circle
           cx="142"
           cy="106"
           r="3.9849999"
           id="circle165"
           style="fill:#ff5c88;fill-opacity:1" /><circle
           cx="142"
           cy="118"
           r="3.7609999"
           id="circle166"
           style="fill:#ff5c88;fill-opacity:1" /><circle
           cx="142"
           cy="130"
           r="3.3540001"
           id="circle167"
           style="fill:#ff5c88;fill-opacity:1" /><circle
           cx="142"
           cy="142"
           r="2.8080001"
           id="circle168"
           style="fill:#ff5c88;fill-opacity:1" /><circle
           cx="142"
           cy="154"
           r="2.1849999"
           id="circle169"
           style="fill:#ff5c88;fill-opacity:1" /><circle
           cx="142"
           cy="166"
           r="1.508"
           id="circle170"
           style="fill:#ff5c88;fill-opacity:1" /><circle
           cx="142"
           cy="178"
           r="0.78799999"
           id="circle171"
           style="fill:#ff5c88;fill-opacity:1" /><circle
           cx="142"
           cy="190"
           r="0.123"
           id="circle172"
           style="fill:#ff5c88;fill-opacity:1" /><circle
           cx="154"
           cy="22"
           r="0.352"
           id="circle173"
           style="fill:#ff5c88;fill-opacity:1" /><circle
           cx="154"
           cy="34"
           r="1.016"
           id="circle174"
           style="fill:#ff5c88;fill-opacity:1" /><circle
           cx="154"
           cy="46"
           r="1.643"
           id="circle175"
           style="fill:#ff5c88;fill-opacity:1" /><circle
           cx="154"
           cy="58"
           r="2.1849999"
           id="circle176"
           style="fill:#ff5c88;fill-opacity:1" /><circle
           cx="154"
           cy="70"
           r="2.6470001"
           id="circle177"
           style="fill:#ff5c88;fill-opacity:1" /><circle
           cx="154"
           cy="82"
           r="2.9820001"
           id="circle178"
           style="fill:#ff5c88;fill-opacity:1" /><circle
           cx="154"
           cy="94"
           r="3.164"
           id="circle179"
           style="fill:#ff5c88;fill-opacity:1" /><circle
           cx="154"
           cy="106"
           r="3.164"
           id="circle180"
           style="fill:#ff5c88;fill-opacity:1" /><circle
           cx="154"
           cy="118"
           r="2.9820001"
           id="circle181"
           style="fill:#ff5c88;fill-opacity:1" /><circle
           cx="154"
           cy="130"
           r="2.6470001"
           id="circle182"
           style="fill:#ff5c88;fill-opacity:1" /><circle
           cx="154"
           cy="142"
           r="2.1849999"
           id="circle183"
           style="fill:#ff5c88;fill-opacity:1" /><circle
           cx="154"
           cy="154"
           r="1.643"
           id="circle184"
           style="fill:#ff5c88;fill-opacity:1" /><circle
           cx="154"
           cy="166"
           r="1.016"
           id="circle185"
           style="fill:#ff5c88;fill-opacity:1" /><circle
           cx="154"
           cy="178"
           r="0.352"
           id="circle186"
           style="fill:#ff5c88;fill-opacity:1" /><circle
           cx="166"
           cy="34"
           r="0.45699999"
           id="circle187"
           style="fill:#ff5c88;fill-opacity:1" /><circle
           cx="166"
           cy="46"
           r="1.016"
           id="circle188"
           style="fill:#ff5c88;fill-opacity:1" /><circle
           cx="166"
           cy="58"
           r="1.508"
           id="circle189"
           style="fill:#ff5c88;fill-opacity:1" /><circle
           cx="166"
           cy="70"
           r="1.902"
           id="circle190"
           style="fill:#ff5c88;fill-opacity:1" /><circle
           cx="166"
           cy="82"
           r="2.1900001"
           id="circle191"
           style="fill:#ff5c88;fill-opacity:1" /><circle
           cx="166"
           cy="94"
           r="2.3380001"
           id="circle192"
           style="fill:#ff5c88;fill-opacity:1" /><circle
           cx="166"
           cy="106"
           r="2.3380001"
           id="circle193"
           style="fill:#ff5c88;fill-opacity:1" /><circle
           cx="166"
           cy="118"
           r="2.1900001"
           id="circle194"
           style="fill:#ff5c88;fill-opacity:1" /><circle
           cx="166"
           cy="130"
           r="1.902"
           id="circle195"
           style="fill:#ff5c88;fill-opacity:1" /><circle
           cx="166"
           cy="142"
           r="1.508"
           id="circle196"
           style="fill:#ff5c88;fill-opacity:1" /><circle
           cx="166"
           cy="154"
           r="1.016"
           id="circle197"
           style="fill:#ff5c88;fill-opacity:1" /><circle
           cx="166"
           cy="166"
           r="0.45699999"
           id="circle198"
           style="fill:#ff5c88;fill-opacity:1" /><circle
           cx="178"
           cy="46"
           r="0.352"
           id="circle199"
           style="fill:#ff5c88;fill-opacity:1" /><circle
           cx="178"
           cy="58"
           r="0.78799999"
           id="circle200"
           style="fill:#ff5c88;fill-opacity:1" /><circle
           cx="178"
           cy="70"
           r="1.135"
           id="circle201"
           style="fill:#ff5c88;fill-opacity:1" /><circle
           cx="178"
           cy="82"
           r="1.381"
           id="circle202"
           style="fill:#ff5c88;fill-opacity:1" /><circle
           cx="178"
           cy="94"
           r="1.5039999"
           id="circle203"
           style="fill:#ff5c88;fill-opacity:1" /><circle
           cx="178"
           cy="106"
           r="1.5039999"
           id="circle204"
           style="fill:#ff5c88;fill-opacity:1" /><circle
           cx="178"
           cy="118"
           r="1.381"
           id="circle205"
           style="fill:#ff5c88;fill-opacity:1" /><circle
           cx="178"
           cy="130"
           r="1.135"
           id="circle206"
           style="fill:#ff5c88;fill-opacity:1" /><circle
           cx="178"
           cy="142"
           r="0.78799999"
           id="circle207"
           style="fill:#ff5c88;fill-opacity:1" /><circle
           cx="178"
           cy="154"
           r="0.352"
           id="circle208"
           style="fill:#ff5c88;fill-opacity:1" /><circle
           cx="190"
           cy="58"
           r="0.123"
           id="circle209"
           style="fill:#ff5c88;fill-opacity:1" /><circle
           cx="190"
           cy="70"
           r="0.35600001"
           id="circle210"
           style="fill:#ff5c88;fill-opacity:1" /><circle
           cx="190"
           cy="82"
           r="0.56800002"
           id="circle211"
           style="fill:#ff5c88;fill-opacity:1" /><circle
           cx="190"
           cy="94"
           r="0.67799997"
           id="circle212"
           style="fill:#ff5c88;fill-opacity:1" /><circle
           cx="190"
           cy="106"
           r="0.67799997"
           id="circle213"
           style="fill:#ff5c88;fill-opacity:1" /><circle
           cx="190"
           cy="118"
           r="0.56800002"
           id="circle214"
           style="fill:#ff5c88;fill-opacity:1" /><circle
           cx="190"
           cy="130"
           r="0.35600001"
           id="circle215"
           style="fill:#ff5c88;fill-opacity:1" /><circle
           cx="190"
           cy="142"
           r="0.123"
           id="circle216"
           style="fill:#ff5c88;fill-opacity:1" /></g></g><g
       id="g28"
       inkscape:label="BOUND TO GO YOUR WAY"><path
         style="fill:#000000;fill-opacity:1;stroke:none;stroke-width:1.8;stroke-linecap:butt;stroke-linejoin:round;stroke-dasharray:none;stroke-opacity:1;paint-order:markers stroke fill"
         d="m 137.79744,171.07565 7.33623,154.10508 40.34928,31.59884 116.0097,-56.25919 15.17922,10.04212 7,-2.42188 0.75,-12.35937 7.37694,5.30813 13.82173,-8.10411 c 0,0 1.39211,-10.82757 1.4805,-10.82757 0.0884,0 10.96016,8.10963 10.96016,8.10963 l 12.37436,-5.81153 1.17115,-2.60746 6.54074,-2.51906 4.37522,1.01646 5.54637,-12.02081 0.90598,-0.7955 12.37437,9.61223 6.58493,-4.61829 0.11049,-5.21491 5.52427,3.67916 11.64516,-5.49112 1.5026,-3.11569 2.36569,2.99 11.48919,-2.87951 1.17114,0.41984 1.72358,1.06066 6.43025,-1.98874 0.22097,-1.45841 1.17115,-0.30935 2.76213,0.55242 3.42505,-1.32582 -2.65165,-5.72315 2.16551,-3.0494 10.03208,7.11527 4.70668,-0.99437 1.06066,-8.17593 2.62955,6.47445 3.13779,-0.83969 0.81058,0.64154 0.53906,-0.086 6.25,-1.48438 0.67187,-4.55469 2.07813,-0.125 1.28125,2.26563 1.71875,0.3125 5.01562,-0.55469 2.34375,-1.36719 2.83594,-5.92968 5.55469,-10.89844 -8.4375,-6.46875 -1.19167,-0.99399 8.62917,-4.06851 5.96875,-8.8125 3,-10.75 -2.125,-11.9375 -7.28125,-9.59375 -4.95313,-2.85938 -28,-19.23437 -6.25,-2 -18.21875,0.6875 -3.73437,0.2031 0.14062,4.84375 -6.03125,-4.79687 -12.42187,0.54687 0.64062,12.14063 -14.45312,-11.07813 -13.5625,0.73438 0.45312,6.48437 -6.625,-5.0625 -14.14062,0.65625 -0.0469,11.90625 -12.84375,-9.84375 -18.3125,1.875 L 348,183.15625 330.35937,172.5625 c 0,0 -7.40625,-3.90625 -7.51562,-3.95313 -0.10938,-0.0469 -5.1875,-1.6875 -5.1875,-1.6875 l -8.1875,-0.20312 -4.78125,1.01562 -10.48438,3.70313 -2.48437,1.09375 -2.57813,2.01562 c 0,0 -2.8253,2.34987 -4,3.75 -1.85514,2.21115 -4.73437,7.25 -4.73437,7.25 l -2.0625,-0.0937 -29.92188,-17.78125 -14.375,-8.5625 -4.70312,-0.57812 -1.57813,0.4687 c 0,0 0.21875,-0.9375 -0.0156,-0.96875 -0.23438,-0.0312 -8.95313,0.0156 -8.95313,0.0156 l -6.1875,0.6875 -19.3125,3.6875 -53.34505,8.37547 z"
         id="path28"
         inkscape:label="lowlight"
         sodipodi:nodetypes="cccccccccsccccccccccccccccccccccccccccccccccccccccccccccccccccccccccccccccccsccccccsccccccsccccc" /><g
         id="g18"
         inkscape:label="letter highlights"
         style="display:inline;fill:#ffffff;fill-opacity:1;stroke:#000000;stroke-width:1.8;stroke-linecap:butt;stroke-linejoin:round;stroke-dasharray:none;stroke-opacity:1;paint-order:markers stroke fill"><path
           style="display:inline;fill:#ffffff;fill-opacity:1;stroke:#000000;stroke-width:1.8;stroke-linecap:butt;stroke-linejoin:round;stroke-dasharray:none;stroke-opacity:1;paint-order:markers stroke fill"
           d="m 140.82413,171.56895 36.83645,27.23317 77.97286,-12.97159 -44.71974,-25.87151 z"
           id="path17"
           inkscape:label="path17"
           sodipodi:nodetypes="ccccc" /><path
           style="fill:#ffffff;fill-opacity:1;stroke:#000000;stroke-width:1.8;stroke-linecap:butt;stroke-linejoin:round;stroke-dasharray:none;stroke-opacity:1;paint-order:markers stroke fill"
           d="m 214.0466,159.46652 4.46748,-0.50708 45.9343,26.58442 -3.51165,0.71667 z"
           id="path18"
           sodipodi:nodetypes="ccccc" /><path
           style="fill:#ffffff;fill-opacity:1;stroke:#000000;stroke-width:1.8;stroke-linecap:butt;stroke-linejoin:round;stroke-dasharray:none;stroke-opacity:1;paint-order:markers stroke fill"
           d="m 227.8636,158.88944 44.10974,25.79443 7.38162,2.14999 -44.3614,-26.73151 c 0,0 -2.15174,-0.91643 -3.29665,-1.07499 -1.18409,-0.16399 -3.83331,-0.13792 -3.83331,-0.13792 z"
           id="path19"
           sodipodi:nodetypes="ccccsc" /><path
           style="fill:#ffffff;fill-opacity:1;stroke:#000000;stroke-width:1.8;stroke-linecap:butt;stroke-linejoin:round;stroke-dasharray:none;stroke-opacity:1;paint-order:markers stroke fill"
           d="m 284.80159,180.31223 1.14666,-1.36166 30.45815,17.62989 -1.79166,1.43333 z"
           id="path20" /><path
           style="fill:#ffffff;fill-opacity:1;stroke:#000000;stroke-width:1.8;stroke-linecap:butt;stroke-linejoin:round;stroke-dasharray:none;stroke-opacity:1;paint-order:markers stroke fill"
           d="m 288.31323,176.65725 1.43333,-1.43332 33.18146,19.70821 -2.29332,1.36166 z"
           id="path21"
           sodipodi:nodetypes="ccccc" /><path
           style="fill:#ffffff;fill-opacity:1;stroke:#000000;stroke-width:1.8;stroke-linecap:butt;stroke-linejoin:round;stroke-dasharray:none;stroke-opacity:1;paint-order:markers stroke fill"
           d="m 292.03988,173.7906 c -0.71574,-1.30854 16.99271,-10.50841 30.52981,-5.01663 2.7542,1.11734 7.61734,3.97411 7.52496,4.08497 l 29.2869,18.19453 -33.30021,2.66034 z"
           id="path22"
           sodipodi:nodetypes="cscccc" /><path
           style="fill:#ffffff;fill-opacity:1;stroke:#000000;stroke-width:1.8;stroke-linecap:butt;stroke-linejoin:round;stroke-dasharray:none;stroke-opacity:1;paint-order:markers stroke fill"
           d="m 366.32193,163.68567 30.02814,23.39902 -16.16073,1.86332 -29.84899,-23.25569 z"
           id="path23"
           sodipodi:nodetypes="ccccc" /><path
           style="fill:#ffffff;fill-opacity:1;stroke:#000000;stroke-width:1.8;stroke-linecap:butt;stroke-linejoin:round;stroke-dasharray:none;stroke-opacity:1;paint-order:markers stroke fill"
           d="m 381.55996,161.88633 c 0.14334,-0.0717 11.68451,-0.87815 11.68451,-0.87815 l 30.66127,23.63986 -11.87807,0.6373 z"
           id="path24"
           sodipodi:nodetypes="ccccc" /><path
           style="fill:#ffffff;fill-opacity:1;stroke:#000000;stroke-width:1.8;stroke-linecap:butt;stroke-linejoin:round;stroke-dasharray:none;stroke-opacity:1;paint-order:markers stroke fill"
           d="m 402.38795,159.76194 10.51822,-0.83969 29.91945,22.7158 -10.6066,1.45841 z"
           id="path25" /><path
           style="fill:#ffffff;fill-opacity:1;stroke:#000000;stroke-width:1.8;stroke-linecap:butt;stroke-linejoin:round;stroke-dasharray:none;stroke-opacity:1;paint-order:markers stroke fill"
           d="m 429.3022,158.03837 9.94369,-0.61872 29.69849,22.80419 -10.34144,0.61872 z"
           id="path26" /><path
           style="fill:#ffffff;fill-opacity:1;stroke:#000000;stroke-width:1.8;stroke-linecap:butt;stroke-linejoin:round;stroke-dasharray:none;stroke-opacity:1;paint-order:markers stroke fill"
           d="m 448.41618,157.33126 c 0.006,0.0298 12.44923,-0.76589 18.51736,-0.83969 1.18601,-0.0144 2.38782,0.22642 3.59078,0.5469 0.92977,0.2477 1.87654,0.54411 2.6848,1.06619 9.91678,6.40555 29.34493,20.85965 29.34493,20.85965 l -25.21278,0.90598 z"
           id="path27"
           sodipodi:nodetypes="csssccc" /></g><g
         id="g17"
         inkscape:label="letters"
         style="display:inline;fill:#febb12;fill-opacity:1"><g
           id="g8"
           inkscape:label="BOUND"
           style="fill:#ffe305;fill-opacity:1;stroke:#000000;stroke-width:4.4;stroke-dasharray:none;stroke-opacity:1;paint-order:markers stroke fill"><path
             id="path1"
             style="display:inline;fill:#ffe305;fill-opacity:1;stroke:#000000;stroke-width:4.4;stroke-dasharray:none;stroke-opacity:1;paint-order:markers stroke fill"
             d="m 270.10156,186.48438 c -4.49141,-0.20323 -9.16652,0.78097 -13.42968,1.26953 -25.95772,4.71937 -52.09257,7.80967 -78.08204,12.34961 l 8.96094,153.71484 83.41211,-24.83203 c 13.54432,-4.06502 24.84193,-16.03058 28.125,-26.40235 3.92115,-12.38758 4.59798,-19.80149 2.43164,-29.39062 -1.1843,-5.2422 -4.13431,-10.31844 -8.10742,-13.9375 -3.92222,-3.5727 -7.34382,-5.21514 -14.44336,-6.6875 l -3.54687,-0.71094 4.05468,-2.22851 c 9.14221,-6.40817 11.74727,-12.68331 14.49219,-20.625 1.97826,-5.72357 2.12542,-12.19941 0.96289,-18.14258 -1.07491,-5.49523 -3.45243,-10.99344 -7.14453,-15.20313 -3.46658,-3.95256 -8.20772,-7.12124 -13.27734,-8.51367 -1.43424,-0.39393 -2.91107,-0.59241 -4.40821,-0.66015 z m -22.91211,35.61328 c 7.95899,0.0988 8.79294,5.22002 8.68164,10.37304 -0.24307,11.25413 -7.05674,13.81327 -12.71875,15.15235 l -21.64648,4.02343 -0.45703,-25.62695 19.41797,-3.12695 c 2.6716,-0.57348 4.88596,-0.81772 6.72265,-0.79492 z m 3.08203,56.08593 c 7.95899,0.0988 8.79294,5.22003 8.68164,10.37305 -0.24307,11.25413 -7.05869,13.81326 -12.7207,15.15234 l -21.64453,4.0254 -0.45703,-25.62696 19.41602,-3.12695 c 2.6716,-0.57348 4.88792,-0.81967 6.7246,-0.79688 z"
             inkscape:label="B" /><path
             id="path2"
             style="display:inline;fill:#ffe305;fill-opacity:1;stroke:#000000;stroke-width:4.4;stroke-dasharray:none;stroke-opacity:1;paint-order:markers stroke fill"
             d="m 342.03547,186.07588 c -19.80472,-0.2432 -38.14574,14.10862 -40.21125,39.38115 -2.15015,26.30819 13.84883,45.51783 35.11914,44.03711 20.42066,-1.42157 37.20573,-20.74337 37.02936,-44.33586 -0.18309,-24.49005 -11.37095,-38.82985 -31.93725,-39.0824 z m -2.11359,19.43974 c 7.10467,0.0493 10.299,9.78933 10.55078,22.11915 0.2956,14.47576 -4.80446,21.59074 -11.25,22.0957 -6.88391,0.5393 -10.86531,-9.36973 -10.67667,-22.16737 0.19491,-13.22264 4.55943,-21.53702 10.67667,-22.02208 0.23735,-0.0188 0.47003,-0.027 0.69922,-0.0254 z"
             inkscape:label="O"
             sodipodi:nodetypes="ssssscssssc" /><path
             style="fill:#ffe305;fill-opacity:1;stroke:#000000;stroke-width:4.4;stroke-dasharray:none;stroke-opacity:1;paint-order:markers stroke fill"
             d="m 379.81419,188.86824 16.72297,-1.875 0.96284,41.40203 c 0.0367,1.57955 1.54497,5.69079 7.8294,4.6495 5.03511,-0.83428 6.8443,-4.71328 6.81587,-6.37247 l -0.70946,-41.40203 12.66892,-0.86149 0.96284,38.56419 c 1.1547,14.92025 -8.97893,21.73621 -18.9527,23.56419 -21.59113,3.95719 -25.13925,-6.56238 -25.23649,-17.2804 z"
             id="path3"
             sodipodi:nodetypes="ccssscccscc"
             inkscape:label="U" /><path
             style="display:inline;fill:#ffe305;fill-opacity:1;stroke:#000000;stroke-width:4.4;stroke-dasharray:none;stroke-opacity:1;paint-order:markers stroke fill"
             d="m 433.58068,237.57355 10.75608,-2.21296 -0.75864,-27.88686 -0.34709,-4.48019 17.90531,28.30921 9.79114,-2.03379 -1.31967,-48.79495 -11.08728,0.73405 1.54082,27.4132 -16.64141,-26.75846 -11.23675,1.53108 z"
             id="path4"
             sodipodi:nodetypes="cccccccccccc"
             inkscape:label="N" /><path
             id="path5"
             style="display:inline;fill:#ffe305;fill-opacity:1;stroke:#000000;stroke-width:4.4;stroke-dasharray:none;stroke-opacity:1;paint-order:markers stroke fill"
             d="m 496.95117,179.7207 -19.4082,0.75977 1.44336,46.59765 20.24414,-4.20703 c 10.68275,-2.21944 15.41114,-16.21293 15.07617,-23.4375 -0.24031,-5.18328 -3.78871,-20.24423 -17.35547,-19.71289 z m -2.42578,10.52539 c 4.62357,0.10102 6.00293,4.65339 6.55664,9.00977 0.88019,6.9249 -1.31235,13.15153 -7.01953,15.40625 -0.95981,0.37919 -3.19336,0.75977 -3.19336,0.75977 l -0.55664,-24.27344 c 0,0 2.13126,-0.74861 3.24414,-0.86133 0.33779,-0.0342 0.66051,-0.0478 0.96875,-0.041 z"
             inkscape:label="D" /></g><g
           id="g16"
           inkscape:label="TO GO YOUR WAY"
           style="fill:#ffffff;fill-opacity:1;stroke:#000000;stroke-width:2.7;stroke-dasharray:none;stroke-opacity:1;paint-order:markers stroke fill"><g
             id="g9"
             inkscape:label="TO"
             style="fill:#ffffff;fill-opacity:1;stroke:#000000;stroke-width:2.7;stroke-dasharray:none;stroke-opacity:1;paint-order:markers stroke fill"><path
               style="fill:#ffffff;fill-opacity:1;stroke:#000000;stroke-width:2.7;stroke-dasharray:none;stroke-opacity:1;paint-order:markers stroke fill"
               d="m 314.90141,288.02657 -0.50167,5.3033 3.72665,-1.21833 -0.14334,16.69824 5.01664,-1.57666 0.78833,-17.41489 3.94164,-2.14999 0.14333,-5.66163 z"
               id="path6"
               inkscape:label="T" /><path
               id="path7"
               style="fill:#ffffff;fill-opacity:1;stroke:#000000;stroke-width:2.7;stroke-dasharray:none;stroke-opacity:1;paint-order:markers stroke fill"
               d="m 338.69531,278.06445 c -4.5913,0 -9.60351,6.73713 -9.60351,13.54493 0,6.80777 2.86182,9.24609 7.45312,9.24609 4.5913,10e-6 9.67383,-7.31134 9.67383,-14.11914 0,-6.80779 -2.93214,-8.67188 -7.52344,-8.67188 z m -0.50976,5.02149 c 2.04533,-0.008 2.21511,3.22459 2.08593,6.51758 -0.14428,3.67798 -1.32435,5.96928 -3.08203,6.3789 -2.17062,0.50584 -2.85979,-2.74105 -2.79492,-6.45117 0.0609,-3.48252 1.20523,-5.6265 2.79492,-6.23437 0.37336,-0.14277 0.70391,-0.20976 0.9961,-0.21094 z"
               inkscape:label="O" /></g><g
             id="g11"
             inkscape:label="YOUR"
             style="fill:#ffffff;fill-opacity:1;stroke:#000000;stroke-width:2.7;stroke-dasharray:none;stroke-opacity:1;paint-order:markers stroke fill"><path
               style="fill:#ffffff;fill-opacity:1;stroke:#000000;stroke-width:2.7;stroke-dasharray:none;stroke-opacity:1;paint-order:markers stroke fill"
               d="m 428.37792,250.33604 4.59632,-0.8317 0.59663,10.97981 c 0.0238,0.43768 0.44924,1.57302 2.18876,1.26135 1.39372,-0.24972 1.88151,-1.33233 1.86759,-1.7925 l -0.50842,-11.48238 3.8875,-0.71499 0.19214,11.12425 c 0.3745,4.1347 -2.41181,6.06225 -5.17192,6.60556 -5.97502,1.17614 -6.99748,-1.7291 -7.06338,-4.70193 z"
               id="path9"
               sodipodi:nodetypes="ccssscccscc"
               inkscape:label="U" /><path
               id="path7-0-0"
               style="fill:#ffffff;fill-opacity:1;stroke:#000000;stroke-width:2.7;stroke-dasharray:none;stroke-opacity:1;paint-order:markers stroke fill"
               d="m 419.78984,252.03348 c -3.79406,0 -7.93595,5.5673 -7.93595,11.19298 0,5.62567 2.36489,7.64059 6.15895,7.64059 3.79407,10e-6 7.99406,-6.0418 7.99406,-11.66748 0,-5.62568 -2.423,-7.16609 -6.21706,-7.16609 z m -0.42125,4.14956 c 1.69018,-0.007 1.83048,2.66467 1.72373,5.38586 -0.11923,3.03934 -1.09439,4.93277 -2.54687,5.27127 -1.79371,0.41801 -2.3632,-2.2651 -2.3096,-5.331 0.0504,-2.8778 0.99595,-4.6495 2.3096,-5.15182 0.30853,-0.11797 0.58168,-0.17334 0.82314,-0.17431 z"
               inkscape:label="O" /><path
               style="fill:#ffffff;fill-opacity:1;stroke:#000000;stroke-width:2.7;stroke-dasharray:none;stroke-opacity:1;paint-order:markers stroke fill"
               d="m 396.03041,259.02872 5.65034,-1.64696 3.31925,4.71284 2.30575,-6.38514 4.07938,-1.19088 -4.38344,12.06081 0.50676,7.24663 -4.96622,1.52026 -0.10135,-7.27196 z"
               id="path11"
               sodipodi:nodetypes="cccccccccc"
               inkscape:label="Y" /><path
               id="path12"
               style="display:inline;fill:#ffffff;fill-opacity:1;stroke:#000000;stroke-width:2.7;stroke-dasharray:none;stroke-opacity:1;paint-order:markers stroke fill"
               d="m 451.69727,245.07227 c -0.25699,0.003 -0.5199,0.0212 -0.78516,0.0469 -2.24764,0.21778 -6.86719,1.57031 -6.86719,1.57031 l 0.66016,15.6836 4.33203,-0.98828 -0.50586,-6.51172 1.13867,-0.35352 2.93946,5.87695 4.0039,-1.14062 -2.93945,-5.82617 h 0.002 l 0.002,0.002 h 0.002 0.002 l 0.002,0.002 c 0.21189,0.0184 2.57953,-2.26927 1.9668,-5.02148 -0.60785,-2.73029 -2.15423,-3.36235 -3.95312,-3.33984 z m -1.89258,3.20117 c 0.90932,0.0254 1.80403,0.41368 1.89258,1.20312 0.11925,1.06329 -0.85476,1.81976 -1.92579,1.92578 -0.49618,0.0491 -1.44336,0 -1.44336,0 l -0.30468,-2.60937 c 0,0 0.90205,-0.46551 1.39453,-0.50781 0.12821,-0.011 0.25681,-0.0154 0.38672,-0.0117 z"
               inkscape:label="R" /></g><g
             id="g10"
             inkscape:label="GO"
             style="fill:#ffffff;fill-opacity:1;stroke:#000000;stroke-width:2.7;stroke-dasharray:none;stroke-opacity:1;paint-order:markers stroke fill"><path
               id="path7-0"
               style="fill:#ffffff;fill-opacity:1;stroke:#000000;stroke-width:2.7;stroke-dasharray:none;stroke-opacity:1;paint-order:markers stroke fill"
               d="m 381.93186,262.93421 c -4.111,0 -8.59888,6.03237 -8.59888,12.128 0,6.09561 2.56244,8.27885 6.67345,8.27885 4.111,10e-6 8.66184,-6.5465 8.66184,-12.64213 0,-6.09563 -2.6254,-7.76472 -6.73641,-7.76472 z m -0.45643,4.4962 c 1.83137,-0.007 1.98338,2.88726 1.86772,5.83577 -0.12919,3.29323 -1.18581,5.34483 -2.75961,5.71161 -1.94356,0.45292 -2.56063,-2.45432 -2.50255,-5.77632 0.0546,-3.11821 1.07915,-5.03791 2.50255,-5.58219 0.33429,-0.12783 0.63026,-0.18782 0.89189,-0.18887 z"
               inkscape:label="O" /><path
               style="fill:#ffffff;fill-opacity:1;stroke:#000000;stroke-width:2.7;stroke-dasharray:none;stroke-opacity:1;paint-order:markers stroke fill"
               d="m 370.59122,275.39696 0.50675,10.59122 c 0,0 -0.80923,0.59198 -1.26688,0.78547 -0.44905,0.18985 -1.41893,0.35473 -1.41893,0.35473 l -0.32939,-1.57095 c 0.0479,-0.0239 -2.83835,3.82474 -5.16892,4.38345 -3.63037,0.8703 -6.4172,-1.98124 -7.14527,-5.04223 -1.48882,-6.2594 1.68736,-15.51726 7.52534,-16.79899 5.77459,-1.26781 7.08599,2.99926 7.19595,4.6875 l -4.76352,2.05237 c 0,0 -1.28176,-2.25253 -2.25506,-2.00169 -2.49883,0.644 -2.85569,4.73111 -2.58446,7.2973 0.17295,1.63643 0.94134,4.11648 2.58445,4.20608 1.33435,0.0728 2.45777,-3.16723 2.45777,-3.16723 l -2.4831,0.60811 -0.12669,-4.15541 z"
               id="path10"
               sodipodi:nodetypes="ccaccsssccaaacccc"
               inkscape:label="G" /></g><g
             id="g15"
             inkscape:label="WAY"
             style="fill:#ffffff;fill-opacity:1;stroke:#000000;stroke-width:2.7;stroke-dasharray:none;stroke-opacity:1;paint-order:markers stroke fill"><path
               style="fill:#ffffff;fill-opacity:1;stroke:#000000;stroke-width:2.7;stroke-dasharray:none;stroke-opacity:1;paint-order:markers stroke fill"
               d="m 463.25169,242.50844 4.51014,13.80913 2.91385,-0.58277 1.97635,-8.2348 2.47662,7.14792 3.35962,-0.89271 3.46805,-15.06305 -3.47659,0.69973 -1.73782,8.31797 -0.26234,0.0611 -2.53531,-7.49232 -3.24324,0.73479 -1.088,7.73674 -0.3473,0.10287 -2.28936,-7.30753 z"
               id="path13"
               sodipodi:nodetypes="cccccccccccccccc"
               inkscape:label="W" /><path
               id="path14"
               style="fill:#ffffff;fill-opacity:1;stroke:#000000;stroke-width:2.7;stroke-dasharray:none;stroke-opacity:1;paint-order:markers stroke fill"
               d="m 490.30469,237.10091 -4.83132,1.04207 -3.87616,14.792 3.69714,-0.7886 0.98797,-3.7682 3.50284,-0.9231 1.02935,3.30531 4.13122,-1.03974 z m -2.26758,4.51237 1.12109,3.10938 -2.4375,0.42968 0.92383,-3.46679 z"
               sodipodi:nodetypes="cccccccccccccc"
               inkscape:label="A" /><path
               style="fill:#ffffff;fill-opacity:1;stroke:#000000;stroke-width:2.7;stroke-dasharray:none;stroke-opacity:1;paint-order:markers stroke fill"
               d="m 492.88139,236.73287 4.15639,-0.85096 2.66514,4.20166 2.10083,-4.98254 3.51047,-0.70625 -3.7917,8.75739 0.33063,5.11518 -3.93838,0.82167 -0.37393,-5.5116 z"
               id="path15"
               sodipodi:nodetypes="cccccccccc"
               inkscape:label="Y" /></g></g></g></g><path
       style="font-size:53.3333px;font-family:'BadaBoom BB';-inkscape-font-specification:'BadaBoom BB';letter-spacing:1.14px;word-spacing:1px;fill:#ffe305;stroke:#000000;stroke-width:3.5;stroke-linejoin:round;stroke-dasharray:none;stroke-opacity:1;paint-order:markers stroke fill"
       d="m 171.10898,96.229121 q -2.23806,2.401779 -2.80284,9.327559 7.97103,-5.88394 12.29542,-1.51659 3.76975,3.7432 3.02566,12.03227 -0.70745,8.25212 -5.11351,12.02424 -5.1039,4.32699 -11.97582,-1.83596 l 5.82823,-7.79145 q 0.2967,0.58821 0.62932,0.91849 0.62829,0.62387 1.25217,-0.004 0.25689,-0.25871 0.47628,-0.70142 1.13452,-2.0296 0.86982,-3.98058 -0.0763,-0.73631 -0.48279,-1.13997 -1.66313,-1.65142 -5.22284,1.93354 -1.945,1.95879 -4.73093,5.65151 l -4.96128,-7.42185 q 1.12203,-5.5651 2.06133,-10.72444 -2.86063,3.39835 -5.50002,6.86958 l -6.58172,-7.41614 13.93928,-15.738293 q 2.25784,3.196121 6.99424,9.513914 z m 10.25546,-26.138822 q 4.31873,-3.439215 9.93997,-0.05918 2.91625,1.739055 5.28477,4.71327 2.27117,2.851983 4.07611,6.874236 3.03488,6.904451 3.15586,14.664628 0.14972,9.468377 -4.90237,13.491617 -4.35947,3.47167 -10.02145,0.12407 -2.77818,-1.64927 -5.11425,-4.58274 -2.30363,-2.89273 -4.10025,-6.98817 -3.06734,-6.94519 -3.22906,-14.672922 -0.18215,-9.509126 4.91067,-13.564807 z m 6.57974,11.272211 q -2.24084,1.784501 -1.64309,7.300733 0.42946,4.385217 1.90239,7.739742 0.80136,1.758735 1.74227,2.940275 1.33025,1.67045 2.98869,2.08085 1.87801,0.43529 3.54845,-0.89497 2.2816,-1.81695 2.20073,-5.680814 -0.0582,-3.082935 -1.48283,-6.209593 -1.65929,-3.672157 -4.47598,-6.289477 -2.82499,-2.544125 -4.78063,-0.986746 z m 24.33341,-29.933534 4.94968,8.333427 q -2.96083,2.137504 -5.55833,4.166614 4.86619,14.00989 10.35883,24.839147 l -6.18578,6.668166 -10.87175,-25.932909 q -1.07318,0.932331 -2.11832,1.908562 l -2.04639,1.924436 -5.76787,-7.872833 z m 5.34245,-0.157952 7.83569,-5.849868 q 2.1837,10.048586 4.44766,18.070181 l 3.45312,-2.747273 -4.68487,-15.087185 7.8357,-5.849866 q 4.72568,21.492453 10.17191,35.433436 l -6.94897,6.100434 -4.28015,-13.715488 q -1.15864,0.9391 -3.52239,2.840888 2.01915,6.159729 3.6999,10.38831 l -6.94895,6.100435 z m 59.38594,-14.043345 q -1.39939,1.100029 -3.3157,2.637389 l -3.26607,2.621627 q -0.74073,-2.333152 -2.03141,-1.923384 -1.83674,0.583132 -3.01154,3.251209 -0.80212,1.948655 -0.1465,3.325219 0.44838,0.895908 2.18583,0.344266 0.9432,-0.299445 2.38752,-1.085864 1.99273,-1.124468 3.63092,-1.644559 4.16989,-1.323865 5.77896,1.334699 0.48226,0.830507 0.79746,1.823337 1.00865,3.177058 -0.20787,7.607029 -1.54903,5.792369 -6.0687,10.833866 -2.37724,2.667312 -5.2068,3.565651 -2.58136,0.819536 -5.52049,0.167947 0.29545,-3.372498 1.18174,-10.047378 1.93527,0.587784 3.72236,0.02041 0.79426,-0.252165 1.55937,-0.768298 1.41281,-0.885701 2.56636,-2.071615 1.63894,-1.722526 1.27644,-2.864282 -0.394,-1.241038 -2.4293,-0.594865 -1.38996,0.441289 -3.88149,1.888043 -2.45764,1.381354 -3.8476,1.822644 -1.83673,0.583131 -3.05021,0.203357 -2.34578,-0.676028 -2.86512,-3.516636 -1.10405,-5.715096 3.04835,-15.011601 4.23828,-9.542353 8.89354,-11.402834 4.5221,-1.76356 6.82311,5.484106 0.55161,1.737454 0.99686,4.000484 z m 24.67874,-17.017781 1.70318,9.541719 q -3.52337,0.959837 -6.66849,1.945973 -0.37105,14.826302 0.96277,26.895379 l -8.13552,4.06713 -1.05834,-28.099658 q -1.33249,0.495417 -2.65415,1.041786 l -2.59242,1.081936 -2.6311,-9.398261 z m 4.60001,1.757479 q 7.84344,-3.367076 13.0176,-3.962758 6.9851,-0.804173 7.4933,4.065488 0.75244,6.991065 -7.18175,15.034618 0.95074,1.882783 7.4257,11.675235 -2.40464,2.793348 -7.28351,8.230778 l -7.18044,-13.643282 -0.0516,0.006 v 0 q -0.46145,6.921103 -0.42114,12.735897 l -7.91307,3.217805 q -0.0276,-1.150227 0.34606,-7.012672 z m 7.46061,7.424601 q -0.2631,1.812833 -0.4228,3.613734 l -0.31929,3.601822 q 1.70372,-1.139837 3.29019,-2.842874 1.81539,-1.991529 2.30338,-3.672952 0.2051,-0.495459 0.15742,-0.909393 -0.13105,-1.138314 -1.63155,-0.965566 -1.19006,0.137006 -3.37733,1.175231 z m 25.54697,-2.074999 q -0.38654,1.518406 -0.66997,2.982667 l -0.51584,2.875408 8.29644,-1.936286 -0.32564,7.1954 q -5.9156,1.159595 -9.2848,2.008047 -0.18757,1.045604 -0.32303,2.090179 l -0.32414,2.038093 9.65759,-1.598719 -0.4842,9.699049 q -7.48608,0.7741 -18.93514,3.971276 l 5.45368,-37.459651 17.29057,-2.844583 -0.48524,9.646974 q -5.09383,0.570213 -9.35034,1.332136 z m 22.9581,0.708205 q -0.52178,1.477403 -0.93598,2.910174 l -0.77279,2.817243 8.43717,-1.180891 -0.97264,7.13679 q -5.99602,0.621878 -9.42796,1.16331 -0.28102,1.024453 -0.51007,2.052565 l -0.50642,2.000611 9.76237,-0.722057 -1.35613,9.615971 q -7.52537,0.09645 -19.21594,2.249047 l 8.80666,-36.815906 17.47653,-1.275114 -1.35247,9.564015 q -5.12449,0.108933 -9.43233,0.484242 z m 36.61085,-5.073695 -1.85273,9.51381 q -3.63242,-0.375491 -6.92153,-0.590033 -5.69329,13.694647 -8.80202,25.432514 l -9.05483,0.859273 9.14722,-26.590209 q -1.42147,-0.01849 -2.85125,0.01443 l -2.80814,0.07415 0.93552,-9.714669 z"
       id="text1"
       aria-label="30TH STREET"
       inkscape:label="30th st" /><path
       id="text2"
       style="font-size:53.3333px;font-family:'BadaBoom BB';-inkscape-font-specification:'BadaBoom BB';letter-spacing:3.8px;word-spacing:1px;fill:#ffe305;stroke:#000000;stroke-width:3.5;stroke-linejoin:round;stroke-dasharray:none;stroke-opacity:1;paint-order:markers stroke fill"
       inkscape:label="In a single"
       d="M 227.82243 398.39757 L 202.9904 426.33311 L 211.23845 428.74522 C 217.55704 420.65076 225.91665 411.63363 236.31657 401.6964 L 227.82243 398.39757 z M 416.5822 401.68663 L 401.91814 411.27647 L 412.07243 447.74522 C 418.19208 442.71021 423.42917 438.94759 427.78532 436.45811 L 424.30876 427.39171 L 416.12126 432.75694 L 415.59392 430.7628 C 415.39505 430.08934 415.21253 429.40794 415.04509 428.71983 C 416.87087 427.29448 419.43014 425.4313 422.72478 423.12999 L 420.11345 416.4171 L 413.30876 421.5421 L 412.61736 418.70226 C 412.39558 417.73302 412.19906 416.73425 412.02556 415.70421 C 414.41571 414.0925 417.08685 412.4266 420.03923 410.70616 L 416.5822 401.68663 z M 237.49822 404.37218 L 214.01384 436.46202 L 222.59197 437.90538 C 224.66993 434.63271 226.94265 431.32036 229.40837 427.96788 C 229.31712 428.31001 229.19687 429.14126 229.049 430.46202 L 228.07048 438.57335 C 227.93752 439.78528 227.87082 440.42924 227.87126 440.50694 L 236.26579 442.09093 C 241.7763 433.42612 249.22952 423.64666 258.62517 412.75499 L 249.85368 410.29015 L 237.69548 426.94249 C 237.93678 425.6678 238.43167 424.07351 239.18181 422.15929 C 240.48293 418.81335 242.17771 415.02172 244.26579 410.78624 C 245.14094 409.01108 245.8467 407.65652 246.38493 406.72179 L 237.49822 404.37218 z M 394.09001 413.16515 L 386.19157 417.70811 L 392.3615 454.5714 C 398.55122 450.29733 403.80453 447.1811 408.12126 445.22179 L 405.6447 435.82335 L 397.46501 440.19054 C 396.04769 432.07632 394.92157 423.06794 394.09001 413.16515 z M 376.64665 418.21788 C 376.01042 418.21652 375.35286 418.29405 374.674 418.4503 C 370.51202 419.40837 367.12916 422.66352 364.52361 428.21593 C 362.36623 432.7744 361.22869 437.50683 361.1115 442.41515 C 361.02385 445.28575 361.24177 447.85513 361.76384 450.12218 C 362.31688 452.52463 363.20371 454.60112 364.42595 456.35069 C 366.80272 459.86528 369.78448 461.20942 373.37126 460.3839 C 378.78523 459.13763 382.77138 455.0129 385.32829 448.01085 C 386.19885 445.60137 386.80165 443.03956 387.13884 440.3253 C 387.49967 437.24929 387.39445 434.62046 386.82048 432.43663 L 374.02361 438.37413 L 374.12907 446.26085 C 376.13618 445.22874 378.33374 444.17097 380.72087 443.08702 C 380.44916 445.00233 379.90407 446.65995 379.08611 448.05968 C 378.06755 449.82623 376.76238 450.8928 375.17204 451.2589 C 373.78471 451.57827 372.59223 451.35338 371.59587 450.58507 C 370.69033 449.90278 370.07906 448.86699 369.75993 447.4796 C 369.54965 446.566 369.46437 445.499 369.50407 444.27843 C 369.57862 441.19706 370.10084 438.27944 371.07048 435.52647 C 372.36859 431.87866 374.16804 429.79075 376.46892 429.26085 C 377.65322 428.98824 378.6554 429.23941 379.47478 430.0128 L 383.71697 422.67491 C 381.76051 419.70929 379.40366 418.22379 376.64665 418.21788 z M 272.47673 418.54015 C 266.17236 429.32186 258.80488 440.29277 250.37517 451.45226 L 261.35759 452.79991 L 263.64861 448.68272 L 267.19157 448.97179 L 264.68181 455.03038 L 276.00212 455.55382 C 279.71558 441.66567 283.86094 429.89975 288.43962 420.25694 L 272.47673 418.54015 z M 361.45134 422.84483 L 352.70134 425.39171 L 351.18962 445.95421 C 350.72031 444.74474 350.29769 443.12985 349.92204 441.10851 C 349.25689 437.58066 348.69049 433.46572 348.22282 428.76671 C 348.02683 426.79728 347.91072 425.27437 347.87322 424.1964 L 339.08806 426.90343 L 336.12517 466.55772 L 344.17009 463.24522 C 344.203 459.36873 344.37958 455.35545 344.69939 451.20616 C 344.80288 451.54479 345.1401 452.31365 345.71306 453.5128 L 349.17204 460.91515 C 349.7001 462.01408 349.98406 462.59554 350.02556 462.66124 L 357.98845 459.56749 C 358.08311 449.2993 359.23693 437.05761 361.45134 422.84483 z M 277.44939 424.15343 L 277.49822 424.1671 L 269.87712 442.47765 L 267.29314 442.23936 L 277.44939 424.15343 z M 317.3029 424.59093 C 313.96127 424.52977 309.7545 426.88287 304.68181 431.64952 C 299.72551 436.28735 296.84715 440.50474 296.04704 444.30186 C 295.63128 446.18156 296.05796 447.63318 297.32439 448.65538 C 297.97173 449.20265 298.93367 449.5346 300.21306 449.65147 C 301.18126 449.73995 302.5996 449.67698 304.46697 449.46397 C 306.3721 449.21966 307.80931 449.1412 308.77751 449.2296 C 310.19522 449.3591 310.86432 449.85732 310.78532 450.72179 C 310.71267 451.51708 309.95083 452.23194 308.49822 452.86632 C 307.48264 453.29658 306.42548 453.59974 305.32829 453.77843 C 304.72465 453.8976 304.14717 453.93244 303.59392 453.88194 C 302.34911 453.76823 301.20712 453.28084 300.17009 452.41905 C 297.89875 456.29097 296.23579 459.2241 295.18181 461.21983 C 296.81913 462.38054 298.53804 463.04388 300.33611 463.20811 C 302.30708 463.38816 304.36708 462.96638 306.51775 461.94249 C 310.59898 460.01408 313.86441 457.46989 316.31462 454.31163 C 318.2081 451.90444 319.257 449.59495 319.45915 447.38194 C 319.52265 446.69035 319.51361 446.02672 319.43181 445.39171 C 319.13091 443.34195 317.52778 442.18436 314.62322 441.91905 C 313.48217 441.81517 312.15417 441.85142 310.63884 442.02647 C 309.54797 442.13597 308.67279 442.16069 308.01579 442.10069 C 306.80557 441.99014 306.17863 441.60115 306.13493 440.93468 C 306.08822 439.91929 306.56378 438.91667 307.56072 437.92686 C 308.97277 436.59145 310.31843 435.98187 311.59782 436.09874 C 312.49685 436.18085 312.87322 437.03412 312.72478 438.65929 L 316.75212 437.51085 C 318.32724 437.06199 319.68585 436.68017 320.83025 436.36632 C 321.14211 434.86069 321.35446 433.50428 321.46501 432.29405 C 321.92615 427.24562 320.53763 424.67723 317.3029 424.59093 z M 336.66814 425.25694 L 327.71501 426.94835 L 321.41423 463.79015 L 329.68767 461.47569 C 330.76976 451.26424 333.09662 439.19076 336.66814 425.25694 z " /><path
       id="text2-1"
       style="font-size:53.3333px;font-family:'BadaBoom BB';-inkscape-font-specification:'BadaBoom BB';letter-spacing:3.8px;word-spacing:1px;fill:#ffffff;stroke:#000000;stroke-width:3.5;stroke-linejoin:round;stroke-dasharray:none;stroke-opacity:1;paint-order:markers stroke fill;fill-opacity:1"
       inkscape:label="bound!"
       d="m 506.922,291.55173 -5.58203,9.52149 22.15625,16.58984 2.87305,-6.65234 c -3.83985,-2.9884 -7.29808,-6.05275 -10.37305,-9.19532 -2.2425,-2.30475 -5.26749,-5.72708 -9.07422,-10.26367 z m -2.24609,22.05274 c -1.14354,0.0178 -2.29569,0.20925 -3.45508,0.57422 -2.19066,0.72628 -3.98658,2.48649 -5.38867,5.27929 -1.2463,2.48249 -2.17475,5.80428 -2.78711,9.96485 0.41886,0.24913 2.09402,1.43818 5.02539,3.57031 l 19.54101,14.47461 c 3.08641,2.28767 4.95591,3.63231 5.60743,4.03711 2.0593,-5.88186 2.18507,-12.09248 0.3789,-18.63282 -1.8372,-6.55591 -5.18124,-11.80964 -10.03515,-15.76171 -1.07005,-0.88681 -2.14829,-1.60319 -3.23438,-2.14844 -1.86187,-0.93472 -3.74644,-1.38707 -5.65234,-1.35742 z m 28.29883,0.8457 c -0.64534,0.0326 -1.25426,0.31084 -1.82618,0.83594 -0.82076,0.69031 -1.36776,1.63468 -1.63867,2.83203 -0.37462,1.56659 -0.29326,3.15896 0.24219,4.77539 0.68361,2.0074 1.77133,3.29598 3.26367,3.86523 1.10303,0.42076 2.10512,0.22567 3.00781,-0.58203 0.74351,-0.68262 1.25772,-1.6374 1.54102,-2.86719 0.36222,-1.53414 0.29207,-3.10491 -0.21094,-4.70898 -0.62642,-2.05991 -1.6854,-3.3741 -3.17773,-3.94336 -0.41363,-0.15777 -0.81397,-0.22657 -1.20117,-0.20703 z m -25.20313,9.03516 c 0.69909,-0.009 1.46089,0.19361 2.28516,0.60742 2.04806,1.0282 4.04675,3.15757 5.99804,6.39062 1.59515,2.62688 2.81049,5.31655 3.64454,8.06641 -5.05657,-3.47103 -10.26733,-7.44687 -15.63282,-11.92774 0.93215,-2.06956 2.16708,-3.11587 3.70508,-3.13671 z m -15.6289,5.2207 -3.56055,8.38672 14.97461,14.17383 c -1.23376,-0.40113 -2.75116,-1.09501 -4.55469,-2.08204 -3.15381,-1.71516 -6.69861,-3.87747 -10.63477,-6.48632 -1.64973,-1.09337 -2.90482,-1.96661 -3.76367,-2.61914 l -3.45898,8.51757 28.84961,27.36914 2.51953,-8.32812 c -2.98247,-2.47651 -5.97978,-5.15021 -8.99219,-8.02148 0.32779,0.13393 1.13838,0.35758 2.42969,0.67187 l 7.92187,2.00195 c 1.18525,0.28565 1.81548,0.43241 1.89258,0.44141 l 2.63672,-8.125 c -7.89536,-6.56567 -16.64863,-15.19838 -26.25976,-25.90039 z m -12.75196,19.90039 -4.51172,7.85742 13.40625,16.22461 -1.625,5.11719 c -4.7518,-5.55821 -9.81035,-12.19981 -15.17773,-19.92578 l -4.51172,7.85742 23.82813,28.80859 c 1.87512,-6.15862 3.2705,-10.76546 4.18554,-13.81836 l 3.72266,4.54493 3.66406,-7.82813 c -6.83119,-7.24023 -14.49154,-16.8527 -22.98047,-28.83789 z m -17.72461,20.08984 c -1.9,-0.0197 -3.61443,0.66963 -5.14258,2.06641 -3.20364,2.92825 -4.52847,7.55068 -3.97656,13.86719 0.45763,5.13259 1.86397,9.93945 4.21875,14.41992 1.38051,2.6426 2.90123,4.87369 4.56446,6.69336 1.68668,1.84531 3.49151,3.25349 5.41406,4.22461 3.91757,1.97009 7.2479,1.7019 9.99023,-0.80469 3.17802,-2.90481 4.5031,-7.50403 3.97461,-13.79492 -0.432,-5.15601 -1.81513,-9.96117 -4.14648,-14.41602 -1.38271,-2.59354 -2.89338,-4.78603 -4.53321,-6.58008 -1.71009,-1.87093 -3.57333,-3.31916 -5.59179,-4.34375 -1.70273,-0.87216 -3.29371,-1.31673 -4.77149,-1.33203 z m 4.02149,12.16211 c 0.88001,0.0292 1.88215,0.48343 3.0039,1.36328 1.99201,1.61325 3.62259,3.60343 4.89258,5.97071 1.08922,2.01508 1.72205,4.04582 1.90039,6.09375 0.22883,2.56629 -0.37334,4.50651 -1.80859,5.81836 -1.0508,0.96046 -2.21165,1.33726 -3.48047,1.13281 -1.12165,-0.19784 -2.16258,-0.82225 -3.12305,-1.87305 -0.67935,-0.74324 -1.32482,-1.68095 -1.9375,-2.81445 -1.13163,-2.16445 -1.93954,-4.6965 -2.42383,-7.59375 -0.64747,-3.64192 -0.26703,-6.10611 1.14258,-7.39453 0.53822,-0.49194 1.14954,-0.7258 1.83399,-0.70313 z m -20.47852,3.82813 c -1.39957,-0.0111 -3.03577,0.64359 -4.9082,1.96484 -0.48229,0.34033 -0.96834,0.70505 -1.45899,1.09375 -1.20494,1.06274 -2.70615,2.60853 -4.50195,4.64063 -2.05615,2.38582 -3.48716,3.97143 -4.29492,4.7539 0.97922,1.68881 2.24977,4.0625 3.81445,7.12305 5.59317,10.75701 9.88927,19.43462 12.88672,26.03125 0.58743,-0.372 1.16503,-0.75782 1.73242,-1.1582 3.57467,-2.52241 6.19632,-5.52031 7.86719,-8.99414 1.39714,-2.89821 2.28678,-5.73488 2.66602,-8.50977 0.50119,-3.62587 -5.3e-4,-6.50309 -1.50196,-8.63086 -0.30027,-0.42555 -0.63265,-0.8074 -0.99804,-1.14453 -1.75515,-1.52376 -4.02269,-1.15508 -6.80469,1.10547 1.99018,-7.05635 1.65276,-12.47089 -1.00977,-16.24414 -0.9267,-1.34343 -2.08871,-2.02017 -3.48828,-2.03125 z m -0.82812,11.40429 c 0.26949,-0.01 0.48804,0.10651 0.6582,0.34766 0.16028,0.22693 0.27248,0.59455 0.33398,1.10352 0.30165,2.29443 -0.13451,4.81077 -1.30468,7.54882 l -1.38477,-3.22851 c -0.46204,-1.07635 -0.9101,-2.16338 -1.34375,-3.25977 0.82114,-1.00439 1.51463,-1.70705 2.08203,-2.10742 0.36882,-0.26025 0.6895,-0.39475 0.95899,-0.4043 z m 7.39648,11.67774 c 0.28859,0.005 0.5221,0.13066 0.69727,0.37891 1.10103,1.56037 0.0808,4.36366 -3.0586,8.40625 -1.04583,-2.0241 -1.83538,-3.65634 -2.36914,-4.89454 1.34516,-1.5866 2.45843,-2.68996 3.33789,-3.31054 0.55853,-0.39425 1.02154,-0.58713 1.39258,-0.58008 z" /></g></svg>
