<?xml version="1.0" encoding="UTF-8" standalone="no"?>
<!-- Created with Inkscape (http://www.inkscape.org/) -->

<svg
   width="163.73083mm"
   height="49.017036mm"
   viewBox="0 0 163.73083 49.017037"
   version="1.1"
   id="svg1"
   xml:space="preserve"
   inkscape:version="1.4.1 (93de688d07, 2025-03-30)"
   sodipodi:docname="vrooom.svg"
   inkscape:export-filename="vrooom.png"
   inkscape:export-xdpi="1255.954"
   inkscape:export-ydpi="1255.954"
   xmlns:inkscape="http://www.inkscape.org/namespaces/inkscape"
   xmlns:sodipodi="http://sodipodi.sourceforge.net/DTD/sodipodi-0.dtd"
   xmlns:xlink="http://www.w3.org/1999/xlink"
   xmlns="http://www.w3.org/2000/svg"
   xmlns:svg="http://www.w3.org/2000/svg"><sodipodi:namedview
     id="namedview1"
     pagecolor="#ffffff"
     bordercolor="#000000"
     borderopacity="0.25"
     inkscape:showpageshadow="2"
     inkscape:pageopacity="0.0"
     inkscape:pagecheckerboard="0"
     inkscape:deskcolor="#d1d1d1"
     inkscape:document-units="mm"
     inkscape:zoom="2.1095398"
     inkscape:cx="309.07215"
     inkscape:cy="79.638223"
     inkscape:window-width="3440"
     inkscape:window-height="1395"
     inkscape:window-x="0"
     inkscape:window-y="22"
     inkscape:window-maximized="1"
     inkscape:current-layer="g79" /><defs
     id="defs1"><linearGradient
       id="linearGradient1"
       inkscape:collect="always"><stop
         style="stop-color:#fcf903;stop-opacity:1;"
         offset="0.42405847"
         id="stop1" /><stop
         style="stop-color:#fc3001;stop-opacity:1;"
         offset="0.60593379"
         id="stop2" /></linearGradient><mask
       maskUnits="userSpaceOnUse"
       id="mask1"><rect
         style="fill:#ffffff;fill-opacity:1;stroke-width:0.926042;stroke-linejoin:round;paint-order:markers stroke fill"
         id="rect2"
         width="62.460297"
         height="25.586147"
         x="66.724663"
         y="142.22888" /></mask><linearGradient
       inkscape:collect="always"
       xlink:href="#linearGradient1"
       id="linearGradient21"
       x1="102.71801"
       y1="29.414244"
       x2="114.08572"
       y2="191.98009"
       gradientUnits="userSpaceOnUse" /><filter
       style="color-interpolation-filters:sRGB"
       inkscape:label="Drop Shadow"
       id="filter77"
       x="-0.0078551298"
       y="-0.02871867"
       width="1.0289046"
       height="1.1261653"><feFlood
         result="flood"
         in="SourceGraphic"
         flood-opacity="1.000000"
         flood-color="rgb(0,0,0)"
         id="feFlood76" /><feGaussianBlur
         result="blur"
         in="SourceGraphic"
         stdDeviation="0.000000"
         id="feGaussianBlur76" /><feOffset
         result="offset"
         in="blur"
         dx="2.100000"
         dy="3.000000"
         id="feOffset76" /><feComposite
         result="comp1"
         operator="in"
         in="flood"
         in2="offset"
         id="feComposite76" /><feComposite
         result="comp2"
         operator="over"
         in="SourceGraphic"
         in2="comp1"
         id="feComposite77" /></filter></defs><g
     inkscape:label="Layer 1"
     inkscape:groupmode="layer"
     id="layer1"
     transform="translate(-27.586557,-87.690912)"><g
       id="g79"
       inkscape:label="infill"><path
         style="fill:#000000;fill-opacity:1;stroke:none;stroke-width:2.5;stroke-linejoin:round;stroke-dasharray:none;stroke-opacity:1;paint-order:markers stroke fill"
         d="m 90.569375,108.66837 -2.394547,6.20809 0.443433,2.83798 1.951114,-0.88687 1.15293,-2.48324 0.08869,-3.81354 z"
         id="path79" /><path
         style="fill:#000000;fill-opacity:1;stroke:none;stroke-width:2.5;stroke-linejoin:round;stroke-dasharray:none;stroke-opacity:1;paint-order:markers stroke fill"
         d="m 109.964,110.46569 -1.05041,3.19826 1.17583,0.45466 0.81525,-3.30801 -0.83092,-0.32924 z"
         id="path80" /><path
         style="fill:#000000;fill-opacity:1;stroke:none;stroke-width:2.5;stroke-linejoin:round;stroke-dasharray:none;stroke-opacity:1;paint-order:markers stroke fill"
         d="m 77.910764,114.9025 -2.155695,2.24192 2.97094,2.76713 0.180295,-0.76821 z"
         id="path81" /><path
         style="fill:#000000;fill-opacity:1;stroke:none;stroke-width:2.5;stroke-linejoin:round;stroke-dasharray:none;stroke-opacity:1;paint-order:markers stroke fill"
         d="m 77.973476,108.18457 -4.609269,6.27895 1.442357,0.21949 3.394239,0.0314 0.431141,-6.66305 z"
         id="path82" /><path
         style="fill:#000000;fill-opacity:1;stroke:none;stroke-width:2.5;stroke-linejoin:round;stroke-dasharray:none;stroke-opacity:1;paint-order:markers stroke fill"
         d="m 178.44152,105.63084 0.23281,2.15066 1.86242,-0.28823 -0.0831,-1.64626 z"
         id="path83" /></g><path
       id="text2"
       style="font-size:38.5341px;font-family:'Ka Blam';-inkscape-font-specification:'Ka Blam';letter-spacing:2.94746px;word-spacing:0.401396px;fill:url(#linearGradient21);stroke:#000000;stroke-width:2.5;stroke-linejoin:round;stroke-dasharray:none;stroke-opacity:1;paint-order:markers stroke fill;filter:url(#filter77)"
       d="m 57.227987,97.066957 c -1.693393,10.135273 -8.088516,25.812933 -9.518493,34.794193 -4.300033,0.66908 -6.675937,0.97429 -9.788322,-0.10425 -2.341932,-7.9693 -8.740243,-30.53407 -9.084619,-41.442973 3.024783,-0.247887 7.786556,-0.01515 9.584909,0.476498 0.852968,6.459978 3.041632,21.482655 4.082755,27.064585 0.552802,-5.02275 4.404074,-17.48914 5.61179,-24.362182 2.287895,0.79676 6.522495,2.505478 9.11198,3.574129 z m 12.983587,-0.977052 c -2.926381,-0.07026 -6.805822,1.158638 -11.70133,3.81188 0.492552,9.748975 1.126271,21.015935 1.3684,27.592545 2.186016,0.69207 4.695555,1.05978 6.901254,1.25958 0.145668,-2.36191 0.474146,-8.75542 0.546981,-10.02483 l 2.31401,2.9858 c 0.946846,1.20698 2.440072,3.57616 4.479434,6.35427 1.393412,-1.74929 3.167415,-4.62701 4.66389,-6.75146 -1.789644,-1.7064 -4.854342,-4.69154 -6.623176,-7.07427 5.140024,-4.90071 6.37974,-7.86853 5.349655,-12.47791 -0.957252,-2.793706 -4.372738,-5.605371 -7.299118,-5.675605 z m -1.724156,8.179445 c 0.733425,-0.0161 1.155899,0.27763 1.267101,0.88046 0.499436,2.98621 -0.508601,4.90419 -3.526025,6.44411 0.09364,-2.74689 -0.07923,-4.75878 -0.0168,-6.72531 0.946847,-0.38693 1.705283,-0.58674 2.275723,-0.59926 z m 21.823821,-7.480037 c -2.51441,9e-4 -4.778707,1.147136 -6.792209,3.437007 -2.289866,2.6057 -3.705543,5.83744 -4.24699,9.69526 -0.541446,3.84652 -0.208775,7.25868 0.998199,10.23664 1.218253,2.97795 3.282924,4.64723 6.193197,5.00819 2.887713,0.36096 5.605896,-0.75022 8.155206,-3.33337 2.560589,-2.59444 4.015803,-5.82027 4.365493,-9.67807 0.48504,-4.18493 0.051,-7.69299 -1.302583,-10.5243 -1.342338,-2.842586 -3.435186,-4.433241 -6.277777,-4.771645 -0.369425,-0.0465 -0.733334,-0.06988 -1.092536,-0.0697 z m 0.01027,8.334587 c 1.381319,-0.0393 2.153596,1.684 2.317511,5.16991 0.0564,2.45906 -0.28172,4.41056 -1.014928,5.85441 -0.82345,1.52283 -1.974174,2.32904 -3.451869,2.4193 -1.782261,-0.11281 -2.447602,-2.47606 -1.996398,-7.08963 0.564007,-3.86909 1.900605,-5.98374 4.009988,-6.34468 0.04582,-0.004 0.09114,-0.008 0.135696,-0.009 z m 19.344521,-6.600229 c -2.03501,7.32e-4 -3.86721,0.928418 -5.49682,2.781679 -1.85327,2.1089 -2.99903,4.72448 -3.43724,7.84675 -0.43822,3.11312 -0.16899,5.87472 0.80788,8.28488 0.98598,2.41019 2.65661,3.76119 5.01199,4.05331 2.33714,0.29215 4.53745,-0.60716 6.60071,-2.6978 2.07237,-2.09977 3.25012,-4.71056 3.53314,-7.83283 0.39257,-3.387 0.0409,-6.2262 -1.05461,-8.51769 -1.08639,-2.30062 -2.77983,-3.587994 -5.08046,-3.861877 -0.29899,-0.0376 -0.59388,-0.05657 -0.88459,-0.05645 z m 0.008,6.745479 c 1.11796,-0.0318 1.74336,1.36292 1.87603,4.18421 0.0456,1.99022 -0.22839,3.56963 -0.8218,4.7382 -0.66645,1.23248 -1.59739,1.88498 -2.79335,1.95801 -1.44245,-0.0913 -1.9813,-2.00396 -1.61614,-5.73789 0.45648,-3.1314 1.53823,-4.84285 3.24543,-5.13499 0.0371,-0.003 0.0738,-0.006 0.10983,-0.007 z m 17.28129,-9.526276 c -1.87741,6.72e-4 -3.56805,0.856517 -5.07146,2.566261 -1.70974,1.945555 -2.76676,4.358565 -3.17103,7.239015 -0.40428,2.87205 -0.15555,5.41976 0.74564,7.64327 0.90964,2.22351 2.45089,3.46989 4.62386,3.7394 2.15613,0.26951 4.18567,-0.56016 6.08913,-2.48889 1.91188,-1.93714 2.99843,-4.34575 3.25953,-7.22619 0.36217,-3.1247 0.0381,-5.74401 -0.97258,-7.858033 -1.00227,-2.122436 -2.56491,-3.31011 -4.68735,-3.562783 -0.27582,-0.03472 -0.54754,-0.05218 -0.81574,-0.05204 z m 0.008,6.223066 c 1.03137,-0.0293 1.60799,1.25736 1.73038,3.86015 0.042,1.83608 -0.21035,3.29318 -0.7578,4.37124 -0.61482,1.13703 -1.47403,1.73899 -2.57736,1.80637 -1.33074,-0.0841 -1.82752,-1.84875 -1.49063,-5.29351 0.42113,-2.88887 1.41912,-4.46779 2.99409,-4.73732 0.0342,-0.003 0.068,-0.005 0.10138,-0.006 z m 17.32973,-10.834787 c -1.91912,6.84e-4 -3.64699,0.875552 -5.18381,2.623299 -1.74775,1.98881 -2.82826,4.45544 -3.24153,7.399928 -0.41325,2.93587 -0.15934,5.5402 0.76188,7.81314 0.92984,2.27292 2.50535,3.54702 4.72661,3.82252 2.20407,0.2755 4.27907,-0.57261 6.22485,-2.54421 1.95437,-1.9802 3.06506,-4.44232 3.33197,-7.38681 0.3702,-3.19415 0.0387,-5.871678 -0.99455,-8.032683 -1.02455,-2.169616 -2.62156,-3.383691 -4.79118,-3.641978 -0.28196,-0.03549 -0.56007,-0.05332 -0.83424,-0.0532 z m 0.008,6.361392 c 1.05428,-0.03 1.64408,1.285316 1.7692,3.945935 0.043,1.8769 -0.21538,3.36639 -0.77502,4.46841 -0.62849,1.16229 -1.50642,1.77765 -2.63429,1.84652 -1.36032,-0.086 -1.86849,-1.88984 -1.5241,-5.41118 0.43047,-2.953073 1.45063,-4.567086 3.06062,-4.842588 0.035,-0.0035 0.0695,-0.0062 0.10357,-0.0071 z m 14.18235,11.386905 c -2.34141,-0.0352 -3.1772,-0.13579 -4.68781,-0.47489 0.55907,-4.63947 1.20048,-9.84302 2.15339,-18.198696 2.07519,0.09768 4.33109,-0.04331 6.16843,-0.06806 0.6948,2.071092 2.38155,6.563398 2.8243,7.440823 0.20422,-0.30915 2.38776,-4.795708 3.33239,-6.985526 1.32917,-0.06223 3.69825,-0.05352 5.63044,-0.0094 0.85347,6.452227 1.51155,11.119339 2.14224,17.674239 -1.66,0.4167 -1.88019,0.46114 -4.13013,0.9678 -0.79745,-3.7912 -1.60103,-7.71566 -2.34097,-11.246635 -0.91958,1.867993 -3.37962,6.786695 -4.35001,8.495605 -1.1801,-2.17194 -4.13726,-7.865101 -4.80142,-9.137943 -0.48948,3.125853 -1.2202,7.415053 -1.94085,11.542673 z m 28.98329,-19.93854 c -2.00037,0.03318 -6.06647,0.271091 -8.59229,0.369426 0.41005,4.070479 0.45241,7.877303 0.56567,15.464824 2.39066,0.40335 5.41794,0.45787 7.16991,0.60308 0.2539,-5.31254 0.40373,-10.038908 0.85671,-16.43733 z m -3.2304,19.21812 c -0.30483,-0.0557 -0.62302,-0.0974 -0.95383,-0.12608 -1.3945,-0.12965 -2.51892,-0.002 -3.37354,0.38344 -0.85234,0.37661 -1.28926,0.83982 -1.31027,1.38963 -0.0322,0.59217 0.39989,1.18279 1.29608,1.77174 0.89619,0.58896 2.0534,0.95069 3.47163,1.0853 1.34698,0.11974 2.44277,-0.0409 3.28712,-0.48174 0.85626,-0.43836 1.29367,-0.92811 1.31242,-1.46946 0.0345,-0.60063 -0.41009,-1.16719 -1.33395,-1.69935 -0.68227,-0.4036 -1.48078,-0.68792 -2.39569,-0.85339 z"
       inkscape:label="text" /></g></svg>
