<?xml version="1.0" encoding="utf-8"?>
<!-- Generator: Adobe Illustrator 18.0.0, SVG Export Plug-In . SVG Version: 6.00 Build 0)  -->
<!DOCTYPE svg PUBLIC "-//W3C//DTD SVG 1.1//EN" "http://www.w3.org/Graphics/SVG/1.1/DTD/svg11.dtd">
<svg version="1.1" id="Layer_1" xmlns="http://www.w3.org/2000/svg" xmlns:xlink="http://www.w3.org/1999/xlink" x="0px" y="0px"
	 viewBox="0 0 234 136" enable-background="new 0 0 234 136" xml:space="preserve">
<g>
	<g>
		<path d="M61.6,0.5c-5.9,0-10.9,4.9-10.9,12.4v41.4H21.9V12.9c0-7.6-5.1-12.4-10.9-12.4C5.1,0.5,0,5.3,0,12.9v109.5
			c0,7.6,5.1,12.4,10.9,12.4c5.9,0,10.9-4.9,10.9-12.4v-49h28.8v49c0,7.6,5.1,12.4,10.9,12.4c5.9,0,10.9-4.9,10.9-12.4V12.9
			C72.5,5.3,67.5,0.5,61.6,0.5z M118.5,0c-18.2,0-35.8,5.6-35.8,53.2v27.4c0,48.9,15.6,55.4,35.8,55.4c20.2,0,35.8-6.5,35.8-55.4
			V53.2C154.3,5.6,136.7,0,118.5,0z M131.5,80.6c0,31.7-4.2,36.3-13,36.3c-8.8,0-13-4.5-13-36.3V53.2c0-28,4.4-34.1,13-34.1
			c8.6,0,13,6.1,13,34.1V80.6z M204.1,3.4h-27.4c-8,0-11.8,4-11.8,12.9v106.3c0,7.5,5.1,12.4,11,12.4c5.9,0,11-4.9,11-12.4V77.8h19
			c19.2,0,28.1-17.4,28.1-37.9C234,14,222.5,3.4,204.1,3.4z M196.7,59.6h-9.8V21.6h11c8.2,0,13.1,5.9,13.1,19.4
			C211,52.3,206.6,59.6,196.7,59.6z"/>
	</g>
</g>
</svg>
