<?xml version="1.0" encoding="utf-8"?>
<!-- Generator: Adobe Illustrator 18.0.0, SVG Export Plug-In . SVG Version: 6.00 Build 0)  -->
<!DOCTYPE svg PUBLIC "-//W3C//DTD SVG 1.1//EN" "http://www.w3.org/Graphics/SVG/1.1/DTD/svg11.dtd">
<svg version="1.1" id="Layer_1" xmlns="http://www.w3.org/2000/svg" xmlns:xlink="http://www.w3.org/1999/xlink" x="0px" y="0px"
	 viewBox="0 0 272 136.1" enable-background="new 0 0 272 136.1" xml:space="preserve">
<path d="M211.1,116.7c-0.2,0.4-0.5,0.8-0.8,1.2C212.2,118.1,211.7,117.5,211.1,116.7 M64,77.8c-0.3-0.4-0.6-0.8-0.9-1.3
	c-1,0.6-1.5,2-1.2,2.9c-2.3-0.6-0.1,1.5-2.2,1c1.9,1.4-1.2,0.2,0,1.9l1.2-0.5c-0.5,0.3-1.7,1.1-0.5,1.5c-0.1-1.4,2.4-0.7,2-2.3
	l0.1,0.8c1.8,0,0.4-1.9,1.6-2.2c0.2,3.4-1.6,5.9-1.3,9.3c-1.5,0.4-0.4,2.3-1.9,0.8c-1.3-1.6,2.5-2.8,0.8-4.6l1.6-0.9
	c-2.3-0.4-3.6,2.8-5.3,3.3l-0.9-0.6c1-0.5-1-2.4,0-3.8l0.3,1.1c1.2-1.7,1.8-4.1,2.6-5.2c0.6-0.1,1.9,0.4,1.3-0.7
	c-2.6,1.4-0.8-2.7-3.7-1.1c0.8-0.2,0.2-1.6,1.6-0.9c-0.5-0.4-0.6-1.5-1.7-1.1l0,0.3c0.2,0.1,0.3,0.2,0,0.5l0-0.5
	c-0.3-0.1-1,0-1.3-0.3c0.4-0.6,0.5-0.3,1.1,0c0.6-1-0.9-1.2-1.3-0.5l0.5-0.9c0,0-0.3-0.1-0.4,0c0.2-0.3-0.4-1.5,0.5-1.5l0.4,0.8
	l1.6-0.7l-0.3,1.8l1.6,0c0.2-0.3,0.1-0.9-0.2-1.2c-1.5-1.2-3.1-2.3-4.6-3.3c-0.3,0.3-0.5,0.7-0.9,1.1c0.3-0.6,0.3-1.1,0.2-1.5
	c-0.9-0.6-1.8-1.1-2.4-1.4c0.7-0.6,1.7-1.4,2.8-2.4c0.2-0.5,0.6-1.1,0.6-1.8c-0.1-0.1-0.2-0.3-0.1-0.6c0.1,0.2,0.1,0.4,0.1,0.6
	c0.3,0.2,2.4,0.3,2.8,0.3c0,0-1.5-0.3-1.5-0.3l1.3-0.7c0.7-0.6,1.6-1.4,2.4-2.1c-0.7-0.8,0.4-2.2-1-2.4c2.5,0.3,0.1-2.1,1.6-1.9
	c0.7-1-0.6-0.9-1-1.1c-0.7-2.3,0.3-2.1-0.2-3.7c1,0.1-0.6-2.2,1.1-2.5c0.1-0.5-0.9-1.6-0.3-2.6l-0.8-0.2c1.1-0.4,1.9,0.4,2.2,0.3
	c1-1.2,0.8-0.8,1.2-1.2l-0.4-0.1c1-0.5,1.1,0,1.4-1.2c0.2,0.3,0.6,0.5,0.8,0.6c0-0.5,0-1,0-1.5l-0.1,0c-0.1-0.6-0.1-1,0.1-1.4
	c0-0.4,0-0.8,0-1.2c-0.5,0-1,0.3-0.8,0.8l-0.6-0.9l-1.3,0.7c-1.4-2-0.2-2.2-2-3.7c-0.2,0.2-0.3,0.4-0.3,0.5l1.1,0.3l-1.2,1.1
	c0.4,0,0.9,0.3,1.2,0.2c-0.4,1-1.3,0-2.5,1.8l-1,0.2c-0.2,0.7-0.6-0.5,0.2,0.1l-0.2-0.7c0.4-0.4,1-0.7,0.1-1
	c1.7-1.4-1.8,0.2-0.4-0.4c-0.2-0.4,0.8-1.2,0-0.6c0.1-0.5,1.3-0.4,1.6,0c-0.8-0.8,0.2-0.9-1.1-1.7l1,0.7c1.7-2.6,1.5-3.1,1.1-5.3
	c0.9-0.7-0.1,0,0.2-1.4l-0.5-0.4c0.3-0.6,1.3-0.3,2.3-0.6c-0.9-1.8,1.8-0.6,0.4-2.3c-0.1,0.2-1.4,0.6-1.6-0.4c0-1.7,1.7-0.5,1.1-2.3
	c-0.2,0.1-0.3,0.2-0.2,0.3c-0.4-1.1,0.5-1.6,1.3-2.3c-0.7-3.2-1.4-5.4-1.7-5.9l-0.8-1.4c-1.3-2.3-3.6-6.1-5.7-8.3l-0.8-0.9
	c-1.8-2-3.9-4.3-8.4-5c-5.9-0.9-29-1.4-32.3-1L12,1.6C10,1.8,9.4,1.9,7.5,3c-1.6,0.9-2.9,2-4,3.6L3.1,7c-0.6,0.7-1.5,1.8-2.1,3.5
	c-0.7,1.9-1,24.9-1.1,31.8c0,0,0.1,11.8,0.3,24.2c0.5-0.1,1-0.1,1.4,0l-0.4,1c0.7,0,1.1-0.6,1.4-0.3c-0.5,0.3-1.2,0.9-1.6,0.6
	C2.7,68.1,0.9,69,1.4,70c-0.2,0.5-0.6,0.7-1.1,0.8c0,0.2,0,0.5,0,0.7c0,0,0.1,0,0.1-0.1l0.2,0.3c-0.4,0.7,0.6,0.5,0.7,0.7
	c-0.6,0-0.6,0.9-1,1.5c0.1,11.4,0.2,21.5,0.2,21.5c0,2.2,0.3,18.2,0.7,26.1c0.4-0.7,0.8-1.4,1.4-1.7c-0.3,0.2-0.5,1.1-0.9,0.9
	l0.8,0.3c0.2,1.8,0.1,3.9,0.2,5.8c0-0.1,0-0.1,0.1-0.1c1,0.1,0.7-1.2,2.1-0.9c-1.8,0.4-0.4,1.3-2,2.3c0-0.1-0.1-0.1-0.1-0.1
	c0,0.2,0,0.3,0.1,0.5c0,0,0,0,0,0.1c0.7,0.3,1.4-0.4,1.8-0.7c-0.3,1.6,1.8,0.7,1,2.3c-0.2,0.5-0.5,0.8-0.9,1c0.9,1,1.6,1.8,1.7,1.8
	c-0.1,0,1.1,1.8,4.2,2.5c2.8,0.7,29,0.5,33.7-1.1c4.7-1.6,7.9-3.4,12.3-6.8c4.4-3.5,5.6-7.1,6.3-9.2c0,0,0.3-0.8,0.3-0.9
	c0.8-2.7,5.5-30.4,0.8-39.2C64.2,78.1,64.1,77.9,64,77.8 M8.3,26.5c-1.6,0,0.8,2.1-1.1,1.3c0.7-1-1.1-4,2.1-3.4
	c-0.5,1.5-1.1,0.6-1.7,1.8L8.3,26.5z M59.1,19.9l0.1,0.4l1-0.5c-0.1,0.5,0.1,1.4-0.4,1.3l0.1-0.2l-1.6,0
	C59,20.7,58.1,19.7,59.1,19.9 M59.1,22.5l-0.5,1.1c-0.6-0.5-1-1.1-0.9-1.8L59.1,22.5z M7,55.4l-0.2-0.9l1.4,0.1L7,55.4z M6.1,64
	c0.6-0.1,0.1-1.7,1.6-1.5C6.2,62.9,8.1,64,6.1,64 M9,54.4C8.3,54,9.4,54,9.7,53.8l-0.2-0.9l1.2,1C10.3,53.7,9.3,53.9,9,54.4
	 M7.9,66.4l0-0.2l1-0.5L7.9,66.4z M11.7,63.9l0.4-1C12.1,63.5,12.5,63.7,11.7,63.9 M12.1,62c-0.2-0.5,0.1-1.7-1-1.7
	c-0.3-0.7,2.4,0.6,1.7-0.7C15.2,60.9,11.5,60.8,12.1,62 M22.6,57.9c-0.1-1.9-0.9-24.5-0.9-24.5c-0.4-3.7-0.3-7.3,0.1-8.6
	c0.1-0.2,0.1-0.4,0.2-0.4c1.3-0.4,12.8-1,15.8-0.7c4.7,0.4,5.4,3.9,5.5,5.4c0.2,3.1,0.8,19.7-0.1,23.1c0,0.1-0.1,0.3-0.1,0.4
	c-1,3.1-3.1,4.5-4.3,4.8C37.8,57.5,30,57.8,22.6,57.9 M7.9,123.2l-0.8-0.1c0.1,0.4-0.5,0.9,0.1,1c-0.3,0-0.7,0.1-1.1,0.2
	c0.6-0.3-0.3-1.9,1.2-1.9C7.5,122.6,7.7,123,7.9,123.2l0.8,0.1C8.3,123.6,8,123.5,7.9,123.2 M7.1,127l-0.2-0.3l1.1-0.6l0.2,0.3
	L7.1,127z M38.2,114.4c-1.7,0.8-13.9,1.6-15.5,0.8c-0.7-0.7-0.7-5.3-0.7-7.5l-0.1-3.7c-0.3-2.6-0.5-17-0.5-17.2
	c0.1-1.5,0.4-3.1,0.8-4.3c0.3-0.9,0.6-1.5,0.9-1.7c1.3-0.7,10.7-0.9,15-0.7c2.5,0.2,4.3,1.5,5.8,4.1c1.3,2.2,1.5,20.6,0.6,23.9
	C43.6,111.1,40.1,113.5,38.2,114.4 M212.4,116.4c-0.1-0.1-0.3-0.2-0.5-0.3c0,0.5,0.1,0.9,0.2,1.2C212.2,117,212.4,116.8,212.4,116.4
	 M132.4,117.7l-1-0.1l0.8-0.5c-0.4-0.6-1.9-1.3-0.7-2l-1.5-0.2c0.3-0.6,1.6,0,1.8-0.8c-0.2-0.6-0.9-1-1.4-0.7c0.3-1.3,3.3-2.5,1.6-4
	c0.8,0.4,0.9-0.7,1.2-0.2l-0.1,0.3c0.7,0,1.1-0.1,1.3-0.3l0-1.4l-0.4-0.1c0.1,0.1,0.2,0.1,0.4,0.1l0.1-4.2c-0.4-0.1-0.7-0.3-1-0.6
	l1-0.1l0.7-24.4c0-0.1-0.4-14.6-0.4-14.6l-0.2-9.7c0-3.5-0.1-34.2-1-37.2c-1.8-5.7-6.6-9.8-6.7-9.9c-5.1-4.4-14.4-7.3-22.5-6.9
	c-2.9,0.1-3,0.2-7.1,1.5l-1.3,0.4c-5.8,1.9-10.8,8.2-12.7,11.9c-1.7,3.3-2.6,5.9-3.4,8.3c-0.1,0.4-0.2,0.8-0.4,1.2l-1.5,7.4
	c0,0.1-0.2,16.6-0.3,21.6c0.3,0,0.5,0.2,0.7,0.7c0-0.1,0.1-0.1,0.1-0.2l-0.1,0.2c0,0,0,0,0,0c-0.2,0.3-0.5,0.6-0.3,0.9
	c0.6-0.6,1.1,1,1.7,0.8c-0.1,0.1-0.3,0.2-0.4,0.2l0.6,0.9c0,0-1.1,1-1.1,1c0.3-0.3,1.5-1.7,1.2-2c1-0.3,0,1-0.1,1.5l0.2,0.1
	c0.1,0.4-0.2,0.7-0.5,0.9c-0.1,0.6-0.1,1,1,0.7c-0.4-0.2,0.3-0.2,0.2-0.3c0.3,0.1,0.4,0,0.7,0.3c-0.7,0-0.6,1.2-1.2,0.3
	c-0.2,0.7,0.1,1.4,0.6,1.8l0.4-0.4l0,1L81,60.6c0.5,0.4-1.8,2.1-0.1,2.5l-1.4-0.3c0.4,0.6-0.6,1.2-0.8,1.8c0.8-0.5,0.7,0.7,1.1,0.9
	c-1.3,0.5-0.7,2.6-1.2,3.5c1,0.7,1-0.6,1.3-0.7c-0.7,1,0.5,1.7-0.5,2.6c0,0,0,0,0,0l0.4-0.1c-0.1,0.2-0.3,0.2-0.4,0.1l-0.7,0.1
	c-0.1,0.6-0.8,1.2-0.6,1.5l-0.3-0.2c-0.1,0-0.2,0-0.3,0.1c0.1,0.4,0.2,0.8,0.3,1.2l0.2,0.1c-0.1,0-0.1,0-0.2,0
	c0.3,1.1,0.6,2.2,0.9,3.3l0.4-0.6l0.1,0.2c1.1-1.5,3.5,1.1,1.7,2.1c-1.1,0.8,0.1,2.1,0.4,2.8c-0.5-0.1-0.9-0.4-1.2-0.2
	c0,0.1,0,0.5,0,0.6l0.9,0.9l-0.7,0.2c0.3,0.6-2-0.4-1.3-0.5c0.4,0.2,0.1,0.8-0.2,1.3c-0.1,0.2,0.6-0.2,0.4,0
	c0.4,1.4,0.6,2.3,0.6,2.3l2.5,0.2c0,0-2.5,0.4-2.5,1.1c0.9,0,1.7-1.2,1.5-0.1c1.4-0.3-0.4-0.6,0.7-1.3l-1-0.1
	c1.3-0.8,0.1-0.9,0.7-1.9l0.8,0.2l-0.2,1.6l1.1,0l0,2c0.5,1.7-1,0.5-0.1,2.1l-1.1,0.4c0.2-0.1,0.3,0.1,0.4,0.2
	C82.3,91.1,83,90.9,83,92c1.8,0.9-0.3-0.4,1.4-0.3l-0.1,0.9c1,0.6,0-0.4,0.5,0.4c0,0,0.1-0.1,0.1-0.1l0.1,0.4
	c-0.1-0.2-0.5,0.8-0.5,0.7c-1.5,0.8-1.8,2.1-4.2,1.8c0.7,1-3.2,2.2-1.6,2.7c-0.4,0,0.6,1.6-0.1,0.7c0,0.4-1.5,0.7-0.7,0.7
	c-0.6,0.9,0.5,0.8-0.4,1.4c-0.3,2.7,0.5-2.2,0.5-2.2l-0.5,3.6c-0.1,0.3,0.2-0.2,0.1,2.8c0,2.6-0.3,8.5,2.1,13.7
	c2.2,4.7,4.5,7.2,7.6,9.8c3.2,2.7,6.6,4.4,11.3,5.6c5.1,1.4,6.5,1.4,11.3,0.8c4.1-0.5,4.8-0.8,7.5-2l1-0.5c3.6-1.6,10.6-7.7,10.9-8
	l0.2-0.2l0.2-0.4l-0.7-2c0.1-0.5,0.8-0.5,1.3-0.1c-0.1-1.2,1.2-1.3,0.9-2.7l0.4,0.6l0.4-1C131.9,118.9,131.8,118.5,132.4,117.7
	 M83.5,60.7c0.6-0.1,0.7,0.3,1.2,0.4c-2,0.5,0.7,2.6-1.2,3.5l-0.3-0.7c-1.8-0.5,0.1,2.8-1.9,2.2l1,0.7L81,68.4
	C78.7,65.8,82.9,63.2,83.5,60.7 M79.3,75.1l0.8-0.9c-0.8-0.2,0.6-0.1-0.1,0.2c0.6-0.1,0.7,0.3,1.2,0.4C80.4,76.4,80.4,74,79.3,75.1
	 M83,75.9c-1.1-0.2-0.3-2-1.5-2.2c0.8,0.2,1,0.1,1.5,0.5c0.7-0.6,0.3-1.2-0.5-1.4c0.4-0.4,0.8-0.5,1.1-0.4c0.3-1.2-2.8-1.7-1.5-2.8
	l0.7-0.4c0-0.4-0.5-0.6-0.7-0.7c0,0,0,0,0,0c-0.2,0-0.1-0.1,0,0c0.7,0,1.8,0.3,2.1-0.6l-1.2-0.4c2.3-0.7-0.4-3.2,1.7-3.1
	c0.1-0.2-0.2-0.3-0.4-0.2l0.6-0.5c0.1-0.2,0.2-0.4,0.5-0.3l-0.5,0.3c-0.1,0.3,0.1,0.7,0.6,0.9l0.2-0.1l-0.5,0.9l1,0.1
	c-1.6,0.3-1.1,3-1.9,2.8l-0.3,3.2c-1,1.2,1.1,2.2-0.6,2.7c0.3,0.5,0.6,0.5,0.8,0.8L83,75.9z M113.2,19.5l0.8,0.2l-0.6,1.4
	C112.3,20.9,113.1,20,113.2,19.5 M80.5,44.1l0.8,0.2l-0.6,1.4C79.6,45.4,80.4,44.6,80.5,44.1 M79.3,41l0.8,0.2l-0.6,1.4
	C78.4,42.3,79.1,41.5,79.3,41 M111.5,21c0.2,0,0.4-0.1,0.5-0.2C111.9,21,111.7,21,111.5,21c-0.6,0-1.2-0.4-1.6,0.3
	C110,19.9,110.8,21,111.5,21 M90.4,107.9L91,108l0,0l0.6,0.1l-1.4,0.6L91,108L90.4,107.9z M89.1,115.1l-0.4-0.6
	c0.7-0.6,0-2.6,0.9-2.7C88.3,113.4,91,114,89.1,115.1 M94.6,108.5l-0.4,0.6c0,0.6,0.6,1.3-0.8,1l0.8-1
	C94.2,108.9,94.2,108.7,94.6,108.5 M92.8,107.4l1.6-0.3C93.8,107.7,93.5,107.2,92.8,107.4 M91.7,116c-1-1.1,1-2,1.1-2.5
	c0.2,0.6-0.3,1.3,0.4,1.4L91.7,116z M90.6,126.6l-0.2-1l0.8,0.8L90.6,126.6z M95.3,115.6c0.1-0.2-0.3-1.1,0.5-1
	C95.9,115.1,95.7,115.4,95.3,115.6 M106.6,121.9c-0.6,0.1,0.5-0.9,0.9-0.3C107.7,122.4,107,122.1,106.6,121.9 M108.6,120.8l-0.3-0.7
	c0.2-0.1,0.5-0.3,0.9-0.1L108.6,120.8z M107.5,129.4c0.4,0,0.9-0.7,1.4-0.6c-1,0.2,0,1.1-0.2,1.4
	C108.2,130.4,108.1,129.6,107.5,129.4 M115.9,114.2c-2.3,3.8-4,4.7-5.1,4.9c-2.3,0.3-7.6,0.3-10-1.1c-3-1.7-4.3-6.4-4.4-6.8
	c0-0.4-0.1-20.3-0.1-20.3c0,0,0.1-15.7,0.1-15.7l0.3-27.1l-0.3-8c0,0,0.7-9.7,2.1-13.7c0.1-0.1,0.1-0.3,0.1-0.4
	c0.9-3,6.1-4.4,8.1-4.7c2.5,0,4.4,0.6,5.7,1c0-0.1,0-0.2,0.1-0.3c0.2-0.3,0.6-0.1,1.2,0l-0.8,0.5c0.8,0.3,1.2,0.6,1.3,0.6
	c0,0,0,0,0.1,0.1c0.3,0,0.5,0,0.9,0.2c-0.3-0.1-0.5-0.1-0.7,0c0.2,0.2,0.4,0.5,0.6,0.8l0.7-1.3c-0.3,1.2,1.3,1.9,1,2.7
	c-0.6,0.1-0.2-0.9-0.9-0.4c0.8,1.2,1.7,2.8,2.1,4.2c0.6,2.6,0.1,22.1-0.2,29.3c0,0,0.1,47.8,0.1,47.8c-0.1,1.2-0.5,4.3-1.1,6.3
	C116.3,113.4,116.1,113.9,115.9,114.2 M156.6,95.1l-0.8,0.1c0,0.2,0,0.3-0.1,0.5c0,0.1,0,0.1,0,0.2l0,0l0.3-0.3l-0.2,0.3l0.7-0.3
	c-0.2,0.3-0.2,0.6-0.3,1c0.2-0.2,0.3-0.5,0.7-0.6C156.7,95.7,156.6,95.4,156.6,95.1 M213.5,117.8l-0.5,0.5c0.1,0.3,0.7,0.4,1,0.7
	C213.8,118.6,213.7,118.2,213.5,117.8 M157.7,105.3c-0.3-0.1-0.6,0.1-0.6-0.3c1.1-0.9,0.7-1.7,0.7-2.6c-0.6-0.1-1.2-0.2-1.8-0.3
	c0.1,0.4,0.3,0.9-0.1,1.3c0,0,0,0,0.1,0c0,0.1,0,0.1,0,0.2l0.2,0c0.1,0.3,0,0.7-0.1,1c0,0.3-0.1,0.5-0.1,0.8
	c0.1,0.1,0.3,0.3,0.6,0.4c-0.3,0.1-0.6,0.4-0.8,0.7c-0.1,0.6-0.1,1.3,0.3,1.9c0,0.2,0.1,0.4,0.2,0.5
	C156.9,107.7,158.1,106.8,157.7,105.3 M212.8,123.3c0-0.1,0-0.3,0-0.4c-0.3,0.1-0.5,0.2-0.8,0.4c-0.1,0.2-0.2,0.3-0.3,0.4
	c-0.1,0-0.1-0.1-0.1-0.2c-0.4,0.3-0.9,0.6-1.3,0.9l0.1,0.2c-0.1-0.1-0.2,0-0.3,0c-0.2,0.2-0.5,0.4-0.7,0.6c0.3-0.1,0.3-0.6,0.7-0.6
	c0.1-0.1,0.1-0.1,0.2-0.1l-0.3-0.4l-0.6,0.3l0.1-0.9l0.4,0.4l-0.8-1.4c0.3-0.1,0.4-0.2,0.6-0.4c-0.3-0.3-0.6-0.5-0.9-0.9l1.3,0.3
	c0.1-0.2,0.2-0.5,0.6-0.6c-0.1,0.2-0.1,0.3-0.1,0.5c0.6,0,1.5,0.1,0.8-0.9c-0.8,1-2,0-2.6-0.8c-0.2,0.3-0.3,0.5-0.2,0.7
	c-0.1-1.4-0.7-2.3,0.6-3c0-0.1,0-0.1,0-0.2c0,0-0.1,0-0.1,0c-0.4,0.5-0.8,1-1,1.5l-0.9-0.3c-3.1,1.7,1.6,0.4,1.2,2.7
	c-1.1,0.4-1.9-1.1-2.6-0.2c-1.3,0.7,1.1,1.9-0.5,2.2c-1.4-1.7,0.9-4,0.3-5.7l-0.5,0.2l0.2-0.7c0.1,0.2,0.2,0.4,0.3,0.5l0.6-0.2
	c-0.1,0.1-0.1,0.3-0.1,0.5c1,0.2,1.2-0.2,1.2-0.7c-0.8-0.1-1.7-0.2-2.5-0.3l0.4,0.4c-0.4-0.6-2.1,0.3-1.6,0.9l-0.7-0.7l0.6-0.7
	c-0.7,0-1.1-0.1-1.3-0.1c-10.4,0.1-27.4,0.1-29-0.3c-0.8-0.3-0.7-1.9-0.7-2c0-0.1,0.2-10.3,0.2-10.3c0-0.1-0.6-9-0.6-9
	c-0.1-1.2,0.4-14.8,1-30.5l-0.5-0.2c0.3,0,0.5-0.2,0.6-0.4c0,0,0-0.1,0-0.1c0-0.1,0-0.1-0.1-0.2c-0.3-0.1-0.4,0-0.8,0.2l0.9-1.2
	c0.1-2.2,0.2-4.3,0.3-6.5l-0.7,0.3c-0.2-0.6,1.1-2.8,0.3-4.1c-0.6,0.1,0,0.9-0.1,1.2c-0.3-0.5,0-1.1-0.9-0.7c0.3-0.9,1-1.1,0.6-2
	l1.1,0c0-0.5,0-1,0.1-1.6c-0.2-1.9-0.7-4.1,0.1-6.3l-0.8,0.1c1.5-0.3,0-0.9,0.4-1.3l0.6-0.1c0.3-7.6,0.6-14.4,0.8-19.3
	c0,0,0.2-6.7,0.3-11.5c-0.1,0.1-0.2,0.2-0.3,0.2c-0.6,0.1-0.5-0.4-1-0.5c-0.1-0.4-0.2-0.9,0.3-1.4l-1.4-0.2c-0.1,0-0.1,0.1-0.1,0.1
	c-0.2,0.7-0.6,1.8,0.4,2c-0.6,0.7-1.9-0.4-2.8-0.8l-0.6,1c-1.3-0.9,1.6-0.9,0.1-1.5c0.9-0.9,1.2-0.5,2.3,0c0.1-0.4,0.4-0.5,0.7-0.7
	c0,0,0-0.1,0-0.1l0.1,0c0.2-0.1,0.4-0.3,0.4-0.5c-1.6-1.2-0.5,0.5-1.4-1.1c-0.2,0.3-1,1.2-0.9,0.7c0.6-0.7-0.2-0.9-0.8-1
	c0.3-0.2,1.1-1.8,0.1-2.4c0,0,0,0,0,0h0l2.2,0.3l-0.6-0.9c0.1-0.3,0.5-0.6,1-0.8l-1-1.1c-0.2,0.9-0.7,1.9-1,2.3
	c-0.1-0.9,0.4-2,0-2.8c-0.3,0-0.8-0.1-1.5-0.2c0.1,0.5-0.4,1.7,0.9,1.9l-1.2,0.5c-0.1-0.1-0.1-1.4-0.2-1.8l-0.2,0.1l0.1-0.7
	c-0.4-0.1-0.9-0.1-1.4-0.2l-0.6,0.5C166.2,1,166,0.7,166,0.6c-2.2-0.2-4.6-0.4-6.3-0.2c-4,0.4-5.7,4.2-5.8,4.3l-0.1,0.2l-1.5,55.9
	c0,1.5,0,3.9,0,6.8c0.5-0.3,0.8-0.7,1.6,0c-0.5,2.4,0.4,4-0.6,6.2c0.5-0.9,2.1-0.9,2.2-2.3l0.2,1.2c0.1,0,0.2,0,0.3,0l-0.3,0.2
	l0-0.1c-1.7,0.2,0.3,2.9-0.5,3.8c-0.8-1.1-1.3-0.3-1.9-0.2l-0.1,0.5c0.2,0,0.5-0.1,0.9-0.4c-0.3,1.3-0.9,3.2-0.5,3.9
	c1.5,0.4,0.2,1.6,1.4,2.1c0.3-0.9,1.7-0.1,1.4-1l-0.3,0.1c0.5-1-0.7-0.7,0.6-1.5c-0.4,1,1.7,1.5,0.5,2.6l-1.2-0.5
	c-0.3,1.7-0.9,2.4,0.3,3.7c0.4-0.3,0.9-0.4,1-1c0.4,1.1,1.9,2.3,0.8,2.7l0.3-0.1c0.1,1.4,2.1,3,0.6,4c-0.8,0.7-1.8,0.6-2.1-0.1
	l0.7,0.3c0.2-1.1,0.2-2.3,0.6-3.3c-0.3,0.5-1.2,0.7-1.4,1c-0.2-0.5-1.6-1.6-0.9-2.5l0.8,1.3c0.2-0.3,0.7-0.9,0.5-1.4
	c-0.8-0.5-0.9-0.4-2-0.2l0.2-0.3l-1.4-0.2c0,0.8-0.4,1.2-0.7,1.7c0.9,0.7,1.4,1.3,1.8,1.7l-0.3-0.1c-0.2,0.2-0.3,0.5-0.5,0.7
	l0.8,0.2c-0.3,0.4-0.8,0.6-1.4,0.8c-0.3,0.8-0.4,1.7-0.4,2.5c0.2-0.2,0.4-0.5,0.6-0.8c0.2,0.3,0.5,1,0.8,0.8c-0.2,0.4-0.7,0.9-1,1.3
	c0.2,0.5,0.4,1,0.5,1.6c0.4,0.3,0.7-0.1,1.1-0.6c0.3-0.5,0.8-1.1,1-1.6c-1.3-3.1,3,0,3.3-2.4l-0.4,2.3c-0.3-1.1-1.4-0.1-1.4,0.6
	l1.1,0c-1,0.1-0.6,1.4-0.1,1.5c0.3,0,0.5,0,0.6,0c0.1-0.2,0.2-0.3,0.3-0.4c0.2-0.7-0.4-2.1,1-2.3c-0.4,0.7-0.3,0.8,0.5,0.8l-0.7,2.2
	l-0.6-0.9c-0.1,0-0.1,0.1-0.2,0.2c0,0.2-0.1,0.3-0.3,0.4c-0.1,0.1-0.1,0.3-0.1,0.4c1.1,0,0.2,1.2,1.4,0.7c-0.1,0.9-0.3,2.7-1.8,2.5
	c0.3,0.5,0.5,1,0.9,1c-2.3,0.6-0.1,2.8-1,3.1c-0.6,0.1-1.2,0.1-1.5,0.6c0,0,0,0,0,0l0.8,0.2c-0.3,0.4-0.5,0-0.8-0.1
	c-0.2,0.6-0.7,1.3-1.2,1.7c0.6,0.3,0.4-0.7,1-0.5l-0.1,1.5c0.4,0,0.8,0.2,1-0.2c-0.2,0.3-0.9,0.3-0.9,0.9l0.4,0
	c-1.4,0.4-0.3,2.3-1.1,2.7c0.1,0.1,0.2,0.2,0.2,0.3c0,0,0,0,0,0c0,0.1,0,0.1,0,0.2c0,0,0,0.1,0,0.1c0.1,0.6-0.1,0.9-0.4,1.1l0.7-0.3
	l0.1,1.4c-0.2,0.3-0.8-0.4-1.3-0.7c-0.1,0.1-0.1,0.1-0.2,0.2c0.1-0.1,0.1-0.1,0.1-0.2c-0.2-0.1-0.4-0.1-0.5,0c-0.5-0.6-1,1.4-2.2,2
	c1.7,1.5,2.3,3.9,4,5.4l-1.1,0.5c-0.1,0.5-0.3,1.6,0.4,1.5c0.4-0.2,0.1-0.6,0.1-1l0.3,0.2c0.5,2.2-2.7,1.1-2.6,2.7l0.3-0.1l-0.5,0.8
	c0,0,0,0,0.1,0c-0.1,0.5,1.2,0.4,0.6,1.1c-0.2-0.2-1-0.5-0.9-0.8l-0.2-0.1c0.3,3.1,0.6,5.2,1,5.8c2.7,4,6.4,4.7,6.5,4.8
	c0.2,0,41.7,0.4,41.7,0.4c8.8,0.1,9.6-0.9,9.9-1.3c0.3-0.3,1-1.3,0.1-10.5C212.8,124,212.7,123.6,212.8,123.3 M163.5,2.8
	c-0.1-0.4,0.5-1.1,0.5-1.1c-0.2,0.7,0.9,0.3,1,0.5L163.5,2.8z M166.2,2c1.1-1,0.2,0.5,1.4,0.3C167.1,2.3,166.6,2.4,166.2,2 M170,3.4
	l-0.5,0.3l-0.2-0.3L170,3.4z M168.5,5.9l0.3-0.8l0.4,0.2l0.5-0.5C170.4,5.5,168.9,5.7,168.5,5.9 M172.4,14.4c-1.3,0.7,1,1.4-0.2,1.6
	c-0.8-0.4-0.3-1.1-0.6-1.5L172.4,14.4z M166,33.3l1.1-0.6l0.2,0.3L166,33.3z M163.5,42.1c1.1-1,0.4,0.6,1.5,0.5
	C164.3,43.6,164.2,42.2,163.5,42.1 M165.2,47.1l0.3-0.8l0.6,0.3L165.2,47.1z M162.5,45.7c0-0.4,0.2-0.7,0.7-1l0.9,1.2L162.5,45.7z
	 M200.3,120.4l-0.5-1l1.1,0L200.3,120.4z M204.7,132.7l0.1-1.5l0.3,0.5L204.7,132.7z M207,124.7l0.8-0.8l0.2,1.2
	C207.7,124.8,207.2,125.5,207,124.7 M208.2,126.7l1.1-0.6l0.1,0.2l-1.2,0.6L208.2,126.7z M210.1,129.2c-0.7,0.4-0.3,2-1.5,1.2
	c0.7,0,0.5-0.8,0.6-1.3l-0.4,0.2c0,0,0,0,0,0c-0.1,0.1-0.1,0.3-0.3,0.4l0.1-0.6c-0.1-0.3-0.2-0.5,0.1-0.5l0,0
	c0.4-0.4,1.3-1.3,1.7-0.7c-0.1,0.6-0.9,0.7-1,1.2c0,0,0.1,0,0.1,0l-0.1,0.1c0,0.1,0,0.2,0.1,0.3L210.1,129.2c0.2-0.1,0.4-0.1,0.7,0
	L210.1,129.2z M80.5,104.8c-0.7,0.4-0.3,2-1.5,1.2c0.7,0,0.5-0.8,0.6-1.3l-0.4,0.2c0,0,0,0,0,0c-0.1,0.1-0.1,0.3-0.3,0.4l0.1-0.6
	c-0.1-0.3-0.2-0.5,0.1-0.5l0,0c0.4-0.4,1.3-1.3,1.7-0.7c-0.1,0.6-0.9,0.7-1,1.2c0,0,0.1,0,0.1,0l-0.1,0.1c0,0.1,0,0.2,0.1,0.3
	L80.5,104.8c0.2-0.1,0.4-0.2,0.7,0L80.5,104.8z M210.1,128.9c-0.2-0.9,1.6-1.5,0.6-2l1.1-0.6l-0.8,1.5l0.9,0.6
	C211.9,129.4,210.7,128.4,210.1,128.9 M76.6,106.3c-0.2-0.9,1.6-1.5,0.6-2l1.1-0.6l-0.8,1.5l0.9,0.6
	C78.3,106.8,77.1,105.8,76.6,106.3 M211,117.4c-0.3,0.2-0.6,0.4-0.8,0.6c0.1,0.2,0.2,0.3,0.2,0.6l0.3-0.3c0-0.1,0.1-0.3,0.5-0.5
	C211.1,117.7,211.1,117.6,211,117.4 M159,102.2c0,0.2-0.1,0.3-0.1,0.5l0.6-0.8C159.3,102.1,159.1,102.2,159,102.2 M213.1,120.6
	c0.2,0.1,0.3,0.3,0.1,0.5c0.1-0.1,0.2-0.3,0.3-0.4c0.1,0.1,0.1,0.1,0.1,0.2c0.1,0,0.2-0.1,0.3-0.1l-0.2-0.8
	C213.6,120.2,213.3,120.4,213.1,120.6 M214.1,119.4c0,0.1,0,0.1,0,0.2C214.1,119.5,214.1,119.5,214.1,119.4
	C214.1,119.4,214.1,119.4,214.1,119.4 M267.5,15.6c0.2-0.2,0.4-0.4,0.8-0.4c-0.3,0-0.5-0.1-0.6-0.3l-0.6-0.1c0,0,0,0,0,0
	C267.3,15,267.4,15.3,267.5,15.6 M80.4,82.5c0.2,0.7,0.4,1.3,0.5,1.9c0.1-0.1,0.3-0.3,0.4-0.5C81.6,83.4,80.9,83,80.4,82.5
	 M58.7,39.8c0.2,0,0.4,0,0.6,0L59,39C58.7,39.1,58.7,39.5,58.7,39.8 M244.9,49c0-0.1,0-0.2,0-0.2l-0.7,0C244.5,49,244.7,49,244.9,49
	 M59.9,39.6c0,0.1-0.1,0.1-0.1,0.2c0,0,0.1,0,0.1,0L59.9,39.6z M267.3,17.6c0.1,0,0.2-0.1,0.3-0.2c-0.1,0-0.1-0.1-0.2-0.1
	C267.4,17.4,267.4,17.5,267.3,17.6 M1.3,122c0,0.2,0,0.4,0,0.6c0.2-0.3,0.5-0.6,0.9-1C1.7,121.6,1.7,121.9,1.3,122 M175.1,6.9
	c0.2-0.1,0.5-0.3,0.4-0.4l-0.1-0.1c-0.1,0-0.2,0-0.3-0.2l0.3,0.2c0.3-0.1,0.7-0.5,1-0.4c0-0.2,0-0.5,0-0.7c-0.5,0.2-1.1,0.3-2,0
	C174.3,6.1,174.3,6.8,175.1,6.9 M176.4,7.3c0-0.2,0-0.5,0-0.7l-0.5,0.2C176,6.9,176.2,7.1,176.4,7.3 M77.9,60.7
	c0.7-1.2,0.1-2.8,1.8-3.8c0,0,0,0,0,0l-0.3,0c0.1,0,0.2-0.1,0.3-0.1c-0.2-0.3-0.2-0.7-0.1-1.4c-0.6,0.3-0.8-0.3-1.6-0.2
	c0,0,0,0.1-0.1,0.1c0,2.1-0.1,4.2-0.1,6.1c0.4-0.2,0.8-0.4,1.1-0.9C78.4,60.2,78.2,60.5,77.9,60.7 M244.9,47.9c0,0.1,0,0.2,0,0.4
	C244.9,48.2,244.9,48,244.9,47.9C244.9,47.9,244.9,47.9,244.9,47.9 M248.4,128.4L248.4,128.4c0,0,0.6-21.1,0.6-21.1
	c0,0-0.4-11.3-0.9-25.6c0,0,0,0-0.1,0l0.1-0.1c0-0.5,0-1-0.1-1.5c-0.1-0.4-0.1-0.8-0.9-0.4c0-0.7,0.4-1.4,0.8-2.2
	c0-1-0.1-1.9-0.1-2.9c-0.6,0-1.6,0.5-2.2,0.2l1.3-1.3l0.1,0.8c0.2-0.4,0.5-0.4,0.8-0.5c0-0.5,0-0.9,0-1.4c-0.2-0.3-0.5-0.5-0.9-0.7
	l0.3-0.3l-0.7-0.1c1.1,0,0.7-1.1,1.3-1c0-1.4-0.1-2.8-0.1-4.2l-0.1,0.1c-0.3-0.1-1.1,0-0.9-0.6c0.3,0.1,0.5-0.5,0.4,0
	c0.2,0.1,0.3,0,0.4,0c-0.1-0.6-0.2-1.2-0.3-1.8c-0.1,0.1-0.1,0.1-0.3,0.1l-0.7-0.7l-1.4,1.8c-0.8,0.9-0.3-0.5-0.9-0.3
	c0.9-0.3,2-0.7,1-1.8c0.8-1.1,1.9,1.3,2.1-0.3c0,0,0.1,0.1,0.1,0.2c0-0.4-0.1-0.7-0.1-1.1c-0.2-0.9,0.1-1.5,0.4-2
	c0-0.8,0-1.5-0.1-2.3c-0.8,0.6-1.3,2-2.5,1.7c1-1.2,0.7-1.2,1.8-1.7c0,0,0,0,0,0c-0.3-0.3-0.3-0.5-0.2-0.7l-0.3-0.3
	c0.1,0.1,0.2,0.1,0.3,0.1c0.3-0.4,0.9-0.8,0.1-1.3l0.6-0.3c0-0.7-0.1-1.4-0.1-2.1c-0.2,0.1-0.4,0.1-0.8,0.1l0.8-0.8l0,0.1
	c0,0,0,0,0-0.1c-0.6-0.3-0.8-1.1-1-1.3l-0.7,0.4l0.1-0.3c-0.6,0.3-1.2,0.2-1.2,0.7l-1.5-0.9c0.4-1.1,1.6-0.3,1.6,0.4l1.2-0.5l0.3-1
	c0.1,0.1,0.2,0.1,0.2,0.1l0.2-0.7c-0.4,0.2-0.9,0.3-1.5,0.5l-0.1-2.1c0.5,0.4,1.5-0.4,1.8-0.8c-0.1,0-0.2-0.1-0.3-0.1l0.3,0.1l0,0
	c0.1,0,0.1,0,0.2,0c-0.3-0.6-0.8-1.1-1.9-1.3l-0.1,0.6l-1.2-2.6l-0.1,0.1c-0.6-1.6,0.7-3.8-0.6-4.9c-0.2,0.1-0.3,0.1-0.3-0.2
	c0.1,0.1,0.2,0.2,0.3,0.2c0.4-0.2,1-0.8,1.1,0.2c0.8-0.8,0.4-2-0.2-2.7c0.6,0.2,1-0.2,1.7,0.6c-0.1-0.7,0.1-1.1-1.1-1.3
	c-0.9-0.2,0.2-1.8,0.5-2.7l0.2,1.4l1-0.4c0.2-0.5,0.2-1.8-0.7-1.7l-0.1,0.1c0.1-0.9,0.8-3.2-0.2-3c-0.3-0.9,0.7-0.6,1.1-0.7
	c0-0.3,0-0.5,0-0.8c-0.1,0.1-0.3,0.1-0.4,0.1c0.2-0.7-0.7-0.7-0.4-1.5c0.1-0.1,0.4-0.2,0.7-0.3c-0.1-2.1-0.1-3.4-0.1-3.4
	c0,0,0-0.1,0-0.2l-0.6,0.5c-0.4,0-0.7-1-1.5-0.5c-0.4,0.2,0,0.6-0.1,0.8c-0.8,0.2-0.2-0.7-0.5-1.3c-0.1,0.2-0.3,0.1-0.5,0.4
	c0.8-0.6-0.2-1.8,1.2-1.5c1.1-0.3,0.3-2.1,0.3-2.5c0.7,1,0.8,1.6,0.2,2.6c0.8-0.2,1.4-0.8,2.1-0.8l-0.2,0.3l0.6-0.3c0,0,0.1,0,0.1,0
	c0-0.1,0-0.3,0.1-0.4c0,0-0.1-0.1-0.1-0.1l-1.6,0.5l0.9-0.9c0.3,0.2,0.5,0.3,0.6,0.4l0.3-0.1c-0.1,0.1-0.1,0.1-0.2,0.2
	c0.1,0.1,0.1,0.2,0.2,0.4c0.9,0,3.4-0.1,5.7-0.2c0-0.9,0.1-1.6,0.8-2.1l1.5,0.7l0.5-1l-0.6,0c-0.3-0.4,0.1-0.9,0.4-1.2
	c-0.3,1,1.3,0.2,0.7,1.7c0.2,0,0.4,0,0.5-0.1c0.1-0.2,0.2-0.4,0.3-0.5c0,0.2-0.1,0.4-0.3,0.5c-0.5,0.9-1,1.7-2.2,2.1c0,0,0,0,0,0
	c0.3,0,0.5,0,0.8,0l0.1-0.4c2.5-0.7,3.2-0.9,5.2-2l-0.1,0.2c2.5-0.1-0.5-2,1.3-2.6c2.1,2-1.5,3.2-2.6,4.8c1.6,0,3.8,0,5.8,0
	c0.2-0.3,0.5-0.5,0.7-0.9l0.6,0.8c0.2,0,0.5,0,0.7,0c0.6-0.2,1.2-0.7,1.8-1c-0.2-0.1-0.3-0.1-0.4-0.2c-0.3,0.2-0.5,0.4-0.4,0
	c-0.2-0.2,0-0.2,0.3-0.2c0-0.1,0.1-0.2,0.2-0.3l0.2,0.3c0,0,0,0,0.1,0c0.1-0.2,0.2-0.4,0.3-0.7c-0.6-0.4-0.9-0.9-1.7-0.9
	c0,0,0,0.1-0.1,0.1l-0.9,0.1c0.4-0.1,0.7-0.2,1-0.2c0.1-0.1,0.1-0.2,0.1-0.2l0,0c0.8-0.2,1.3-0.6,1.7-1.1c0,0,0,0,0,0l0,0
	c0.4-0.6,0.6-1.4,0.8-1.9c0,0,0,0,0,0c-1,0.1-1.8-2.2-2.6-0.7c-0.2-0.3-0.7-0.7-0.3-1.1c1.7,1.2,1.7-1.8,3.3-1.2
	c-1.4-1.6,1.1-2.3,0.4-3.6c-0.6-0.7,0.2-0.8,0.9-1.1c0-1.6-0.3-3.4-1.8-4.3c-2.3-1.2-8.9-0.8-10.2-0.7c0,0-43.5-0.6-43.5-0.6
	c-4.5-0.4-10.3-0.5-11.5,0.9c-0.2,0.2-0.3,0.5-0.5,1c-1.2,3.8-2.5,16-0.9,17.6c1.3,1.2,6.3,0.9,9.2,0.6c0,0,11.3,0.1,13.3,0.3
	c1.9,0.2,2,2.4,2,2.7l-0.4,24.5c0,0,1,33,1,33c0,0,0.4,12.6,0.4,12.6c0,0,0.2,3.7,0.2,3.7l0.9,28.2c-0.6,6.2,0,9.7,1.9,10
	c1.9,0.3,9.5,0.1,10.3,0.1c4.8,0.7,5.5-0.4,5.7-0.7C248.7,134.1,248.7,131.9,248.4,128.4 M267.4,15.5c0.2,0.2,0.2,0.5,0.3,0.8
	c-0.2-0.2-0.8-0.2-1.2-0.1C266.3,15.9,267.2,15.8,267.4,15.5 M266.8,9.9l0.2,0c0.4-0.2,0.9-0.4,1.1-0.1L267,9.9
	C267,9.9,266.9,9.9,266.8,9.9l0.4,0.9l-0.5-0.8C266.7,10,266.8,10,266.8,9.9L266.8,9.9z M266,17.6l-0.7,0.6l-1-1.1L266,17.6z
	 M262.9,19.8c-0.7,0-1.2-0.4-1.6-0.6c0.1-0.5,0.8-1.5,2-2C261.9,18.4,263.5,18.8,262.9,19.8 M263.2,15.5l0.3,0.5l-0.7,0.6
	L263.2,15.5z M258.9,17.2l0.6,0.5l-0.9,0.3L258.9,17.2z M252.3,9.3L253,10l-1.3-0.2L252.3,9.3z M249.5,14c0.2,0.3,0.2,0.9,0.3,1.3
	C248.5,15,249.5,14.7,249.5,14 M249.3,15.8l-0.1-0.1l0.3,0.5c0.7-0.4,1.1,0.9,1.3-0.1c0.9,1.2-0.5,1.8-0.8,2.8l-0.4-0.6l0.4,0
	c1.4-1.2-1.9-2-1.4-2.2C248.9,15.8,249.3,15.4,249.3,15.8 M81.4,99.8l-0.1-0.1l0.3,0.5c0.7-0.4,1.1,0.9,1.3-0.1
	c0.9,1.2-0.5,1.8-0.8,2.8l-0.4-0.6l0.4,0c1.4-1.2-1.9-2-1.4-2.2C81,99.8,81.4,99.4,81.4,99.8 M246.1,17l-0.7,1l0-0.6L246.1,17z
	 M205.8,7.2L205.7,7l0.5-0.9L205.8,7.2z M207.5,3.8c-0.6,0-0.9,0.9-1.6,0.8c0.2-0.7-0.7-0.7-0.4-1.5c0.4-0.4,2.2-0.4,1.4-1.2
	C208.3,2.1,207.1,3.3,207.5,3.8c0.2,0,0.4,0.1,0.6,0.3C207.8,4.1,207.6,4,207.5,3.8 M268.2,18.8c-0.6,0-0.9,0.9-1.6,0.8
	c0.2-0.7-0.7-0.7-0.4-1.5c0.4-0.4,2.2-0.4,1.4-1.2C268.9,17,267.8,18.2,268.2,18.8c0.2,0,0.3,0.1,0.6,0.3
	C268.4,19,268.3,18.9,268.2,18.8 M269.8,15.2c-0.6,0-0.9,0.9-1.6,0.8c0.2-0.7-0.7-0.7-0.4-1.5c0.4-0.4,2.2-0.4,1.4-1.2
	C270.5,13.4,269.4,14.6,269.8,15.2c0.2,0,0.3,0.1,0.6,0.3C270,15.4,269.8,15.3,269.8,15.2 M81.2,102.9c-0.6,0-0.9,0.9-1.6,0.8
	c0.2-0.7-0.7-0.7-0.4-1.5c0.4-0.4,2.2-0.4,1.4-1.2C81.9,101.2,80.8,102.4,81.2,102.9c0.2,0,0.3,0.1,0.6,0.3
	C81.4,103.1,81.3,103,81.2,102.9 M118.1,22.8c-0.6,0-0.9,0.9-1.6,0.8c0.2-0.7-0.7-0.7-0.4-1.5c0.4-0.4,2.2-0.4,1.4-1.2
	C118.8,21.1,117.7,22.3,118.1,22.8c0.2,0,0.3,0.1,0.6,0.3C118.4,23,118.2,22.9,118.1,22.8 M243.6,37.7c-0.6,0-0.9,0.9-1.6,0.8
	c0.2-0.7-0.7-0.7-0.4-1.5c0.4-0.4,2.2-0.4,1.4-1.2C244.3,36,243.2,37.2,243.6,37.7c0.2,0,0.4,0.1,0.6,0.3
	C243.9,37.9,243.7,37.8,243.6,37.7 M245,28.2c-0.6,0-0.9,0.9-1.6,0.8c0.2-0.7-0.7-0.7-0.4-1.5c0.4-0.4,2.2-0.4,1.4-1.2
	C245.8,26.5,244.6,27.7,245,28.2c0.2,0,0.3,0.1,0.6,0.3C245.3,28.5,245.1,28.4,245,28.2 M207.3,6.9c0.1-0.2-0.1-0.8,0.7-0.4
	l-0.2-0.9C208.6,5.9,207.8,7,207.3,6.9 M210.6,6.6l0.3-0.6c0.3,0.1,0.7,0.3,1-0.1C211.5,6.3,211.3,7,210.6,6.6 M239.6,21.2l0.2-1.4
	l0.4,0.6L239.6,21.2z M245.5,25.5l0.3,0.5l-1.1,0.4L245.5,25.5z M243.6,24.9c-0.2-0.3-0.8-0.8-0.3-1.1
	C244.1,24,244.1,24.6,243.6,24.9 M241.3,35.1l1.3-1.4C243.4,34.5,241.8,35.4,241.3,35.1 M235.9,63.2c0.2-0.3,0.6-0.1,0.9-0.1
	C236.7,64,236.1,63.3,235.9,63.2 M241.8,47.7c0,0.1-0.1,0.3-0.5,0.6C241.4,48,241.6,47.8,241.8,47.7c0-0.5-1.9-0.5-1.6-1.4l1.6-1.3
	c-0.3,1.5,1.1,0.2,1.5,1.1C243.2,47.7,242.5,47.1,241.8,47.7 M242.5,55.9c-1,0.1-0.4-0.9-0.5-1.4c0.4,0,0.8,0.2,1-0.2
	C243.4,55,241.1,55.2,242.5,55.9 M239.4,67.5c-0.1-0.4,0.1-0.9,0.5-0.9C239.6,66.9,239.9,67.6,239.4,67.5 M244.9,65.9l0.3,1.1
	l-1.9,0C243.6,66,244.9,67.4,244.9,65.9 M242.7,62.2l-0.2-1.2c0.4-0.4,0.8,0.2,1,0.5L242.7,62.2z M243.1,63.5
	c0.1-0.1,0.2-0.1,0.3,0.1l1,0.2c-0.5,0.7-0.8,0.1-1-0.2L243.1,63.5z M244.3,72.8L244,72c-1.5,0.4-1.1,1.7-2.7,1.3l0.1-1.5
	c0.3-0.2,0.4,1.3,1.3,0.2c0.3-0.6,0.4-1.5,0.7-2.3l-0.9,0.6l0.1,0l-0.7,0.4l0.6-0.4l-0.2,0l1.1-0.6c0.2-0.5,0.4-1,0.8-1.3
	c1.7,1.8-2.1,1.8-0.3,3.4l0.6-0.3C243.9,71.8,245.4,72.1,244.3,72.8 M247.3,75.6l-0.4,1.9l-0.5-0.4L247.3,75.6z M245.9,81
	c-0.8-0.8,0.1-1.1-0.4-2.1c0.2-0.1,0.7-0.6,0.8-0.2C245.7,79,246.7,80.4,245.9,81 M238.2,130.8l0.8-0.9l-0.1,0.9L238.2,130.8z
	 M243.2,133.4l-1-0.7l1.4,0.3L243.2,133.4z M3.4,129.2C3.4,129.2,3.4,129.2,3.4,129.2C3.4,129.2,3.4,129.2,3.4,129.2
	C3.4,129.2,3.4,129.2,3.4,129.2 M243.6,20.7c0.1,0,0.3-0.1,0.4-0.2c0-0.1,0-0.2,0-0.2c0-0.1,0.1-0.3,0.2-0.4L243.6,20.7z M2.1,122.9
	c-0.4,0-0.5,0.2-0.6,0.4c0.1,1.2,0.2,2,0.3,2.5c0,0.1,0.1,0.2,0.1,0.3C1.6,125,1.5,124,2.1,122.9 M269.9,13.3c0,0-0.1,0-0.1,0.1
	c0,0,0.1,0.1,0.1,0.1C269.9,13.4,269.9,13.3,269.9,13.3 M268.9,17l-0.2,1.5c0.4-0.2,0.7-0.7,0.9-1.3c0.3-0.8,0.3-2,0.3-3.4
	c-0.4,0.2-0.5,0.7-0.9,1.5l-0.3-0.1c-0.2,0.6-0.6,1.2-1,1.8C268.1,17.1,268.6,17,268.9,17 M269.5,6.5c-0.1,0.1-0.2,0.2-0.4,0.4
	c0.1,0,0.2,0.1,0.2,0.2C269.4,7,269.5,6.8,269.5,6.5"/>
</svg>
