<?xml version="1.0" encoding="utf-8"?>
<!-- Generator: Adobe Illustrator 18.0.0, SVG Export Plug-In . SVG Version: 6.00 Build 0)  -->
<!DOCTYPE svg PUBLIC "-//W3C//DTD SVG 1.1//EN" "http://www.w3.org/Graphics/SVG/1.1/DTD/svg11.dtd">
<svg version="1.1" id="Layer_1" xmlns="http://www.w3.org/2000/svg" xmlns:xlink="http://www.w3.org/1999/xlink" x="0px" y="0px"
	 viewBox="0 0 424.7 136.5" enable-background="new 0 0 424.7 136.5" xml:space="preserve">
<g>
	<g>
		<path d="M135.6,20.4c1.6,36.3,2.3,58,2.1,65c-0.2,10.2-4.3,15.2-12.3,15c-8.5-0.2-12.6-5.9-12.4-17c0.2-6.7,1.9-27.9,5.1-63.6
			l-31.1-3.4c-3.3,36.5-5,58.6-5.2,66.2c-0.4,14.9,3.5,27.5,11.5,37.7c8,10.2,18.4,15.4,31.2,15.7c12.9,0.3,23.4-4.2,31.6-13.6
			c8.1-9.3,12.4-21.5,12.7-36.5c0.2-8-0.5-30.6-2.2-67.7L135.6,20.4z M414.2,24.4c-7.2-6.4-16.8-10.7-28.8-12.8
			c-25.4-4.6-46-4.9-61.6-1l-1.6,30.4c3.5-0.6,7.2-1,11.2-1.3l-15.8,91.3l29.1,5.6L359,70.3l3.5,14c12.9,2.3,25.4,0.8,37.7-4.6
			c13.7-6,21.7-15.1,24-27.2C426.2,41.4,422.9,32,414.2,24.4z M388.9,50.8c-0.8,4.4-4.8,7.4-11.9,9.1c-4.7,1.1-10.2,1.6-16.4,1.4
			l3.9-21.2c4,0.4,7.9,0.9,11.6,1.6C385.5,43.4,389.7,46.4,388.9,50.8z M28.9,36.9l16.4,3l-7.3,67.4c-2.4,30.5-25.1,8.6-19.4,9.5
			c13.1,2.1,12.7-23.1-5-21.9c-8,0.5-12.6,9.5-13.5,17.2c-1,8.1,4.7,17.8,23.7,22.4c27.7,6.7,36.4-11.9,39.6-38.7l6-50.8l7.9,1.4
			l0.3-4.5l-48.3-9.9L28.9,36.9z M55.9,29.3c11.4,2.1,17.2-3.4,18.8-11.7c1.8-9.5-3.1-15.4-12.9-17.2C49.8-1.7,44.3,4.3,42.8,12
			C41.6,18.5,43.1,27,55.9,29.3z M241.5,57.9L177.7,9.6l10.5,126.3l32.1-2.6L215.5,76l29.4,22.2l25.3-26.6l4.8,57.2l32-2.6L296.5,0
			L241.5,57.9z"/>
	</g>
</g>
</svg>
