<?xml version="1.0" encoding="utf-8"?>
<!-- Generator: Adobe Illustrator 18.0.0, SVG Export Plug-In . SVG Version: 6.00 Build 0)  -->
<!DOCTYPE svg PUBLIC "-//W3C//DTD SVG 1.1//EN" "http://www.w3.org/Graphics/SVG/1.1/DTD/svg11.dtd">
<svg version="1.1" id="Layer_1" xmlns="http://www.w3.org/2000/svg" xmlns:xlink="http://www.w3.org/1999/xlink" x="0px" y="0px"
	 viewBox="0 0 854 136" enable-background="new 0 0 854 136" xml:space="preserve">
<g>
	<g>
		<path d="M15.7,0L0,15.5v46.6l15.7,15.5h43.2v38.9H19.6v-9.7H0v13.6L15.7,136h47.1l15.7-15.5V73.8L62.8,58.3H19.6V19.4h39.3v9.7
			h19.6V15.5L62.8,0H15.7z M98.2,29.1h19.6v-9.7h19.6v97.2h-9.8V136h39.3v-19.4h-9.8V19.4h19.6v9.7h19.6V0H98.2V29.1z M250.3,0
			L216,136h19.6l9.8-38.9h29.4l9.8,38.9h19.6L269.9,0H250.3z M250.3,77.7l9.8-38.9l9.8,38.9H250.3z M387.7,83.5L353.4,0h-29.4v19.4
			h9.8v97.2h-9.8V136h39.3v-19.4h-9.8V52.5l34.4,83.6l34.4-83.6v64.1h-9.8V136h39.3v-19.4h-9.8V19.4h9.8V0h-29.4L387.7,83.5z
			 M471.2,0v19.4h9.8v97.2h-9.8V136h39.3v-19.4h-9.8V77.7h43.2l15.7-15.5V15.5L543.8,0H471.2z M539.9,58.3h-39.3V19.4h39.3V58.3z
			 M579.1,136h78.5v-19.4h-58.9V77.7H638V58.3h-39.3V19.4h58.9V0h-78.5V136z M677.3,0v136h62.8l15.7-15.5V15.5L740.1,0H677.3z
			 M736.2,116.6h-39.3V19.4h39.3V116.6z M854,19.4V0h-78.5v136H854v-19.4h-58.9V77.7h39.3V58.3h-39.3V19.4H854z"/>
	</g>
</g>
</svg>
