<?xml version="1.0" encoding="UTF-8" standalone="no"?>
<!-- Created with Inkscape (http://www.inkscape.org/) -->

<svg
   width="251.63818"
   height="157.04094"
   viewBox="0 0 251.63818 157.04094"
   version="1.1"
   id="svg1"
   xml:space="preserve"
   inkscape:version="1.4 (e7c3feb100, 2024-10-09)"
   sodipodi:docname="jump-shirt-back.svg"
   inkscape:export-filename="jump-shirt-back.png"
   inkscape:export-xdpi="1562.6245"
   inkscape:export-ydpi="1562.6245"
   xmlns:inkscape="http://www.inkscape.org/namespaces/inkscape"
   xmlns:sodipodi="http://sodipodi.sourceforge.net/DTD/sodipodi-0.dtd"
   xmlns="http://www.w3.org/2000/svg"
   xmlns:svg="http://www.w3.org/2000/svg"><sodipodi:namedview
     id="namedview1"
     pagecolor="#ffffff"
     bordercolor="#666666"
     borderopacity="1.0"
     inkscape:showpageshadow="2"
     inkscape:pageopacity="0.0"
     inkscape:pagecheckerboard="0"
     inkscape:deskcolor="#d1d1d1"
     inkscape:document-units="px"
     inkscape:zoom="4.63"
     inkscape:cx="42.764579"
     inkscape:cy="80.993521"
     inkscape:window-width="3440"
     inkscape:window-height="1395"
     inkscape:window-x="0"
     inkscape:window-y="22"
     inkscape:window-maximized="1"
     inkscape:current-layer="layer1" /><defs
     id="defs1"><inkscape:path-effect
       effect="simplify"
       id="path-effect36"
       is_visible="true"
       lpeversion="1.3"
       threshold="5"
       steps="14.445122"
       smooth_angles="360"
       helper_size="10"
       simplify_individual_paths="false"
       simplify_just_coalesce="false" /><inkscape:path-effect
       effect="simplify"
       id="path-effect35"
       is_visible="true"
       lpeversion="1.3"
       threshold="0.01"
       steps="1"
       smooth_angles="360"
       helper_size="10"
       simplify_individual_paths="false"
       simplify_just_coalesce="false" /><inkscape:path-effect
       effect="simplify"
       id="path-effect34"
       is_visible="true"
       lpeversion="1.3"
       threshold="65.490177"
       steps="4.6858407"
       smooth_angles="360"
       helper_size="10"
       simplify_individual_paths="false"
       simplify_just_coalesce="false" /><inkscape:path-effect
       effect="simplify"
       id="path-effect33"
       is_visible="true"
       lpeversion="1.3"
       threshold="6.1"
       steps="11"
       smooth_angles="360"
       helper_size="10"
       simplify_individual_paths="false"
       simplify_just_coalesce="false" /><inkscape:path-effect
       effect="powerstroke"
       message=""
       id="path-effect8"
       is_visible="true"
       lpeversion="1.3"
       scale_width="1"
       interpolator_type="CentripetalCatmullRom"
       interpolator_beta="0.2"
       start_linecap_type="zerowidth"
       end_linecap_type="zerowidth"
       offset_points="21.5,0.52349502"
       linejoin_type="round"
       miter_limit="4"
       not_jump="false"
       sort_points="true" /><inkscape:path-effect
       effect="simplify"
       id="path-effect1"
       is_visible="true"
       lpeversion="1.3"
       threshold="19.034646"
       steps="19.429204"
       smooth_angles="360"
       helper_size="10.486726"
       simplify_individual_paths="false"
       simplify_just_coalesce="false" /><inkscape:path-effect
       effect="fill_between_many"
       method="bsplinespiro"
       autoreverse="false"
       close="false"
       join="false"
       linkedpaths="#path1,0,1"
       id="path-effect9"
       is_visible="true"
       lpeversion="0" /><mask
       maskUnits="userSpaceOnUse"
       id="mask38"><rect
         style="fill:#ffffff;fill-opacity:1"
         id="rect38"
         width="55.351357"
         height="63.351349"
         x="97.513512"
         y="144" /></mask></defs><g
     inkscape:label="Layer 1"
     inkscape:groupmode="layer"
     id="layer1"
     transform="translate(-2.1809093,-49.479534)"><g
       id="g50"
       inkscape:label="cow-and-moon"
       transform="matrix(1.0552494,0,0,1.0552494,-14.655369,1.2641775)"><path
         id="path33"
         style="display:inline;fill:#eeb001;fill-opacity:1;stroke-width:1.00259"
         d="m 163.48242,143.78516 c -11.30309,1.1e-4 -20.46616,8.63416 -20.4668,19.28515 -4.9e-4,10.65175 9.1629,19.287 20.4668,19.28711 1.1682,-0.011 2.21355,0.36357 3.17774,-0.37304 0.37632,-0.28751 0.29071,-0.35113 0.35156,-0.64454 0.0186,-0.0898 0.0208,-0.2694 -0.0117,-0.35546 -0.0887,-0.23512 -0.10465,-0.31973 -0.36719,-0.53321 -0.23307,-0.18952 -0.51325,-0.29299 -0.79687,-0.42773 -0.13783,-0.0673 -0.54323,-0.23565 -0.75586,-0.28321 -0.2666,-0.0596 -0.54053,-0.0816 -0.8125,-0.10742 -0.31422,-0.0298 -0.63611,0.009 -0.94531,-0.0547 -0.23463,-0.0481 -0.45858,-0.14322 -0.67579,-0.24414 -0.35921,-0.1669 -0.71723,-0.34981 -1.02929,-0.59375 -0.27642,-0.21608 -0.49787,-0.49515 -0.73047,-0.75781 -0.20803,-0.23491 -0.45563,-0.44872 -0.59375,-0.73047 -0.12241,-0.24971 -0.15069,-0.53712 -0.18945,-0.8125 -0.0252,-0.17881 -0.0669,-0.36483 -0.0274,-0.54101 0.0335,-0.14921 0.10799,-0.29685 0.2168,-0.4043 0.18067,-0.17842 0.43868,-0.26069 0.67578,-0.35156 0.30448,-0.11669 0.62877,-0.17427 0.94727,-0.24414 0.29537,-0.0648 0.60692,-0.0629 0.89257,-0.16211 0.1637,-0.0568 0.32807,-0.1306 0.45899,-0.24414 0.0926,-0.0803 0.16485,-0.18588 0.2168,-0.29688 0.0787,-0.16835 0.13775,-0.35519 0.13476,-0.54101 -0.002,-0.13126 -0.03,-0.27287 -0.10742,-0.37891 -0.11517,-0.15782 -0.31269,-0.23855 -0.48828,-0.32422 -0.12767,-0.0623 -0.27475,-0.0765 -0.4043,-0.13476 -0.0665,-0.0299 -0.15299,-0.0462 -0.18945,-0.10938 -0.22021,-0.25984 -0.45481,-0.48257 -0.68414,-0.72708 0,0 -0.11715,-0.13754 -0.30763,-0.36293 -0.0723,-0.0855 -0.0847,-0.28649 -0.0903,-0.39827 -0.01,-0.19659 0.007,-0.19045 0.0527,-0.26953 0.0419,-0.0718 0.11025,-0.13691 0.18945,-0.16211 0.19002,-0.0605 0.39876,0.0235 0.59571,0.0547 0.28283,0.0448 0.55626,0.1377 0.83789,0.18945 0.56461,0.10375 1.15206,0.3962 1.70508,0.24219 0.12303,-0.0343 0.22114,-0.13936 0.29687,-0.24219 0.0579,-0.0786 0.0914,-0.17559 0.10938,-0.27148 0.14311,-0.76213 0.2275,-1.59376 -0.0274,-2.32618 -0.0486,-0.13985 -0.17001,-0.24374 -0.27148,-0.35156 -0.0658,-0.0699 -0.21035,-0.0937 -0.2168,-0.18945 -0.006,-0.0958 0.1099,-0.16311 0.18945,-0.2168 0.18226,-0.12302 0.41082,-0.15926 0.62305,-0.2168 0.13321,-0.0361 0.26832,-0.0853 0.40625,-0.0801 0.1681,0.006 0.33057,0.0712 0.48633,0.13476 0.0861,0.0351 0.17227,0.0758 0.24414,0.13477 0.11859,0.0973 0.17255,0.26172 0.29687,0.35156 0.19676,0.14219 0.43843,0.22058 0.67579,0.27148 0.22043,0.0473 0.45034,0.0283 0.67578,0.0274 0.18057,-9.1e-4 0.36442,0.0103 0.54101,-0.0274 0.17073,-0.0364 0.3307,-0.1143 0.48828,-0.18945 0.19636,-0.0936 0.40839,-0.1747 0.56641,-0.32422 0.13301,-0.12585 0.24139,-0.28706 0.29883,-0.46093 0.13321,-0.40326 0.0761,-0.84684 0.0801,-1.27149 0.001,-0.15243 -0.008,-0.30498 -0.0195,-0.45703 -0.009,-0.12768 -0.024,-0.2557 -0.0391,-0.38281 -0.0247,-0.20785 -0.0517,-0.4146 -0.0859,-0.6211 -0.0666,-0.40221 -0.15383,-0.80074 -0.23047,-1.20117 -0.0822,-0.42965 -0.15567,-0.86106 -0.2461,-1.28906 -0.0399,-0.18897 -0.0818,-0.37765 -0.13086,-0.56445 -0.0234,-0.0893 -0.0624,-0.17468 -0.0781,-0.26563 -0.20001,-1.15853 -0.55474,-2.40148 -0.19727,-3.52148 0.11393,-0.22513 0.28228,-0.43836 0.50196,-0.54102 0.40759,-0.19048 0.57987,-0.26289 0.96875,-0.39844 0.12003,-0.0748 0.20664,-0.11436 0.31835,-0.20117 0.4131,-0.321 0.0474,-0.0188 0.48243,-0.42773 0.30489,-0.28654 0.32163,-0.24288 0.48828,-0.35157 0.25677,-0.16747 0.012,0.004 0.26172,-0.21679 0.13531,-0.21434 0.3634,-0.56238 0.3789,-0.97071 0.12391,-0.67132 0.13376,-0.71565 0.13086,-1.48632 -1.1e-4,-0.0296 -0.007,-0.44591 0,-0.47461 0.0208,-0.08 -3.1e-4,-0.17369 0.043,-0.24414 0.0379,-0.0618 0.10904,-0.0983 0.17383,-0.13086 0.12127,-0.061 0.25802,-0.0862 0.39062,-0.11524 0.1671,-0.0367 0.33753,-0.0579 0.50782,-0.0742 0.19657,-0.0189 0.39521,-0.0461 0.59179,-0.0273 0.16332,0.0156 0.3215,0.0677 0.47852,0.11523 0.29471,0.0892 0.58387,0.19775 0.86719,0.31836 0.20254,0.0862 0.3986,0.18722 0.59375,0.28907 0.21084,0.11004 0.41777,0.22755 0.62304,0.34765 0.17531,0.10257 0.34716,0.21091 0.51954,0.31836 0.0536,0.0334 0.10434,0.0719 0.16015,0.10156 0.2497,0.13276 0.77734,0.33985 0.77735,0.33985 0,0 0.0118,0.0124 0.0195,0.0156 0.21775,0.0909 0.46779,0.0993 0.70312,0.082 0.13246,-0.01 0.26978,-0.037 0.38477,-0.10351 0.11797,-0.0682 0.22089,-0.17107 0.28906,-0.28906 0.0678,-0.11732 0.0877,-0.25824 0.10547,-0.39258 0.0454,-0.34402 0.0454,-0.697 0,-1.04102 -0.0388,-0.2934 -0.4336,-0.91601 -0.4336,-0.91601 -3.87307,-4.74083 -9.6586,-7.46083 -16.00781,-7.46289 z m -1.63672,3.8125 c 0.63993,-0.0427 1.29401,-0.0391 1.92188,0.0918 0.62796,0.13086 1.79883,0.6836 1.79883,0.6836 0,0 -0.45093,0.34014 -0.71289,0.43359 -0.49161,0.17538 -1.04785,0.0772 -1.55079,0.2168 -0.3682,0.10221 -0.7093,0.28574 -1.05468,0.44922 -1.05966,0.50158 -2.13039,0.9959 -3.11719,1.6289 -0.8804,0.56475 -1.70279,1.22242 -2.48047,1.92188 -0.671,0.60352 -1.29289,1.26347 -1.875,1.95312 -0.58875,0.69752 -1.13855,1.43129 -1.62891,2.20117 -0.40111,0.62976 -0.74023,1.29807 -1.06836,1.96875 -0.31735,0.64865 -0.64035,1.29946 -0.86914,1.98438 -0.14985,0.44859 -0.20556,0.92354 -0.32617,1.38086 -0.18798,0.71279 -0.48914,1.39744 -0.61914,2.12305 -0.11522,0.64309 -0.12142,1.30197 -0.13867,1.95507 -0.022,0.83188 -0.11381,1.67921 0.0449,2.4961 0.0802,0.41268 0.3362,0.77336 0.45117,1.17773 0.12089,0.4252 0.13455,0.87551 0.24805,1.30274 0.073,0.2748 0.21921,0.52832 0.27734,0.80664 0.0529,0.25319 -0.007,0.52427 0.0625,0.77343 0.09,0.32311 0.50309,0.56934 0.44922,0.9004 -0.0117,0.0718 -0.0838,0.13635 -0.15429,0.15429 -0.22958,0.0584 -0.47705,-0.0817 -0.68164,-0.20117 -0.81433,-0.47536 -1.40388,-1.26482 -2.03125,-1.96875 -0.52486,-0.58891 -1.03853,-1.19873 -1.44141,-1.87695 -0.50225,-0.84549 -0.92045,-1.75304 -1.19531,-2.69727 -0.20296,-0.69725 -0.26057,-1.43091 -0.32422,-2.1543 -0.0698,-0.79343 -0.13037,-1.59507 -0.0625,-2.38867 0.088,-1.02854 0.30942,-2.04818 0.60547,-3.03711 0.25605,-0.85532 0.62193,-1.67636 1.00586,-2.48242 0.32228,-0.67663 0.66926,-1.34579 1.08593,-1.96875 0.45991,-0.6876 0.98069,-1.27709 1.55078,-1.9375 0.57009,-0.66041 1.19887,-1.39523 1.875,-2.01562 0.5321,-0.48823 1.09869,-0.94488 1.70704,-1.33399 0.68509,-0.4382 1.41455,-0.81394 2.16992,-1.11523 0.92485,-0.36889 1.89832,-0.60827 2.86719,-0.83789 1.05877,-0.25092 2.12525,-0.51539 3.21093,-0.58789 z m 2.47266,4.86914 c 0.12064,-0.007 0.24255,0.007 0.36133,0.0293 0.0988,0.0185 0.19651,0.0467 0.28906,0.0859 0.0819,0.0347 0.16034,0.0788 0.23242,0.13086 0.11059,0.0799 0.20214,0.18325 0.30274,0.27539 0.12605,0.11545 0.24728,0.23629 0.37695,0.34766 0.16375,0.14064 0.33946,0.26679 0.50586,0.40429 0.0634,0.0524 0.11038,0.0888 0.1875,0.11719 0.0592,0.0219 0.12817,0.0277 0.18945,0.043 0.0687,0.0171 0.14489,0.0431 0.1875,0.0996 0.0565,0.0749 0.0752,0.18302 0.0586,0.27539 -0.0112,0.0622 -0.054,0.11859 -0.10157,0.16016 -0.0518,0.0452 -0.12033,0.0713 -0.1875,0.0859 -0.0712,0.0155 -0.14766,0.0162 -0.21875,0 -0.13031,-0.0297 -0.18935,-0.033 -0.31445,-0.0801 -0.0658,-0.0248 -0.18974,-0.11429 -0.25,-0.15039 -0.0915,-0.0549 -0.18818,-0.16923 -0.3125,-0.26954 -0.12433,-0.1003 -0.27488,-0.17875 -0.45312,-0.29492 -0.12818,-0.0835 -0.20741,-0.13502 -0.3379,-0.21484 -0.11673,-0.0714 -0.25481,-0.1601 -0.40039,-0.24024 -0.0981,-0.054 -0.2383,-0.10497 -0.36914,-0.21093 -0.0512,-0.0415 -0.15255,-0.16789 -0.16601,-0.23243 -0.009,-0.0424 -0.0222,-0.0861 -0.0156,-0.1289 0.009,-0.0579 0.0264,-0.12371 0.0723,-0.16016 0.0966,-0.0768 0.24002,-0.0651 0.36328,-0.0723 z m -2.58984,2.36523 0.88281,0.043 c 0.5645,0.0842 0.32687,-0.0146 0.96289,0.31641 0.81768,0.83432 1.2827,1.24005 0.94336,1.97851 -0.33853,0.73856 -1.58435,0.60502 -2.9082,-0.084 -1.32438,-0.68916 -1.68814,-1.10875 -1.34961,-1.84766 0.16277,-0.35487 0.86031,-0.33184 1.46875,-0.40625 z m -2.5254,4.49024 c 0.0513,0.002 0.10384,0.006 0.15235,0.0234 0.0694,0.0242 0.12988,0.0692 0.19141,0.10938 0.0943,0.0616 0.17631,0.14093 0.27148,0.20117 0.0992,0.0628 0.19956,0.12781 0.31055,0.16602 0.14371,0.0495 0.29814,0.0617 0.44921,0.0781 0.17557,0.0191 0.35272,0.0206 0.5293,0.0234 0.16536,0.003 0.33107,-0.0163 0.4961,-0.006 0.0787,0.005 0.16015,0.006 0.23437,0.0332 0.11218,0.0405 0.21743,0.10621 0.30469,0.1875 0.0498,0.0464 0.11473,0.0981 0.11914,0.16602 0.007,0.10987 -0.0517,0.14382 -0.14453,0.20312 -0.13848,0.0885 -0.23615,0.0839 -0.40039,0.0898 -0.25441,0.009 -0.3004,-0.005 -0.55469,-0.0176 -0.2224,-0.0106 -0.52584,-0.0395 -0.74023,-0.0996 -0.10798,-0.0302 -0.46145,-0.0394 -0.5625,-0.0879 -0.13938,-0.0669 -0.25806,-0.10511 -0.39454,-0.17774 -0.15034,-0.08 -0.30727,-0.15152 -0.44336,-0.2539 -0.071,-0.0534 -0.14101,-0.11236 -0.1914,-0.18555 -0.0253,-0.0368 -0.0448,-0.0791 -0.0527,-0.12305 -0.008,-0.0423 -0.006,-0.0875 0.006,-0.1289 0.0132,-0.0471 0.0349,-0.0951 0.0703,-0.12891 0.0325,-0.0309 0.0777,-0.0473 0.12109,-0.0586 0.0738,-0.0193 0.15231,-0.0172 0.22851,-0.0137 z m -5.22851,2.45117 c 0.0385,0.004 0.0766,0.0141 0.11328,0.0234 0.25475,0.0633 0.5125,0.16134 0.7168,0.32617 0.20784,0.16769 0.34748,0.40988 0.47851,0.64257 0.0824,0.14634 0.16401,0.30081 0.18946,0.4668 0.0389,0.25374 -0.011,0.51609 -0.0625,0.76758 -0.04,0.19504 -0.10301,0.38707 -0.18946,0.56641 -0.0566,0.11745 -0.16209,0.20805 -0.21289,0.32812 -0.0739,0.17468 -0.16222,0.32848 -0.23437,0.50391 -0.0545,0.1325 -0.0806,0.27801 -0.11914,0.41601 -0.0925,0.33177 -0.0242,0.69066 0.0117,1.03321 0.0201,0.19149 0.0687,0.37909 0.11328,0.5664 0.0514,0.2162 0.15638,0.42137 0.17773,0.64258 0.0364,0.37699 -0.0879,1.13281 -0.0879,1.13281 0,0 -0.21031,0.005 -0.30273,-0.0371 -0.11355,-0.052 -0.20075,-0.1533 -0.27735,-0.25195 -0.099,-0.12744 -0.1745,-0.27502 -0.22656,-0.42773 -0.0646,-0.18945 -0.0854,-0.3923 -0.10156,-0.5918 -0.0799,-0.9877 -0.0356,-1.98361 0.0254,-2.97266 0.0112,-0.18184 0.0237,-0.36497 0.0625,-0.54297 0.0376,-0.17259 0.13771,-0.32923 0.16406,-0.5039 0.0382,-0.25303 0.049,-0.51899 -0.0117,-0.76758 -0.0356,-0.14566 -0.11016,-0.28317 -0.20117,-0.40234 -0.096,-0.12569 -0.1712,-0.18983 -0.29883,-0.28321 -0.0604,-0.0442 -0.0855,-0.0465 -0.10156,-0.125 -0.0101,-0.0493 -0.0358,-0.0768 -0.0156,-0.14648 0.037,-0.12778 0.0271,-0.1693 0.10743,-0.24024 0.0651,-0.0525 0.10517,-0.0904 0.16992,-0.11328 0.0357,-0.0126 0.0747,-0.014 0.11328,-0.01 z"
         sodipodi:nodetypes="sccsscscsscssssssssscsccsssscsscsssssccscsscssssccsssccsssscscscscsccscccccssssssccccssccccsccsssssssssssssssssssssssssssszssssscccssssccsscssscssssscccccccscccccsssscscscscccsssscccccscssscssscscsccsscsssssssscsssscscc"
         inkscape:label="moon" /><g
         id="g49"
         inkscape:label="cow"><path
           id="path45"
           style="fill:#2c4293;fill-opacity:1"
           d="m 203.67383,45.691406 c -1.0806,-0.0037 -2.16199,0.01493 -3.24024,0.07813 -1.62767,0.09539 -3.24163,0.345555 -4.85937,0.548828 -2.0961,0.26338 -4.2118,0.433112 -6.2793,0.867188 -1.45197,0.304843 -2.88964,0.702435 -4.28125,1.216797 -1.51372,0.559497 -2.9551,1.301533 -4.39844,2.023437 -1.43178,0.71612 -2.81913,1.517073 -4.22265,2.28711 -1.54796,0.849285 -3.12737,1.645328 -4.62891,2.574218 -1.10327,0.68251 -2.18599,1.403922 -3.21094,2.199219 -1.22562,0.951006 -2.37938,1.995706 -3.50195,3.066406 -1.05617,1.007361 -1.98879,2.136817 -3.03711,3.152344 -0.97101,0.940634 -1.96951,1.857269 -3.00976,2.720703 -1.24965,1.037237 -2.58593,1.963358 -3.875,2.951172 -1.0151,0.777869 -2.02757,1.561209 -3.03907,2.34375 -1.11987,0.866377 -2.22306,1.753602 -3.35546,2.603516 -0.59088,0.443479 -1.14392,0.94786 -1.79297,1.300781 -1.15328,0.627096 -2.4657,0.909074 -3.67579,1.417969 -1.67079,0.702637 -3.28901,1.524114 -4.94726,2.255859 -1.37166,0.605281 -2.81218,1.063186 -4.13672,1.765625 -0.7397,0.392283 -1.43509,0.865678 -2.11133,1.359375 -1.26155,0.921008 -2.40604,1.994117 -3.61719,2.980469 -0.7871,0.641017 -1.57937,1.274848 -2.37109,1.910156 -0.77058,0.618339 -1.50875,1.279749 -2.31445,1.851563 -0.77027,0.546664 -1.5299,1.141974 -2.40235,1.503906 -1.06958,0.443711 -2.25065,0.547425 -3.38476,0.78125 -1.37278,0.283034 -2.75845,0.496962 -4.13672,0.751953 -3.43512,0.635526 -6.87861,1.226119 -10.29883,1.9375 -2.63399,0.547851 -5.236738,1.248838 -7.871092,1.794922 -3.496686,0.724839 -7.024886,1.280278 -10.529297,1.966797 -2.308891,0.452315 -4.614561,0.92922 -6.916015,1.417968 -2.15381,0.457394 -4.3039,0.930813 -6.451172,1.417973 -1.815855,0.41197 -3.609825,0.92579 -5.439453,1.27149 -0.794686,0.15015 -1.592105,0.37494 -2.400391,0.34765 -0.413993,-0.014 -0.828585,-0.11013 -1.214844,-0.25976 -0.374783,-0.14519 -0.753735,-0.32634 -1.041015,-0.60743 -0.250623,-0.24522 -0.493574,-0.55054 -0.550782,-0.89648 -0.05,-0.30238 0.09132,-0.613083 0.203125,-0.898443 0.15448,-0.394259 0.406645,-0.742169 0.636719,-1.097656 0.322832,-0.498807 0.764123,-0.921566 1.041016,-1.447265 0.238826,-0.453426 0.390128,-0.951909 0.521484,-1.447266 0.15808,-0.596139 0.305051,-1.205667 0.318359,-1.822266 0.0097,-0.447262 -0.02117,-0.909561 -0.173828,-1.330078 -0.128713,-0.354575 -0.291169,-0.749468 -0.607422,-0.955078 -0.327022,-0.212613 -0.768368,-0.160518 -1.158203,-0.173828 -0.957277,-0.03268 -1.912058,0.120074 -2.863281,0.232422 -1.182491,0.139663 -2.386547,0.22104 -3.53125,0.548828 -0.755975,0.216475 -1.487365,0.531907 -2.167969,0.925781 -0.679426,0.393192 -1.296454,0.89386 -1.880859,1.417969 -0.660271,0.592147 -1.174733,1.331449 -1.822266,1.9375 -0.720308,0.674164 -1.478092,1.316206 -2.287109,1.880859 -1.329158,0.927684 -2.796103,1.640781 -4.195313,2.458991 -1.50347,0.87918 -2.955817,1.85015 -4.511718,2.63281 -1.358594,0.68341 -2.827043,1.12914 -4.195313,1.79297 -0.652293,0.31646 -1.349938,0.58276 -1.910156,1.04297 -0.3492,0.28686 -0.479655,0.80853 -0.867187,1.04101 -0.895272,0.53708 -2.031828,0.49669 -3.066407,0.63672 -0.890605,0.12055 -1.795449,0.10334 -2.691406,0.17383 -1.351745,0.10634 -2.721748,0.1063 -4.050781,0.375 -0.971579,0.19642 -1.97946,0.39416 -2.833985,0.89649 -1.017424,0.59809 -1.9074,1.45922 -2.576171,2.43164 -0.200936,0.29217 -0.342842,0.63319 -0.404297,0.98242 -0.118771,0.67494 -0.181126,1.42356 0.08594,2.05469 0.295077,0.69734 1.058036,1.08375 1.5625,1.64843 0.638359,0.71456 1.219095,1.47944 1.851563,2.19922 0.518119,0.58964 1.052375,1.16611 1.591797,1.73633 0.388981,0.41119 0.88198,0.7371 1.185546,1.21483 0.13257,0.20863 0.255656,0.44822 0.261719,0.69532 0.0062,0.25306 -0.09283,0.51148 -0.232422,0.72265 -0.309163,0.46772 -0.902391,0.67929 -1.273437,1.09961 -0.115057,0.13034 -0.228006,0.27082 -0.289063,0.4336 -0.07856,0.20943 -0.167841,0.45786 -0.08594,0.66601 0.132923,0.33781 0.562112,0.45729 0.83789,0.69336 0.596845,0.5109 1.100526,1.1443 1.765625,1.5625 0.779345,0.49003 1.693094,0.72597 2.546875,1.07031 0.843746,0.34029 1.726651,0.58672 2.544922,0.98438 1.01896,0.49519 1.99275,1.08612 2.921875,1.73437 0.652188,0.45503 1.283132,0.94972 1.851563,1.50586 0.841145,0.82295 1.576661,1.74988 2.285156,2.68946 0.669903,0.8884 1.270433,1.82849 1.851562,2.77734 0.617881,1.00885 1.126157,2.08216 1.736329,3.0957 0.63327,1.0519 0.954562,2.44552 1.996093,3.09571 0.486036,0.30341 1.134536,0.1799 1.707032,0.20312 0.781031,0.0317 1.564675,-0.0222 2.34375,-0.0859 1.375771,-0.11245 2.758555,-0.22831 4.107422,-0.52148 0.602082,-0.13086 1.20868,-0.28727 1.765624,-0.55078 0.396513,-0.18761 0.706225,-0.52858 1.09961,-0.72266 0.421204,-0.2078 0.865494,-0.39391 1.330078,-0.46288 0.238668,-0.0354 0.496613,-0.0551 0.722656,0.0293 0.173547,0.0648 0.329591,0.19569 0.435547,0.34764 0.08721,0.12508 0.131097,0.28172 0.144531,0.43361 0.03521,0.39805 -0.190444,0.78628 -0.173828,1.18554 0.0177,0.42536 0.103259,0.86107 0.289063,1.24415 0.107796,0.22221 0.343447,0.36192 0.46289,0.57812 0.113563,0.20555 0.245595,0.43167 0.230469,0.66602 -0.01389,0.21519 -0.184541,0.38951 -0.289062,0.57812 -0.09862,0.17796 -0.18282,0.36974 -0.31836,0.52148 -0.585998,0.65603 -1.410608,1.05281 -2.082031,1.6211 -0.750167,0.63494 -1.359638,1.4399 -2.169922,1.99609 -0.824934,0.56624 -1.822163,0.83454 -2.691406,1.33008 -1.259472,0.71801 -2.515539,1.46355 -3.644531,2.37305 -0.876222,0.70587 -1.598082,1.58222 -2.400391,2.37109 -1.346957,1.3244 -2.662191,2.68417 -4.050781,3.96485 -2.150687,1.98355 -4.430554,3.82082 -6.625,5.75585 -1.659707,1.4635 -3.276616,2.97674 -4.947266,4.42774 -1.152249,1.00076 -2.297637,2.01372 -3.501953,2.95117 -0.796174,0.61975 -1.66961,1.13528 -2.458984,1.76367 -0.422314,0.33619 -0.725331,0.84284 -1.214844,1.07031 -0.415571,0.19312 -0.969403,-0.0376 -1.359375,0.20313 -0.642072,0.39623 -1.007531,1.15722 -1.302734,1.85156 -0.119141,0.28023 -0.148957,0.59285 -0.171876,0.89649 -0.05375,0.71219 -0.276515,1.52521 0.08594,2.14062 0.26355,0.44748 0.858956,0.59204 1.330078,0.81055 0.857622,0.39776 1.799739,0.58237 2.691406,0.89648 0.679208,0.23926 1.32895,0.56882 2.025391,0.75196 1.652911,0.43466 3.354685,0.74412 5.0625,0.81054 0.357716,0.0139 0.756857,0.087 1.070313,-0.0859 0.675525,-0.37265 0.959014,-1.21079 1.388671,-1.85157 0.356456,-0.53161 0.75026,-1.05469 0.984375,-1.65039 0.151514,-0.38552 0.0844,-0.83956 0.259766,-1.21484 0.165791,-0.35478 0.392929,-0.7145 0.722656,-0.92578 0.458894,-0.29404 1.05715,-0.26919 1.591797,-0.375 0.718538,-0.1422 1.48174,-0.0968 2.169922,-0.34766 0.475484,-0.17332 0.903834,-0.4698 1.302734,-0.78125 0.376239,-0.29376 0.760768,-0.60762 1.011719,-1.01367 0.192393,-0.3113 0.263216,-0.68494 0.347656,-1.04102 0.155141,-0.65422 0.137641,-1.341 0.289063,-1.99609 0.120883,-0.52297 0.300658,-1.03177 0.492187,-1.5332 0.312703,-0.81866 0.599521,-1.66124 1.070313,-2.40039 0.624317,-0.98019 1.45805,-1.81646 2.285156,-2.63282 0.988661,-0.97582 2.194776,-1.71377 3.181641,-2.6914 0.850112,-0.84216 1.574244,-1.80235 2.34375,-2.71875 0.528837,-0.62979 1.084998,-1.24061 1.5625,-1.91016 0.223769,-0.31376 0.325701,-0.7214 0.607422,-0.98437 0.151363,-0.14129 0.34599,-0.25851 0.550781,-0.28907 0.2039,-0.0304 0.419573,0.0323 0.607422,0.11719 0.20038,0.0906 0.378513,0.23556 0.519531,0.4043 0.146602,0.17543 0.274168,0.38311 0.318359,0.60742 0.05991,0.3041 -0.0085,0.62566 -0.08594,0.92578 -0.144555,0.56036 -0.467572,1.05979 -0.695313,1.5918 -0.539205,1.25959 -0.98584,2.55923 -1.589843,3.78906 -0.43977,0.89543 -0.963014,1.74826 -1.476563,2.60352 -0.49993,0.83258 -1.061073,1.6273 -1.5625,2.45898 -0.642309,1.06535 -1.296372,2.127 -1.851562,3.24024 -0.468496,0.9394 -0.676346,2.0116 -1.244141,2.89453 -0.380351,0.59145 -0.971431,1.01768 -1.416016,1.5625 -0.423163,0.51857 -0.723128,1.13712 -1.1875,1.61914 -0.571586,0.5933 -1.265112,1.05716 -1.9375,1.5332 -0.781746,0.55346 -1.697971,0.91743 -2.43164,1.5332 -0.758248,0.6364 -1.374635,1.42868 -1.996094,2.19922 -0.156239,0.19372 -0.352027,0.37229 -0.433594,0.60742 -0.06645,0.19155 -0.08342,0.41204 -0.0293,0.60743 0.05569,0.20105 0.215391,0.36014 0.347657,0.52148 0.345858,0.42188 0.714975,0.83821 1.158203,1.15625 0.83046,0.5959 1.799834,0.97772 2.748047,1.35937 1.069512,0.43048 2.214166,0.64686 3.296875,1.04297 0.89312,0.32675 1.743987,0.76135 2.632812,1.09961 0.857944,0.32651 1.733553,0.60937 2.605469,0.89649 0.672108,0.22132 1.31684,0.59884 2.023437,0.63672 0.294617,0.0158 0.639142,0.011 0.869141,-0.17383 0.205331,-0.16497 0.264159,-0.46685 0.318359,-0.72461 0.05358,-0.25481 0,-0.52087 0,-0.78125 0,-0.27002 -0.0283,-0.54005 0,-0.8086 0.06303,-0.59816 0.138796,-1.21247 0.375,-1.76562 0.22899,-0.53626 0.580052,-1.02711 0.984375,-1.44727 0.506882,-0.52673 1.187973,-0.85279 1.765625,-1.30078 0.265408,-0.20583 0.637113,-0.33335 0.78125,-0.63672 0.169679,-0.35713 -0.140922,-0.81612 0,-1.18554 0.387056,-1.01466 1.389926,-1.67402 2.167969,-2.43164 1.411909,-1.37485 3.0196,-2.53328 4.513672,-3.81836 1.699514,-1.46179 3.399923,-2.92211 5.0625,-4.42578 0.910851,-0.82379 1.819663,-1.65251 2.691406,-2.51758 0.944174,-0.93695 1.772061,-1.98882 2.748047,-2.89259 1.076373,-0.99672 2.150991,-2.03122 3.414063,-2.77734 0.841864,-0.4973 1.764212,-0.89671 2.720703,-1.09961 1.113823,-0.23627 2.273527,-0.10773 3.412109,-0.11524 1.398601,-0.009 2.80387,-0.0557 4.195313,0.0859 1.11213,0.11319 2.19963,0.40393 3.298828,0.60742 0.829492,0.15356 1.669563,0.25957 2.488281,0.46289 1.412027,0.35066 2.768858,0.89687 4.166016,1.30274 1.534309,0.44571 3.067356,0.90602 4.628906,1.24414 1.270602,0.27512 2.554312,0.50498 3.847662,0.63672 1.71864,0.17506 3.4503,0.18206 5.17773,0.20117 1.13805,0.0126 2.28155,0.0563 3.41406,-0.0566 2.2831,-0.22757 4.5435,-0.68821 6.76954,-1.24414 1.26646,-0.31628 2.49415,-0.77442 3.73242,-1.1875 1.99629,-0.66596 3.9873,-1.35168 5.96094,-2.08203 1.91299,-0.7079 3.82447,-1.42477 5.69921,-2.22852 1.96674,-0.8432 3.87649,-1.81138 5.81446,-2.71875 2.46929,-1.15614 4.91751,-2.359 7.40625,-3.47266 2.01924,-0.90357 4.07085,-1.73511 6.10547,-2.60351 2.77765,-1.18553 5.58135,-2.31178 8.33203,-3.5586 1.21787,-0.55203 2.45173,-1.07544 3.61523,-1.73437 0.94492,-0.53514 1.84255,-1.15611 2.72071,-1.79492 1.24837,-0.90813 2.51545,-1.80924 3.61523,-2.89258 0.71252,-0.70187 1.33988,-1.49281 1.91016,-2.31445 1.35249,-1.94861 2.31621,-4.14151 3.55859,-6.16211 0.76633,-1.24636 1.57088,-2.4686 2.40039,-3.67383 0.78306,-1.13774 1.56316,-2.28347 2.43164,-3.35742 0.98754,-1.22119 2.10469,-2.32996 3.15234,-3.5 0.86118,-0.96178 1.65341,-1.98772 2.57422,-2.89258 0.64386,-0.6327 1.29445,-1.2789 2.05469,-1.76563 0.52697,-0.33739 1.10314,-0.61738 1.70703,-0.78125 0.83255,-0.22592 1.7133,-0.20501 2.57422,-0.25976 3.66809,-0.23328 7.3487,-0.21438 11.02344,-0.28906 1.34033,-0.0272 2.6819,-0.006 4.02148,-0.0586 1.50634,-0.0591 3.0085,-0.37287 4.51367,-0.28906 0.93874,0.0523 1.87024,0.24496 2.77735,0.49219 1.17175,0.31936 2.28598,0.82353 3.41406,1.27343 2.08303,0.83076 4.10293,1.81585 6.19141,2.63282 1.81238,0.70897 3.76138,1.08467 5.49609,1.96679 0.77964,0.39646 1.36875,1.12369 2.16992,1.47461 0.77995,0.34162 1.63687,0.56675 2.48828,0.57813 0.43307,0.006 0.90793,-0.0274 1.27344,-0.25977 0.47692,-0.30317 0.6651,-0.91303 1.01172,-1.35937 0.47944,-0.61737 1.20423,-1.08957 1.47656,-1.82227 0.10757,-0.2894 0.10063,-0.62586 0.0273,-0.92578 -0.13117,-0.53685 -0.52462,-0.97317 -0.8086,-1.44727 -0.35878,-0.59899 -0.81933,-1.13783 -1.1289,-1.76367 -0.3368,-0.68091 -0.48945,-1.44121 -0.78125,-2.14257 -0.33143,-0.79663 -0.59725,-1.6403 -1.09961,-2.3418 -0.63138,-0.88167 -1.5073,-1.56764 -2.34375,-2.25781 -0.73674,-0.6079 -1.58178,-1.07248 -2.34375,-1.64844 -0.73291,-0.55399 -1.32824,-1.30727 -2.14063,-1.73633 -0.86334,-0.45596 -1.9178,-0.43388 -2.80664,-0.83789 -0.67469,-0.30668 -1.32801,-0.69174 -1.87891,-1.1875 -0.99527,-0.89566 -1.63341,-2.12182 -2.48828,-3.15234 -0.63714,-0.76805 -1.37761,-1.45383 -1.96875,-2.25782 -0.5565,-0.75688 -1.00046,-1.58937 -1.47461,-2.40039 -0.25055,-0.428564 -0.61319,-0.818507 -0.72265,-1.302727 -0.0682,-0.301591 -0.0238,-0.627217 0.0566,-0.925781 0.0505,-0.187399 0.11163,-0.39649 0.26172,-0.519531 0.17006,-0.13942 0.42059,-0.133254 0.63672,-0.173828 1.44863,-0.271945 2.94315,-0.217319 4.39648,-0.462891 0.459,-0.07756 0.93139,-0.135279 1.35938,-0.318359 0.5189,-0.22197 0.92044,-0.659319 1.41796,-0.925782 0.32371,-0.173376 0.64986,-0.383744 1.01368,-0.433594 0.43375,-0.05943 0.91433,-0.03387 1.30078,0.171876 0.39799,0.211896 0.57846,0.694045 0.89648,1.013671 0.69366,0.697162 1.3939,1.402301 2.19922,1.966797 0.48403,0.339287 0.99495,0.674652 1.5625,0.839844 1.13272,0.32969 2.34986,0.233934 3.5293,0.259766 0.64626,0.01415 1.29845,-0.142115 1.93945,-0.05859 0.36913,0.0481 0.73084,0.165624 1.07031,0.318359 0.46611,0.209713 0.8182,0.64215 1.30078,0.81055 0.2383,0.0832 0.51128,0.16389 0.75196,0.0879 0.22147,-0.0699 0.3525,-0.30356 0.52148,-0.462893 0.31753,-0.299399 0.72088,-0.54045 0.92578,-0.925781 0.16605,-0.312271 0.0732,-0.714013 0.20313,-1.042969 0.24667,-0.624665 0.91553,-1.053506 1.07031,-1.707031 0.0469,-0.197958 0.0458,-0.43282 -0.0586,-0.607422 -0.17844,-0.298427 -0.58411,-0.376226 -0.86719,-0.578125 -0.41457,-0.295673 -0.90858,-0.518971 -1.21484,-0.925781 -0.22404,-0.297596 -0.24018,-0.707583 -0.40625,-1.041016 -0.17181,-0.344966 -0.3714,-0.679722 -0.60743,-0.984375 -0.40936,-0.528391 -0.86955,-1.024259 -1.38867,-1.445312 -0.53827,-0.436586 -1.10792,-0.875245 -1.76367,-1.09961 -0.35772,-0.122393 -0.7607,-0.03139 -1.12891,-0.117187 -0.70133,-0.163414 -1.3381,-0.536993 -2.02539,-0.751953 -1.1876,-0.37144 -2.43174,-0.547497 -3.61718,-0.925782 -0.38389,-0.122503 -0.73451,-0.342152 -1.12696,-0.433593 -0.11657,-0.02716 -0.23627,-0.03378 -0.35351,-0.05664 0.0433,-0.04059 0.0807,-0.08453 0.10937,-0.138672 0.0737,-0.139107 -0.0575,-0.311777 -0.11328,-0.458984 -0.12709,-0.335346 -0.27416,-0.671428 -0.49609,-0.953125 -0.48012,-0.609409 -1.14553,-1.050908 -1.75782,-1.527344 -1.03929,-0.80869 -2.09017,-1.619519 -3.24414,-2.253906 -0.45984,-0.252792 -0.96278,-0.419413 -1.45117,-0.611328 -0.65578,-0.257692 -1.32182,-0.490342 -1.98633,-0.72461 -1.30572,-0.460323 -2.6102,-0.922918 -3.93164,-1.335937 -0.79591,-0.248763 -1.5973,-0.485133 -2.40625,-0.6875 -0.99769,-0.249583 -2.00274,-0.470209 -3.01562,-0.648438 -1.29049,-0.227079 -2.59604,-0.359479 -3.89453,-0.535156 -0.95427,-0.129107 -1.90034,-0.376513 -2.86328,-0.382812 -0.6409,-0.0042 -1.27761,0.115987 -1.90821,0.230468 -0.58009,0.105311 -1.13341,0.349422 -1.71875,0.419922 -0.79604,0.09588 -1.61328,0.118654 -2.40625,0 -0.645,-0.09651 -1.25993,-0.344616 -1.87109,-0.572266 -0.56067,-0.20884 -1.07513,-0.531183 -1.64063,-0.726562 -0.6827,-0.235872 -1.43388,-0.254939 -2.09961,-0.535156 -0.56329,-0.237099 -1.08146,-0.581178 -1.5664,-0.953125 -0.29286,-0.22462 -0.45104,-0.645759 -0.80078,-0.763672 -0.10921,-0.03682 -0.24318,-0.01917 -0.34375,0.03711 -0.12663,0.07086 -0.15428,0.2531 -0.26758,0.34375 -0.18671,0.149386 -0.41508,0.254481 -0.64844,0.306641 -0.28567,0.06386 -0.58744,-0.02709 -0.87891,0 -0.20628,0.01917 -0.44965,-0.01628 -0.61132,0.113281 -0.15129,0.121231 -0.18952,0.345264 -0.22852,0.535156 -0.0661,0.3219 -0.0974,0.667808 -0.0254,0.988282 -0.22877,-0.08305 -0.47574,-0.128433 -0.7168,-0.132813 -0.31584,-0.0057 -0.61376,0.252442 -0.92578,0.203125 -0.84953,-0.134275 -1.44599,-0.943869 -2.22851,-1.300781 -1.06547,-0.485966 -2.26074,-0.64286 -3.32618,-1.128906 -0.66059,-0.301365 -1.22287,-0.792555 -1.88085,-1.09961 -0.49203,-0.229611 -1.07137,-0.263317 -1.53321,-0.548828 -0.52215,-0.322796 -0.99953,-0.756161 -1.33008,-1.273437 -0.20855,-0.326365 -0.35025,-0.713221 -0.37695,-1.09961 -0.0454,-0.65661 0.20401,-1.304403 0.37695,-1.939453 0.17471,-0.641561 0.3152,-1.312855 0.66407,-1.878906 0.34354,-0.557413 0.92147,-0.932938 1.36133,-1.417969 0.41809,-0.461027 0.75723,-0.996138 1.21484,-1.417969 0.70065,-0.64587 1.46375,-1.248349 2.31445,-1.677734 0.76781,-0.387549 1.68076,-0.415067 2.45899,-0.78125 0.7576,-0.356477 1.38649,-0.940264 2.11132,-1.359375 0.58248,-0.336803 1.17547,-0.65855 1.79297,-0.925781 0.90136,-0.390071 1.83477,-0.708421 2.77735,-0.984375 0.85534,-0.250415 1.72222,-0.488331 2.60547,-0.607422 0.98513,-0.132827 1.98533,-0.07388 2.97851,-0.115234 1.30205,-0.05422 2.60323,-0.193971 3.90625,-0.173829 1.02501,0.01585 2.04823,0.111261 3.06641,0.230469 0.85349,0.09993 1.68926,0.460363 2.54687,0.40625 0.24061,-0.01518 0.50666,-0.05058 0.69336,-0.203125 0.16034,-0.131009 0.17328,-0.377164 0.28906,-0.548828 0.0918,-0.136153 0.1783,-0.291207 0.31836,-0.376953 1.47832,-0.905017 3.36181,-0.850712 5.0625,-1.185547 1.43736,-0.282989 2.89986,-0.426021 4.33985,-0.695313 1.08579,-0.203052 2.14019,-0.593031 3.24023,-0.693359 1.31628,-0.12005 2.64449,0.05471 3.96485,0.115235 0.92662,0.04247 1.8544,0.08102 2.77734,0.173828 1.04624,0.105199 2.08328,0.290387 3.125,0.433593 1.41735,0.194845 2.8602,0.246636 4.25195,0.578125 0.83366,0.198564 1.87645,0.185361 2.42969,0.839844 0.15148,0.179196 0.21327,0.479289 0.11719,0.69336 -0.12599,0.280717 -0.4866,0.403555 -0.78125,0.492187 -0.82212,0.247295 -1.71798,0.03554 -2.57617,0.05859 -0.92591,0.02487 -1.85171,0.119531 -2.77735,0.08594 -0.93019,-0.03376 -1.85341,-0.176215 -2.77734,-0.289062 -1.03428,-0.126324 -2.06075,-0.312979 -3.0957,-0.433594 -0.82733,-0.09642 -1.65556,-0.250698 -2.48829,-0.232422 -0.77856,0.01709 -1.54852,0.177622 -2.31445,0.31836 -0.88581,0.162765 -1.75677,0.398348 -2.63281,0.607421 -0.70526,0.168317 -1.442,0.2427 -2.11133,0.521485 -0.4275,0.178057 -0.79065,0.480756 -1.18555,0.722656 -0.25105,0.153786 -0.5817,0.222697 -0.75195,0.462891 -0.13126,0.185185 -0.18592,0.442835 -0.14453,0.666015 0.0673,0.362927 0.31586,0.699422 0.60742,0.925782 0.28185,0.218817 0.65519,0.333261 1.01172,0.347656 0.50714,0.02048 0.99774,-0.208596 1.47656,-0.376953 0.54964,-0.193258 1.04213,-0.524028 1.58985,-0.722657 0.54547,-0.197812 1.10811,-0.352466 1.67773,-0.46289 1.00055,-0.193961 2.02279,-0.270702 3.03906,-0.347656 1.02965,-0.07797 2.06339,-0.138867 3.09571,-0.115235 0.92876,0.02126 1.85116,0.158113 2.77734,0.230469 0.92543,0.0723 1.84991,0.16408 2.77734,0.203125 0.84795,0.0357 1.69623,0.02804 2.54492,0.0293 1.14764,0.0017 2.29587,-0.01082 3.44336,-0.0293 0.81019,-0.01305 1.62029,-0.01853 2.42969,-0.05664 0.68564,-0.03229 1.36982,-0.19234 2.05469,-0.146484 0.5699,0.03816 1.14745,0.135411 1.67773,0.347656 0.81237,0.325154 1.48452,0.928092 2.22852,1.388672 1.17427,0.726938 2.26532,1.613408 3.5293,2.169922 0.51404,0.226325 1.06403,0.377379 1.61914,0.46289 0.69604,0.107223 1.43354,0.242775 2.11328,0.05859 0.49333,-0.133671 0.96003,-0.429591 1.30078,-0.810547 0.31346,-0.350439 0.51359,-0.812724 0.60742,-1.273437 0.13292,-0.652643 0.11767,-1.361938 -0.0859,-1.996094 -0.1619,-0.504258 -0.43059,-1.033162 -0.86914,-1.330078 -0.16288,-0.110272 -0.38317,-0.141342 -0.57812,-0.115234 -0.40609,0.05438 -0.70086,0.454695 -1.09961,0.548828 -0.30973,0.07312 -0.65257,0.09884 -0.95508,0 -1.69231,-0.552921 -2.88383,-2.089348 -4.31055,-3.154297 -1.26281,-0.942605 -2.4384,-2.004678 -3.75976,-2.863281 -1.4295,-0.928867 -2.966,-1.683894 -4.48438,-2.458985 -1.08347,-0.553083 -2.1566,-1.143977 -3.29883,-1.5625 -2.18322,-0.799961 -4.43926,-1.458385 -6.74023,-1.792969 -1.66122,-0.241557 -3.35806,-0.07147 -5.03516,-0.144531 -2.80843,-0.122357 -5.61033,-0.352783 -8.41796,-0.492187 -2.59312,-0.128753 -5.18733,-0.271103 -7.78321,-0.31836 -1.07992,-0.01966 -2.15964,-0.04518 -3.24023,-0.04883 z m -13.4961,30.861328 c 0.32217,0.0055 0.64557,0.06274 0.95508,0.152344 0.37241,0.107804 0.70745,0.317357 1.06836,0.458984 0.70449,0.276461 1.43565,0.483483 2.13867,0.763672 0.87869,0.350205 1.72073,0.78514 2.59571,1.144532 0.26456,0.108665 0.52326,0.243897 0.80273,0.304687 0.38632,0.08406 0.7883,0.06957 1.1836,0.07617 0.81481,0.01352 1.62923,-0.112242 2.44335,-0.07617 1.38307,0.06128 2.74873,0.331059 4.12305,0.498047 1.34924,0.16394 2.70237,0.297101 4.04688,0.496094 1.54613,0.228833 3.07817,0.551206 4.62109,0.800781 0.76225,0.123298 1.53163,0.203897 2.29102,0.34375 1.22999,0.22652 2.45635,0.47774 3.66406,0.802734 0.68404,0.184075 1.37013,0.374596 2.02344,0.648438 0.53027,0.22227 1.01564,0.538568 1.52734,0.800781 0.60784,0.311478 1.26873,0.534588 1.83398,0.917969 0.5222,0.354182 1.03751,0.752019 1.41211,1.259765 0.23334,0.316273 0.24593,0.781373 0.43555,1.115235 -1.02635,-0.04619 -2.05647,-0.06778 -3.07031,-0.208985 -2.32291,-0.323519 -4.60508,-0.891446 -6.91406,-1.302734 -1.20341,-0.214357 -2.41852,-0.367991 -3.61719,-0.607422 -1.33967,-0.267594 -2.67374,-0.567976 -3.99219,-0.925781 -0.75065,-0.203713 -1.47327,-0.509384 -2.22852,-0.695313 -1.09468,-0.26949 -2.21202,-0.435311 -3.32617,-0.607421 -0.75892,-0.117236 -1.52934,-0.153162 -2.28515,-0.289063 -0.91631,-0.164761 -1.79585,-0.529934 -2.72071,-0.636719 -0.5748,-0.06637 -1.1618,0.06865 -1.73633,0 -0.65029,-0.0777 -1.28712,-0.255103 -1.9082,-0.46289 -0.80698,-0.26998 -1.56581,-0.666879 -2.34375,-1.011719 -0.85222,-0.37777 -1.72348,-0.721131 -2.54687,-1.158203 -0.4894,-0.259782 -1.0124,-0.487602 -1.41602,-0.867188 -0.25725,-0.241937 -0.42016,-0.567777 -0.60742,-0.867187 -0.0947,-0.151367 -0.16073,-0.326987 -0.23828,-0.490234 0.28358,-0.02902 0.58022,-0.216787 0.86914,-0.263672 0.30385,-0.04931 0.60823,-0.118582 0.91601,-0.113282 z" /><path
           style="fill:#ffffff"
           d="m 87.069767,162.91473 c 0.19882,-0.30504 0.569022,-0.46672 0.899225,-0.62016 0.320617,-0.14899 0.671392,-0.24466 1.023256,-0.27907 0.433148,-0.0424 0.882211,-0.0206 1.302326,0.093 0.678238,0.18346 1.239063,0.66941 1.891472,0.93023 0.834751,0.33372 1.691675,0.6321 2.573644,0.8062 0.824422,0.16274 1.674582,0.14284 2.511628,0.21706 1.478333,0.13108 2.952402,0.31828 4.434112,0.4031 2.61145,0.1495 5.23066,0.27217 7.84496,0.18604 1.73211,-0.0571 3.46062,-0.23477 5.17829,-0.46511 2.2687,-0.30423 4.50353,-0.82292 6.75969,-1.20931 1.13554,-0.19447 2.28541,-0.31188 3.41085,-0.55814 1.86413,-0.40789 3.70145,-0.93932 5.51938,-1.51938 2.50446,-0.79912 4.96064,-1.74511 7.41086,-2.69767 2.544,-0.98902 5.07608,-2.01334 7.56589,-3.13178 4.31797,-1.93967 8.59262,-3.98495 12.77519,-6.20155 2.21345,-1.17304 4.43087,-2.35702 6.51163,-3.75194 1.72582,-1.15697 3.30697,-2.51701 4.93023,-3.81395 0.83747,-0.66912 1.66517,-1.35073 2.48062,-2.04652 0.35652,-0.30421 0.75728,-0.56768 1.05427,-0.93023 0.57518,-0.70217 0.90733,-1.57236 1.36434,-2.35659 1.70743,-2.92993 3.25346,-5.96214 5.14728,-8.77519 0.93862,-1.39421 1.95571,-2.74155 3.06977,-4 1.04645,-1.18208 2.16068,-2.31483 3.37985,-3.31783 0.52249,-0.42985 1.08515,-0.81483 1.67442,-1.14729 0.21754,-0.12274 0.43883,-0.36645 0.68217,-0.31008 0.22175,0.0514 0.3692,0.30896 0.4341,0.52714 0.0534,0.17942 0.0197,0.38971 -0.062,0.55814 -0.4497,0.92724 -1.50356,1.41237 -2.20155,2.17054 -0.93935,1.02035 -1.75297,2.15042 -2.66667,3.1938 -1.01688,1.16121 -2.15324,2.21716 -3.13178,3.41085 -0.81129,0.98966 -1.51492,2.06292 -2.26357,3.10077 -0.698,0.96764 -1.41887,1.91989 -2.07752,2.91473 -0.58912,0.88981 -1.0793,1.84288 -1.67441,2.72869 -0.42886,0.63835 -0.89609,1.25042 -1.36435,1.86046 -0.53272,0.69401 -1.06877,1.38678 -1.64341,2.04651 -0.99888,1.14679 -2.05279,2.24607 -3.13178,3.31783 -1.31271,1.30392 -2.57188,2.68618 -4.06202,3.78295 -1.14091,0.83973 -2.4534,1.41727 -3.68992,2.10852 -1.42925,0.79899 -2.82959,1.65708 -4.31008,2.35659 -1.80306,0.85192 -3.68125,1.53748 -5.55038,2.23256 -0.77816,0.28938 -1.57567,0.52434 -2.35659,0.8062 -1.04003,0.37539 -2.08732,0.73616 -3.10078,1.1783 -1.04648,0.45654 -2.05551,0.99513 -3.06976,1.51938 -1.06403,0.54998 -2.10749,1.13888 -3.1628,1.70542 -1.19779,0.64303 -2.35255,1.37495 -3.59689,1.92249 -1.45415,0.63987 -2.99029,1.075 -4.49613,1.58139 -2.50026,0.8408 -4.99943,1.69079 -7.53488,2.41861 -1.37343,0.39426 -2.754,0.77349 -4.15504,1.05426 -1.6597,0.33261 -3.33907,0.57469 -5.02326,0.74418 -1.15345,0.11608 -2.31366,0.17269 -3.47286,0.18605 -1.69577,0.0195 -3.40139,0.0463 -5.08528,-0.15504 -1.59414,-0.19058 -3.15251,-0.6155 -4.71317,-0.99225 -1.603797,-0.38717 -3.1721,-0.91227 -4.775198,-1.30232 -1.150342,-0.27989 -2.319614,-0.47655 -3.472868,-0.74419 -0.622693,-0.14451 -1.233884,-0.33852 -1.860466,-0.46511 -0.7279,-0.14705 -1.461731,-0.27682 -2.20155,-0.34109 -0.525255,-0.0456 -1.071181,0.10188 -1.581395,-0.031 -0.170038,-0.0443 -0.389273,-0.0896 -0.465117,-0.24806 -0.09537,-0.19931 0.0034,-0.46604 0.124021,-0.65114 z"
           id="path34"
           sodipodi:nodetypes="ssssssssssssssssssssssssssssssssssssssssssssssssssssssssssss" /><path
           style="fill:#ffffff"
           d="m 84.558139,161.9845 c -0.180399,-0.19648 -0.402188,-0.3694 -0.651162,-0.46512 -0.679724,-0.26131 -1.442391,-0.25829 -2.170543,-0.24806 -0.730788,0.0103 -1.446213,0.2126 -2.170543,0.31008 -0.980872,0.132 -1.989819,0.11566 -2.945736,0.37209 -0.823216,0.22083 -1.603202,0.59368 -2.356589,0.99225 -1.142895,0.60464 -2.220503,1.33397 -3.255814,2.10852 -0.698391,0.52249 -1.343401,1.11404 -1.984496,1.70543 -1.047555,0.96634 -2.001128,2.03077 -3.03876,3.00775 -0.676809,0.63725 -1.383319,1.24221 -2.077519,1.86047 -0.721759,0.6428 -1.417468,1.31667 -2.170543,1.92248 -0.47842,0.38487 -1.037626,0.66834 -1.488372,1.08527 -1.178528,1.09012 -2.184522,2.36276 -3.131783,3.65891 -0.602506,0.82441 -1.077867,1.73463 -1.612403,2.60465 -0.519652,0.8458 -1.049391,1.68566 -1.550388,2.54264 -0.298935,0.51134 -1.012917,0.97602 -0.868217,1.55039 0.03292,0.13068 0.207284,0.23312 0.341086,0.21705 0.355639,-0.0427 0.503296,-0.51009 0.744186,-0.77519 1.439281,-1.5839 2.739138,-3.29128 4.186046,-4.86822 0.459554,-0.50085 0.992272,-0.93428 1.426357,-1.45736 0.725134,-0.8738 1.186205,-1.95367 1.953488,-2.7907 0.619711,-0.67605 1.440344,-1.13926 2.108527,-1.76744 0.612571,-0.5759 1.086025,-1.29666 1.736434,-1.82946 0.661084,-0.54154 1.41927,-0.95705 2.170543,-1.36434 0.520396,-0.28213 1.114988,-0.42328 1.612403,-0.74419 0.769661,-0.49656 1.39863,-1.18359 2.077519,-1.79845 0.802021,-0.72638 1.505639,-1.56416 2.35659,-2.23255 0.76432,-0.60035 1.574073,-1.15946 2.449612,-1.5814 0.933386,-0.44982 1.932741,-0.77456 2.945736,-0.99225 0.822505,-0.17675 1.671375,-0.28967 2.511628,-0.24806 0.73694,0.0365 1.435182,0.37364 2.170543,0.43411 0.309206,0.0254 0.656147,0.11437 0.930233,-0.031 0.124195,-0.0659 0.241467,-0.20065 0.248062,-0.34108 0.01522,-0.32404 -0.276734,-0.59827 -0.496125,-0.83722 z"
           id="path35"
           sodipodi:nodetypes="ssssssssssssssssssssssssssssssssss" /><path
           style="fill:#ffffff"
           d="m 19.162791,180.71318 c 0.162277,-0.40475 0.401044,-0.78292 0.68217,-1.11628 0.911417,-1.08075 2.149923,-1.83727 3.193799,-2.7907 1.392663,-1.272 2.639187,-2.70538 4.093023,-3.90698 0.919658,-0.7601 2.044887,-1.26087 2.914729,-2.07751 0.466041,-0.43754 0.705308,-1.09516 1.209302,-1.48838 0.269782,-0.21049 0.592329,-0.48804 0.930232,-0.43411 0.223852,0.0357 0.435281,0.24675 0.496125,0.46512 0.09222,0.33098 -0.116948,0.68932 -0.27907,0.99225 -0.494609,0.92419 -1.363433,1.59251 -2.046512,2.3876 -0.319988,0.37246 -0.725735,0.6854 -0.96124,1.11628 -0.243103,0.44478 -0.20217,1.00666 -0.434109,1.45736 -0.269625,0.52393 -0.623324,1.02955 -1.085271,1.39535 -0.641781,0.5082 -1.483029,0.69407 -2.232558,1.02325 -0.708309,0.31107 -1.470253,0.51125 -2.139535,0.89923 -0.765472,0.44375 -1.388632,1.098 -2.108527,1.6124 -0.363857,0.25999 -0.807672,0.42054 -1.116279,0.74419 -0.16636,0.17447 -0.179286,0.47544 -0.372093,0.62015 -0.162413,0.1219 -0.394433,0.21268 -0.589148,0.15504 -0.147332,-0.0436 -0.270297,-0.19267 -0.310077,-0.34108 -0.06298,-0.23498 0.06451,-0.48737 0.155039,-0.71318 z"
           id="path37"
           sodipodi:nodetypes="sssssssssssssssssssss" /><path
           style="fill:#ffffff"
           d="m 195.87903,116.05184 c 0.017,-0.30593 2.1082,-0.81115 3.19043,-1.12994 0.82995,-0.24448 1.66514,-0.50914 2.52575,-0.5982 1.25661,-0.13005 2.53121,-0.0221 3.78864,0.0997 1.06224,0.10291 2.10916,0.33029 3.15719,0.53173 1.23545,0.23747 2.43555,0.68929 3.68894,0.79761 0.81739,0.0706 1.63979,-0.0606 2.45929,-0.0997 1.00846,-0.0481 2.01578,-0.21387 3.02426,-0.16617 1.04068,0.0492 2.07711,0.22436 3.09072,0.46527 1.52007,0.36128 2.99424,0.90349 4.45331,1.46228 1.3109,0.50204 2.65034,0.97446 3.8551,1.69492 0.94144,0.56299 1.77801,1.29219 2.59223,2.02725 0.59318,0.53551 1.21811,1.06341 1.66168,1.72815 0.2616,0.39203 0.46878,0.83473 0.56497,1.29611 0.0294,0.14098 0,0.43204 0,0.43204 0,0 -2.53198,-1.68132 -3.8551,-2.42606 -1.252,-0.70472 -2.54255,-1.3433 -3.8551,-1.92755 -1.71775,-0.76462 -3.49242,-1.3949 -5.25092,-2.06048 -0.93739,-0.3548 -1.84975,-0.79842 -2.82486,-1.03025 -0.55344,-0.13158 -1.12667,-0.17271 -1.69491,-0.1994 -1.90381,-0.0894 -3.81029,0.12507 -5.71619,0.13294 -2.2158,0.009 -4.4309,-0.0939 -6.64672,-0.0997 -1.12999,-0.003 -2.25983,0.0319 -3.38983,0.0332 -1.49555,0.002 -4.48654,-0.0332 -4.48654,-0.0332 0,0 -0.29651,-0.16374 -0.36557,-0.33234 -0.0691,-0.1686 0.0332,-0.59821 0.0332,-0.59821 z"
           id="path39"
           sodipodi:nodetypes="sssssssssssssscsssssasaczss" /><path
           style="fill:#ffffff"
           d="m 164.34031,72.017281 c 0.18025,0.517618 -0.28719,1.058596 -0.3988,1.595215 -0.096,0.461806 -0.19961,0.925281 -0.23264,1.395812 -0.031,0.442165 -0.066,0.897344 0.0332,1.329346 0.03,0.130457 0.0831,0.260594 0.16617,0.36557 0.26946,0.340602 0.68678,0.531803 1.03024,0.797607 0.58704,0.454305 1.19997,0.876958 1.76138,1.362579 0.33774,0.292148 0.66305,0.600419 0.96378,0.930541 0.42992,0.471935 0.83756,0.967521 1.19641,1.495514 0.20082,0.295467 0.41275,0.593687 0.53173,0.930542 0.11585,0.327994 0.16425,0.682395 0.16617,1.030242 0.001,0.224033 -0.01,0.459367 -0.0997,0.664673 -0.19875,0.455019 -0.61628,0.778754 -0.93054,1.163177 -0.77653,0.949886 -1.51279,1.937049 -2.35959,2.824859 -0.3842,0.402808 -0.76221,0.827667 -1.22964,1.129943 -0.14169,0.09163 -0.30334,0.151958 -0.46527,0.199402 -0.194,0.05684 -0.41022,0.02536 -0.59821,0.0997 -0.11143,0.04406 -0.22509,0.105168 -0.2991,0.199402 -0.0801,0.101972 -0.0967,0.241058 -0.13294,0.36557 -0.18677,0.642682 -0.29627,1.305425 -0.43203,1.960784 -0.15336,0.740343 -0.28407,1.485214 -0.43204,2.226653 -0.17263,0.865008 -0.42757,1.716331 -0.53174,2.592224 -0.038,0.319199 -0.0277,0.642374 -0.0332,0.963775 -0.013,0.753184 -0.0363,1.507468 0,2.259887 0.0333,0.689232 0.0262,1.392542 0.1994,2.060482 0.11832,0.45621 0.34038,0.88177 0.56497,1.29612 0.25915,0.47811 0.49778,0.99361 0.89731,1.36257 0.37153,0.3431 0.86923,0.52128 1.32935,0.73114 0.20408,0.0931 0.41246,0.184 0.63143,0.23264 0.90078,0.20008 1.83825,0.3016 2.7584,0.23264 0.23847,-0.0179 0.46205,-0.12668 0.6979,-0.16617 0.66969,-0.11213 1.34858,-0.17782 2.02725,-0.1994 0.96386,-0.0307 1.96655,-0.17369 2.89133,0.0997 0.12389,0.0366 0.23995,0.1091 0.33234,0.1994 0.17803,0.174 0.32024,0.39522 0.3988,0.63144 0.13325,0.40069 0.008,0.85068 0.0997,1.26288 0.0616,0.27718 0.25666,0.51684 0.2991,0.7976 0.0282,0.18653 -0.002,0.37888 -0.0332,0.56497 -0.034,0.20415 -0.0919,0.40506 -0.16617,0.59821 -0.0534,0.13871 -0.19397,0.25028 -0.1994,0.3988 -0.007,0.20353 0.16899,0.37151 0.23263,0.56498 0.0999,0.30372 0.12171,0.63067 0.23264,0.93054 0.0687,0.18586 0.13123,0.38633 0.26587,0.53173 0.0878,0.0948 0.24456,0.10462 0.33234,0.19941 0.0673,0.0727 0.1311,0.1668 0.13293,0.26587 0.002,0.13383 -0.0942,0.25271 -0.16617,0.36557 -0.0549,0.0861 -0.11358,0.17726 -0.1994,0.23263 -0.23272,0.15014 -0.56161,0.0877 -0.79761,0.23264 -0.20703,0.12714 -0.33632,0.35083 -0.4985,0.53173 -0.20453,0.22814 -0.39464,0.46891 -0.59821,0.69791 -0.64068,0.72068 -1.39115,1.3489 -1.96078,2.12695 -0.42208,0.57651 -0.7503,1.21888 -1.06348,1.86109 -0.46167,0.9467 -0.84378,1.93207 -1.19641,2.92456 -0.47283,1.33078 -0.77652,2.71688 -1.22964,4.0545 -0.51624,1.52397 -1.13105,3.01277 -1.69492,4.51977 -0.31079,0.83062 -0.55751,1.68794 -0.93054,2.49253 -0.35256,0.76044 -0.75159,1.50492 -1.22964,2.19342 -0.59622,0.85869 -1.2908,1.6509 -2.02726,2.39282 -0.51467,0.51848 -1.08299,0.98315 -1.66168,1.42904 -0.99065,0.76332 -2.12943,1.32697 -3.09072,2.12696 -0.63823,0.53114 -1.09327,1.26837 -1.76139,1.76138 -1.06861,0.78853 -2.33393,1.26914 -3.52276,1.86108 -1.37969,0.68697 -2.76724,1.36202 -4.18744,1.96079 -0.92711,0.39088 -1.87828,0.72243 -2.82486,1.06347 -0.67237,0.24224 -1.39661,0.36169 -2.02725,0.69791 -0.85829,0.45759 -1.54709,1.17932 -2.32635,1.76138 -0.62839,0.46937 -1.28485,0.90211 -1.89432,1.39581 -0.62193,0.50379 -1.12391,1.15848 -1.79462,1.59522 -0.69377,0.45175 -1.48367,0.74236 -2.25989,1.03024 -0.33528,0.12434 -0.67653,0.24652 -1.03024,0.2991 -2.60808,0.38772 -5.27371,0.16667 -7.9096,0.0997 -0.69909,-0.0178 -1.39441,-0.1313 -2.09372,-0.13293 -0.7546,-0.002 -1.51272,0.0273 -2.25989,0.13293 -0.69719,0.0986 -1.39984,0.22167 -2.06048,0.46528 -0.66949,0.24687 -1.23408,0.72635 -1.89432,0.997 -0.46046,0.18875 -0.9356,0.3676 -1.42905,0.43204 -1.29693,0.16936 -2.62371,0.0292 -3.92157,-0.13293 -0.87754,-0.10959 -1.7404,-0.32729 -2.59222,-0.56497 -1.28562,-0.35873 -2.53817,-0.82937 -3.78863,-1.29612 -1.76922,-0.66038 -3.53402,-1.34051 -5.25092,-2.12695 -1.279244,-0.58597 -2.523454,-1.24774 -3.755397,-1.92755 -1.352362,-0.74626 -2.695929,-1.51328 -3.988036,-2.35959 -0.205759,-0.13477 -0.44798,-0.23727 -0.598205,-0.43203 -0.319143,-0.41376 -0.361856,-0.98083 -0.564972,-1.46228 -0.227367,-0.53893 -0.440773,-1.08745 -0.73114,-1.59522 -0.288329,-0.50421 -0.572432,-1.0327 -0.997009,-1.42905 -0.330525,-0.30855 -0.745958,-0.52361 -1.163177,-0.6979 -0.411547,-0.17192 -0.853606,-0.27651 -1.296112,-0.33234 -0.571519,-0.0721 -1.161569,-0.10402 -1.728149,0 -0.582796,0.107 -1.097829,0.44931 -1.661681,0.63144 -0.61114,0.1974 -1.226595,0.39909 -1.861084,0.49851 -0.668411,0.10473 -1.356959,0.19163 -2.027251,0.0997 -0.451184,-0.0619 -0.913582,-0.18492 -1.296112,-0.43204 -0.493872,-0.31905 -0.726398,-0.94286 -1.196411,-1.29611 -0.297025,-0.22324 -0.660813,-0.34029 -0.997009,-0.49851 -0.471206,-0.22175 -0.940977,-0.44979 -1.429046,-0.63144 -0.390814,-0.14546 -0.792058,-0.26363 -1.196411,-0.36557 -0.219089,-0.0552 -0.476937,-0.007 -0.664672,-0.13293 -0.232312,-0.15558 -0.369837,-0.43511 -0.465271,-0.69791 -0.2092,-0.57609 -0.125661,-1.2194 -0.199402,-1.82785 -0.08068,-0.66568 -0.117144,-1.34016 -0.265869,-1.99401 -0.111111,-0.48848 -0.267908,-0.9686 -0.465271,-1.42905 -0.248,-0.57858 -0.582975,-1.11629 -0.897308,-1.66168 -0.655568,-1.13747 -1.343154,-2.25704 -2.060485,-3.3566 -0.957037,-1.46699 -2.071857,-2.82936 -2.991027,-4.32037 -0.437046,-0.70894 -0.842469,-1.43954 -1.196411,-2.19342 -0.445865,-0.94967 -0.786919,-1.94522 -1.163177,-2.92456 -0.377116,-0.98157 -0.782751,-1.95423 -1.09671,-2.95779 -0.2527,-0.80775 -0.477786,-1.627 -0.631439,-2.45929 -0.141698,-0.76753 -0.221486,-1.54712 -0.265869,-2.32636 -0.02457,-0.43134 -0.02644,-0.86488 0,-1.29611 0.0444,-0.72413 0.106055,-1.45251 0.265869,-2.16018 0.108036,-0.47839 0.197578,-0.98488 0.465271,-1.39582 0.08989,-0.13799 0.211966,-0.27295 0.36557,-0.33233 0.144656,-0.0559 0.311177,-0.0175 0.465271,0 0.146848,0.0167 0.302767,0.028 0.432037,0.0997 0.274051,0.15189 0.457057,0.43 0.664673,0.66467 0.298076,0.33692 0.509044,0.74914 0.830841,1.06348 0.424754,0.41492 0.901989,0.79001 1.429046,1.06347 0.724521,0.37592 1.521844,0.62651 2.326354,0.76438 0.993843,0.17032 2.015961,0.0743 3.024261,0.0665 0.886826,-0.007 1.777946,0.004 2.65869,-0.0997 0.841459,-0.0993 1.681682,-0.25264 2.492523,-0.4985 0.722522,-0.21908 1.397443,-0.57213 2.093719,-0.86408 0.599629,-0.25142 1.184102,-0.54067 1.794616,-0.76437 0.598794,-0.2194 1.216967,-0.3819 1.827849,-0.56497 0.342543,-0.10265 0.675423,-0.25465 1.030243,-0.2991 0.329941,-0.0413 0.691961,-0.0991 0.997009,0.0332 0.114977,0.0499 0.207701,0.15485 0.265869,0.26587 0.05748,0.10971 0.08835,0.24366 0.06647,0.36557 -0.06141,0.34221 -0.369405,0.58986 -0.531738,0.89731 -0.171235,0.32431 -0.372158,0.64228 -0.465271,0.99701 -0.07334,0.27941 -0.100373,0.57719 -0.06647,0.86407 0.04235,0.35835 0.124892,0.73499 0.332336,1.03024 0.177066,0.25201 0.447691,0.44448 0.73114,0.56497 0.350357,0.14893 0.757781,0.086 1.129944,0.16617 0.15768,0.034 0.322352,0.0582 0.465271,0.13294 0.697534,0.36494 1.23322,0.97962 1.82785,1.49551 0.988972,0.85802 1.960157,1.73826 2.891326,2.65869 0.183926,0.1818 0.370827,0.36251 0.531738,0.56497 0.149112,0.18761 0.329356,0.36884 0.398803,0.59821 0.05457,0.18024 0.05117,0.38373 0,0.56497 -0.155399,0.55036 -0.602999,0.97194 -0.897308,1.46228 -0.60817,1.01325 -1.255817,2.00571 -1.794616,3.05749 -0.47488,0.927 -0.878789,1.88995 -1.262878,2.8581 -0.294581,0.74254 -0.622075,1.48057 -0.797607,2.25988 -0.117474,0.52155 -0.178222,1.06074 -0.166168,1.59522 0.01515,0.67194 0.01604,1.38443 0.299102,1.99402 0.254561,0.54821 0.762311,0.94199 1.196411,1.36257 0.350433,0.33952 0.699668,0.70046 1.129944,0.93055 0.540827,0.2892 1.154662,0.44215 1.761382,0.53173 0.646585,0.0955 1.311043,0.0709 1.960784,0 0.868388,-0.0947 1.701173,-0.39999 2.55899,-0.56497 1.477235,-0.28412 2.992034,-0.37389 4.453307,-0.73114 0.6908,-0.16889 1.34885,-0.45137 2.02725,-0.66467 1.02639,-0.32272 2.05399,-0.64283 3.09073,-0.93054 1.29966,-0.36067 2.60266,-0.71476 3.92157,-0.99701 0.94567,-0.20238 1.89607,-0.39969 2.85809,-0.49851 1.71999,-0.17668 3.45544,-0.17603 5.18445,-0.16616 1.53017,0.009 3.06202,0.0644 4.58624,0.1994 1.07993,0.0957 2.17103,0.17247 3.22366,0.43204 0.59546,0.14684 1.14834,0.43155 1.72815,0.63143 0.40737,0.14043 0.79931,0.37673 1.22964,0.39881 0.31681,0.0163 0.65397,-0.044 0.93055,-0.1994 0.25279,-0.14198 0.36264,-0.46241 0.5982,-0.63144 0.25774,-0.18494 0.55538,-0.32578 0.86408,-0.39881 0.33436,-0.0791 0.70352,0.0731 1.03024,-0.0332 0.31846,-0.10366 0.53346,-0.41092 0.83084,-0.56497 0.16808,-0.0871 0.36572,-0.10846 0.53174,-0.1994 0.29147,-0.15966 0.62116,-0.31658 0.7976,-0.59821 0.43138,-0.68858 0.35134,-1.5883 0.46527,-2.39282 0.10449,-0.73783 0.14999,-1.4831 0.19941,-2.22665 0.0169,-0.25447 0.0791,-0.5135 0.0332,-0.76438 -0.091,-0.49795 -0.49643,-0.89995 -0.59821,-1.39581 -0.17596,-0.85728 -0.0737,-1.75341 0,-2.62546 0.0445,-0.52627 0.0625,-1.07456 0.26587,-1.56198 0.27821,-0.66673 0.81871,-1.19161 1.26288,-1.76138 0.46393,-0.59513 1.08881,-1.07245 1.46228,-1.72815 0.3017,-0.52969 0.48077,-1.12998 0.59821,-1.72815 0.11756,-0.59876 0.10614,-1.2177 0.0997,-1.82785 -0.008,-0.73319 -0.0548,-1.46869 -0.16617,-2.19342 -0.10363,-0.67461 -0.27075,-1.3398 -0.46527,-1.99402 -0.29563,-0.99428 -0.70967,-1.94945 -1.06348,-2.92455 -0.23308,-0.64236 -0.48442,-1.27842 -0.6979,-1.92756 -0.0974,-0.29634 -0.2675,-0.58535 -0.26587,-0.8973 0.002,-0.30135 0.11436,-0.60358 0.26587,-0.864079 0.13002,-0.223551 0.3061,-0.438599 0.53173,-0.564972 0.23695,-0.132708 0.53386,-0.101416 0.79761,-0.166168 2.01274,-0.494143 4.02117,-1.023938 5.98206,-1.694915 0.70068,-0.239757 1.38407,-0.529355 2.06048,-0.830841 1.08153,-0.482049 2.19676,-0.918023 3.19043,-1.561981 0.79868,-0.517592 1.53678,-1.138925 2.19342,-1.82785 0.46929,-0.492362 0.91711,-1.024315 1.22964,-1.628448 0.23502,-0.454314 0.36839,-0.960032 0.46527,-1.462279 0.17251,-0.894329 0.001,-1.836207 0.19941,-2.725158 0.15503,-0.694747 0.59067,-1.303703 0.76437,-1.994018 0.25617,-1.018036 0.28872,-2.079978 0.3988,-3.123962 0.042,-0.397979 0.0964,-0.796238 0.0997,-1.19641 0.004,-0.499594 -0.21317,-1.008959 -0.0997,-1.495514 0.0552,-0.236854 0.17061,-0.486045 0.36557,-0.631439 0.22831,-0.170264 0.57492,-0.07441 0.83084,-0.199402 1.94786,-0.951385 3.39207,-2.700198 5.08475,-4.054503 0.78757,-0.630136 1.58661,-1.246355 2.35959,-1.894317 0.36098,-0.3026 0.65728,-0.692042 1.06347,-0.930542 0.14202,-0.08339 0.3026,-0.191805 0.46528,-0.166168 0.17947,0.02828 0.37229,0.160719 0.43204,0.332297 z"
           id="path40"
           sodipodi:nodetypes="aaaaaaaaaaaaaaaaaaaaaaaaaaaaaaaaaaaaaaaaaaaaaaaaaaaaaaaaaaaaaaaaaaaaaaaaaaaaaaaaaaaaaaaaaaaaaaaaaaaaaaaaaaaaaaaaaaaaaaaaaaaaaaaaaaaaaaaaaaaaaaaaaaaaaaaaaaaaaaaaaaaaaaaaaaaaaaaaaaaaaaaaaaaaaaaaaaaaaaaaaaaaaa" /><path
           style="fill:#ffffff"
           d="m 66.41111,105.07739 c -0.09034,0.0712 -0.230609,0.0891 -0.28931,0.18805 -0.03209,0.0541 -0.03513,0.12867 -0.01447,0.18805 0.08634,0.24814 0.333623,0.41014 0.535224,0.57862 0.460838,0.38514 0.99703,0.67191 1.518877,0.96919 0.464678,0.26471 0.921239,0.56505 1.432084,0.72328 0.590172,0.1828 1.220292,0.21064 1.837119,0.24591 0.510372,0.0292 1.024508,0.0203 1.533343,-0.0289 0.638349,-0.0617 1.26823,-0.19677 1.89498,-0.33271 0.545179,-0.11824 1.090856,-0.24325 1.620136,-0.4195 0.469807,-0.15645 0.910876,-0.3895 1.374223,-0.56415 0.443756,-0.16727 0.886088,-0.34445 1.345291,-0.4629 0.459796,-0.1186 0.937267,-0.1541 1.403154,-0.24591 0.508517,-0.10021 1.005337,-0.26265 1.518877,-0.33271 0.344517,-0.047 0.724094,0.084 1.041516,-0.0579 0.05603,-0.0251 0.11609,-0.0705 0.13019,-0.13019 0.01051,-0.0445 -0.0096,-0.0994 -0.0434,-0.13019 -0.190389,-0.17311 -0.496915,-0.1413 -0.752206,-0.17358 -0.57901,-0.0732 -1.16672,-0.0391 -1.750325,-0.0434 -0.96921,-0.007 -1.938334,0.032 -2.907566,0.0289 -0.887331,-0.003 -1.782603,0.0776 -2.661652,-0.0434 -0.09385,-0.0129 -0.187235,-0.0363 -0.274844,-0.0723 -0.133854,-0.0551 -0.257483,-0.13406 -0.376103,-0.21699 -0.221616,-0.15494 -0.375051,-0.41062 -0.622017,-0.52075 -0.09342,-0.0417 -0.201777,-0.0357 -0.303775,-0.0434 -0.577008,-0.0434 -1.15722,-0.0139 -1.73586,-0.0145 -0.77633,-8.3e-4 -1.552767,-8.4e-4 -2.328946,0.0145 -0.289414,0.006 -0.581541,-0.0132 -0.86793,0.0289 -0.167784,0.0247 -0.347865,0.0405 -0.491827,0.13019 -0.12476,0.0777 -0.160473,0.26199 -0.28931,0.33271 -0.170971,0.0938 -0.385011,0.0633 -0.57862,0.0868 -0.206716,0.0251 -0.432358,-0.0281 -0.622016,0.0579 -0.11494,0.0521 -0.175716,0.18227 -0.274837,0.26038 z"
           id="path41"
           sodipodi:nodetypes="aaaaaaaaaaaaaaaaaaaaaaaaaaaaaaaaa" /><path
           style="fill:#ffffff"
           d="m 55.909157,94.720093 c 0.09996,0.160444 0.09836,0.379506 0.05786,0.564154 -0.111625,0.508883 -0.491409,0.922341 -0.795603,1.345292 -0.495015,0.688268 -1.074884,1.313791 -1.663532,1.923911 -0.452468,0.468973 -0.921746,0.925589 -1.432085,1.330826 -0.769787,0.611254 -1.614472,1.122784 -2.444669,1.649064 -0.900277,0.57071 -1.81498,1.11996 -2.748445,1.6346 -0.753498,0.41542 -1.532362,0.78307 -2.300015,1.17171 -0.775329,0.39252 -1.547947,0.79059 -2.328945,1.17171 -0.800564,0.39067 -1.611213,0.76033 -2.415739,1.14277 -1.081062,0.5139 -2.176111,0.99977 -3.240272,1.54781 -1.053408,0.5425 -2.054809,1.18252 -3.110082,1.72139 -0.616669,0.3149 -1.235885,0.62963 -1.880515,0.8824 -0.650217,0.25496 -1.325073,0.44329 -1.996239,0.63648 -0.650716,0.1873 -1.29789,0.40434 -1.967308,0.50629 -0.567978,0.0865 -1.147352,0.1104 -1.721394,0.0868 -0.291624,-0.012 -0.593103,-0.0175 -0.86793,-0.11573 -0.112136,-0.0401 -0.290046,-0.0697 -0.303776,-0.18805 -0.0071,-0.061 0.07601,-0.10137 0.13019,-0.13019 0.667896,-0.3553 1.497973,-0.23436 2.227687,-0.43396 1.110648,-0.3038 2.171903,-0.7657 3.254737,-1.15724 0.657049,-0.23758 1.340141,-0.41535 1.967308,-0.72328 0.960721,-0.4717 1.80601,-1.14926 2.719514,-1.70693 0.741815,-0.45286 1.492543,-0.89098 2.242152,-1.33082 0.721152,-0.42314 1.458261,-0.81943 2.169825,-1.2585 0.868403,-0.53585 1.690087,-1.14525 2.560394,-1.678 0.738615,-0.45214 1.490574,-0.88351 2.256618,-1.28743 0.820265,-0.43251 1.691113,-0.76621 2.502531,-1.2151 0.358237,-0.19818 0.711955,-0.40805 1.041516,-0.65095 0.820123,-0.604462 1.546649,-1.326603 2.31448,-1.996238 0.53296,-0.464801 1.038386,-0.962158 1.591205,-1.403154 0.580598,-0.463156 1.195196,-0.882551 1.808188,-1.301895 0.365375,-0.249951 0.7092,-0.543724 1.113843,-0.723275 0.223435,-0.09914 0.465235,-0.16746 0.70881,-0.188051 0.106139,-0.009 0.217287,-0.005 0.318241,0.02893 0.08623,0.02902 0.183339,0.06744 0.23145,0.144656 z"
           id="path42"
           sodipodi:nodetypes="aaaaaaaaaaaaaaaaaaaaaaaaaaaaaaaaaaaa" /><path
           style="fill:#ffffff"
           d="m 26.442934,123.13033 c -0.256506,0.18068 -0.450048,0.43736 -0.679879,0.65095 -0.242585,0.22544 -0.450911,0.49988 -0.73774,0.66541 -0.149241,0.0861 -0.321283,0.13453 -0.491827,0.15913 -0.181415,0.0262 -0.370176,0.0225 -0.549689,-0.0145 -0.203447,-0.042 -0.434081,-0.0823 -0.57862,-0.23145 -0.07854,-0.0811 -0.11249,-0.20541 -0.115724,-0.31824 -0.0058,-0.20128 0.06234,-0.41077 0.173586,-0.57862 0.221353,-0.33398 0.5825,-0.56005 0.925792,-0.76667 0.335268,-0.20179 0.736818,-0.26967 1.084912,-0.44843 0.267797,-0.13753 0.522302,-0.30154 0.766672,-0.47736 0.116768,-0.084 0.201308,-0.2163 0.332706,-0.27485 0.209291,-0.0932 0.451939,-0.12454 0.679879,-0.10126 0.153275,0.0157 0.322147,0.0531 0.433965,0.15912 0.106605,0.10105 0.155483,0.25927 0.173586,0.40504 0.02648,0.21319 0.0382,0.47307 -0.101259,0.63648 -0.161346,0.18906 -0.478893,0.13704 -0.708809,0.23145 -0.209452,0.086 -0.42244,0.17341 -0.607551,0.3038 z"
           id="path43"
           sodipodi:nodetypes="aaaaaaaaaaaaaaaaaa" /><path
           style="fill:#ffffff"
           d="m 35.237957,130.88384 c 0.315297,0.002 0.59501,0.2182 0.86793,0.3761 0.489157,0.283 0.926654,0.64957 1.359757,1.01259 0.517619,0.43386 1.013368,0.89613 1.475481,1.38869 0.496757,0.52949 0.957757,1.09368 1.388688,1.678 0.376256,0.51018 0.708418,1.05185 1.041516,1.5912 0.322445,0.5221 0.663347,1.03652 0.925792,1.59121 0.259707,0.5489 0.52869,1.10932 0.636482,1.70692 0.114695,0.63587 0.219959,1.33085 0,1.93838 -0.05128,0.14164 -0.160163,0.26963 -0.28931,0.34717 -0.202689,0.1217 -0.457926,0.14491 -0.694344,0.14466 -0.187246,-2e-4 -0.387023,-0.023 -0.549689,-0.11573 -0.136378,-0.0778 -0.25006,-0.20576 -0.318241,-0.34717 -0.08057,-0.16709 -0.07228,-0.36476 -0.08679,-0.54969 -0.03243,-0.41341 0.05388,-0.83287 0,-1.24403 -0.0389,-0.29688 -0.132905,-0.58519 -0.231448,-0.86793 -0.1592,-0.45678 -0.360832,-0.89891 -0.57862,-1.33083 -0.225652,-0.44752 -0.460435,-0.89438 -0.752206,-1.30189 -0.238715,-0.33341 -0.540399,-0.61688 -0.810068,-0.92579 -0.260721,-0.29866 -0.518134,-0.60021 -0.781137,-0.89686 -0.353319,-0.39852 -0.693238,-0.81019 -1.070447,-1.18617 -0.266027,-0.26516 -0.563931,-0.49644 -0.838999,-0.75221 -0.274705,-0.25543 -0.569624,-0.49322 -0.810068,-0.78114 -0.133727,-0.16013 -0.281488,-0.32274 -0.347172,-0.52076 -0.05777,-0.17415 -0.07027,-0.37092 -0.02893,-0.54968 0.02237,-0.0967 0.07062,-0.19422 0.144655,-0.26038 0.09348,-0.0835 0.221804,-0.14554 0.347168,-0.14466 z"
           id="path44"
           sodipodi:nodetypes="aaaaaaaaaaaaaaaaaaaaaaaaaaa" /><path
           id="path46"
           style="fill:#ffffff"
           d="m 51.863281,103.21289 c -0.08374,-0.0109 -0.173205,-0.003 -0.25,0.0137 -0.732769,0.15501 -1.224444,0.86198 -1.851562,1.27149 -0.873884,0.57065 -1.767206,1.1133 -2.66211,1.65039 -0.707694,0.42473 -1.406492,0.86695 -2.140625,1.24414 -0.940619,0.48329 -1.926357,0.87096 -2.892578,1.30078 -1.357177,0.60374 -2.736522,1.16145 -4.080078,1.79492 -1.201491,0.56649 -2.358487,1.22355 -3.558594,1.79297 -0.963372,0.45709 -1.923475,0.92827 -2.921875,1.30273 -0.614071,0.23031 -1.247333,0.40851 -1.880859,0.57813 -0.334453,0.0895 -0.667176,0.1963 -1.011719,0.23047 -0.355203,0.0352 -0.715005,-0.0615 -1.070312,-0.0273 -0.177005,0.017 -0.392792,-0.007 -0.521485,0.11524 -0.07958,0.0759 -0.09257,0.20861 -0.08594,0.31836 0.01695,0.28063 0.133223,0.56967 0.318359,0.78125 0.907403,1.03702 2.361908,1.41985 3.585938,2.05273 0.916,0.47361 1.916879,0.7815 2.80664,1.30274 0.369512,0.21647 0.750067,0.43771 1.041016,0.75195 0.138209,0.14927 0.263259,0.32565 0.318359,0.52148 0.03396,0.12068 0.01609,0.25067 0,0.375 -0.02431,0.1879 -0.05017,0.38649 -0.144531,0.55079 -0.149438,0.26018 -0.436615,0.41314 -0.636719,0.63671 -0.123546,0.13803 -0.272943,0.26324 -0.345703,0.4336 -0.05732,0.13421 -0.08111,0.2894 -0.05859,0.43359 0.03128,0.20032 0.117935,0.40395 0.259766,0.54883 0.211189,0.21573 0.526052,0.30524 0.810547,0.40625 0.335145,0.11899 0.691756,0.1634 1.041016,0.23047 0.354991,0.0682 0.70884,0.17563 1.070312,0.17383 0.283789,-0.001 0.579247,-0.0322 0.839844,-0.14453 0.221387,-0.0955 0.401564,-0.26943 0.578125,-0.4336 0.505591,-0.47011 0.861187,-1.08455 1.359375,-1.5625 0.133678,-0.12825 0.269543,-0.26543 0.435547,-0.34765 0.28505,-0.14118 0.614351,-0.1657 0.925781,-0.23047 0.51688,-0.10751 1.034594,-0.25558 1.5625,-0.26172 0.409119,-0.005 0.837804,0.0149 1.214844,0.17383 0.437269,0.18425 0.79348,0.53158 1.126953,0.86914 0.304982,0.30872 0.593261,0.64988 0.78125,1.04101 0.133746,0.27828 0.213908,0.5883 0.232422,0.89649 0.0175,0.29135 -0.03248,0.58729 -0.115235,0.86718 -0.05748,0.19443 -0.134207,0.39316 -0.261718,0.55079 -0.129799,0.16046 -0.292967,0.3211 -0.492188,0.375 -0.225153,0.0609 -0.482299,0.0134 -0.693359,-0.0859 -0.203715,-0.0958 -0.352475,-0.28635 -0.492188,-0.46289 -0.179642,-0.22699 -0.231209,-0.54499 -0.433594,-0.75196 -0.220857,-0.22586 -0.508254,-0.40048 -0.810546,-0.49218 -0.212453,-0.0645 -0.453646,-0.094 -0.666016,-0.0293 -0.217714,0.0663 -0.373725,0.26085 -0.548828,0.40625 -0.152231,0.12641 -0.360097,0.22059 -0.433594,0.4043 -0.061,0.15248 -0.01655,0.33448 0.0293,0.49218 0.05544,0.19068 0.139643,0.3907 0.289063,0.52149 0.218296,0.19108 0.546104,0.1971 0.810546,0.31641 0.404929,0.18269 0.820582,0.3561 1.185547,0.60937 0.246754,0.17124 0.46838,0.38126 0.666016,0.60742 0.301003,0.34445 0.5313,0.74257 0.779297,1.12695 0.274369,0.42527 0.569779,0.84296 0.78125,1.30274 0.191145,0.41559 0.313441,0.85994 0.435547,1.30078 0.166131,0.59979 0.269285,1.21667 0.404297,1.82422 0.154299,0.69434 0.34081,1.3813 0.46289,2.08203 0.105114,0.60334 0.178154,1.21208 0.230469,1.82227 0.05525,0.64441 0.03561,1.2948 0.08789,1.93945 0.04003,0.4936 0.04285,0.99703 0.173828,1.47461 0.05024,0.18319 0.103093,0.38055 0.230468,0.52148 0.156403,0.17304 0.380837,0.29231 0.607422,0.34766 0.234391,0.0573 0.490934,0.0308 0.72461,-0.0293 0.229723,-0.0591 0.42969,-0.20258 0.636718,-0.31836 0.366691,-0.20507 0.728064,-0.42233 1.070313,-0.66601 0.374207,-0.26643 0.741472,-0.54644 1.070312,-0.86719 0.308502,-0.30091 0.592196,-0.63032 0.837891,-0.98438 0.226421,-0.32627 0.340916,-0.72395 0.580078,-1.04101 0.17247,-0.22865 0.351521,-0.47881 0.607422,-0.60742 0.296117,-0.14882 0.652581,-0.1123 0.982422,-0.14453 0.393985,-0.0385 0.797487,0.009 1.1875,-0.0586 0.228424,-0.0397 0.459864,-0.0933 0.664062,-0.20312 0.31972,-0.17193 0.582424,-0.4374 0.839844,-0.69336 0.383503,-0.38133 0.74814,-0.78949 1.041016,-1.24414 0.144824,-0.22482 0.237662,-0.4789 0.347656,-0.72266 0.111977,-0.24816 0.163754,-0.52786 0.318359,-0.75195 0.174303,-0.25264 0.396584,-0.48617 0.664063,-0.63672 0.356747,-0.20079 0.778191,-0.31113 1.1875,-0.31836 0.257285,-0.005 0.541127,0.0262 0.751953,0.17383 0.188469,0.1319 0.295465,0.36227 0.375,0.57812 0.07734,0.20989 0.127146,0.44581 0.08789,0.66602 -0.04012,0.22507 -0.230152,0.3965 -0.31836,0.60742 -0.09767,0.23354 -0.274475,0.47304 -0.232422,0.72266 0.02403,0.14264 0.154608,0.25043 0.261719,0.34765 0.192271,0.17452 0.428502,0.29505 0.664063,0.4043 0.248987,0.11548 0.507553,0.23926 0.78125,0.25977 0.224504,0.0168 0.464649,-0.0145 0.666015,-0.11524 0.402732,-0.20136 0.676447,-0.59727 0.984375,-0.92578 0.196752,-0.2099 0.436373,-0.40121 0.548828,-0.66602 0.201059,-0.47346 0.210984,-1.02017 0.173828,-1.5332 -0.02737,-0.37795 -0.120825,-0.76007 -0.289062,-1.09961 -0.22268,-0.44942 -0.60256,-0.80202 -0.925781,-1.18555 -0.646709,-0.76736 -1.416466,-1.42887 -2.025391,-2.22656 -0.81815,-1.07177 -1.499829,-2.244 -2.169922,-3.41406 -0.619454,-1.08164 -1.170071,-2.20326 -1.707031,-3.32812 -0.277131,-0.58057 -0.629753,-1.13846 -0.78125,-1.76368 -0.07735,-0.31921 -0.04368,-0.65618 -0.05664,-0.98437 -0.03769,-0.95417 0.0039,-1.91041 -0.05859,-2.86328 -0.0571,-0.8714 -0.150425,-1.74327 -0.289063,-2.60547 -0.1111,-0.69094 -0.356731,-1.35716 -0.433594,-2.05274 -0.08898,-0.80523 0.569657,-1.88615 -0.0293,-2.43164 -0.350527,-0.31924 -0.94387,0.12066 -1.417969,0.11719 -0.804112,-0.006 -1.657644,0.0757 -2.400391,-0.23242 -0.265736,-0.11025 -0.474509,-0.33413 -0.666016,-0.54883 -0.153123,-0.17167 -0.310043,-0.35803 -0.376953,-0.57812 -0.20198,-0.66439 -0.01271,-1.38978 -0.0293,-2.08399 -0.0136,-0.56914 0.314304,-1.27517 -0.05664,-1.70703 -0.05114,-0.0595 -0.129151,-0.0887 -0.212891,-0.0996 z m 0.707031,12.88672 c 0.419468,0.006 0.842688,0.0789 1.240235,0.21289 0.247954,0.0835 0.497835,0.1939 0.697265,0.36328 0.230625,0.19587 0.400885,0.45851 0.544922,0.72461 0.168589,0.31146 0.303939,0.65053 0.361328,1 0.07029,0.42808 0.0612,0.87651 -0.0293,1.30078 -0.07073,0.33157 -0.21655,0.64773 -0.392578,0.9375 -0.163596,0.26929 -0.377029,0.50953 -0.605469,0.72656 -0.219364,0.2084 -0.475135,0.3766 -0.726563,0.54493 -0.360774,0.24154 -0.709709,0.52157 -1.11914,0.66601 -0.269021,0.0948 -0.562546,0.1301 -0.847657,0.1211 -0.34005,-0.0114 -0.678924,-0.0949 -0.998047,-0.21289 -0.237064,-0.0877 -0.454833,-0.22442 -0.666015,-0.36329 -0.246124,-0.16185 -0.490064,-0.33363 -0.695313,-0.54492 -0.165858,-0.17075 -0.305561,-0.36765 -0.423828,-0.57422 -0.114491,-0.19998 -0.213167,-0.41234 -0.273437,-0.63476 -0.06381,-0.23545 -0.106054,-0.48317 -0.08984,-0.72657 0.01316,-0.19771 0.08228,-0.39009 0.150391,-0.57617 0.08063,-0.2203 0.198169,-0.42476 0.302734,-0.63476 0.126672,-0.25442 0.235939,-0.52002 0.394531,-0.75586 0.147734,-0.21969 0.317641,-0.42754 0.513672,-0.60547 0.209241,-0.18993 0.44219,-0.35875 0.695313,-0.48438 0.351412,-0.17442 0.736957,-0.27468 1.11914,-0.36328 0.277906,-0.0644 0.56241,-0.12509 0.847656,-0.12109 z" /><path
           style="fill:#ffffff"
           d="m 54.014176,156.83495 c 0.725034,-0.75914 1.619967,-1.33663 2.459135,-1.96731 0.89619,-0.67354 1.804323,-1.33386 2.748445,-1.93838 0.713213,-0.45667 1.473114,-0.83631 2.198756,-1.27296 0.389767,-0.23454 0.707625,-0.65419 1.15724,-0.72328 0.265867,-0.0409 0.58788,0.0154 0.781137,0.20252 0.122775,0.11886 0.153159,0.32115 0.144655,0.49183 -0.05231,1.0499 -0.786317,1.94984 -1.186171,2.92203 -0.619931,1.50727 -1.150063,3.05632 -1.880515,4.51324 -1.034803,2.06397 -2.376651,3.9594 -3.529582,5.95978 -0.955117,1.65716 -1.759562,3.4042 -2.806307,5.00506 -0.866586,1.32533 -1.921082,2.51794 -2.864169,3.78997 -1.562395,2.10735 -3.051968,4.26837 -4.62896,6.36482 -0.594878,0.79083 -1.150275,1.61732 -1.822653,2.34341 -0.389633,0.42076 -0.788595,0.85026 -1.272964,1.15724 -0.661045,0.41895 -1.440265,0.61359 -2.169825,0.89686 -0.526115,0.20428 -1.035384,0.4807 -1.591205,0.57862 -0.351404,0.0619 -0.855574,0.28486 -1.070447,0 -0.08456,-0.1121 0.03628,-0.28926 0.115724,-0.40504 0.389583,-0.56775 1.09068,-0.84114 1.649067,-1.24403 0.551,-0.39756 1.173832,-0.70175 1.677998,-1.15724 0.441635,-0.399 0.771919,-0.90614 1.15724,-1.35976 1.129559,-1.32976 2.330129,-2.60266 3.384927,-3.99247 0.675917,-0.89059 1.29393,-1.82557 1.880515,-2.77738 0.840349,-1.36357 1.551246,-2.80288 2.343411,-4.195 0.485104,-0.8525 1.012394,-1.68126 1.475481,-2.54592 0.370589,-0.69195 0.717693,-1.39694 1.041516,-2.11197 0.374587,-0.82712 0.639775,-1.70271 1.041516,-2.51699 0.409107,-0.82921 0.871369,-1.6349 1.388688,-2.40128 0.219098,-0.32458 0.549329,-0.57493 0.723275,-0.92579 0.08416,-0.16975 0.175839,-0.36281 0.144655,-0.54969 -0.02289,-0.13719 -0.138488,-0.24372 -0.231448,-0.34717 -0.151026,-0.16807 -0.314106,-0.34257 -0.520758,-0.43396 -0.320558,-0.14176 -0.694173,-0.0977 -1.041516,-0.14466 -0.366284,-0.0495 -0.823536,0.10138 -1.099378,-0.14465 -0.08902,-0.0794 -0.08064,-0.22805 -0.08679,-0.34718 -0.007,-0.1362 0.0066,-0.27865 0.05786,-0.40503 0.0493,-0.12155 0.140853,-0.22338 0.231447,-0.31824 z"
           id="path47"
           sodipodi:nodetypes="aaaaaaaaaaaaaaaaaaaaaaaaaaaaaaaaaaaaaa" /><path
           style="fill:#ffffff"
           d="m 37.436713,185.59236 c 0.155477,-0.0796 0.357715,-0.12052 0.520758,-0.0579 0.216809,0.0833 0.388149,0.30087 0.462896,0.52076 0.08713,0.25631 0.02828,0.55343 -0.05786,0.81007 -0.0732,0.21808 -0.301223,0.36111 -0.376103,0.57862 -0.07247,0.21051 -0.02767,0.44483 -0.05786,0.66541 -0.02129,0.15554 -0.0017,0.33096 -0.08679,0.4629 -0.06379,0.0989 -0.174504,0.1765 -0.28931,0.20251 -0.171632,0.0389 -0.352888,-0.034 -0.520758,-0.0868 -0.213968,-0.0673 -0.426758,-0.15654 -0.607551,-0.28931 -0.1485,-0.10905 -0.277544,-0.24937 -0.376103,-0.40503 -0.05556,-0.0877 -0.112673,-0.18549 -0.115724,-0.28931 -0.0045,-0.15242 0.03452,-0.32852 0.144655,-0.43397 0.101421,-0.0971 0.314062,-0.009 0.405034,-0.11572 0.106949,-0.12574 -0.0034,-0.33855 0.05786,-0.49183 0.0716,-0.17909 0.224477,-0.31408 0.347172,-0.4629 0.173725,-0.21071 0.30658,-0.48308 0.549684,-0.6075 z"
           id="path48"
           sodipodi:nodetypes="aaaaaaaaaaaaaaaaa" /><path
           style="fill:#2c4293;fill-opacity:1"
           d="m 64.37268,89.648311 c -0.439634,0.161353 -0.856864,0.51974 -1.030879,0.954518 -0.07581,0.189419 0.04353,0.406934 0.03818,0.610891 -0.0087,0.332981 -0.293473,0.711743 -0.114543,0.992699 0.151334,0.237624 0.54667,0.386759 0.801795,0.267265 0.284655,-0.133325 0.162919,-0.620962 0.343627,-0.878156 0.311108,-0.442788 0.956037,-0.597649 1.221783,-1.06906 0.107889,-0.191385 0.222652,-0.457812 0.114542,-0.649072 -0.08723,-0.154319 -0.322808,-0.154764 -0.49635,-0.190904 -0.286841,-0.05973 -0.6031,-0.13913 -0.878155,-0.03818 z"
           id="path49"
           sodipodi:nodetypes="aaaaaaaaaa" /></g></g></g></svg>
