<?xml version="1.0" encoding="UTF-8" standalone="no"?>
<!-- Created with Inkscape (http://www.inkscape.org/) -->

<svg
   width="256"
   height="256"
   viewBox="0 0 256 256"
   version="1.1"
   id="svg1"
   xml:space="preserve"
   inkscape:version="1.4 (e7c3feb100, 2024-10-09)"
   sodipodi:docname="jump-v2.svg"
   inkscape:export-filename="jump-v2.png"
   inkscape:export-xdpi="192"
   inkscape:export-ydpi="192"
   xmlns:inkscape="http://www.inkscape.org/namespaces/inkscape"
   xmlns:sodipodi="http://sodipodi.sourceforge.net/DTD/sodipodi-0.dtd"
   xmlns="http://www.w3.org/2000/svg"
   xmlns:svg="http://www.w3.org/2000/svg"><sodipodi:namedview
     id="namedview1"
     pagecolor="#ffffff"
     bordercolor="#666666"
     borderopacity="1.0"
     inkscape:showpageshadow="2"
     inkscape:pageopacity="0.0"
     inkscape:pagecheckerboard="0"
     inkscape:deskcolor="#d1d1d1"
     inkscape:document-units="px"
     inkscape:zoom="5.31"
     inkscape:cx="147.36347"
     inkscape:cy="130.50847"
     inkscape:window-width="3440"
     inkscape:window-height="1395"
     inkscape:window-x="0"
     inkscape:window-y="22"
     inkscape:window-maximized="1"
     inkscape:current-layer="layer1" /><defs
     id="defs1"><inkscape:path-effect
       effect="simplify"
       id="path-effect36"
       is_visible="true"
       lpeversion="1.3"
       threshold="5"
       steps="14.445122"
       smooth_angles="360"
       helper_size="10"
       simplify_individual_paths="false"
       simplify_just_coalesce="false" /><inkscape:path-effect
       effect="simplify"
       id="path-effect35"
       is_visible="true"
       lpeversion="1.3"
       threshold="0.01"
       steps="1"
       smooth_angles="360"
       helper_size="10"
       simplify_individual_paths="false"
       simplify_just_coalesce="false" /><inkscape:path-effect
       effect="simplify"
       id="path-effect34"
       is_visible="true"
       lpeversion="1.3"
       threshold="65.490177"
       steps="4.6858407"
       smooth_angles="360"
       helper_size="10"
       simplify_individual_paths="false"
       simplify_just_coalesce="false" /><inkscape:path-effect
       effect="simplify"
       id="path-effect33"
       is_visible="true"
       lpeversion="1.3"
       threshold="6.1"
       steps="11"
       smooth_angles="360"
       helper_size="10"
       simplify_individual_paths="false"
       simplify_just_coalesce="false" /><inkscape:path-effect
       effect="powerstroke"
       message=""
       id="path-effect8"
       is_visible="true"
       lpeversion="1.3"
       scale_width="1"
       interpolator_type="CentripetalCatmullRom"
       interpolator_beta="0.2"
       start_linecap_type="zerowidth"
       end_linecap_type="zerowidth"
       offset_points="21.5,0.52349502"
       linejoin_type="round"
       miter_limit="4"
       not_jump="false"
       sort_points="true" /><inkscape:path-effect
       effect="simplify"
       id="path-effect1"
       is_visible="true"
       lpeversion="1.3"
       threshold="19.034646"
       steps="19.429204"
       smooth_angles="360"
       helper_size="10.486726"
       simplify_individual_paths="false"
       simplify_just_coalesce="false" /><inkscape:path-effect
       effect="fill_between_many"
       method="bsplinespiro"
       autoreverse="false"
       close="false"
       join="false"
       linkedpaths="#path1,0,1"
       id="path-effect9" /><mask
       maskUnits="userSpaceOnUse"
       id="mask38"><rect
         style="fill:#ffffff;fill-opacity:1"
         id="rect38"
         width="55.351357"
         height="63.351349"
         x="97.513512"
         y="144" /></mask></defs><g
     inkscape:label="Layer 1"
     inkscape:groupmode="layer"
     id="layer1"><rect
       style="fill:#b5312d;fill-opacity:1;stroke:none;stroke-width:14.8744;stroke-opacity:1"
       id="rect32"
       width="256"
       height="256"
       x="0"
       y="0" /><ellipse
       style="fill:#2c4293;fill-opacity:1;stroke:none;stroke-width:1.04699;stroke-opacity:1"
       id="path3-9"
       cx="36.620342"
       cy="109.72929"
       rx="8.7694006"
       ry="9.1086226" /><path
       style="fill:#2c4293;fill-opacity:1;stroke:none;stroke-width:1.04699px;stroke-linecap:butt;stroke-linejoin:miter;stroke-opacity:1"
       d="m 124.22712,86.658474 3.29152,0.05229 23.12879,31.084685 24.91197,-31.040468 3.25834,-0.03719 0.0438,50.677888 -11.42779,0.44729 -1.07524,-24.85169 -13.28052,21.45957 -3.4765,0.0838 -13.60813,-21.60643 -0.7013,24.07813 -11.65106,-0.40668 z"
       id="path6-0"
       sodipodi:nodetypes="cccccccccccccc" /><path
       style="fill:#ffffff;fill-opacity:1;stroke:none;stroke-width:1.04699px;stroke-linecap:butt;stroke-linejoin:miter;stroke-opacity:1"
       d="m 113.64726,101.83738 3.20602,-0.75714 28.47698,25.90485 18.81,-35.630481 2.99652,-0.675821 9.49929,49.771222 -11.23151,2.52779 -5.55293,-23.91325 -9.05229,23.76163 -3.39459,0.79205 -17.35022,-18.41525 3.8067,23.55212 -11.53886,2.18963 z"
       id="path6"
       sodipodi:nodetypes="cccccccccccccc" /><path
       id="path9"
       style="fill:#eeb001;fill-opacity:1;stroke:none;stroke-width:1.04699;stroke-opacity:1"
       d="m 76.014231,43.278985 -14.482403,15.120214 5.230588,20.729527 19.71299,5.609315 14.482404,-15.122309 -5.23059,-20.729528 z m 1.035739,4.09855 15.813499,4.498766 L 97.060312,68.50728 85.441661,80.637395 69.626167,76.138629 65.43132,59.507652 Z" /><path
       id="path9-6"
       style="fill:#eeb001;fill-opacity:1;stroke:none;stroke-width:0.615302;stroke-opacity:1"
       d="m 77.949665,51.826053 -8.51111,8.885943 3.073945,12.182459 11.585055,3.296517 8.511111,-8.887173 -3.073945,-12.18246 z m 0.60869,2.408662 9.293374,2.643863 2.466434,9.773799 -6.828128,7.128702 -9.294547,-2.643863 -2.465255,-9.773797 z" /><path
       id="path10"
       style="fill:#eeb001;fill-opacity:1;stroke:none;stroke-width:1.04699px;stroke-linecap:butt;stroke-linejoin:miter;stroke-opacity:1"
       d="m 49.716307,40.337819 3.953375,14.386833 -5.428157,-1.391328 -1.472786,-8.044138 -4.272678,-2.089087 1.841981,8.894859 -4.78955,-1.23627 -0.514877,3.713002 4.051161,1.313798 -4.639877,5.802089 3.681967,0.850722 5.599783,-5.802089 5.060958,1.378756 -10.054064,10.474771 3.536285,1.144073 9.012336,-9.137923 2.169267,7.897462 2.652213,-2.707222 -1.594521,-6.112204 4.83545,1.31799 0.884072,-3.560039 -4.651851,-1.192268 4.548077,-4.611916 -1.580551,-3.67738 -5.575835,5.81047 -3.422533,-13.112846 z" /><path
       id="path10-7"
       style="fill:#eeb001;fill-opacity:1;stroke:none;stroke-width:1.04699px;stroke-linecap:butt;stroke-linejoin:miter;stroke-opacity:1"
       d="m 84.325609,23.184226 -9.594957,11.077767 -1.717654,-5.582702 5.751614,-5.534393 -0.545945,-4.91545 -6.247978,6.310525 -1.508579,-4.930437 -3.281203,1.486412 1.05856,4.310906 -7.138223,-1.106353 1.240546,3.73802 7.64151,1.964587 1.535326,5.247803 -13.766474,-3.497158 0.926255,3.761576 12.136103,3.266687 -5.267489,6.0802 3.586136,0.951879 4.120985,-4.630305 1.466372,5.014321 3.350722,-1.076122 -1.47207,-4.784253 6.12486,1.648292 2.153665,-3.34122 -7.63575,-1.93878 8.840075,-9.93519 z" /><path
       id="path10-0"
       style="fill:#eeb001;fill-opacity:1;stroke:none;stroke-width:1.04699px;stroke-linecap:butt;stroke-linejoin:miter;stroke-opacity:1"
       d="m 116.65976,46.830029 -13.91974,-3.256246 3.76575,-4.334228 7.42924,2.500347 3.79483,-2.934999 -8.31727,-2.56813 3.32992,-3.82018 -2.85629,-2.254864 -3.04066,3.102665 -2.62424,-7.057337 -2.47659,2.98456 2.16394,7.941773 -3.57915,4.001923 -3.933281,-14.286521 -2.651912,2.70966 3.315524,12.685645 -7.640626,-1.788292 0.990797,3.741874 5.872978,1.461778 -3.420247,3.823295 2.551422,2.521685 3.22713,-3.714406 1.673565,6.402034 3.83133,0.307092 -2.18244,-7.923724 12.60043,3.134454 z" /><path
       id="path10-06"
       style="fill:#eeb001;fill-opacity:1;stroke:none;stroke-width:1.04699px;stroke-linecap:butt;stroke-linejoin:miter;stroke-opacity:1"
       d="m 112.81423,87.791141 -3.97152,-14.381325 5.42991,1.383782 1.48292,8.042085 4.27533,2.083146 -1.85321,-8.892293 4.7911,1.229614 0.5102,-3.713714 -4.05282,-1.308168 4.63256,-5.808533 -3.68304,-0.845602 -5.59247,5.809865 -5.06269,-1.371718 10.04085,-10.488737 -3.5377,-1.139157 -9.00082,9.150441 -2.17921,-7.894439 -2.64882,2.710906 1.60224,6.109982 -4.837101,-1.311268 -0.879589,3.561266 4.65335,1.185799 -4.542253,4.618236 1.585168,3.675178 5.568515,-5.818214 3.43906,13.108077 z" /><path
       id="path10-6"
       style="fill:#eeb001;fill-opacity:1;stroke:none;stroke-width:1.04699px;stroke-linecap:butt;stroke-linejoin:miter;stroke-opacity:1"
       d="m 77.565392,104.71322 9.645549,-11.029222 1.692083,5.591304 -5.776883,5.505298 0.523445,4.91816 6.276787,-6.27893 1.485995,4.93799 3.287971,-1.46983 -1.03882,-4.31621 7.133071,1.14237 -1.223417,-3.744243 -7.63243,-2.003125 -1.511285,-5.255484 13.750312,3.56658 -0.90902,-3.7662 -12.121024,-3.327895 5.295262,-6.053544 -3.581742,-0.969971 -4.14213,4.609462 -1.443399,-5.021658 -3.355611,1.059199 1.450154,4.791624 -6.117242,-1.679173 -2.168938,3.330306 7.626788,1.977288 -8.885448,9.890464 z" /><path
       id="path10-4"
       style="fill:#eeb001;fill-opacity:1;stroke:none;stroke-width:1.04699px;stroke-linecap:butt;stroke-linejoin:miter;stroke-opacity:1"
       d="m 45.403702,80.360049 13.818214,3.702371 -3.890415,4.211092 -7.352813,-2.738095 -3.878668,2.811585 8.23846,2.834395 -3.439806,3.711301 2.789183,2.345668 3.12973,-3.003428 2.41715,7.138412 2.562491,-2.903508 -1.931269,-8.007637 3.694221,-3.884948 3.514688,14.406313 2.729704,-2.623104 -2.943919,-12.786318 7.584878,2.033169 -0.881182,-3.771984 -5.827573,-1.649964 3.530162,-3.711502 -2.476664,-2.602557 -3.333963,3.608886 -1.486028,-6.452851 -3.820578,-0.430163 1.950275,7.990194 -12.503083,-3.538202 z" /><path
       style="fill:#aac8d9;fill-opacity:1;stroke:none;stroke-width:1.04699px;stroke-linecap:butt;stroke-linejoin:miter;stroke-opacity:1"
       d="m 203.75462,232.47371 1.69436,-6.72937 -4.19905,-0.6188 -2.57838,-1.39227 -0.442,3.0166 -1.25235,0.69615 h -1.62069 l -0.88402,-0.77349 -0.442,-2.47517 -5.37774,0.15469 -0.36834,-0.92818 h -17.3119 l 1.03135,2.32047 -0.36834,0.85084 -0.95769,1.31493 -1.54702,-0.0773 -0.95767,-1.39229 0.58933,-2.24312 -0.14733,-0.46409 -14.8072,0.30939 0.44201,1.62433 -0.0737,1.62433 -0.66301,0.38675 -1.62069,-0.23205 0.29467,-1.62433 -0.51567,-1.00554 -1.25235,-0.92818 -1.03135,1.31492 -0.95768,1.23759 -0.66301,-1.62433 -7.95611,0.4641 -0.36834,1.54697 -1.47335,0.9282 -1.25235,0.23204 -1.47336,-1.62433 -12.0815,2.39782 -0.36833,1.08289 1.76802,0.77349 1.25235,-0.69615 0.44201,1.16025 2.57837,-0.30941 1.25235,1.0829 0.81033,-0.23205 1.25236,0.92819 4.5674,0.0773 0.73667,-0.77349 0.88402,-0.38675 0.95767,0.69614 h 2.65204 l 1.47335,-1.00554 0.95769,-0.61879 1.39968,1.16024 0.58935,-0.3094 0.221,-1.46964 0.81034,-0.54143 0.81035,0.23204 -0.73668,1.77903 1.98902,-0.54144 0.73668,-1.39228 2.5047,0.61879 4.05172,0.0773 0.95769,-1.16024 1.17867,-0.23205 1.25236,1.00554 3.02037,-0.38674 2.13637,1.54698 3.46237,-0.23206 h 1.54702 l 1.6207,1.85639 0.88401,-0.85084 -0.81034,-2.24312 h 2.13635 l 3.24139,1.23757 1.84169,0.54145 2.35737,-0.85084 2.72569,-1.93372 1.84169,1.93372 1.54703,0.6188 1.32602,-0.92819 0.58934,0.92819 1.10501,0.69614 h 0.95769 l 0.442,1.31493 2.57837,-0.38674 -0.0737,-2.01108 2.65204,1.39228 2.79937,0.0773 2.13636,-0.30938 z"
       id="path11" /><ellipse
       style="fill:#aac8d9;fill-opacity:1;stroke:none;stroke-width:1.04699;stroke-opacity:1"
       id="path12"
       cx="137.30638"
       cy="226.2858"
       rx="0.95767981"
       ry="0.92818838" /><ellipse
       style="fill:#aac8d9;fill-opacity:1;stroke:none;stroke-width:1.04699;stroke-opacity:1"
       id="path13"
       cx="170.16216"
       cy="225.74434"
       rx="0.81034446"
       ry="0.92818838" /><ellipse
       style="fill:#aac8d9;fill-opacity:1;stroke:none;stroke-width:1.04699;stroke-opacity:1"
       id="path14"
       cx="196.35101"
       cy="225.12555"
       rx="0.77351058"
       ry="0.92818838" /><ellipse
       style="fill:#aac8d9;fill-opacity:1;stroke:none;stroke-width:1.04699;stroke-opacity:1"
       id="path15"
       cx="158.37534"
       cy="231.39082"
       rx="0.73667675"
       ry="0.77349031" /><path
       style="fill:#aac8d9;fill-opacity:1;stroke:none;stroke-width:1.04699px;stroke-linecap:butt;stroke-linejoin:miter;stroke-opacity:1"
       d="m 208.24835,215.45692 1.25236,-6.03322 -4.27273,-0.4641 -1.84169,0.54145 -0.81035,-1.39229 -2.57837,0.46409 h -0.95768 l -1.98902,-0.38674 -2.2837,-1.39228 -1.84169,0.77349 -0.51568,0.69614 -2.0627,-0.1547 -1.62068,2.08842 -2.35737,-0.54144 -3.31504,-0.38675 -2.43104,-0.92818 -4.34639,-0.77349 -5.23041,0.0773 -3.1677,1.39229 -6.8511,-0.0773 -6.33542,-0.61879 -10.01881,0.69614 -4.93573,1.85637 -5.52507,0.0774 -6.77743,0.30939 -6.11442,0.77349 -3.60972,0.23205 -1.91536,-0.1547 -2.13636,2.01108 -2.13636,-0.85085 -4.7884,2.55253 h -2.72571 l -1.10501,1.16023 -4.272724,-0.0773 -3.16771,2.08843 h -3.020374 l -0.66301,2.08842 4.788399,1.23759 1.989028,-0.85084 3.388711,0.38674 0.88402,-0.1547 1.03134,-1.54698 2.35737,0.69614 0.73668,-1.54698 1.39968,0.6188 2.5047,0.46408 1.62069,-2.16576 3.60972,-0.0773 1.84169,2.01107 2.57837,-1.54698 2.21003,-0.1547 4.42005,-1.39228 2.65204,0.23205 3.24138,0.0773 -0.36833,-0.61879 0.95767,-1.31494 1.54702,-0.23205 0.0737,2.24313 4.5674,-0.54145 8.02978,-0.69614 1.54702,0.54145 -0.0737,-1.31494 3.90438,0.4641 5.67241,0.0773 5.30408,-0.54144 2.28369,1.39228 0.51568,-1.00553 2.0627,0.30939 h 3.1677 l 1.54703,-1.23758 5.74608,0.69613 2.50469,1.31494 3.75706,-0.61879 0.95768,-2.32047 1.69435,0.92819 4.64107,-1.16024 0.44201,-0.92819 1.76802,0.92819 0.88401,-1.54698 0.44201,0.85084 -1.10501,1.54698 1.25234,4.0995 4.19906,-0.77349 1.17868,-1.70168 3.60972,0.3094 0.36834,-2.55252 z"
       id="path16" /><ellipse
       style="fill:#aac8d9;fill-opacity:1;stroke:none;stroke-width:1.04699;stroke-opacity:1"
       id="path17"
       cx="134.21233"
       cy="216.65584"
       rx="0.58934146"
       ry="0.58011776" /><path
       style="fill:#aac8d9;fill-opacity:1;stroke:none;stroke-width:1.04699px;stroke-linecap:butt;stroke-linejoin:miter;stroke-opacity:1"
       d="m 209.09519,199.01883 1.27053,0.0702 -0.13374,3.1595 1.60487,0.21064 1.80549,-7.09136 -1.00305,-1.1936 -3.20975,-0.56169 -1.87236,0.56169 -1.27052,-0.35105 -1.20365,-1.33402 -1.40427,-0.21063 -1.53801,0.98296 -1.93922,-1.1936 -1.47114,-0.84254 -0.73557,1.26381 -0.8693,-0.35105 -0.93618,-0.98296 -2.13983,0.14042 -1.20366,1.05317 -1.87235,-0.35105 -1.80549,-0.70212 -1.73862,0.28085 -1.33739,0.63189 -1.73862,-0.28084 -2.60792,0.0702 -2.60792,0.56169 -1.87235,-0.91275 -1.27053,0.14042 -1.27053,0.56169 -4.81463,-1.54465 -3.94531,-0.14042 -2.47419,-0.0702 -4.8815,0.21062 -2.60791,2.59783 -1.93923,-0.91275 -2.67479,-0.70212 -3.00915,0.63191 -2.60792,-0.21064 -3.67784,-2.31697 -4.27966,0.70212 -2.6748,1.2638 -2.27357,0.21063 -2.00609,1.33402 -2.80853,-2.24676 -4.41342,2.10634 -2.27357,0.56169 -6.95446,1.33401 -1.538,-2.31697 -2.80854,1.47444 -1.3374,0.0702 -1.40426,2.38719 -2.00609,-0.42127 -3.61097,1.54465 -2.607925,0.98296 -2.139834,-1.05316 -2.273574,3.0893 -6.352632,1.33401 -5.215845,1.33402 -5.215845,1.96592 1.136787,1.89571 -2.741662,5.96797 3.544099,0.56169 0.735568,-3.51057 1.404266,1.05318 1.538006,0.35105 1.337396,-1.40423 2.006095,-2.66803 3.677839,0.84254 1.069917,-1.61487 5.416455,0.0702 3.009139,-1.26381 1.87236,-2.03613 1.13679,0.14042 0.80243,1.89571 1.538,-1.40422 2.40732,-0.77234 0.80243,-1.75528 1.27054,1.89571 1.73861,-0.98296 -0.26748,-1.40423 1.73861,0.98296 1.27054,-0.35105 2.34043,-2.94888 0.6687,3.01908 2.74167,-3.0893 h 1.40426 l 1.80549,0.91275 2.74166,0.35106 0.53496,-1.8255 0.46808,0.98296 5.5502,-2.10634 5.55019,-0.84254 3.94532,-0.42127 4.81463,0.98296 5.14897,-0.42127 1.93923,0.91276 9.56238,-1.54467 0.6687,1.05318 0.6687,-0.77233 4.34653,0.42127 0.26748,-0.91275 1.40427,-0.21064 0.80244,1.40424 h 3.74471 l 0.6687,-1.89571 1.00305,0.14042 0.46808,1.75529 2.27357,-0.84254 1.1368,-1.26381 2.80853,2.24678 3.27661,-0.14043 1.3374,-0.42128 1.53801,0.35107 1.93923,0.77233 3.61096,-0.28085 2.47418,-0.14042 0.80244,0.91274 2.47419,-0.21063 0.8693,1.61486 4.74776,0.70212 1.87235,-0.49148 z"
       id="path18" /><ellipse
       style="fill:#aac8d9;fill-opacity:1;stroke:none;stroke-width:1.04699;stroke-opacity:1"
       id="path19"
       cx="101.83601"
       cy="207.30379"
       rx="0.73556793"
       ry="0.5616917" /><ellipse
       style="fill:#aac8d9;fill-opacity:1;stroke:none;stroke-width:1.04699;stroke-opacity:1"
       id="path20"
       cx="99.094353"
       cy="207.68994"
       rx="0.40121886"
       ry="0.52658594" /><ellipse
       style="fill:#aac8d9;fill-opacity:1;stroke:none;stroke-width:1.04699;stroke-opacity:1"
       id="path21"
       cx="75.957397"
       cy="208.11121"
       rx="0.53495848"
       ry="0.66700888" /><ellipse
       style="fill:#aac8d9;fill-opacity:1;stroke:none;stroke-width:1.04699;stroke-opacity:1"
       id="path22"
       cx="74.519699"
       cy="214.04408"
       rx="0.90274245"
       ry="0.70211458" /><ellipse
       style="fill:#aac8d9;fill-opacity:1;stroke:none;stroke-width:1.04699;stroke-opacity:1"
       id="path23"
       cx="62.18222"
       cy="214.25471"
       rx="0.80243772"
       ry="0.5616917" /><ellipse
       style="fill:#aac8d9;fill-opacity:1;stroke:none;stroke-width:1.04699;stroke-opacity:1"
       id="path24"
       cx="170.34413"
       cy="196.84229"
       rx="0.50152355"
       ry="0.49148023" /><ellipse
       style="fill:#aac8d9;fill-opacity:1;stroke:none;stroke-width:1.04699;stroke-opacity:1"
       id="path25"
       cx="189.00081"
       cy="198.49225"
       rx="0.702133"
       ry="0.59679741" /><path
       style="fill:#aac8d9;fill-opacity:1;stroke:none;stroke-width:1.04699px;stroke-linecap:butt;stroke-linejoin:miter;stroke-opacity:1"
       d="m 64.656402,211.93775 3.009142,-1.40423 1.738615,0.35105 1.604876,-0.14042 -0.668699,-1.68508 3.477231,-2.4574 -1.203657,2.31698 0.06686,1.33401 2.474183,-0.56169 0.20061,1.05318 -1.538005,0.70211 -0.534959,1.40423 -0.735568,-0.77232 -0.735568,0.14042 -0.802437,2.38719 H 69.33728 l -1.538006,-1.47444 -3.209751,0.28084 -0.735567,-0.91274 z"
       id="path26" /><path
       style="fill:#aac8d9;fill-opacity:1;stroke:none;stroke-width:1.04699px;stroke-linecap:butt;stroke-linejoin:miter;stroke-opacity:1"
       d="m 201.40516,177.11285 h -6.95445 l -1.00305,2.45741 -5.01524,-0.0702 -2.13984,1.89571 -4.21279,-0.49148 -2.34045,-0.5617 0.13374,-0.63189 2.34045,-0.0702 1.73862,-0.35105 -1.1368,-1.33402 -1.87235,-0.98296 -0.6687,0.35106 -1.47113,1.33401 -2.34045,-1.2638 -4.01219,-0.35105 -2.80853,-1.47445 -2.40731,1.12338 -3.27661,-0.84253 -4.61402,2.03613 -6.82072,0.21063 -6.55325,-0.56169 -5.61706,-0.14042 -10.09735,0.14042 -10.49856,2.03614 -10.23108,1.96592 -3.07601,2.17656 h -3.14287 l -4.480284,0.91274 -2.674793,0.70211 -6.218892,0.5617 0.534958,1.05317 -4.279667,-0.49148 -0.33435,0.91275 -2.006094,0.6319 -3.5441,-0.0702 -4.212798,2.52761 -4.212798,-0.84254 -1.003047,1.8957 -4.279668,0.98296 -7.623158,4.07227 -1.805485,5.26586 0.802438,2.59783 1.003047,-0.0702 0.133739,-2.31697 1.872355,0.77232 0.802438,-1.68507 3.20975,0.21064 0.869308,-0.98296 2.072964,0.14042 v -2.03614 l 3.477231,-0.91274 1.337395,0.91274 1.872355,-1.05316 0.601828,-0.0702 -0.401218,-1.54466 -0.668698,0.0702 -0.13374,-1.26381 1.738614,0.42127 1.003048,-1.26381 0.20061,0.84254 -0.735568,1.40423 1.003047,0.0702 1.471136,-0.56169 0.06687,-1.2638 1.604874,0.77232 1.604876,0.21064 0.20061,-3.72122 1.270527,1.40423 0.668697,-0.56169 v -1.19359 l 1.538005,0.35105 1.003048,-0.77232 h 1.404266 l 2.541052,-0.35106 1.538006,-0.56169 7.623159,-0.49147 4.547147,-0.98296 0.60183,0.63189 1.47114,-0.63189 0.0668,-0.98296 3.61097,-0.28085 -0.26748,1.68507 2.60793,-0.56169 1.40427,-1.96592 5.61706,-0.0702 1.33739,-1.47444 8.4256,0.0702 1.67175,-1.54465 3.94531,0.0702 2.07297,0.49148 3.81158,0.49149 3.54409,-1.26382 3.61097,0.84255 4.8815,-0.5617 h 5.21584 l 4.8815,-1.8957 1.47114,0.56169 -0.6687,0.84253 0.53496,1.05318 2.13983,-1.33402 1.60488,0.0702 2.27357,-1.2638 1.06992,1.82549 3.27662,-0.77232 2.00609,0.98296 1.53801,-0.70211 2.40732,0.14042 3.00913,0.35105 3.00915,0.42128 0.33434,1.40423 1.67175,0.6319 1.06992,0.14042 -0.73558,-2.31698 2.80855,-0.14042 1.80547,-1.54465 1.3374,0.98296 2.60793,0.28084 -0.6687,2.03614 1.73861,0.84253 1.538,0.5617 0.86932,-1.89571 4.94836,0.56169 0.46809,-5.05523 -4.34654,-0.84254 z"
       id="path27" /><path
       style="fill:#aac8d9;fill-opacity:1;stroke:none;stroke-width:1.04699px;stroke-linecap:butt;stroke-linejoin:miter;stroke-opacity:1"
       d="m 218.72444,173.88313 1.20366,-3.58078 -3.87845,-1.47444 -0.8693,-0.70212 -2.54106,0.28085 -2.54105,-1.33403 -1.40426,0.35107 -3.47723,-2.24677 -2.13984,1.05317 h -5.75081 l -0.8693,-0.91275 -4.27967,0.0702 -16.18249,-0.70212 -1.47114,-0.91274 -8.22499,0.21063 -7.02133,0.56169 -8.69307,0.14042 -5.88454,0.56169 -3.20975,0.91276 -2.60793,0.49147 -4.8815,-0.28084 0.0668,0.91275 -1.27053,-0.98296 -6.28576,0.77232 -4.21281,-1.8255 -2.47417,3.08931 -5.08211,0.70211 -1.13679,0.56169 -47.477562,12.91892 -1.404267,8.07432 1.939225,0.56169 0.534958,-2.38719 1.471136,0.21063 0.601828,-1.75528 4.279669,-0.56169 1.069916,-2.66804 37.915187,-11.16362 2.74166,0.6319 4.27967,-0.14043 2.34044,-1.47443 3.81158,1.61486 8.89368,-0.14043 6.75386,-0.35105 0.93617,-2.4574 1.06992,1.1936 2.47418,-0.84254 1.80549,-0.70211 2.40731,-0.42128 1.20366,-0.70212 2.60792,1.47445 3.20975,-2.10635 0.0668,1.40423 3.67784,-0.14042 2.00609,-2.17656 1.60488,0.35106 0.93617,1.19359 2.13984,-0.91274 1.33739,1.75528 2.0061,0.0702 -1.13678,-1.96592 0.73556,-0.35106 2.40731,3.08931 1.67175,-0.21064 0.26748,2.03614 2.8754,-0.21064 1.47114,-1.54465 1.80548,1.33402 2.13983,-0.56169 1.13679,-1.61487 2.8754,0.0702 0.0668,2.24677 5.81768,-0.0702 1.538,-3.93184 1.53801,-0.21064 1.33739,0.56169 0.60183,2.87867 0.73557,0.70212 1.40426,-0.14042 0.13374,-1.26381 1.93923,0.35106 2.67479,0.28085 1.3374,-1.1936 0.86931,1.8255 z"
       id="path28" /><ellipse
       style="fill:#aac8d9;fill-opacity:1;stroke:none;stroke-width:1.04699;stroke-opacity:1"
       id="path29"
       cx="195.68779"
       cy="169.67044"
       rx="0.96961224"
       ry="0.84253752" /><ellipse
       style="fill:#aac8d9;fill-opacity:1;stroke:none;stroke-width:1.04699;stroke-opacity:1"
       id="path31"
       cx="185.28955"
       cy="171.88211"
       rx="0.86930752"
       ry="0.80743176" /><path
       id="path7-1"
       style="display:inline;fill:#2c4293;fill-opacity:1;stroke:none;stroke-width:1.12973px;stroke-linecap:butt;stroke-linejoin:miter;stroke-opacity:1"
       d="m 194.02287,124.45106 -15.13852,43.53038 14.99357,6.20588 5.54224,-14.75232 c 0,0 7.97461,3.04946 12.11606,4.03237 2.31372,0.54917 4.69061,1.23858 7.05938,1.02922 1.61798,-0.14294 3.13406,-0.75177 4.64536,-1.34695 0.94266,-0.37122 1.90267,-0.88845 2.74203,-1.45577 1.1845,-0.80058 2.22232,-1.8327 3.11031,-2.95314 0.88185,-1.11268 1.65188,-2.73552 2.03465,-4.10271 0.53886,-1.92479 0.4442,-3.58405 0.21642,-5.5698 -0.21443,-1.86955 -0.53455,-3.79078 -1.37127,-5.47632 -0.9186,-1.85049 -2.36459,-3.4286 -3.87879,-4.8341 -1.37248,-1.27398 -2.98869,-2.28059 -4.631,-3.18033 -2.81592,-1.54267 -8.86973,-3.75633 -8.86973,-3.75633 z m 12.02435,17.1062 c 0,0 5.27378,1.98001 7.91921,3.29575 0.84198,0.41879 1.25547,1.08161 1.45677,1.97867 0.12824,0.57148 0.11922,1.59631 -0.003,2.16896 -0.15193,0.70926 -0.67389,1.3074 -1.17576,1.83105 -0.30668,0.31998 -0.67553,0.60134 -1.08731,0.76527 -0.58208,0.23176 -1.04128,0.26039 -1.66591,0.21159 -1.66145,-0.12981 -4.96973,-1.42031 -4.96973,-1.42031 l -3.15377,-1.33923 z"
       sodipodi:nodetypes="ccccsssssssssscccssssssccc" /><path
       style="fill:#ffffff;fill-opacity:1;fill-rule:nonzero;stroke:#ffffff;stroke-width:1.04699;stroke-linecap:butt;stroke-linejoin:miter;stroke-opacity:1"
       d="m 50.281276,109.5599 c -1.946039,-1.36923 -4.316359,-5.41893 -1.655253,-6.68039 C 59.2755,97.831293 69.633235,92.11628 80.216287,86.899077 90.906363,81.629114 101.83987,76.871409 112.83565,72.284915 c 6.69541,-2.792748 13.25772,-6.067232 20.27818,-7.925603 7.94874,-2.104097 16.13004,-3.210039 24.28449,-4.128062 8.7962,-0.990269 17.59794,-2.350491 26.44796,-2.433465 9.33184,-0.08749 18.80375,0.167165 27.81049,2.962384 7.5422,2.340705 15.16391,5.150143 21.48132,9.897947 3.80805,2.861911 7.9508,5.606801 10.68068,9.519372 2.46641,3.534956 4.50948,7.362199 6.31895,11.261173 2.13226,4.59451 2.58492,9.682489 3.18889,14.670929 0.98666,8.14922 1.06134,16.40687 -0.32884,24.5781 -1.06618,6.26684 -3.93356,12.00613 -7.27016,17.39391 -5.16105,8.33383 -12.17233,15.29869 -19.75394,21.54406 -1.81291,1.49338 -4.68119,4.13136 -6.76162,2.10198 -2.14361,-2.09101 0.33731,-4.63128 2.2551,-5.96929 4.28208,-2.98755 8.25292,-6.48025 11.71263,-10.3874 4.58037,-5.17276 7.79717,-11.36735 11.32068,-17.27134 2.76166,-4.62743 4.28773,-9.91405 4.49043,-15.29627 0.29682,-7.88117 -0.48517,-15.80937 -2.13402,-23.511308 -1.21769,-5.687933 -3.90097,-11.05638 -7.56546,-15.46066 -2.39956,-2.883987 -5.33833,-5.246546 -8.31763,-7.491991 -4.40782,-3.322091 -9.62253,-5.287122 -14.63536,-7.481094 -7.86038,-3.440266 -16.4145,-5.206759 -25.05977,-5.001677 -17.34844,0.411537 -34.79161,1.592832 -51.75181,5.437 -9.50568,2.154541 -18.76912,5.25274 -27.71988,9.152273 -11.11657,4.843103 -22.397499,9.421094 -32.837483,15.658476 -5.430773,3.244623 -10.943376,6.335291 -16.658525,9.071601 -4.094558,1.9604 -8.201333,3.93044 -12.029676,6.38394 z"
       id="path1"
       inkscape:linked-fill="path33"
       inkscape:path-effect="#path-effect33"
       inkscape:original-d="m 50.281276,109.5599 -3.960375,-5.34636 38.28362,-19.60334 35.454779,-15.445055 12.63548,-4.950338 17.16162,-3.168217 31.87159,-3.366229 18.67033,0.396027 9.99524,2.178148 12.82406,4.752325 9.80665,5.346365 10.56099,9.108623 6.41204,11.484784 2.07448,5.346365 1.32013,9.504652 1.13153,15.44506 -1.32012,8.31656 -2.07448,9.10862 -5.09191,9.10862 -7.92075,11.08876 -9.05229,8.51458 -8.29793,5.74239 -3.39461,-3.76225 7.35499,-6.13842 7.16639,-6.13842 5.2805,-6.73246 7.16639,-11.6828 3.77179,-8.11855 1.0826,-9.74178 -0.75436,-13.16097 -2.40272,-12.145646 -6.60063,-11.880812 -10.37241,-8.910609 -16.40726,-7.524513 -11.69254,-3.168216 -15.08714,-0.198014 -22.44212,1.584109 -18.85893,2.574175 -20.55623,5.346365 -17.53879,7.326501 -20.556235,9.306636 -14.898552,8.910609 -16.973032,8.316565 z"
       sodipodi:nodetypes="cccccccccccccccccccccccccccccccccccccccccccc" /><path
       id="path7"
       style="fill:#ffffff;fill-opacity:1;stroke:none;stroke-width:1.04699px;stroke-linecap:butt;stroke-linejoin:miter;stroke-opacity:1"
       d="m 188.8942,117.678 -10.56095,41.38571 14.33273,4.55325 3.95936,-14.05785 c 0,0 7.60341,2.18973 11.5049,2.77217 2.17967,0.3254 4.42867,0.77537 6.5996,0.39603 1.48284,-0.25911 2.83503,-0.94032 4.18387,-1.60859 0.84131,-0.41682 1.68719,-0.96983 2.41773,-1.55961 1.03091,-0.83228 1.90822,-1.86687 2.64023,-2.97124 0.72694,-1.09672 1.31056,-2.65576 1.55665,-3.94831 0.34646,-1.8197 0.12876,-3.34447 -0.23752,-5.16028 -0.34486,-1.70953 -0.79129,-3.45851 -1.6963,-4.94927 -0.99357,-1.63665 -2.45276,-2.98036 -3.96136,-4.15932 -1.36743,-1.06864 -2.93891,-1.87125 -4.52612,-2.57312 -2.72141,-1.20342 -8.48549,-2.77217 -8.48549,-2.77217 z m 12.44685,14.85201 c 0,0 5.02539,1.41426 7.57156,2.4215 0.8104,0.32059 1.24427,0.9002 1.5006,1.71275 0.1633,0.51764 0.1688,1.55219 0.0653,2.08502 -0.12557,0.6464 -0.41719,1.17825 -0.83952,1.70123 -0.25806,0.31956 -0.57658,0.60833 -0.94394,0.79206 -0.51932,0.25972 -0.9411,0.3222 -1.52173,0.3262 -1.54441,0.0106 -4.70069,-0.92128 -4.70069,-0.92128 l -3.01743,-0.98903 z"
       sodipodi:nodetypes="ccccsssssssssscccssssssccc" /><ellipse
       style="fill:#2c4293;fill-opacity:1;stroke:none;stroke-width:1.04699;stroke-opacity:1"
       id="path4"
       cx="212.65663"
       cy="179.06265"
       rx="7.3549814"
       ry="7.9205408" /><ellipse
       style="fill:#ffffff;fill-opacity:1;stroke:none;stroke-width:1.10654;stroke-opacity:1"
       id="path4-6"
       cx="209.23329"
       cy="182.91386"
       rx="7.7321596"
       ry="8.415575" /><ellipse
       style="fill:#aac8d9;fill-opacity:1;stroke:none;stroke-width:1.04699;stroke-opacity:1"
       id="path30"
       cx="163.52341"
       cy="169.35448"
       rx="0.56839335"
       ry="0.52658594" /><path
       style="fill:#aac8d9;fill-opacity:1;stroke:none;stroke-width:1.04699px;stroke-linecap:butt;stroke-linejoin:miter;stroke-opacity:1"
       d="m 32.358285,192.06789 -12.237176,4.77438 4.346537,0.14044 1.337397,0.21062 0.534958,1.47445 -0.401219,1.12338 1.604876,-0.42127 1.069917,-2.24676 3.811579,-0.14042 z"
       id="path32" /><path
       style="fill:#2c4293;fill-opacity:1;stroke:none;stroke-width:1.26811px;stroke-linecap:butt;stroke-linejoin:miter;stroke-opacity:1"
       d="m 4.0573777,137.30677 -1.0292691,-2.84684 44.6867594,-14.97517 1.505495,3.51377 -10.182492,3.37999 15.628617,55.90779 c 0,0 0.813341,3.85517 1.025003,5.75997 0.167755,1.50964 0.489016,2.83373 0.330047,4.24361 -0.329594,2.92323 -1.272724,5.81358 -2.626381,8.42537 -1.911094,3.68732 -4.569019,7.02833 -7.581502,9.88725 -2.805464,2.66248 -6.114917,4.81988 -9.56425,6.56958 -3.586769,1.81942 -7.412874,3.37084 -11.386831,3.98959 -2.412629,0.37567 -4.977114,0.47436 -7.322209,-0.20567 -2.508877,-0.7275 -4.869605,-2.17727 -6.736106,-4.0048 -1.0772021,-1.05474 -1.973375,-2.3899 -2.3927479,-3.83797 -0.4246519,-1.46629 -0.5113572,-3.13127 -0.0289,-4.57957 0.6840912,-2.05359 2.2701229,-3.77876 3.9268769,-5.17172 1.246372,-1.04794 2.761418,-1.84315 4.340118,-2.2423 2.079899,-0.52587 4.44138,-0.91111 6.434955,-0.11858 2.004449,0.79689 3.662143,2.59735 4.622092,4.52903 0.619818,1.24724 0.708371,2.7636 0.528569,4.14472 -0.204766,1.57286 -1.109161,2.97637 -1.790446,4.40876 -0.41159,0.86534 -1.383683,2.51984 -1.383683,2.51984 L 24.95762,216.834 c 0,0 1.341604,-0.0418 1.945236,-0.29854 2.384727,-1.0147 4.714938,-2.58073 6.178641,-4.71947 0.919258,-1.34318 1.290263,-3.06402 1.358027,-4.69024 0.330182,-7.92387 -4.692851,-23.32486 -4.692851,-23.32486 L 14.929488,133.8557 Z"
       id="path2-5"
       sodipodi:nodetypes="ccccccssaassssssssssssccsssccc" /><ellipse
       style="fill:#ffffff;fill-opacity:1;stroke:none;stroke-width:1.04699;stroke-opacity:1"
       id="path3"
       cx="30.978809"
       cy="120.7221"
       rx="8.7694006"
       ry="9.1086226" /><path
       style="fill:#2c4293;fill-opacity:1;stroke:none;stroke-width:1.2044px;stroke-linecap:butt;stroke-linejoin:miter;stroke-opacity:1"
       d="m 60.478356,129.48422 19.585912,-0.0246 0.849645,34.65167 c 0,0 0.331955,2.34498 1.171541,3.35696 0.522032,0.62922 1.3651,1.43354 2.096689,1.83507 0.961442,0.52767 2.342844,0.92 3.448407,1.03107 1.257448,0.12635 2.950267,0.10256 4.165586,-0.22759 1.671448,-0.45404 3.232521,-1.03462 4.423961,-2.23201 0.852842,-0.85707 1.135138,-3.36267 1.135138,-3.36267 l -0.606777,-35.01052 14.735512,0.0226 1.11219,39.3737 c 0,0 -0.20087,2.87866 -1.02725,4.24508 -0.88289,1.45981 -2.33809,3.00351 -3.67355,4.11445 -2.07705,1.72785 -4.52311,3.15272 -7.14057,4.00075 -3.454982,1.11938 -7.165515,1.27869 -10.793496,1.67669 -1.853686,0.2034 -3.779326,0.22932 -5.644646,0.17681 -2.695921,-0.0759 -5.390743,-0.5482 -7.981022,-1.25857 -2.835241,-0.77751 -5.690195,-1.726 -8.15922,-3.25563 -1.605429,-0.99461 -3.509443,-2.13041 -4.628666,-3.6044 -0.891965,-1.17469 -1.539861,-2.56548 -2.136596,-3.89682 -0.495148,-1.10471 -0.703523,-3.54621 -0.703523,-3.54621 z"
       id="path5-89"
       sodipodi:nodetypes="cccsssssccccssssssssscc" /><path
       style="fill:#ffffff;fill-opacity:1;stroke:none;stroke-width:1.04699px;stroke-linecap:butt;stroke-linejoin:miter;stroke-opacity:1"
       d="m 20.295584,144.01426 -1.113457,-2.37578 35.625291,-15.64345 1.508714,2.77218 -8.109339,3.56425 17.161623,44.75106 c 0,0 0.966101,3.10626 1.287091,4.65569 0.254403,1.22801 0.620671,2.29165 0.598802,3.46286 -0.04534,2.42838 -0.597545,4.87708 -1.508714,7.12849 -1.286385,3.17853 -3.21341,6.13002 -5.469089,8.7126 -2.100666,2.4051 -4.654601,4.43393 -7.354981,6.13842 -2.807975,1.7724 -5.833372,3.34297 -9.052284,4.15828 -1.954233,0.49498 -4.054668,0.77403 -6.034856,0.39602 -2.118488,-0.40441 -4.170931,-1.41395 -5.846267,-2.77218 -0.966876,-0.78387 -1.806586,-1.81223 -2.263071,-2.97021 -0.462231,-1.17255 -0.661997,-2.53449 -0.377179,-3.76226 0.403851,-1.74088 1.57446,-3.28139 2.828839,-4.5543 0.943666,-0.95761 2.127692,-1.72821 3.394606,-2.17815 1.66913,-0.59279 3.580578,-1.09171 5.2805,-0.59405 1.709192,0.50037 3.210794,1.85244 4.148963,3.36623 0.605756,0.97742 0.795573,2.21707 0.754357,3.36624 -0.04694,1.30873 -0.68205,2.53223 -1.131535,3.76225 -0.271552,0.7431 -0.942947,2.17815 -0.942947,2.17815 l -0.06726,0.19753 c 0,0 1.099604,-0.13782 1.575979,-0.39554 1.881978,-1.01814 3.676596,-2.48528 4.714732,-4.3563 0.651987,-1.17507 0.824156,-2.61827 0.754357,-3.96028 -0.340101,-6.53905 -5.657678,-18.81127 -5.657678,-18.81127 L 29.011058,140.40099 Z"
       id="path2"
       sodipodi:nodetypes="ccccccssaassssssssssssccsssccc" /><path
       style="fill:#ffffff;fill-opacity:1;stroke:none;stroke-width:1.04699px;stroke-linecap:butt;stroke-linejoin:miter;stroke-opacity:1"
       d="m 75.175445,131.935 16.218676,3.56424 -5.091909,30.09805 c 0,0 -0.119594,2.11212 0.406742,3.1345 0.327255,0.63568 0.891464,1.47625 1.431019,1.94536 0.709071,0.61649 1.789502,1.181 2.68838,1.4546 1.022362,0.31119 2.431379,0.55989 3.495697,0.46349 1.46377,-0.13255 2.857248,-0.39379 4.047874,-1.25555 0.852246,-0.61683 1.508714,-2.77219 1.508714,-2.77219 l 5.280502,-30.49408 12.06971,2.17814 -5.2233,33.89173 c 0,0 -0.86796,3.19862 -1.78408,4.26695 -0.97873,1.14135 -2.44662,2.26522 -3.74221,3.02813 -2.01503,1.18656 -4.28529,2.04829 -6.600622,2.37617 -3.056158,0.43279 -6.162672,-0.0182 -9.240874,-0.24643 -1.572796,-0.11659 -3.175407,-0.40048 -4.714731,-0.74364 -2.224771,-0.49597 -4.381839,-1.33987 -6.412035,-2.37616 -2.222187,-1.13429 -4.431929,-2.42185 -6.223445,-4.15828 -1.164892,-1.12908 -2.55381,-2.42971 -3.234391,-3.90233 -0.542389,-1.1736 -0.845795,-2.49811 -1.116753,-3.76227 -0.224831,-1.04895 0.01359,-3.22615 0.01359,-3.22615 z"
       id="path5"
       sodipodi:nodetypes="cccsssssccccssssssssscc" /><g
       id="g39"
       transform="translate(4,6)"><path
         id="path8-0"
         style="fill:#2c4293;fill-opacity:1;stroke-width:1.21231"
         d="m 173.59481,176.0422 -18.52563,1.71138 0.002,-0.003 c -1.1745,0.15211 -2.0494,1.1873 -2.03186,2.40413 0.0207,1.31978 1.07848,2.37328 2.36242,2.35288 5.89707,-0.53597 12.23748,-1.12241 18.28208,-1.67803 l -0.006,-6.6e-4 c 1.28394,-0.021 2.30724,-1.10799 2.28543,-2.42775 -0.0217,-1.319 -1.07919,-2.37132 -2.36239,-2.35093 0.1478,0.3855 0.17162,0.22878 -0.006,-0.008 z"
         sodipodi:nodetypes="ccccccccscc" /><path
         id="path8"
         style="fill:#ffffff;fill-opacity:1;stroke-width:1.21231"
         d="m 171.11854,171.81498 -18.55078,1.41285 0.002,-0.003 c -1.1768,0.13318 -2.06826,1.15415 -2.07031,2.3711 -5.5e-4,1.31994 1.04012,2.39034 2.32422,2.39062 5.90494,-0.44095 12.25397,-0.92521 18.30673,-1.38343 l -0.006,-7.6e-4 c 1.28411,-2.8e-4 2.32478,-1.07069 2.32422,-2.39063 -4.9e-4,-1.31918 -1.04086,-2.38839 -2.32422,-2.38867 0.14157,0.38783 0.16791,0.23152 -0.006,-0.008 z"
         sodipodi:nodetypes="ccccccccscc" /><path
         id="path8-7-1"
         style="fill:#2c4293;fill-opacity:1;stroke-width:1.21231"
         d="m 142.43275,176.83319 -17.69086,-5.75855 0.003,-0.002 c -1.13884,-0.32504 -2.35195,0.27949 -2.81731,1.40394 -0.50319,1.22027 0.0514,2.60633 1.23862,3.09563 5.62788,1.84113 11.68287,3.81135 17.454,5.6928 l -0.005,-0.003 c 1.18744,0.48878 2.55734,-0.10462 3.05951,-1.32531 0.50195,-1.21996 -0.0528,-2.6048 -1.23935,-3.09382 -0.0168,0.41252 0.0671,0.27802 -0.002,-0.01 z"
         sodipodi:nodetypes="ccccccccscc" /><path
         id="path8-7"
         style="fill:#ffffff;fill-opacity:1;stroke-width:1.21231"
         d="m 140.22968,172.93988 -17.69086,-5.75855 0.003,-0.002 c -1.13884,-0.32504 -2.35195,0.27949 -2.81731,1.40394 -0.50319,1.22027 0.0514,2.60633 1.23862,3.09563 5.62788,1.84113 11.68287,3.81135 17.454,5.6928 l -0.005,-0.003 c 1.18744,0.48878 2.55734,-0.10462 3.05951,-1.32531 0.50195,-1.21996 -0.0528,-2.6048 -1.23935,-3.09382 -0.0168,0.41252 0.0671,0.27802 -0.002,-0.01 z"
         sodipodi:nodetypes="ccccccccscc" /><path
         id="path36-4"
         style="fill:#2c4293;fill-opacity:1;stroke-width:0.951531"
         d="m 152.68652,188.25868 c -1.39252,-1.1e-4 -2.52145,1.12882 -2.52149,2.52149 0.002,1.13401 0.76012,2.12738 1.85352,2.42773 l 3.55273,1.3711 2.88086,1.47265 2.67578,1.66406 1.82617,1.44532 0.97461,0.93554 0.0332,0.0332 c 0.0794,0.0879 0.1649,0.17017 0.25586,0.24609 l 0.0879,0.084 0.01,-0.0117 c 0.43635,0.33418 0.96994,0.51661 1.51953,0.51953 1.39252,1.1e-4 2.52145,-1.12882 2.52149,-2.52149 2e-4,-0.6564 -0.25555,-1.28701 -0.71289,-1.75781 l 0.002,-0.002 -0.0156,-0.0117 c -0.20317,-0.20635 -0.38629,-0.45726 -0.6471,-0.58307 l -3.67712,-2.43348 c 0,0 -0.8186,-0.56064 -1.23047,-0.79595 -1.05492,-0.6027 -2.09854,-1.22711 -3.17774,-1.78516 -1.27995,-0.66186 -3.90625,-1.85156 -3.90625,-1.85156 l -0.6582,-0.35547 c -0.93099,-0.44862 -1.04213,-0.61149 -1.64648,-0.61133 z"
         sodipodi:nodetypes="cccccccccccccccccccssccc" /><path
         id="path36"
         style="fill:#ffffff;fill-opacity:1;stroke-width:0.951531"
         d="m 150.37831,183.85013 c -1.39252,-1.1e-4 -2.52145,1.12883 -2.52149,2.52149 0.002,1.13401 0.76012,2.12739 1.85352,2.42773 l 3.55273,1.3711 2.88086,1.47265 2.67578,1.66406 1.82617,1.44532 0.97461,0.93554 0.0332,0.0332 c 0.0794,0.0879 0.1649,0.17018 0.25586,0.24609 l 0.0879,0.084 0.01,-0.0117 c 0.43635,0.33418 0.96994,0.51662 1.51953,0.51953 1.39252,1.1e-4 2.52145,-1.12882 2.52149,-2.52149 2e-4,-0.6564 -0.25555,-1.287 -0.71289,-1.75781 l 0.002,-0.002 -0.0156,-0.0117 c -0.20317,-0.20634 -0.38629,-0.45726 -0.6471,-0.58307 l -3.67712,-2.43347 c 0,0 -0.8186,-0.56065 -1.23047,-0.79596 -1.05492,-0.60269 -2.09854,-1.2271 -3.17774,-1.78516 -1.27995,-0.66186 -3.90625,-1.85156 -3.90625,-1.85156 l -0.6582,-0.35547 c -0.93099,-0.44861 -1.04213,-0.61149 -1.64648,-0.61133 z"
         sodipodi:nodetypes="cccccccccccccccccccssccc" /><path
         id="path36-3-2"
         style="fill:#2c4293;fill-opacity:1;stroke-width:0.951531"
         d="m 122.52545,193.62525 c -0.7424,1.17811 -0.38902,2.73507 0.78925,3.47748 0.96052,0.60281 2.20512,0.49092 3.04209,-0.27408 l 3.05388,-2.27499 2.78166,-1.6524 2.83428,-1.37686 2.19632,-0.77462 1.31106,-0.32589 0.0458,-0.0104 c 0.1167,-0.0203 0.23189,-0.0488 0.3446,-0.0853 l 0.11793,-0.0296 -0.005,-0.0147 c 0.51534,-0.19104 0.95414,-0.54525 1.24957,-1.00869 0.7424,-1.17812 0.38903,-2.73507 -0.78925,-3.47749 -0.55526,-0.35007 -1.22512,-0.46984 -1.86726,-0.33387 l -6.2e-4,-0.003 -0.0182,0.007 c -0.28288,0.0619 -0.59279,0.0831 -0.83826,0.23668 l -4.01904,1.81392 c 0,0 -0.91072,0.39373 -1.32936,0.61677 -1.07227,0.57127 -2.15688,1.1214 -3.20432,1.737 -1.24228,0.73012 -3.64885,2.31798 -3.64885,2.31798 l -0.65161,0.36739 c -0.87584,0.54855 -1.07289,0.55576 -1.39491,1.06717 z"
         sodipodi:nodetypes="cccccccccccccccccccssccc" /><path
         id="path36-3"
         style="fill:#ffffff;fill-opacity:1;stroke-width:0.951531"
         d="m 119.79348,190.12478 c -0.7424,1.17811 -0.38902,2.73507 0.78925,3.47748 0.96052,0.60281 2.20512,0.49092 3.04209,-0.27408 l 3.05388,-2.27499 2.78166,-1.6524 2.83428,-1.37686 2.19632,-0.77462 1.31106,-0.32589 0.0458,-0.0104 c 0.1167,-0.0203 0.23189,-0.0488 0.3446,-0.0853 l 0.11793,-0.0296 -0.005,-0.0147 c 0.51534,-0.19104 0.95414,-0.54525 1.24957,-1.00869 0.7424,-1.17812 0.38903,-2.73507 -0.78925,-3.47749 -0.55526,-0.35007 -1.22512,-0.46984 -1.86726,-0.33387 l -6.2e-4,-0.003 -0.0182,0.007 c -0.28288,0.0619 -0.59279,0.0831 -0.83826,0.23668 l -4.01904,1.81392 c 0,0 -0.91072,0.39373 -1.32936,0.61677 -1.07227,0.57127 -2.15688,1.1214 -3.20432,1.737 -1.24228,0.73012 -3.64885,2.31798 -3.64885,2.31798 l -0.65161,0.36739 c -0.87584,0.54855 -1.07289,0.55576 -1.39491,1.06717 z"
         sodipodi:nodetypes="cccccccccccccccccccssccc" /><path
         id="path38-5"
         style="fill:#2c4293;fill-opacity:1"
         d="m 146.08201,190.37698 a 1.975417,1.8876207 0 0 0 -1.95313,1.61133 1.975417,1.8876207 0 0 0 -0.002,0.0176 l -0.78906,5.11328 a 1.975417,1.8876207 0 0 0 -0.0274,0.18555 l -0.006,0.0332 h 0.002 a 1.975417,1.8876207 0 0 0 -0.01,0.14453 1.975417,1.8876207 0 0 0 1.97461,1.88868 1.975417,1.8876207 0 0 0 1.96094,-1.67774 l 0.82812,-5.28711 -0.0137,-0.002 a 1.975417,1.8876207 0 0 0 0.0117,-0.13867 1.975417,1.8876207 0 0 0 -1.97656,-1.88868 z" /><path
         id="path38"
         style="fill:#ffffff;fill-opacity:1"
         d="m 143.78516,186.39062 a 1.975417,1.8876207 0 0 0 -1.95313,1.61133 1.975417,1.8876207 0 0 0 -0.002,0.0176 l -0.78906,5.11328 a 1.975417,1.8876207 0 0 0 -0.0274,0.18555 l -0.006,0.0332 h 0.002 a 1.975417,1.8876207 0 0 0 -0.01,0.14453 1.975417,1.8876207 0 0 0 1.97461,1.88868 1.975417,1.8876207 0 0 0 1.96094,-1.67774 l 0.82812,-5.28711 -0.0137,-0.002 a 1.975417,1.8876207 0 0 0 0.0117,-0.13867 1.975417,1.8876207 0 0 0 -1.97656,-1.88868 z" /></g></g></svg>
