<?xml version="1.0" encoding="UTF-8" standalone="no"?>
<!-- Created with Inkscape (http://www.inkscape.org/) -->

<svg
   width="256"
   height="256"
   viewBox="0 0 256 256"
   version="1.1"
   id="svg1"
   xml:space="preserve"
   inkscape:version="1.4 (e7c3feb100, 2024-10-09)"
   sodipodi:docname="jump-sun.svg"
   inkscape:export-filename="jump-sun.png"
   inkscape:export-xdpi="192"
   inkscape:export-ydpi="192"
   xmlns:inkscape="http://www.inkscape.org/namespaces/inkscape"
   xmlns:sodipodi="http://sodipodi.sourceforge.net/DTD/sodipodi-0.dtd"
   xmlns="http://www.w3.org/2000/svg"
   xmlns:svg="http://www.w3.org/2000/svg"><sodipodi:namedview
     id="namedview1"
     pagecolor="#ffffff"
     bordercolor="#666666"
     borderopacity="1.0"
     inkscape:showpageshadow="2"
     inkscape:pageopacity="0.0"
     inkscape:pagecheckerboard="0"
     inkscape:deskcolor="#d1d1d1"
     inkscape:document-units="px"
     inkscape:zoom="4.63"
     inkscape:cx="91.792657"
     inkscape:cy="161.33909"
     inkscape:window-width="3440"
     inkscape:window-height="1395"
     inkscape:window-x="0"
     inkscape:window-y="22"
     inkscape:window-maximized="1"
     inkscape:current-layer="g59" /><defs
     id="defs1"><inkscape:path-effect
       effect="simplify"
       id="path-effect36"
       is_visible="true"
       lpeversion="1.3"
       threshold="5"
       steps="14.445122"
       smooth_angles="360"
       helper_size="10"
       simplify_individual_paths="false"
       simplify_just_coalesce="false" /><inkscape:path-effect
       effect="simplify"
       id="path-effect35"
       is_visible="true"
       lpeversion="1.3"
       threshold="0.01"
       steps="1"
       smooth_angles="360"
       helper_size="10"
       simplify_individual_paths="false"
       simplify_just_coalesce="false" /><inkscape:path-effect
       effect="simplify"
       id="path-effect34"
       is_visible="true"
       lpeversion="1.3"
       threshold="65.490177"
       steps="4.6858407"
       smooth_angles="360"
       helper_size="10"
       simplify_individual_paths="false"
       simplify_just_coalesce="false" /><inkscape:path-effect
       effect="simplify"
       id="path-effect33"
       is_visible="true"
       lpeversion="1.3"
       threshold="6.1"
       steps="11"
       smooth_angles="360"
       helper_size="10"
       simplify_individual_paths="false"
       simplify_just_coalesce="false" /><inkscape:path-effect
       effect="powerstroke"
       message=""
       id="path-effect8"
       is_visible="true"
       lpeversion="1.3"
       scale_width="1"
       interpolator_type="CentripetalCatmullRom"
       interpolator_beta="0.2"
       start_linecap_type="zerowidth"
       end_linecap_type="zerowidth"
       offset_points="21.5,0.52349502"
       linejoin_type="round"
       miter_limit="4"
       not_jump="false"
       sort_points="true" /><inkscape:path-effect
       effect="simplify"
       id="path-effect1"
       is_visible="true"
       lpeversion="1.3"
       threshold="19.034646"
       steps="19.429204"
       smooth_angles="360"
       helper_size="10.486726"
       simplify_individual_paths="false"
       simplify_just_coalesce="false" /><inkscape:path-effect
       effect="fill_between_many"
       method="bsplinespiro"
       autoreverse="false"
       close="false"
       join="false"
       linkedpaths="#path1,0,1"
       id="path-effect9" /><mask
       maskUnits="userSpaceOnUse"
       id="mask38"><rect
         style="fill:#ffffff;fill-opacity:1"
         id="rect38"
         width="55.351357"
         height="63.351349"
         x="97.513512"
         y="144" /></mask><mask
       maskUnits="userSpaceOnUse"
       id="mask51"><path
         style="fill:#ffffff;fill-opacity:1"
         d="m 15.766739,124.83801 9.287257,-84.449241 52.267818,-26.349892 62.419006,-6.9114472 52.05184,5.3995682 28.94168,20.518358 20.73434,41.900648 11.01512,41.036716 7.12743,34.34125 -20.51836,34.34126 -32.39741,36.71706 -41.03671,16.1987 -50.75594,-0.43196 -61.771061,-8.20735 -25.917926,-32.3974 -9.50324,-33.47733 z"
         id="path51" /></mask><mask
       maskUnits="userSpaceOnUse"
       id="mask52"><rect
         style="fill:#ffffff;fill-opacity:1"
         id="rect52"
         width="141.03671"
         height="117.06264"
         x="52.915768"
         y="112.74298" /></mask><clipPath
       clipPathUnits="userSpaceOnUse"
       id="clipPath54"><path
         style="fill:#ffffff;fill-opacity:1;stroke-width:0.975407"
         d="m 101.05147,194.79552 c 0.79613,-0.34739 20.66262,-10.52157 20.66262,-10.52157 l 19.852,4.99561 9.36533,-15.45926 13.8841,-29.24965 4.51366,-17.63477 -40.91732,-10.85545 -24.98125,-7.55171 c 0,0 -26.146056,2.04348 -27.012,1.97535 -0.865941,-0.0681 4.461664,21.46726 4.461664,21.46726 l -33.089825,15.38684 3.64084,29.29565 5.868262,37.46636 6.319588,12.18283 21.222877,-5.91597 22.053904,-6.05562 z"
         id="path54"
         sodipodi:nodetypes="ccccccccscccccccc" /></clipPath></defs><g
     inkscape:label="Layer 1"
     inkscape:groupmode="layer"
     id="layer1"><rect
       style="fill:#b5312d;fill-opacity:1;stroke:none;stroke-width:14.8744;stroke-opacity:1"
       id="rect32"
       width="256"
       height="256"
       x="0"
       y="0"
       inkscape:label="bg" /><g
       id="g59"
       inkscape:label="sun"><g
         id="g57"
         inkscape:label="face"><path
           style="fill:#eeb001;fill-opacity:1"
           d="m 93.390021,116.45117 c -0.866211,-0.67099 -1.433735,-1.7577 -1.679951,-2.82537 -0.206625,-0.896 0.05557,-1.84602 0.229084,-2.74901 0.18081,-0.94094 0.259878,-1.98641 0.839976,-2.74901 0.401857,-0.52828 1.224806,-0.58593 1.679951,-1.06906 0.5391,-0.57225 0.644026,-1.4562 1.145421,-2.06176 0.507143,-0.6125 1.179498,-1.07368 1.832674,-1.52723 0.842816,-0.58523 1.717121,-1.15334 2.672654,-1.52723 1.58124,-0.61872 3.27057,-1.01441 4.96349,-1.14542 1.75567,-0.13586 3.52008,0.1761 5.26894,0.38181 1.2551,0.14763 2.58208,0.10858 3.74171,0.61089 0.76616,0.33187 1.51433,0.83786 1.98539,1.52723 0.35902,0.5254 0.47857,1.19879 0.53453,1.83267 0.0833,0.94361 -0.65718,1.94582 -0.30544,2.82537 0.3219,0.80495 1.99256,0.81305 1.9854,1.67995 -0.003,0.36176 -0.51979,0.51887 -0.83998,0.68726 -0.72722,0.38244 -1.55374,0.57156 -2.3672,0.68725 -1.10881,0.1577 -2.26015,-0.21179 -3.35991,0 -0.5384,0.10369 -1.07216,0.30506 -1.52723,0.61089 -0.85162,0.57234 -1.31678,1.59947 -2.13812,2.21448 -0.96604,0.72336 -2.05303,1.32724 -3.20718,1.67995 -0.66129,0.20209 -1.39106,0.39736 -2.06175,0.22909 -0.47937,-0.12027 -0.7563,-0.6739 -1.22179,-0.83998 -0.57736,-0.206 -1.22258,-0.21244 -1.832671,-0.15272 -0.7377,0.0722 -1.515928,0.20803 -2.13812,0.61089 -0.530725,0.34363 -0.667447,1.14679 -1.221783,1.45087 -0.337713,0.18525 -0.761336,0.18182 -1.145421,0.15272 -0.634526,-0.0481 -1.329607,-0.14484 -1.832674,-0.53453 z"
           id="path55"
           sodipodi:nodetypes="aaaaaaaaaaaaaaaaaaaaaaaaaaaa" /><path
           style="fill:#eeb001;fill-opacity:1"
           d="m 129.27989,101.63705 c -0.0335,0.78877 -0.19415,1.62553 0.0764,2.36721 0.36647,1.00461 1.60283,1.52134 1.9854,2.51993 0.28288,0.73837 -0.15419,1.63849 0.15272,2.3672 0.26584,0.6312 0.73157,1.29121 1.37451,1.52723 0.89214,0.32751 1.94186,-0.0317 2.82537,-0.38181 0.81425,-0.32266 1.38778,-1.07546 2.13812,-1.52723 0.63389,-0.38165 1.25504,-0.87418 1.9854,-0.9927 0.71065,-0.11532 1.44137,0.12417 2.13812,0.30545 0.68621,0.17854 1.27677,0.73858 1.98539,0.76361 0.95756,0.0338 1.88776,-0.42007 2.74901,-0.83997 0.83784,-0.40848 1.60158,-0.9761 2.29085,-1.60359 0.49406,-0.44978 0.95535,-0.95374 1.29814,-1.52723 0.32254,-0.53962 0.34315,-1.23018 0.68725,-1.75631 0.55168,-0.84353 1.64951,-1.25655 2.13812,-2.13812 0.49388,-0.891076 0.50293,-1.976122 0.68726,-2.978098 0.13482,-0.732851 0.55686,-1.513028 0.30544,-2.214481 -0.15194,-0.423917 -0.60773,-0.682693 -0.9927,-0.916337 -0.57817,-0.3509 -1.24648,-0.551459 -1.90903,-0.687253 -0.84927,-0.174063 -1.73678,-0.03957 -2.59629,-0.152723 -0.87602,-0.115331 -1.75282,-0.27134 -2.59629,-0.53453 -1.05607,-0.329528 -2.14824,-0.663599 -3.05446,-1.298144 -0.42782,-0.299562 -0.56291,-1.016687 -1.06906,-1.145421 -0.46805,-0.119043 -0.93333,0.261685 -1.3745,0.458168 -0.98924,0.44057 -1.89642,1.047038 -2.82537,1.60359 -0.98136,0.587953 -1.97001,1.16887 -2.90174,1.832674 -0.79645,0.567422 -1.6971,1.055653 -2.29084,1.832674 -0.50529,0.66127 -0.49868,1.621107 -0.9927,2.290843 -0.27861,0.377706 -0.68986,0.639772 -1.06906,0.916337 -0.31392,0.228948 -0.78364,0.283391 -0.9927,0.610891 -0.23443,0.36725 -0.13428,0.86283 -0.15276,1.29814 z"
           id="path56"
           sodipodi:nodetypes="aaaaaaaaaaaaaaaaaaaaaaaaaaaaaaa" /><path
           style="fill:#eeb001;fill-opacity:1"
           d="m 117.59659,123.3237 c 1.0115,-0.77616 2.54515,-0.30156 3.81807,-0.22909 1.47064,0.0837 2.8813,0.69228 4.3526,0.76362 0.99446,0.0482 2.01859,0.0367 2.9781,-0.22909 0.60336,-0.16712 1.16387,-0.48552 1.67995,-0.83997 0.65348,-0.44881 1.24261,-0.99979 1.75631,-1.60359 0.51238,-0.60224 0.70312,-1.46466 1.29815,-1.9854 0.48835,-0.42737 1.10739,-0.83467 1.75631,-0.83997 0.67198,-0.005 1.28618,0.44892 1.83268,0.83997 0.54177,0.38767 1.24938,0.79654 1.3745,1.45087 0.18021,0.94244 -0.66812,1.80092 -1.06906,2.67265 -0.52807,1.14813 -0.96279,2.37634 -1.75631,3.3599 -0.37449,0.46417 -1.09495,0.6186 -1.37451,1.14542 -0.23981,0.45193 -0.1604,1.01567 -0.15272,1.52723 0.009,0.59033 -0.14644,1.30073 0.22908,1.75631 0.30718,0.37267 0.90111,0.36257 1.37451,0.45817 0.97593,0.19708 1.98248,0.22347 2.9781,0.22909 1.55599,0.009 3.19108,-0.82432 4.65804,-0.30545 0.42455,0.15016 0.6816,0.59075 0.9927,0.91634 0.43678,0.45714 1.15554,0.82209 1.22178,1.45087 0.0453,0.43033 -0.34373,0.80502 -0.61089,1.14542 -0.40066,0.5105 -0.86911,1.01059 -1.45087,1.29814 -0.48781,0.24111 -1.06132,0.26034 -1.60359,0.30545 -1.14176,0.095 -2.29766,-0.20374 -3.43626,-0.0764 -0.52149,0.0583 -1.0459,0.1728 -1.52723,0.3818 -0.47276,0.20527 -0.97067,0.44199 -1.29814,0.83998 -0.26128,0.31754 -0.39004,0.73988 -0.45817,1.14542 -0.0887,0.52774 -0.0787,1.09142 0.0764,1.60359 0.086,0.2841 0.44129,0.46725 0.45817,0.76361 0.0175,0.30706 -0.18546,0.60325 -0.38181,0.83998 -0.73486,0.88596 -1.76125,1.54655 -2.82537,1.9854 -0.83561,0.34461 -1.76933,0.42648 -2.67265,0.45816 -0.5113,0.0179 -1.10262,0.13268 -1.52723,-0.15272 -0.40635,-0.27313 -0.73804,-0.81117 -0.68725,-1.29814 0.0412,-0.39546 0.53156,-0.59348 0.76361,-0.91634 0.22676,-0.3155 0.58386,-0.60511 0.61089,-0.9927 0.0309,-0.44345 -0.24665,-0.88306 -0.53453,-1.22178 -0.33378,-0.39272 -0.80663,-0.68488 -1.29814,-0.83998 -0.65585,-0.20696 -1.37416,-0.0894 -2.06176,-0.0764 -1.02083,0.0193 -2.07242,-0.0503 -3.05446,0.22909 -0.68986,0.19627 -1.26698,0.67301 -1.90903,0.99269 -0.52998,0.26388 -1.04426,0.56956 -1.60359,0.76362 -0.54254,0.18823 -1.10746,0.42685 -1.67995,0.38181 -0.40995,-0.0323 -0.83086,-0.19331 -1.14542,-0.45817 -0.29721,-0.25025 -0.51445,-0.61632 -0.61089,-0.9927 -0.12652,-0.49376 0.053,-1.01805 0.0764,-1.52723 0.028,-0.61078 -0.007,-1.22693 0.0764,-1.83267 0.0604,-0.44041 0.0841,-0.91261 0.30544,-1.29815 0.34954,-0.60899 0.93612,-1.07187 1.52723,-1.45086 0.34618,-0.22195 0.73658,-0.41397 1.14542,-0.45817 0.4618,-0.0499 0.92527,0.11103 1.37451,0.22908 0.57629,0.15143 1.11266,0.42861 1.67995,0.61089 0.62914,0.20215 1.25264,0.45826 1.90904,0.53453 0.60733,0.0706 1.22202,-0.0457 1.83267,-0.0764 0.43292,-0.0218 0.88321,0.049 1.29814,-0.0764 0.3385,-0.10228 0.64415,-0.30879 0.91634,-0.53453 0.3889,-0.32254 0.80304,-0.67712 0.9927,-1.14542 0.17225,-0.42532 0.25534,-0.95196 0.0764,-1.37451 -0.19703,-0.46524 -0.73507,-0.69794 -1.14542,-0.9927 -0.40774,-0.29288 -0.8335,-0.57351 -1.29814,-0.76361 -0.48567,-0.1987 -1.0078,-0.30729 -1.52723,-0.38181 -0.6304,-0.0904 -1.27275,-0.10325 -1.90904,-0.0764 -0.6151,0.026 -1.21732,0.21004 -1.83267,0.22909 -0.40786,0.0126 -0.83512,0.054 -1.22179,-0.0764 -0.34785,-0.1173 -0.67632,-0.33312 -0.91633,-0.61089 -0.34986,-0.40492 -0.49114,-0.95296 -0.68725,-1.45086 -0.21536,-0.54677 -0.42372,-1.10285 -0.53453,-1.67996 -0.0674,-0.35085 -0.12101,-0.71459 -0.0764,-1.06906 0.0603,-0.47909 0.075,-1.08032 0.45804,-1.37427 z"
           id="path57"
           sodipodi:nodetypes="aaaaaaaaaaaaaaaaaaaaaaaaaaaaaaaaaaaaaaaaaaaaaaaaaaaaaaaaaaaaaaaaaaaaa" /></g><path
         id="path58"
         style="display:inline;fill:#eeb001;fill-opacity:1;stroke-width:1.08175"
         d="m 150.61815,7.4110643 c -0.50766,0.052583 -1.01198,0.158815 -1.50008,0.2852259 -1.22874,0.3182289 -2.47823,0.7766592 -3.46919,1.5697989 -0.98241,0.7862979 -1.70755,1.8909859 -2.27335,3.0149429 -1.07142,2.12839 -1.48623,4.53462 -2.02405,6.855986 -0.64928,2.802473 -1.08684,5.65388 -1.44514,8.508181 -0.3372,2.68628 -0.24824,5.420525 -0.6613,8.096189 -0.32969,2.135506 -0.91303,4.225077 -1.44515,6.319338 -0.50342,1.981332 -0.96308,3.980591 -1.65219,5.905231 -0.42597,1.189707 -0.75729,2.467413 -1.52755,3.469192 -0.53733,0.698841 -1.22795,1.37323 -2.06418,1.652197 -0.84928,0.283321 -1.83304,0.191655 -2.68536,-0.0824 -1.05781,-0.340128 -1.93912,-1.118967 -2.76775,-1.85925 -0.71382,-0.637715 -1.48465,-1.307096 -1.85714,-2.188844 -0.5059,-1.197569 -0.28412,-2.584103 -0.37185,-3.881185 -0.16446,-2.433159 -0.18473,-4.873768 -0.28945,-7.310232 -0.11477,-2.671258 -0.30987,-5.340785 -0.37184,-8.01379 -0.0383,-1.651629 0.0749,-3.306217 0,-4.956593 -0.0482,-1.063358 0.10807,-2.192291 -0.28945,-3.17974 -0.32919,-0.817765 -0.94422,-1.538958 -1.65221,-2.06419 -0.59542,-0.441732 -1.3273,-0.744492 -2.06418,-0.826098 -0.85935,-0.09517 -1.8584,-0.0923 -2.5607,0.411993 -0.69532,0.49928 -0.98591,1.44191 -1.19795,2.271243 -0.22169,0.867087 -0.06,1.790545 -0.0423,2.685348 0.0298,1.50261 0.15967,3.001991 0.24719,4.502343 0.18241,3.12579 0.50718,6.244138 0.5789,9.374424 0.04,1.748201 -0.25212,3.505638 -0.0824,5.246042 0.20494,2.10159 1.1153,4.093324 1.32259,6.194684 0.10006,1.013949 0.12996,2.052987 -0.0423,3.057199 -0.16705,0.974056 -0.3767,2.003428 -0.95075,2.80789 -0.57582,0.806955 -1.40604,1.525814 -2.35365,1.816993 -0.64605,0.198516 -1.40621,0.151436 -2.02405,-0.122541 -0.75648,-0.33546 -1.34346,-1.028334 -1.77473,-1.734596 -0.7058,-1.155853 -0.79476,-2.5904 -1.19796,-3.883296 -0.39537,-1.267804 -0.80805,-2.529286 -1.19794,-3.798787 -0.45141,-1.469807 -0.94221,-2.930175 -1.3226,-4.419944 -0.55712,-2.181945 -0.86326,-4.422451 -1.40289,-6.608789 -0.48669,-1.971861 -1.14179,-3.899232 -1.65219,-5.865089 -0.58321,-2.24632 -1.00544,-4.533471 -1.61206,-6.773585 -0.34606,-1.277923 -0.99402,-2.484745 -1.15569,-3.798786 -0.13299,-1.080858 0.43222,-2.206476 0.1648,-3.26214 -0.18206,-0.71869 -0.59627,-1.414979 -1.15569,-1.901506 -0.49788,-0.433001 -1.16299,-0.696427 -1.816999,-0.783843 -0.964913,-0.128964 -1.979377,0.07424 -2.892401,0.411993 -0.841767,0.31139 -1.60395,0.847046 -2.271244,1.447257 -0.706568,0.635539 -1.463297,1.331864 -1.776851,2.228989 -0.236204,0.675809 -0.156642,1.45015 0,2.148701 0.119927,0.534823 0.486359,0.982055 0.703557,1.485287 0.298865,0.692447 0.542704,1.407525 0.826099,2.106446 0.415051,1.023615 0.860817,2.035411 1.280347,3.057198 0.49036,1.194296 1.038572,2.368492 1.445144,3.593847 0.712997,2.148879 1.21572,4.362714 1.734596,6.566532 0.544536,2.312802 0.913516,4.664836 1.445144,6.98064 0.352631,1.536081 0.828148,3.043567 1.157808,4.584741 0.51462,2.405917 1.14041,4.811621 1.28035,7.267978 0.0518,0.908834 0.21762,1.900391 -0.16692,2.725491 -0.31264,0.670834 -0.98454,1.133882 -1.60994,1.529655 -0.773427,0.489452 -1.646302,0.950277 -2.56069,0.990896 -0.844482,0.03751 -1.684435,-0.316713 -2.43604,-0.703556 -0.82767,-0.426058 -1.631171,-0.98902 -2.188726,-1.734599 -0.506779,-0.67768 -0.665611,-1.556917 -0.950753,-2.353641 -0.573687,-1.602961 -0.84402,-3.3149 -1.527542,-4.874193 -0.63141,-1.440413 -1.708248,-2.654989 -2.355755,-4.088238 -0.795842,-1.761586 -0.947607,-3.787572 -1.857138,-5.493239 -0.905647,-1.698383 -2.672968,-2.852211 -3.511446,-4.584741 -0.488742,-1.009876 -0.347869,-2.247242 -0.826099,-3.262139 -0.76411,-1.621591 -2.281372,-2.786302 -3.17974,-4.337545 -1.26027,-2.176154 -2.049331,-4.59219 -3.057199,-6.896127 -0.528893,-1.209027 -0.765128,-2.590169 -1.569798,-3.636103 -0.502144,-0.6527 -1.146794,-1.304548 -1.939536,-1.527543 -1.121106,-0.315361 -2.41392,-0.07858 -3.469192,0.414105 -0.582448,0.271932 -1.118658,0.744993 -1.405001,1.320492 -0.456472,0.917427 -0.500642,2.046861 -0.329595,3.057199 0.150079,0.886484 0.712424,1.653806 1.155694,2.43604 0.513924,0.906918 1.227723,1.69207 1.734595,2.60295 0.581173,1.044406 1.0155,2.164023 1.4874,3.262139 0.551121,1.282464 0.974436,2.620762 1.569799,3.883296 0.627972,1.331688 1.531671,2.525686 2.106446,3.881185 0.608535,1.435116 0.851416,3.002091 1.402888,4.460087 0.719544,1.902346 1.55174,3.765069 2.478296,5.575638 1.53179,2.993249 3.392899,5.807415 5.081246,8.715234 0.662804,1.141539 1.538284,2.185778 1.981791,3.429048 0.54829,1.537005 0.79001,3.200078 0.783844,4.831938 -0.0025,0.656364 0.150518,1.494087 -0.329595,1.941649 -0.819666,0.76409 -2.249386,0.556967 -3.34665,0.329593 -0.693971,-0.143798 -1.321891,-0.56862 -1.857138,-1.033148 -0.860926,-0.747179 -1.390764,-1.807275 -2.066302,-2.725491 -1.052741,-1.430923 -2.075806,-2.882069 -3.097342,-4.335433 -1.029937,-1.465317 -1.858929,-3.086852 -3.055086,-4.419945 -1.082054,-1.205926 -2.466588,-2.101857 -3.676244,-3.17974 -1.185796,-1.056622 -2.392543,-2.094782 -3.511447,-3.221996 -1.908975,-1.923151 -3.55126,-4.097595 -5.450984,-6.029885 -1.638883,-1.666977 -3.346184,-3.270808 -5.121388,-4.791795 -1.965927,-1.684396 -4.333751,-2.908492 -6.112284,-4.789681 -1.521792,-1.609629 -2.452785,-3.695445 -3.800899,-5.453096 -0.832492,-1.085391 -1.369401,-2.640776 -2.643094,-3.139598 -1.240223,-0.485714 -2.76919,-0.08868 -3.965695,0.496505 -0.419761,0.205299 -0.832766,0.551188 -0.990896,0.990895 -0.393121,1.093144 -0.04981,2.371946 0.331708,3.469192 0.274668,0.789944 0.791287,1.495799 1.362745,2.106446 0.645326,0.689579 1.573349,1.058129 2.271243,1.694453 1.231815,1.12314 2.325539,2.397124 3.344538,3.716387 0.856628,1.109047 1.432161,2.42193 2.313498,3.511447 0.802065,0.991522 1.931603,1.696758 2.685348,2.725491 0.782576,1.068082 1.091107,2.431438 1.857137,3.511448 0.879237,1.239617 1.956821,2.340088 3.097343,3.344537 0.977645,0.861006 2.227017,1.385009 3.181852,2.271243 3.940532,3.657419 6.276315,8.854359 10.325177,12.39148 1.541918,1.347031 3.78592,1.785094 5.203786,3.262137 0.538057,0.560514 0.836064,1.315871 1.155694,2.024048 0.508653,1.12698 1.040632,2.285045 1.197948,3.511447 0.214281,1.670485 -0.0337,3.389116 -0.37185,5.03899 -0.195813,0.955384 -0.280878,2.054865 -0.94864,2.765635 -0.836795,0.890692 -2.168962,1.302798 -3.386793,1.405002 -0.858619,0.07206 -1.712358,-0.280168 -2.520552,-0.578903 -1.530652,-0.56578 -2.933297,-1.436363 -4.335432,-2.271244 -1.824137,-1.086155 -3.512007,-2.388838 -5.288299,-3.55159 -2.035479,-1.332414 -4.102226,-2.613789 -6.152427,-3.92344 -1.377483,-0.879924 -2.750679,-1.766831 -4.130494,-2.643092 -2.005558,-1.273645 -3.976358,-2.606135 -6.029885,-3.800899 -1.714267,-0.997379 -3.599282,-1.702606 -5.246044,-2.80789 -1.7944,-1.204378 -3.247389,-2.86156 -4.996734,-4.130494 -2.624839,-1.903996 -5.702335,-3.158612 -8.218731,-5.203787 -1.503522,-1.221972 -2.626527,-2.854221 -4.048093,-4.170635 -1.090292,-1.009644 -2.055284,-2.28368 -3.429049,-2.850146 -0.575004,-0.237101 -1.263315,-0.351899 -1.857138,-0.16691 -0.802767,0.250079 -1.376356,0.989622 -1.941648,1.612053 -0.906228,0.997828 -1.896675,2.049699 -2.271243,3.344538 -0.22967,0.793944 -0.187287,1.697038 0.0824,2.478296 0.372885,1.080218 1.11143,2.079964 2.024046,2.767748 1.593116,1.200632 3.827841,1.179428 5.615781,2.064189 1.930592,0.955354 3.637311,2.310394 5.453095,3.469192 1.72233,1.099157 3.493405,2.124599 5.161533,3.304395 2.45076,1.733319 4.680173,3.766475 7.105292,5.535494 2.32918,1.699034 4.75757,3.25556 7.143324,4.874193 2.240307,1.519953 4.550016,2.941896 6.733442,4.542485 2.141581,1.569914 4.273138,3.169281 6.236939,4.956593 1.087346,0.989623 2.181948,1.996816 3.055086,3.17974 0.860026,1.165156 1.76448,2.391556 2.106445,3.798785 0.22116,0.910093 0.217918,1.922878 -0.0824,2.810003 -0.483926,1.429508 -1.632398,2.555454 -2.643094,3.676244 -0.555106,0.615574 -1.123232,1.270946 -1.85925,1.652196 -0.753177,0.39014 -1.630809,0.6122 -2.478295,0.57679 -2.414236,-0.10086 -4.61884,-1.42111 -6.896127,-2.228986 -1.474648,-0.523139 -2.916241,-1.135498 -4.377689,-1.694452 -1.635958,-0.625698 -3.179622,-1.632779 -4.916449,-1.85925 -1.070418,-0.139576 -2.142978,0.406217 -3.219883,0.331707 -1.442378,-0.09979 -2.84268,-0.571707 -4.212892,-1.033152 -1.93421,-0.651384 -3.636296,-1.947424 -5.617892,-2.43604 -1.983759,-0.489152 -4.234576,0.351219 -6.112285,-0.454249 -1.092798,-0.46877 -1.559578,-1.906053 -2.643093,-2.395896 -1.224649,-0.553646 -2.667351,-0.57568 -4.005839,-0.454249 -1.088705,0.09877 -2.281585,0.271254 -3.1395965,0.94864 -0.9007005,0.711089 -1.4860752,1.854468 -1.7345965,2.9748 -0.3263485,1.471173 -0.08384,3.079317 0.4119936,4.502343 0.2814377,0.807717 0.6782263,1.695574 1.4050017,2.146588 1.3784127,0.855396 3.2165527,0.429686 4.8319367,0.578906 1.895849,0.17512 3.844241,-0.0524 5.700291,0.37185 1.968885,0.45003 3.69451,1.64853 5.61578,2.27124 1.308674,0.42416 2.674502,0.6526 4.007952,0.9909 2.757635,0.69961 5.625897,1.07099 8.258873,2.1487 1.352794,0.55371 2.452073,1.62552 3.800899,2.18884 1.436214,0.5998 2.969687,0.96707 4.502343,1.23808 1.333001,0.23566 2.745125,-0.0427 4.045981,0.33172 1.147968,0.33044 2.275471,0.87405 3.181854,1.65219 0.672763,0.57758 1.139483,1.37015 1.567686,2.14658 0.343224,0.62235 0.875231,1.27672 0.785955,1.9818 -0.117606,0.92886 -0.950423,1.65359 -1.652198,2.27336 -0.896041,0.79134 -1.995527,1.38786 -3.139597,1.73459 -2.049369,0.62109 -4.260623,0.50031 -6.401735,0.53666 -3.321545,0.0564 -6.64969,-0.14749 -9.953326,-0.49651 -2.565936,-0.27109 -5.071445,-0.99126 -7.639828,-1.23809 -2.221126,-0.21301 -4.466731,-0.38244 -6.691187,-0.20705 -1.173601,0.0925 -2.384867,0.20288 -3.469192,0.66129 -1.037798,0.43875 -2.155953,0.99549 -2.767747,1.94165 -0.517528,0.80039 -0.783732,1.88735 -0.536647,2.8079 0.245429,0.91437 1.069271,1.62161 1.857137,2.14658 0.989082,0.65904 2.223772,0.87059 3.386792,1.11555 2.084459,0.43904 4.247055,0.36128 6.361594,0.61905 1.602202,0.19532 3.186616,0.53444 4.791794,0.70356 4.253185,0.44811 8.527532,0.7441 12.803472,0.82609 3.166968,0.0607 6.334927,-0.10265 9.499078,-0.24931 0.826981,-0.0383 1.682221,-0.39202 2.478295,-0.16479 0.635586,0.18142 1.26196,0.59585 1.609942,1.1578 0.54336,0.87748 0.454208,2.02387 0.496504,3.05509 0.02151,0.52434 0.08719,1.08967 -0.124654,1.5698 -0.593732,1.34561 -1.882476,2.28353 -3.014943,3.222 -1.30571,1.08202 -2.745099,2.03805 -4.29529,2.72549 -2.885358,1.27953 -6.074669,1.71571 -9.127228,2.51843 -4.391801,1.1549 -8.814091,2.19488 -13.217577,3.3044 -5.261554,1.32571 -10.516746,2.67377 -15.776159,4.00795 -2.0099009,0.50986 -3.9805624,1.21142 -6.0298859,1.52754 -0.9404133,0.14509 -1.9729323,-0.20387 -2.8501457,0.1648 -0.5660392,0.2379 -1.1441246,0.66433 -1.3627458,1.23809 -0.46826197,1.22893 -0.00372,2.67788 0.4119928,3.92556 0.364969,1.09536 0.7986133,2.35943 1.7768516,2.97269 0.6674409,0.4184 1.5840136,0.37503 2.3536419,0.20704 0.8975686,-0.1959 1.5163681,-1.09733 2.3958964,-1.36274 2.6819457,-0.80931 5.5994847,-0.2676 8.3835267,-0.5789 2.589119,-0.28951 5.177066,-0.65138 7.724339,-1.19795 3.141578,-0.6741 6.16071,-1.84043 9.292025,-2.5607 5.226222,-1.20215 10.555259,-1.90408 15.818415,-2.93255 2.013926,-0.39353 3.977982,-1.2594 6.029886,-1.23809 0.931761,0.01 1.855935,0.28418 2.725492,0.61905 1.075665,0.41426 2.108179,0.98069 3.014942,1.69234 0.681956,0.53522 1.462983,1.09342 1.776851,1.9015 0.463592,1.19357 0.270349,2.59884 -0.04014,3.84106 -0.289674,1.15892 -0.917574,2.23774 -1.652198,3.17973 -0.99558,1.27662 -2.392013,2.18605 -3.636101,3.22199 -4.552273,3.79064 -9.289944,7.35338 -14.00142,10.94423 -4.351432,3.31643 -8.732453,6.59563 -13.175322,9.78853 -4.016151,2.88624 -8.401633,5.27958 -12.182313,8.46804 -0.870718,0.73432 -1.915943,1.40307 -2.395897,2.43604 -0.436978,0.94047 -0.553416,2.09446 -0.289452,3.09734 0.196365,0.74605 0.782185,1.34678 1.32049,1.89939 0.810823,0.83236 1.698593,1.72715 2.810003,2.0663 0.948903,0.28957 2.032184,0.19114 2.972687,-0.12465 1.191097,-0.39993 2.065065,-1.4303 3.097342,-2.14658 1.983005,-1.37598 4.016423,-2.68252 5.947487,-4.1305 1.699584,-1.2744 3.298755,-2.67969 4.956591,-4.00795 2.798844,-2.24244 5.609122,-4.46907 8.425784,-6.68908 1.702246,-1.34166 3.332082,-2.78481 5.121389,-4.00795 2.339037,-1.59892 4.905445,-2.83722 7.310232,-4.33544 2.498795,-1.55679 4.957723,-3.177 7.392633,-4.83193 1.756479,-1.19382 3.444906,-2.48909 5.2059,-3.67624 0.75997,-0.51233 1.401537,-1.3769 2.311385,-1.4874 1.097782,-0.13333 2.162089,0.55621 3.139597,1.07329 0.730172,0.38625 1.447495,0.85743 1.981793,1.4874 0.501844,0.59171 0.848602,1.32221 1.075406,2.06419 0.283554,0.92761 0.589208,1.95781 0.329595,2.8924 -0.181305,0.65269 -0.82414,1.07538 -1.240205,1.60994 -0.861059,1.1063 -1.730159,2.20566 -2.600837,3.3044 -1.673204,2.11148 -3.41447,4.17016 -5.03899,6.31933 -1.725509,2.28276 -3.330464,4.65429 -4.996734,6.98064 -1.252499,1.74868 -2.660763,3.39426 -3.758644,5.24393 -1.342013,2.26099 -2.282428,4.73922 -3.429049,7.10529 -1.001574,2.06676 -1.785749,4.25466 -3.014942,6.19469 -1.871115,2.95318 -4.20753,5.59838 -6.566533,8.17858 -1.701629,1.86119 -3.913325,3.24678 -5.453096,5.24394 -0.914443,1.18608 -1.607481,2.54321 -2.188845,3.92343 -0.507276,1.20433 -1.149719,2.45235 -1.113436,3.75865 0.02721,0.97942 0.289249,2.08386 0.990895,2.76775 0.913478,0.89036 2.362392,1.29909 3.633989,1.19795 1.374931,-0.10933 2.657486,-0.9696 3.676245,-1.8994 1.001406,-0.91395 1.713952,-2.15916 2.188843,-3.42904 0.492394,-1.31669 0.03334,-2.89273 0.619047,-4.17064 0.719861,-1.57062 2.541034,-2.41689 3.386792,-3.92345 0.792844,-1.41229 0.683247,-3.2211 1.4874,-4.62699 0.760095,-1.32887 2.037162,-2.28349 3.055086,-3.42694 1.543229,-1.73353 3.138631,-3.42293 4.626998,-5.20378 1.829764,-2.18933 3.474558,-4.52907 5.286185,-6.73344 1.890548,-2.3004 3.876553,-4.52015 5.822833,-6.77359 1.620304,-1.87602 3.360738,-3.65255 4.874193,-5.61578 1.506085,-1.95367 3.015095,-3.934 4.172749,-6.11229 1.014996,-1.90986 0.879411,-4.48782 2.393785,-6.03199 0.522766,-0.53305 1.33086,-0.73758 2.066302,-0.86624 1.059172,-0.18531 2.153552,0.0439 3.221997,0.16479 1.263978,0.14299 2.634881,0.0652 3.758642,0.6613 0.541878,0.2874 0.964251,0.79484 1.280348,1.32049 0.529501,0.88054 0.878986,1.90743 0.948639,2.93255 0.07396,1.08849 -0.257728,2.17934 -0.578902,3.222 -0.914366,2.9684 -2.336029,5.76814 -3.798786,8.50817 -0.987588,1.84995 -2.400162,3.45606 -3.344538,5.32845 -0.8324,1.65036 -1.199109,3.50953 -2.024047,5.16364 -0.937885,1.88058 -2.446604,3.45014 -3.304394,5.36859 -0.492507,1.10148 -1.000245,2.26305 -1.033151,3.46919 -0.03551,1.30181 0.272676,2.66225 0.908496,3.79878 0.332702,0.59471 0.831515,1.15091 1.445145,1.44726 1.085655,0.52432 2.435706,0.74708 3.593846,0.41199 1.392071,-0.40275 2.384028,-1.67929 3.386793,-2.72549 1.39662,-1.45712 2.921925,-2.97097 3.593845,-4.87419 0.422053,-1.19547 -0.187143,-2.58083 0.164797,-3.79879 0.338939,-1.17296 1.275732,-2.08743 1.816995,-3.18185 1.616431,-3.26838 2.930823,-6.67863 4.255143,-10.07587 1.42347,-3.65156 2.17771,-7.58021 3.96358,-11.06887 0.36543,-0.71385 0.66005,-1.59749 1.36275,-1.98391 0.65188,-0.35847 1.48772,-0.11139 2.2311,-0.0824 1.08016,0.0421 2.30079,-0.19373 3.22199,0.37185 0.91439,0.56139 1.44129,1.66551 1.77474,2.68534 0.53972,1.65065 0.18721,3.46826 0.2493,5.2038 0.10288,2.87633 0.17055,5.75275 0.20495,8.63072 0.0277,2.31274 -0.91243,4.81518 0,6.94049 0.29964,0.69798 1.31674,0.8862 1.65219,1.56769 0.58685,1.1922 0.36824,2.63769 0.41411,3.9657 0.13701,3.965 -0.42276,7.92762 -0.41411,11.89497 0.004,2.10801 0.23244,4.2114 0.24931,6.31934 0.0239,2.97443 -0.24935,5.94806 -0.20705,8.92228 0.0304,2.13656 -0.70478,4.53203 0.32959,6.40174 0.54544,0.98591 1.72008,1.52495 2.76776,1.93954 1.81039,0.7164 3.87597,1.22003 5.78268,0.82609 0.77463,-0.16004 1.59477,-0.57372 2.02405,-1.23809 0.59497,-0.92079 0.4253,-2.16804 0.41199,-3.26425 -0.02,-1.65682 -0.59943,-3.26368 -0.7437,-4.91433 -0.19787,-2.26364 -0.13721,-4.54163 -0.16479,-6.81373 -0.017,-1.40416 0.21613,-2.82535 0,-4.21289 -0.36923,-2.37044 -1.84141,-4.48225 -2.18885,-6.85598 -0.54241,-3.70585 0.56887,-7.50587 0.20706,-11.23368 -0.23398,-2.41081 -1.09135,-4.72315 -1.52967,-7.10529 -0.31253,-1.69856 -0.66467,-3.39844 -0.78383,-5.12139 -0.27265,-3.94217 -0.98076,-8.07082 0.16479,-11.85273 0.24245,-0.80038 0.67468,-1.63107 1.36274,-2.10644 1.01974,-0.70446 2.39756,-0.73889 3.63611,-0.78595 1.11094,-0.0422 2.30871,-0.0403 3.3044,0.45425 0.81954,0.40708 1.41379,1.19267 1.93953,1.94165 0.70769,1.00818 1.1176,2.20088 1.5698,3.34665 0.55781,1.41336 0.92563,2.89357 1.405,4.33543 0.39009,1.1733 0.88687,2.31477 1.19795,3.51145 0.6196,2.38355 0.70627,4.88303 1.32049,7.26798 0.43106,1.67376 1.14353,3.26461 1.6522,4.91644 0.87102,2.82851 1.56188,5.70869 2.39589,8.54832 0.83204,2.8329 1.85316,5.61228 2.60295,8.46805 0.57261,2.18094 1.07408,4.38256 1.44515,6.60667 0.43334,2.59736 0.13217,5.33278 0.90849,7.849 0.46296,1.50052 1.03243,3.10828 2.18885,4.17063 0.20901,0.19201 0.51215,0.24748 0.78384,0.32959 0.84521,0.25532 1.7215,0.44534 2.60295,0.49651 0.95084,0.0552 1.95701,0.12374 2.85015,-0.20706 0.80303,-0.29741 1.50533,-0.8787 2.06419,-1.52754 0.32556,-0.37798 0.64379,-0.82708 0.70145,-1.3226 0.10038,-0.86239 -0.37317,-1.69869 -0.6592,-2.51844 -0.8326,-2.38626 -2.19864,-4.56134 -3.05719,-6.93838 -0.54477,-1.50827 -1.11845,-3.03614 -1.32049,-4.62699 -0.13534,-1.06564 0.16785,-2.14911 0.0824,-3.2199 -0.2085,-2.61086 -0.69243,-5.21627 -1.44726,-7.72433 -1.19304,-3.96412 -3.57891,-7.49514 -4.83194,-11.44072 -0.6825,-2.14909 -0.88328,-4.42507 -1.44514,-6.6088 -0.94108,-3.65754 -2.80208,-7.10856 -3.22199,-10.86181 -0.0936,-0.8364 0.0133,-1.69098 0.1669,-2.51845 0.11842,-0.63791 0.1359,-1.38325 0.5768,-1.85925 0.73486,-0.79336 1.94729,-1.02598 3.01494,-1.19795 0.69439,-0.11184 1.46318,-0.15978 2.10644,0.12465 0.77465,0.34254 1.26817,1.12962 1.817,1.77475 0.99244,1.1666 1.81185,2.4722 2.64309,3.75864 1.27628,1.9752 2.46167,4.01095 3.59384,6.07214 0.90704,1.65134 1.72208,3.35187 2.5607,5.03899 1.2196,2.4536 2.3106,4.97171 3.59385,7.39264 0.98208,1.85277 2.14018,3.60749 3.13959,5.45098 0.78057,1.43981 1.17486,3.12422 2.22899,4.37768 0.8861,1.05366 1.99572,2.05082 3.3044,2.4783 1.08628,0.35484 2.41911,0.49459 3.42904,-0.0401 1.12735,-0.5969 1.83746,-1.91334 2.18885,-3.13959 0.22404,-0.78186 0.2664,-1.72291 -0.12466,-2.43605 -0.42245,-0.7704 -1.56301,-0.87282 -2.14658,-1.52966 -1.33403,-1.50149 -2.53426,-3.30986 -2.89241,-5.28618 -0.15622,-0.86211 0.63946,-1.76656 0.37185,-2.60083 -0.26171,-0.81595 -1.24439,-1.18787 -1.77685,-1.85926 -1.47111,-1.85495 -2.596,-3.95919 -3.88118,-5.94748 -1.10913,-1.71593 -2.22579,-3.42837 -3.3044,-5.16365 -1.47702,-2.37625 -2.92462,-4.77068 -4.33754,-7.18558 -0.77525,-1.32503 -2.03927,-2.48831 -2.27124,-4.00583 -0.10853,-0.71003 -0.0343,-1.57992 0.45424,-2.10646 0.42962,-0.46304 1.2099,-0.36225 1.817,-0.53664 1.18145,-0.33936 2.34672,-0.76021 3.5537,-0.99301 0.87031,-0.16786 1.767,-0.42188 2.64309,-0.28734 1.21863,0.18714 2.3809,0.77235 3.38679,1.48529 1.39867,0.99132 2.48717,2.38236 3.50934,3.75864 0.99679,1.34213 1.5586,2.97024 2.52055,4.33755 1.3774,1.95783 3.07156,3.67184 4.62488,5.49324 1.29843,1.52252 2.65484,2.99502 3.92344,4.54248 2.1894,2.67064 4.16203,5.51634 6.3616,8.17859 1.42296,1.72229 3.15584,3.1955 4.41783,5.03899 1.02615,1.49896 1.64916,3.23803 2.52055,4.83194 0.94363,1.72608 1.70485,3.58433 2.93254,5.12138 0.57162,0.71566 1.20833,1.44274 2.02406,1.85925 1.22638,0.62621 2.67195,0.77731 4.04808,0.8261 0.84647,0.0301 1.72121,-0.0456 2.51845,-0.3317 0.85574,-0.30706 1.66559,-0.80733 2.31349,-1.44514 0.59598,-0.5867 1.04894,-1.33126 1.36275,-2.10645 0.42655,-1.05363 0.92081,-2.23787 0.6613,-3.34454 -0.36086,-1.53886 -1.90696,-2.52285 -2.8924,-3.75865 -1.60342,-2.01079 -3.18127,-4.04727 -4.91433,-5.94748 -2.31571,-2.53903 -4.86528,-4.85527 -7.31024,-7.27009 -2.89527,-2.8596 -5.86297,-5.64584 -8.71524,-8.54832 -1.01022,-1.02801 -1.98327,-2.09155 -2.97268,-3.1396 -1.75169,-1.85552 -3.3137,-3.90907 -5.24604,-5.57564 -1.04114,-0.89793 -2.39551,-1.40096 -3.3868,-2.35364 -1.6299,-1.56643 -3.06928,-3.3929 -4.08824,-5.41083 -0.3495,-0.69215 -0.60829,-1.45754 -0.6613,-2.2311 -0.0561,-0.81976 0.0538,-1.67843 0.37185,-2.43605 0.29308,-0.69818 0.90947,-1.21046 1.36275,-1.817 0.48296,-0.64623 0.84404,-1.40355 1.44515,-1.94165 0.48731,-0.43624 1.05309,-0.8626 1.69444,-0.99089 0.80378,-0.16076 1.66205,0.0597 2.43605,0.32959 1.60296,0.55894 2.97785,1.64256 4.37769,2.60295 1.48754,1.02057 2.74901,2.35159 4.25514,3.34454 1.29619,0.85456 2.76495,1.41914 4.08824,2.2311 1.94964,1.19628 3.82361,2.51478 5.65804,3.88118 2.79513,2.08201 5.50563,4.2803 8.13633,6.56654 1.09544,0.95201 2.1204,1.98276 3.17974,2.9748 2.4385,2.28355 4.90178,4.54076 7.31023,6.85598 0.94747,0.9108 1.7744,1.95858 2.81001,2.76775 0.91538,0.71525 1.85235,1.50983 2.97268,1.817 0.99589,0.27305 2.09659,0.21235 3.09734,-0.0423 1.40252,-0.35682 2.52887,-1.41364 3.84105,-2.02404 0.86231,-0.40112 2.08488,-0.30331 2.64309,-1.0733 0.34831,-0.48045 0.27673,-1.20111 0.12465,-1.77473 -0.29259,-1.10355 -1.12301,-2.01307 -1.89939,-2.85015 -1.5207,-1.63958 -3.50504,-2.77836 -5.28619,-4.13049 -2.18001,-1.65494 -4.37448,-3.29331 -6.60878,-4.8742 -3.46312,-2.45035 -7.00725,-4.78496 -10.53223,-7.14543 -2.38589,-1.59769 -4.79157,-3.16405 -7.18558,-4.74954 -1.51536,-1.00358 -3.05798,-1.96927 -4.5446,-3.01494 -1.31975,-0.9283 -2.56908,-1.95121 -3.88118,-2.89028 -1.30425,-0.93346 -2.77055,-1.65592 -3.9657,-2.72551 -1.0037,-0.89824 -2.16063,-1.79963 -2.6431,-3.05719 -0.25155,-0.65567 -0.1,-1.40654 -0.0423,-2.10644 0.0494,-0.60012 0.0485,-1.24545 0.3317,-1.77686 0.46243,-0.86775 1.3851,-1.39599 2.10645,-2.06419 0.42946,-0.3978 0.76292,-0.97734 1.32049,-1.15569 1.05426,-0.33722 2.24455,0.0108 3.3044,0.32959 1.35625,0.40846 2.50399,1.32444 3.75864,1.98179 1.34724,0.70587 2.74969,1.31431 4.04809,2.10645 1.52608,0.93106 2.94573,2.02716 4.37769,3.09734 0.99721,0.74527 1.81804,1.75879 2.93255,2.3135 0.82807,0.41214 1.79897,0.43701 2.68534,0.70144 1.82312,0.5439 3.70374,0.97496 5.40873,1.81911 1.38591,0.68617 2.51023,1.8131 3.84104,2.60084 1.61075,0.95345 3.40903,1.57274 4.99884,2.5607 1.41258,0.87781 2.57952,2.11951 4.00585,2.9748 1.93306,1.15916 4.04509,1.99189 6.11228,2.89028 1.9836,0.86206 3.95234,1.79456 6.02989,2.3959 1.29167,0.37386 2.63837,0.95909 3.96569,0.7437 0.83948,-0.13623 1.72622,-0.55583 2.2311,-1.2402 0.79347,-1.07555 0.77202,-2.58797 0.82611,-3.92344 0.0308,-0.76269 0.0924,-1.61031 -0.28946,-2.27124 -0.89946,-1.55691 -2.78325,-2.28917 -4.29529,-3.26215 -3.07689,-1.97994 -6.62801,-3.16462 -9.66598,-5.20378 -0.91769,-0.61598 -1.56426,-1.62824 -2.5607,-2.10645 -1.33155,-0.63903 -2.90815,-0.52868 -4.33543,-0.90849 -2.07001,-0.55084 -4.10082,-1.24746 -6.11229,-1.98391 -1.53647,-0.56255 -3.00307,-1.3107 -4.54459,-1.85925 -1.55916,-0.55483 -3.26506,-0.71364 -4.74955,-1.44515 -1.27479,-0.62818 -2.27843,-1.70253 -3.46919,-2.47829 -1.01883,-0.66376 -2.09046,-1.24239 -3.13959,-1.85714 -1.63397,-0.95742 -3.28949,-1.87735 -4.91434,-2.85014 -1.70786,-1.0225 -3.80418,-1.61096 -5.07914,-3.1396 -0.43557,-0.52225 -0.82515,-1.22425 -0.7437,-1.8994 0.0545,-0.45125 0.45753,-0.79915 0.78385,-1.11555 0.48521,-0.47047 1.08309,-0.82741 1.69445,-1.11555 0.67754,-0.31933 1.39997,-0.59936 2.14659,-0.65918 1.69041,-0.13556 3.37594,0.36961 5.03899,0.70145 2.19077,0.43713 4.31173,1.17158 6.48414,1.69233 1.63075,0.39091 3.29795,0.6288 4.91433,1.07541 1.83382,0.50668 3.59796,1.23989 5.41084,1.817 1.41108,0.44919 2.86908,0.75903 4.25514,1.28034 2.05292,0.77213 3.90768,2.02949 5.98764,2.72549 2.28699,0.76527 4.73695,0.93318 7.06304,1.5698 2.05343,0.56199 4.09801,1.18478 6.07214,1.9818 0.96492,0.38954 1.81119,1.06372 2.80789,1.36274 1.21036,0.36312 2.49535,0.52734 3.75864,0.4965 1.07714,-0.0263 2.26219,-0.0141 3.17974,-0.5789 0.66124,-0.40705 1.13744,-1.13033 1.405,-1.85925 0.25183,-0.68607 0.35672,-1.49584 0.12466,-2.18885 -0.48696,-1.45425 -1.81549,-2.50534 -2.9748,-3.50933 -1.31384,-1.13782 -2.90001,-1.92475 -4.41995,-2.76774 -1.56689,-0.86905 -3.08755,-1.94437 -4.83194,-2.35364 -1.76928,-0.41512 -3.65464,0.23317 -5.45098,-0.0423 -2.23412,-0.34256 -4.2839,-1.46447 -6.48413,-1.98179 -3.58689,-0.84335 -7.24121,-1.41665 -10.90408,-1.817 -1.82272,-0.19922 -3.68114,-0.01 -5.49324,-0.28944 -2.60045,-0.4016 -5.12656,-1.20946 -7.64194,-1.98179 -1.64842,-0.50615 -3.26695,-1.10451 -4.87208,-1.7346 -1.29738,-0.50929 -2.59249,-1.03276 -3.84105,-1.65219 -1.07691,-0.53429 -2.18267,-1.04918 -3.13959,-1.77686 -0.63542,-0.48319 -1.34422,-0.9761 -1.69234,-1.69445 -0.30827,-0.63621 -0.39482,-1.41249 -0.24931,-2.10433 0.16767,-0.79716 0.71504,-1.48375 1.2402,-2.10645 0.52277,-0.61987 1.11026,-1.25409 1.85714,-1.5698 1.1596,-0.49016 2.50167,-0.30165 3.75865,-0.37185 2.10329,-0.11759 4.2128,-0.0937 6.31934,-0.0824 1.73514,0.01 3.47191,0.0155 5.20378,0.12254 1.65714,0.10244 3.30186,0.36044 4.95659,0.4965 3.40988,0.2804 6.82799,0.44891 10.24279,0.6613 2.2988,0.14299 4.59509,0.39015 6.89823,0.412 2.02539,0.0192 4.06429,0.0348 6.07003,-0.24719 1.03827,-0.14601 2.14016,-0.23541 3.0572,-0.7437 0.72379,-0.40118 1.16691,-1.17534 1.77685,-1.7346 0.57563,-0.52781 1.57409,-0.77278 1.77474,-1.52755 0.29645,-1.11518 -0.51248,-2.30625 -1.1557,-3.26425 -0.28807,-0.42905 -0.68734,-0.81721 -1.1578,-1.03104 -0.70733,-0.32145 -1.54166,-0.18366 -2.31139,-0.28945 -2.20665,-0.30337 -4.3834,-0.89591 -6.60878,-0.99089 -1.51609,-0.0647 -3.02638,0.22329 -4.54249,0.28733 -1.98115,0.0836 -3.96457,0.12391 -5.94749,0.12465 -3.42874,10e-4 -6.86611,-0.46644 -10.28503,-0.20704 -1.7694,0.13424 -3.48072,0.72845 -5.24604,0.90849 -1.7266,0.17613 -3.46873,0.1257 -5.20379,0.16691 -1.74817,0.0415 -3.4976,0.17262 -5.24393,0.0824 -1.27391,-0.0658 -2.6051,-0.01 -3.8009,-0.45424 -0.8555,-0.31772 -1.66641,-0.84629 -2.27125,-1.52966 -0.60394,-0.68236 -0.98534,-1.56055 -1.23809,-2.43604 -0.33366,-1.15561 -0.60304,-2.42204 -0.3317,-3.59384 0.16724,-0.72228 0.68275,-1.33019 1.1578,-1.89939 0.42489,-0.50911 0.93204,-0.95704 1.48529,-1.32261 2.28645,-1.510821 4.86136,-2.567321 7.43489,-3.509331 2.20773,-0.808114 4.55329,-1.170812 6.81373,-1.816994 2.62962,-0.751717 5.22972,-1.608932 7.84899,-2.395897 1.58116,-0.475061 3.23102,-0.757057 4.74954,-1.405002 1.53135,-0.653417 2.84156,-1.743218 4.33543,-2.478296 1.53934,-0.757455 3.15747,-1.342539 4.74954,-1.981791 1.73911,-0.698295 3.575,-1.17567 5.24605,-2.024048 0.81723,-0.414907 1.78765,-0.736723 2.31349,-1.4874 0.42921,-0.612752 0.45989,-1.441504 0.49439,-2.188843 0.0391,-0.846094 0.0597,-1.766213 -0.32959,-2.518439 -0.5687,-1.098857 -1.64643,-1.915149 -2.72549,-2.520551 -0.92359,-0.518166 -1.99827,-0.878434 -3.0572,-0.866243 -0.97974,0.01127 -1.92826,0.434667 -2.80789,0.866243 -1.52592,0.748664 -2.64943,2.174349 -4.17063,2.932543 -1.60541,0.800161 -3.49942,0.886196 -5.1214,1.652198 -1.56776,0.740396 -2.8726,1.953005 -4.3798,2.810003 -2.24791,1.278179 -4.65115,2.262768 -6.93838,3.469191 -1.7552,0.925798 -3.36565,2.142571 -5.20378,2.890289 -1.65199,0.671992 -3.4119,1.059492 -5.16154,1.405001 -1.85117,0.365558 -3.73535,0.82989 -5.61789,0.701445 -0.85292,-0.0582 -1.77051,-0.181834 -2.47829,-0.661302 -0.78192,-0.529684 -1.26856,-1.427225 -1.69235,-2.271243 -0.43195,-0.860271 -0.82069,-1.805136 -0.8261,-2.767747 -0.004,-0.801803 0.2242,-1.637819 0.6592,-2.311386 0.50875,-0.787794 1.39772,-1.255298 2.14869,-1.816995 1.04268,-0.779889 2.18874,-1.411673 3.26214,-2.148701 1.32594,-0.910423 2.60103,-1.892354 3.92344,-2.80789 1.689,-1.16933 3.43852,-2.250913 5.12139,-3.429049 1.14595,-0.802246 2.54393,-1.361889 3.3868,-2.478295 0.64565,-0.85519 1.09586,-1.943574 1.11555,-3.014943 0.0186,-1.014226 -0.49028,-1.985358 -0.94865,-2.890289 -0.42811,-0.845201 -0.88876,-1.752412 -1.65219,-2.313498 -0.74723,-0.549176 -1.72343,-0.764893 -2.64521,-0.866242 -0.83879,-0.09222 -1.70926,0.0078 -2.51844,0.247196 -0.86204,0.255083 -1.66074,0.720653 -2.39589,1.238091 -1.32235,0.930737 -2.40013,2.169057 -3.55159,3.304395 -1.57395,1.5519 -3.0171,3.233532 -4.58475,4.791794 -1.4781,1.469245 -2.80447,3.145171 -4.54248,4.29529 -1.08998,0.721286 -2.28745,1.529439 -3.59385,1.569799 -0.92289,0.02851 -1.793,-0.503598 -2.60084,-0.950753 -0.82402,-0.45611 -1.71703,-0.945437 -2.2311,-1.734596 -0.43376,-0.665877 -0.52773,-1.520452 -0.5789,-2.313499 -0.0535,-0.829914 0.0135,-1.693746 0.28946,-2.478295 0.31804,-0.904488 0.96741,-1.657887 1.52753,-2.43604 1.16574,-1.619523 2.48306,-3.126523 3.80091,-4.624885 1.27357,-1.448017 2.67924,-2.77441 3.96358,-4.212891 1.64597,-1.843532 3.31275,-3.67807 4.7918,-5.658036 1.23173,-1.648885 2.08488,-3.569595 3.38679,-5.163645 1.6442,-2.013128 3.76786,-3.587568 5.53549,-5.493238 1.9325,-2.083432 3.57339,-4.426539 5.53338,-6.484135 0.88671,-0.930868 2.0741,-1.587483 2.80789,-2.643092 0.54584,-0.785225 1.06947,-1.687898 1.11555,-2.643094 0.0445,-0.922056 -0.26234,-1.912103 -0.8261,-2.643092 -0.74416,-0.964916 -1.9439,-1.548685 -3.09734,-1.941649 -0.94271,-0.321176 -1.99624,-0.485422 -2.97269,-0.289451 -1.02665,0.206047 -1.90662,0.891622 -2.76774,1.4874 -1.53262,1.060362 -2.76201,2.506534 -4.21289,3.676243 -1.09538,0.883102 -2.32477,1.595488 -3.38679,2.518439 -1.24183,1.079203 -2.34979,2.30575 -3.46921,3.511448 -1.55353,1.673295 -3.15427,3.318663 -4.50233,5.161531 -0.75137,1.027155 -1.34991,2.159576 -1.9818,3.264252 -1.2417,2.170749 -2.21909,4.490441 -3.55159,6.606675 -1.14444,1.81758 -2.53053,3.471867 -3.80089,5.203788 -1.15305,1.571977 -2.27392,3.169287 -3.46919,4.709396 -0.77385,0.997106 -1.43854,2.11004 -2.39591,2.932544 -0.80054,0.687776 -1.69827,1.367582 -2.72549,1.609942 -0.95371,0.225017 -1.96979,-0.02237 -2.93253,-0.20494 -0.99249,-0.188211 -2.07065,-0.320141 -2.8903,-0.91061 -0.39996,-0.288129 -0.72024,-0.725675 -0.86835,-1.195836 -0.25236,-0.801108 -0.11171,-1.694868 0.0423,-2.520551 0.18285,-0.980537 0.64456,-1.888367 1.03103,-2.80789 0.47244,-1.12407 1.03396,-2.209133 1.56981,-3.304395 0.92808,-1.89697 1.93216,-3.756157 2.85014,-5.658036 1.04158,-2.157958 1.94621,-4.381752 3.01494,-6.52639 0.97525,-1.957036 2.02967,-3.874502 3.09734,-5.78269 1.34666,-2.4068 2.81903,-4.742607 4.17275,-7.145437 0.97671,-1.733635 1.66899,-3.642584 2.85015,-5.24393 0.95933,-1.30059 2.42473,-2.170626 3.38679,-3.469191 0.76658,-1.034709 1.54713,-2.136932 1.85715,-3.386794 0.21215,-0.855294 0.48412,-1.934802 -0.0401,-2.643093 -0.53359,-0.72089 -1.66991,-0.721645 -2.56069,-0.826099 -1.74193,-0.204266 -3.58583,-0.15341 -5.24605,0.411994 -0.7157,0.243741 -1.30316,0.775282 -1.89939,1.240204 -0.99106,0.772795 -1.87964,1.671489 -2.76774,2.560694 -1.37698,1.378681 -2.80428,2.730712 -3.96571,4.295292 -1.45662,1.962241 -2.62138,4.134593 -3.71639,6.319336 -0.87644,1.748673 -1.55985,3.586658 -2.27124,5.408727 -0.94239,2.413765 -1.66735,4.909757 -2.64309,7.310234 -0.90486,2.226094 -1.88572,4.426643 -2.9748,6.568646 -0.86062,1.69266 -1.71683,3.402449 -2.80789,4.956592 -0.80223,1.142727 -1.56218,2.407665 -2.72549,3.17974 -0.6022,0.399666 -1.34974,0.755575 -2.06631,0.661301 -0.68152,-0.08967 -1.27539,-0.60403 -1.73459,-1.11555 -0.4113,-0.458159 -0.70724,-1.048088 -0.82609,-1.652198 -0.24786,-1.259826 0.0673,-2.576422 0.28944,-3.841041 0.45998,-2.618814 1.40438,-5.12949 2.1487,-7.682083 0.54375,-1.864743 1.11073,-3.722355 1.69235,-5.575637 0.77568,-2.471621 1.5687,-4.939885 2.39589,-7.394745 0.93153,-2.764507 1.96785,-5.491318 2.89029,-8.258872 0.7352,-2.205786 1.56786,-4.389206 2.10645,-6.651046 0.35861,-1.506022 1.04298,-3.063705 0.7437,-4.582629 -0.19355,-0.9822524 -0.82296,-1.8939735 -1.5698,-2.5606949 -0.51,-0.4552967 -1.1842,-0.7477675 -1.85714,-0.8683543 -0.49629,-0.088931 -1.0072,-0.090613 -1.51487,-0.03803 z M 127.38598,70.517814 c 1.21448,0.02785 2.42271,0.212206 3.6213,0.409881 1.98575,0.32749 3.89002,1.162892 5.8989,1.284573 1.24925,0.07567 2.50387,-0.139938 3.73752,-0.350722 0.94956,-0.162243 1.84042,-0.687699 2.80366,-0.699331 0.97769,-0.0118 2.14141,-0.0177 2.86283,0.642286 0.37707,0.344964 0.14493,1.063064 0.46692,1.459933 0.81858,1.008939 2.26242,1.279525 3.3889,1.926859 2.18603,1.256193 4.42271,2.429658 6.54119,3.796674 1.12585,0.726485 2.03424,1.820275 3.27059,2.336739 1.47677,0.616896 3.29497,0.110114 4.73052,0.817647 2.73136,1.34619 4.55792,4.044812 6.71865,6.190457 0.86993,0.863861 1.95426,1.594665 2.50999,2.687463 0.42233,0.830491 0.23246,1.860273 0.52608,2.744506 1.18002,3.553545 3.71953,6.554721 4.908,10.105451 0.70537,2.10738 0.79133,4.37431 1.28458,6.54117 0.12053,0.52951 0.17794,1.0862 0.40776,1.57824 0.28351,0.607 0.9475,1.0028 1.16837,1.6353 0.37279,1.06754 0.20543,2.25644 0.17536,3.3868 -0.0198,0.74368 -0.0497,1.4994 -0.2324,2.22054 -0.23812,0.93929 -0.9503,1.73193 -1.11133,2.68746 -0.39216,2.32697 0.457,4.70794 0.40988,7.06725 -0.0199,0.99753 0.18405,2.10197 -0.29156,2.97903 -0.29714,0.54796 -1.07017,0.68362 -1.46204,1.16838 -0.46529,0.57555 -0.671,1.31963 -0.99301,1.98602 -0.70112,1.4509 -1.40952,2.89814 -2.04307,4.37979 -0.63259,1.47937 -0.84975,3.16706 -1.75361,4.49812 -0.64234,0.94596 -1.66102,1.57077 -2.50999,2.33674 -0.922,0.83186 -2.17896,1.37972 -2.80366,2.45294 -0.77989,1.33982 -0.33582,3.12577 -0.93596,4.55517 -0.44527,1.06052 -1.12699,2.03627 -1.92686,2.86281 -1.20252,1.24262 -2.69699,2.18889 -4.20444,3.03607 -1.39964,0.78659 -3.0807,1.01714 -4.44108,1.86982 -1.27412,0.79862 -2.16704,2.09961 -3.38679,2.97903 -1.31643,0.94913 -2.73009,1.77463 -4.20444,2.45294 -1.77882,0.81839 -3.68408,1.33419 -5.55029,1.92685 -2.14366,0.68078 -4.30234,1.32343 -6.48413,1.86982 -2.62633,0.65772 -5.26596,1.28313 -7.94196,1.69446 -2.4357,0.3744 -4.89868,0.80215 -7.36093,0.70144 -2.21326,-0.0906 -4.35759,-0.79602 -6.54119,-1.16836 -3.11113,-0.53054 -6.34698,-0.53247 -9.34484,-1.5191 -2.22497,-0.73227 -4.14794,-2.17928 -6.24961,-3.21354 -1.969287,-0.96914 -4.093229,-1.64619 -5.958048,-2.80367 -2.15464,-1.33736 -4.15986,-2.94237 -5.958052,-4.73053 -1.080203,-1.07417 -1.944334,-2.3468 -2.862822,-3.56215 -1.540662,-2.03862 -3.133922,-4.0527 -4.43896,-6.24961 -1.449754,-2.44054 -2.632492,-5.03776 -3.737515,-7.65251 -0.918204,-2.17269 -1.766022,-4.3864 -2.395897,-6.65949 -0.508805,-1.83618 -0.915527,-3.71183 -1.109211,-5.60733 -0.239487,-2.34373 -0.182656,-4.71457 -0.05916,-7.06727 0.09039,-1.722 0.672206,-3.41822 0.585242,-5.1404 -0.04622,-0.91537 -0.471908,-1.77585 -0.585242,-2.68535 -0.142127,-1.14056 -0.496655,-2.36136 -0.116203,-3.44595 0.356501,-1.01631 1.465909,-1.5861 2.102221,-2.45505 0.785239,-1.07234 1.594597,-2.15933 2.104332,-3.38679 0.682821,-1.64426 0.477487,-3.58388 1.225415,-5.19957 1.006062,-2.173299 2.765018,-3.912507 4.263598,-5.780572 1.131201,-1.410105 2.258193,-2.840479 3.564267,-4.09035 1.151143,-1.101608 2.654283,-1.810575 3.737515,-2.979026 0.400179,-0.43166 0.692179,-0.953993 0.993009,-1.459934 0.738759,-1.242457 1.110605,-2.70345 1.986017,-3.853718 1.460253,-1.918734 3.23975,-3.681605 5.315765,-4.907997 1.007189,-0.594994 2.241769,-0.674066 3.327629,-1.109212 1.39862,-0.560479 2.70053,-1.344908 4.09035,-1.92686 2.02841,-0.849344 4.05872,-1.737641 6.19046,-2.27758 1.58282,-0.400905 3.2245,-0.535389 4.84884,-0.701445 1.61053,-0.164645 3.23104,-0.189044 4.84673,-0.291564 1.46054,-0.09267 2.91882,-0.32723 4.38191,-0.293678 z" /></g></g></svg>
