<?xml version="1.0" encoding="UTF-8" standalone="no"?>
<svg
   width="80mm"
   height="23.893415mm"
   viewBox="0 0 226.77163 67.729367"
   version="1.1"
   id="svg9"
   sodipodi:docname="dash-tag.svg"
   inkscape:version="1.4.2 (ebf0e940d0, 2025-05-08)"
   xmlns:inkscape="http://www.inkscape.org/namespaces/inkscape"
   xmlns:sodipodi="http://sodipodi.sourceforge.net/DTD/sodipodi-0.dtd"
   xmlns="http://www.w3.org/2000/svg"
   xmlns:svg="http://www.w3.org/2000/svg">
  <sodipodi:namedview
     id="namedview9"
     pagecolor="#ffffff"
     bordercolor="#666666"
     borderopacity="1.0"
     inkscape:showpageshadow="2"
     inkscape:pageopacity="0.0"
     inkscape:pagecheckerboard="0"
     inkscape:deskcolor="#d1d1d1"
     inkscape:document-units="in"
     inkscape:zoom="5.69"
     inkscape:cx="156.76626"
     inkscape:cy="54.042179"
     inkscape:window-width="2880"
     inkscape:window-height="1717"
     inkscape:window-x="0"
     inkscape:window-y="38"
     inkscape:window-maximized="1"
     inkscape:current-layer="svg9" />
  <defs
     id="defs1">
    <style
       id="style1">.cls-1{fill:#fff;}</style>
  </defs>
  <g
     id="g9"
     transform="scale(0.07863792)">
    <path
       id="rect9"
       style="fill:#ffffff;fill-opacity:1;stroke-width:1.08748"
       d="M 234.89502,0 C 104.76308,0 0,104.76308 0,234.89501 V 626.38623 C 0,756.51817 104.76308,861.28124 234.89502,861.28124 H 2648.8491 c 130.1319,0 234.895,-104.76307 234.895,-234.89501 V 234.89501 C 2883.7441,104.76308 2778.981,0 2648.8491,0 Z m 25.79443,250.64062 a 180,180 0 0 1 180,180 180,180 0 0 1 -180,180 180,180 0 0 1 -180,-180 180,180 0 0 1 180,-180 z" />
    <path
       id="rect2"
       d="M 706.49281 34.647523 C 586.82881 34.647523 490.50462 130.97171 490.50462 250.63571 L 490.50462 610.63466 C 490.50462 730.29866 586.82881 826.64148 706.49281 826.64148 L 2621.6999 826.64148 C 2741.3639 826.64148 2837.7067 730.29866 2837.7067 610.63466 L 2837.7067 250.63571 C 2837.7067 130.97171 2741.3639 34.647523 2621.6999 34.647523 L 706.49281 34.647523 z M 1153.4086 70.673497 C 1183.0391 69.62103 1205.5589 97.016444 1198.8043 125.886 L 1198.8229 125.886 C 1198.7729 126.106 1186.3545 179.55854 1171.9245 241.63853 L 2598.3407 241.63853 L 2598.3407 619.63184 L 1171.9245 619.63184 C 1186.3545 681.71185 1198.7729 735.18301 1198.8229 735.403 L 1198.8043 735.403 C 1203.048 753.4838 1195.7463 772.30414 1180.4188 782.79187 C 1165.0913 793.27961 1144.8996 793.27804 1129.5838 782.77324 C 1129.2538 782.55324 615.45354 430.94519 614.99354 430.63519 C 615.45354 430.32519 1129.2538 78.735759 1129.5838 78.515759 C 1136.6212 73.696019 1144.8843 70.976566 1153.4086 70.673497 z " />
    <path
       style="font-size:416.464px;line-height:1.25;font-family:'Highway Gothic Wide';-inkscape-font-specification:'Highway Gothic Wide';stroke-width:2.16908"
       d="m 1565.6736,430.46195 q 0,85.7916 -67.4671,123.27335 -30.4019,16.65855 -65.8013,16.65855 h -89.9563 V 291.36298 h 89.9563 q 35.8159,0 66.6342,17.90795 66.6342,37.89824 66.6342,121.19102 z m -49.9757,0 q 0,-55.38971 -41.2299,-78.29523 -19.1573,-10.82806 -42.0628,-10.82806 h -39.1477 v 179.07952 h 39.1477 q 20.4067,0 39.9805,-10.82807 43.3122,-23.32198 43.3122,-79.12816 z m 374.4009,139.93191 h -54.1404 l -27.0701,-65.38484 h -121.6075 l -27.4866,65.38484 h -54.5568 l 117.4428,-279.03087 h 50.8086 z m -102.8666,-115.36052 -39.1477,-94.12086 -39.1476,94.12086 z m 353.1617,34.15005 q -0.4165,37.06529 -29.1525,61.63667 -28.3196,24.57137 -79.5446,24.57137 -68.3001,0 -111.1959,-57.47204 l 41.6464,-28.31954 q 28.3195,37.0653 71.2153,37.89821 26.6537,0.41647 41.6464,-10.4116 15.4092,-10.82806 15.8257,-28.73601 1.2494,-14.9927 -12.0775,-24.57138 -13.3268,-9.57867 -54.1403,-19.15734 -57.0556,-13.32684 -76.6294,-32.90066 -19.1573,-19.5738 -19.5738,-45.81103 -0.8329,-30.40188 25.8208,-53.72386 27.0701,-23.73845 69.9659,-23.73845 67.8837,3.33172 104.116,52.89093 l -39.5641,26.23723 q -22.9055,-26.65368 -64.5519,-29.98541 -22.489,0 -34.15,8.32928 -11.661,8.32928 -10.8281,18.74088 -0.4164,11.661 12.4939,19.15735 12.9104,7.49635 37.0653,12.07745 58.305,10.82808 84.5422,35.39945 26.6537,24.1549 27.0702,57.8885 z m 273.6168,81.21047 h -49.5592 V 447.95344 l -125.3557,1.24939 v 121.19103 h -49.9757 V 291.36298 h 49.9757 v 107.86419 h 125.3557 V 291.36298 h 49.5592 z"
       id="text9"
       aria-label="DASH" />
  </g>
</svg>
