<?xml version="1.0" encoding="UTF-8" standalone="no"?>
<!-- Created with Inkscape (http://www.inkscape.org/) -->

<svg
   width="488.77084mm"
   height="488.77084mm"
   viewBox="0 0 488.77084 488.77084"
   version="1.1"
   id="svg1"
   xml:space="preserve"
   sodipodi:docname="dash-emoji.svg"
   inkscape:version="1.4.1 (93de688d07, 2025-03-30)"
   inkscape:export-filename="dash-emoji.png"
   inkscape:export-xdpi="96"
   inkscape:export-ydpi="96"
   xmlns:inkscape="http://www.inkscape.org/namespaces/inkscape"
   xmlns:sodipodi="http://sodipodi.sourceforge.net/DTD/sodipodi-0.dtd"
   xmlns:xlink="http://www.w3.org/1999/xlink"
   xmlns="http://www.w3.org/2000/svg"
   xmlns:svg="http://www.w3.org/2000/svg"><sodipodi:namedview
     id="namedview1"
     pagecolor="#ffffff"
     bordercolor="#000000"
     borderopacity="0.25"
     inkscape:showpageshadow="2"
     inkscape:pageopacity="0.0"
     inkscape:pagecheckerboard="0"
     inkscape:deskcolor="#d1d1d1"
     inkscape:document-units="mm"
     inkscape:zoom="1"
     inkscape:cx="975.5"
     inkscape:cy="937"
     inkscape:window-width="3440"
     inkscape:window-height="1395"
     inkscape:window-x="0"
     inkscape:window-y="22"
     inkscape:window-maximized="1"
     inkscape:current-layer="layer1" /><defs
     id="defs1"><linearGradient
       id="linearGradient7"
       inkscape:collect="always"><stop
         style="stop-color:#7dcdf2;stop-opacity:1;"
         offset="0.3110323"
         id="stop7" /><stop
         style="stop-color:#1a8bbb;stop-opacity:1;"
         offset="1"
         id="stop8" /></linearGradient><linearGradient
       id="linearGradient4"
       inkscape:collect="always"><stop
         style="stop-color:#71c306;stop-opacity:1;"
         offset="0.33405447"
         id="stop5" /><stop
         style="stop-color:#ffffff;stop-opacity:1;"
         offset="0.74676085"
         id="stop6" /></linearGradient><linearGradient
       id="linearGradient2"
       inkscape:collect="always"><stop
         style="stop-color:#fdd9cb;stop-opacity:1;"
         offset="0"
         id="stop2" /><stop
         style="stop-color:#c93803;stop-opacity:1;"
         offset="0.56876981"
         id="stop4" /><stop
         style="stop-color:#a72e03;stop-opacity:1;"
         offset="1"
         id="stop3" /></linearGradient><linearGradient
       inkscape:collect="always"
       xlink:href="#linearGradient2"
       id="linearGradient3"
       x1="-7.5153896"
       y1="169.22348"
       x2="319.87589"
       y2="169.22348"
       gradientUnits="userSpaceOnUse" /><linearGradient
       inkscape:collect="always"
       xlink:href="#linearGradient4"
       id="linearGradient6"
       x1="253.04622"
       y1="463.28891"
       x2="34.411751"
       y2="52.097301"
       gradientUnits="userSpaceOnUse"
       gradientTransform="matrix(1.0523296,0,0,1,-19.706308,0)" /><linearGradient
       inkscape:collect="always"
       xlink:href="#linearGradient7"
       id="linearGradient8"
       x1="209.84155"
       y1="361.82242"
       x2="17.171001"
       y2="-140.10152"
       gradientUnits="userSpaceOnUse" /><linearGradient
       inkscape:collect="always"
       xlink:href="#linearGradient2"
       id="linearGradient51"
       gradientUnits="userSpaceOnUse"
       x1="-7.5153896"
       y1="169.22348"
       x2="319.87589"
       y2="169.22348" /><linearGradient
       inkscape:collect="always"
       xlink:href="#linearGradient2"
       id="linearGradient52"
       gradientUnits="userSpaceOnUse"
       x1="-7.5153896"
       y1="169.22348"
       x2="319.87589"
       y2="169.22348" /><linearGradient
       inkscape:collect="always"
       xlink:href="#linearGradient2"
       id="linearGradient53"
       gradientUnits="userSpaceOnUse"
       x1="-7.5153896"
       y1="169.22348"
       x2="319.87589"
       y2="169.22348" /></defs><g
     inkscape:label="Layer 1"
     inkscape:groupmode="layer"
     id="layer1"
     transform="translate(139.34585,95.425018)"><g
       id="g27"
       inkscape:label="stickerobjects"
       style="display:inline"
       mask="none"
       transform="matrix(1.0639764,0,0,1.0639764,-22.872135,6.2033861)"><rect
         style="display:inline;fill:url(#linearGradient8);stroke-width:0.282526"
         id="rect27"
         width="537.6333"
         height="448.73334"
         x="-155.31042"
         y="-113.50625"
         ry="0"
         inkscape:label="sky" /><g
         id="g26"
         inkscape:label="hill"
         style="display:inline"><path
           style="fill:url(#linearGradient6);stroke-width:0.271417"
           d="m -111.29322,289.88773 c -0.20599,0.21382 -0.34453,0.47853 -0.51144,0.72118 -0.25294,0.3677 -0.53194,0.72201 -0.74242,1.11313 -0.18877,0.35079 -0.34823,0.71856 -0.46195,1.09744 -0.17309,0.57671 -0.24533,1.1773 -0.32996,1.77159 -0.063,0.44214 -0.11192,0.88686 -0.13199,1.33263 -0.0282,0.62656 -0.0348,1.25609 0.0165,1.88132 0.0437,0.53199 0.0964,1.06951 0.24748,1.58345 0.22941,0.78055 0.53762,1.55484 0.98989,2.24192 0.44637,0.67812 1.66632,1.80295 1.66632,1.80295 l 0.70626,114.25095 486.42506,0.35475 V 97.347 l -302.009096,107.13384 -97.807665,37.24852 -44.097436,20.44234 -28.371682,16.98356 -13.859191,9.40083 c 0,0 -1.2278,0.81172 -1.72869,1.33164 z"
           id="path26"
           sodipodi:nodetypes="aaaaaaaaaccccccccca"
           inkscape:label="hillgreen" /><path
           style="fill:#000000;fill-opacity:1;stroke-width:0.271615"
           d="m -111.34009,289.77168 c 0.8772,-0.92928 1.80774,-1.60417 2.725,-2.39238 0.96008,-0.82502 1.92512,-1.64516 2.90792,-2.44573 1.80416,-1.46965 3.63079,-2.91507 5.48539,-4.32707 1.347261,-1.02574 2.71335,-2.02963 4.097518,-3.01014 4.110449,-2.91173 8.274348,-5.75686 12.490833,-8.52871 4.113345,-2.70405 8.270232,-5.35071 12.490834,-7.9016 5.436378,-3.28569 10.936601,-6.4802 16.522263,-9.53212 4.151873,-2.26852 8.394995,-4.3838 12.623013,-6.52195 4.078223,-2.06239 8.185082,-4.07557 12.292564,-6.08298 1.208731,-0.59073 2.422511,-1.17108 3.634899,-1.75427 1.386449,-0.66691 2.801899,-1.26608 4.161931,-1.99536 1.01744,-0.54558 6.931282,-2.86641 10.3673,-4.36863 1.6736258,-0.7317 3.4202408,-1.32988 4.9911238,-2.26194 1.6278924,-0.96588 2.8954402,-2.47216 4.5360649,-3.41626 21.8805973,-12.59119 46.1719943,-20.40359 69.7900493,-29.41151 15.472573,-5.90123 31.2048,-11.20125 47.055417,-16.11677 23.65525,-7.33585 47.60296,-13.82685 71.64053,-19.94215 17.65003,-4.49027 35.3115,-9.07525 53.2678,-12.29138 31.78439,-5.69286 64.09854,-8.29147 96.15958,-12.3541 5.35192,-0.67817 10.6986,-2.61668 16.05964,-2.00676 1.3175,0.14989 3.71709,0.10539 3.71201,1.3645 -0.0514,12.77644 -24.98185,9.59356 -37.77708,13.57225 -4.42732,1.37669 -8.93231,2.53449 -13.46535,3.55546 -4.95188,1.11531 -9.97951,1.90348 -14.97992,2.80293 -3.83618,0.69004 -7.66851,1.40626 -11.52427,1.98977 -2.18112,0.33008 -2.93512,-0.5524 -6.56458,0.85445 -7.68722,2.97971 -18.67342,4.45983 -28.05122,6.52639 -3.40516,0.75039 -6.87075,1.26092 -10.24381,2.13218 -2.19134,0.56603 -4.30687,1.37051 -6.47672,2.00675 -3.15716,0.92574 -6.34739,1.74679 -9.51684,2.63388 -60.90982,17.04792 -122.013061,33.51025 -182.565001,51.66982 -11.2751,3.38141 -22.971593,5.83913 -33.64706925,10.66458 -0.458409,0.20721 -0.83764221,0.54834 -1.28513106,0.77603 -8.68115019,4.41707 -18.06561969,7.46062 -27.01110869,11.37409 -4.751834,2.07883 -9.486874,4.19572 -14.159803,6.4298 -1.857584,0.88809 -3.673386,1.85281 -5.514381,2.77148 -2.636275,1.31552 -5.285893,2.60689 -7.921075,3.92438 -2.832893,1.41634 -5.667599,2.82977 -8.481864,4.27916 -2.684133,1.38237 -5.35029,2.79604 -8.014541,4.21262 -2.397716,1.27486 -4.795977,2.54921 -7.173368,3.85789 -1.966513,1.08251 -3.921132,2.18465 -5.864868,3.30358 -2.287707,1.31694 -4.528781,2.7062 -6.822876,4.0131 -2.710969,1.54438 -5.517813,2.93627 -8.20147,4.52302 -1.382374,0.81735 -2.750544,1.66015 -4.065684,2.57194 -1.32002,0.91517 -2.54025,1.95373 -3.83203,2.90449 -0.79545,0.58546 -1.59003,1.17308 -2.41254,1.72386 -0.30313,0.20298 -0.62532,0.38658 -0.9288,0.58201 -0.12778,0.0823 -0.29166,0.24337 -0.42643,0.17182 -0.16442,-0.0873 -0.17892,-0.42971 -0.0838,-0.53042 z"
           id="path24"
           inkscape:label="hillshadow"
           sodipodi:nodetypes="saaaaaaaaaasaaaaaaaaaaaaaasaaaaaaaaaaaaaaaaaaaasass" /></g><g
         id="g3"
         inkscape:label="sign"
         style="display:inline"><path
           style="display:inline;fill:#ffffff;stroke-width:0.280635"
           d="m -94.531962,29.152923 15.803363,140.348917 c 0,0 0.283814,1.26796 0.493857,1.88136 0.187736,0.54825 0.407332,1.08887 0.681991,1.59915 0.289556,0.53796 0.637126,1.04558 1.011226,1.52859 0.458834,0.59241 0.960747,1.15479 1.505083,1.66973 0.526492,0.49807 1.098145,0.95027 1.693218,1.36397 0.629184,0.43742 1.277053,0.86042 1.975421,1.17584 0.442819,0.2 0.91088,0.35235 1.387497,0.44683 0.578544,0.11468 1.763767,0.1411 1.763767,0.1411 l 445.128349,-37.26257 -22.61014,-154.9505 -41.99104,2.831374 -394.348455,27.773962 c 0,0 -1.772961,0.30118 -2.633084,0.555874 -0.806825,0.238912 -1.593374,0.551043 -2.355607,0.907477 -1.033913,0.483477 -2.065908,0.997439 -2.993213,1.662895 -0.803373,0.576521 -1.560282,1.237263 -2.195024,1.995476 -0.555653,0.663739 -1.009194,1.417417 -1.381615,2.198828 -0.332,0.696601 -0.583976,1.436943 -0.746893,2.191221 -0.137204,0.635228 -0.188701,1.940476 -0.188701,1.940476 z"
           id="path3"
           sodipodi:nodetypes="ccaaaaaaacccccaaaaaac" /><path
           style="fill:#000000;stroke-width:0.264583"
           d="m -90.267604,32.7829 14.899407,132.32093 c 0,0 0.267579,1.19543 0.465608,1.77374 0.176997,0.51689 0.384032,1.02659 0.64298,1.50768 0.272995,0.50719 0.600683,0.98578 0.953384,1.44116 0.432589,0.55852 0.905792,1.08873 1.418992,1.57422 0.496377,0.46958 1.035331,0.89591 1.596366,1.28595 0.593194,0.4124 1.204005,0.8112 1.862426,1.10858 0.41749,0.18856 0.858778,0.3322 1.308132,0.42127 0.545451,0.10812 1.662879,0.13303 1.662879,0.13303 L 371.42153,136.47431 350.64428,-8.504432 293.30349,-4.1995605 -78.488135,21.985725 c 0,0 -1.729752,0.17058 -2.571157,0.376267 -0.773821,0.189165 -1.543713,0.430412 -2.257601,0.78389 -0.96639,0.478503 -1.845714,1.124771 -2.696579,1.787267 -0.735589,0.572741 -1.457401,1.178128 -2.069468,1.881333 -0.498666,0.572918 -0.952249,1.198843 -1.285579,1.881334 -0.346696,0.709859 -0.561853,1.483839 -0.721177,2.257604 -0.123568,0.600114 -0.177908,1.82948 -0.177908,1.82948 z"
           id="path2"
           sodipodi:nodetypes="ccaaaaaaacccccaaaaaac" /><path
           style="fill:#ffffff;stroke-width:0.264583"
           d="M -69.426172,98.765995 26.710491,26.131381 c 0,0 1.586078,-0.565272 2.394559,-0.798185 1.198822,-0.345365 2.40182,-0.705483 3.636142,-0.88687 1.112969,-0.163554 2.248154,-0.259118 3.370103,-0.177374 0.635005,0.04627 1.305849,0.08595 1.872728,0.375808 1.036433,0.529956 1.803338,1.490294 2.561636,2.373488 0.721066,0.839831 1.381002,1.752561 1.862429,2.749296 0.471714,0.976624 0.747366,2.043741 0.975545,3.104044 0.156603,0.7277 0.229899,1.473693 0.266065,2.217174 0.06465,1.329062 0.01615,2.664418 -0.08869,3.990914 -0.103438,1.308699 -0.316147,2.607335 -0.53213,3.902226 -0.401571,2.407556 -0.896739,4.799353 -1.418987,7.183644 -0.351324,1.603946 -1.152922,4.789093 -1.152922,4.789093 l 282.155391,-19.297885 9.5321,65.721286 -285.12466,22.9298 c 0,0 5.922145,15.29739 8.425259,23.10295 0.168645,0.52589 0.422188,1.04451 0.443442,1.59637 0.03246,0.84294 -0.151531,1.70958 -0.487786,2.48323 -0.472609,1.08737 -1.262392,2.02767 -2.08415,2.88233 -0.846418,0.8803 -1.816301,1.66572 -2.882318,2.26151 -1.265525,0.70729 -2.644591,1.30144 -4.07961,1.50768 -1.495852,0.21498 -3.036873,-0.0363 -4.523025,-0.3104 -1.44382,-0.26631 -4.212617,-1.28596 -4.212617,-1.28596 z"
           id="path1"
           sodipodi:nodetypes="ccaaaaaaaaaaaccccaaaaaaacc" /><text
           xml:space="preserve"
           style="font-weight:bold;font-size:71.7947px;font-family:Cantarell;-inkscape-font-specification:'Cantarell Bold';text-align:start;letter-spacing:-0.418801px;writing-mode:lr-tb;direction:ltr;text-anchor:start;fill:#b5312d;stroke-width:0.37393"
           x="45.173435"
           y="115.61415"
           id="text1"
           transform="matrix(0.99068553,-0.0680679,0.16453176,0.99809742,0,0)"
           inkscape:label="text1"><tspan
             sodipodi:role="line"
             id="tspan1"
             style="font-style:normal;font-variant:normal;font-weight:normal;font-stretch:normal;font-size:71.7947px;font-family:'Highway Gothic Wide';-inkscape-font-specification:'Highway Gothic Wide';fill:#000000;stroke-width:0.37393"
             x="45.173435"
             y="115.61415"
             rotate="0 0 0 0 0">DASH</tspan></text><path
           style="fill:#000000;fill-opacity:1;stroke-width:0.264583"
           d="m 269.87933,160.17366 c 0.5017,0 17.73784,-4.17944 17.73784,-4.17944 l 16.93437,-3.06762 17.68456,-3.01014 17.93539,-3.26098 13.04391,-1.88133 14.92525,-1.50507 -5.26772,-25.20988 -30.2268,4.5152 -53.93158,9.5321 -14.19738,4.08777 z"
           id="path27"
           inkscape:label="cover"
           sodipodi:nodetypes="cccccccccccc" /></g><g
         id="g7"
         inkscape:label="fox"><g
           id="g22"
           inkscape:label="shadow"
           style="display:inline"><path
             id="path20"
             style="fill:#000000;fill-opacity:1;stroke-width:0.264583"
             inkscape:label="undershadow"
             d="m 303.60408,49.197943 c -0.0866,-0.0016 -0.16888,0.01708 -0.24391,0.06718 -0.48083,0.32106 -0.3095,0.188754 -0.3762,1.69292 -0.52914,2.093721 -1.00191,4.046534 -1.44229,6.08335 -0.59865,2.768842 -0.74974,5.648288 -1.63091,8.340576 -1.20713,3.688206 -3.11019,7.120664 -4.95422,10.535274 -1.48041,2.741291 -2.85392,5.607281 -4.89118,7.964372 -2.60074,3.009036 -5.93674,5.315253 -9.15603,7.650696 -3.41311,2.476047 -7.1452,4.479305 -10.72337,6.710185 -4.13474,2.577884 -8.29511,5.114554 -12.41682,7.713224 -4.95419,3.12353 -10.10963,5.96261 -14.80013,9.4697 -4.36724,3.26539 -8.37935,6.9898 -12.35376,10.72338 -2.67183,2.50992 -5.10382,5.26456 -7.71374,7.8388 -2.41047,2.37751 -5.01948,4.55568 -7.33702,7.02386 -1.55361,1.65459 -2.91808,3.47711 -4.38992,5.20485 -0.0265,0.0311 -0.0532,0.0621 -0.0806,0.093 -0.2028,-0.0541 -0.4061,-0.1058 -0.60927,-0.15555 -1.40111,-0.34311 -2.88455,-0.039 -4.32687,-0.0625 -4.61986,-0.0753 -9.24196,-0.4266 -13.8591,-0.25115 -2.22402,0.0845 -4.46905,0.17227 -6.64765,0.62736 -3.27418,0.68395 -6.44386,1.84997 -9.53172,3.13572 -2.25255,0.93793 -4.41861,2.08674 -6.52208,3.32331 -2.69155,1.5823 -6.06223,2.61691 -7.85741,5.14284 -1.63376,1.53135 -4.19537,3.88072 -5.87664,5.17333 -4.33207,3.33061 -9.05636,6.12184 -13.70201,8.99893 -3.40467,2.10854 -6.80099,4.25244 -10.37869,6.05183 -3.15833,1.58846 -6.43064,2.95878 -9.75186,4.17029 -2.36065,0.86111 -4.80503,1.47297 -7.21196,2.1947 -2.93338,0.87959 -5.84333,1.84592 -8.81083,2.60242 -2.31025,0.58894 -4.65726,1.02419 -6.992347,1.50534 -2.013634,0.41491 -4.008821,0.95689 -6.051311,1.19165 -3.013005,0.34631 -6.060143,0.3138 -9.092985,0.31316 -5.992561,-0.001 -11.988582,-0.21335 -17.966862,-0.62683 -2.631165,-0.18198 -5.256408,-0.46388 -7.87032,-0.81546 -3.548934,-0.47735 -7.115893,-0.922 -10.59832,-1.75596 -0.202521,-0.0485 -0.45635,-0.34274 -0.595829,-0.1881 -0.457766,0.50751 0.574987,1.24178 0.815454,1.88154 0.301205,0.80136 0.609125,1.60778 0.783931,2.44584 0.296027,1.41922 0.440487,2.87711 0.438733,4.32687 -9.79e-4,0.80912 0.05122,1.6636 -0.25063,2.41432 -0.04446,0.11057 -0.105975,0.2463 -0.219625,0.28216 -0.135573,0.0428 -0.297368,-0.0354 -0.407727,-0.12506 -0.435809,-0.35388 -0.584513,-0.96189 -0.814938,-1.47381 -0.359568,-0.79883 -0.508564,-1.68305 -0.877982,-2.47737 -0.653878,-1.40597 -1.483112,-2.72879 -2.351795,-4.01319 -0.592645,-0.87626 -1.294538,-1.67341 -1.944067,-2.50838 -0.594372,-0.76407 -1.07815,-1.62998 -1.786971,-2.28926 -0.838435,-0.77983 -1.884122,-1.30323 -2.853573,-1.91255 -1.570783,-0.98728 -3.244742,-1.80687 -4.79764,-2.82205 -1.522441,-0.99527 -2.931856,-2.1537 -4.420918,-3.19825 -0.776054,-0.54439 -1.477673,-1.23261 -2.351795,-1.59939 -0.393151,-0.16496 -0.83029,-0.20489 -1.254187,-0.25063 -0.59241,-0.0639 -1.194973,-0.0991 -1.786971,-0.0315 -0.128449,0.0147 -0.338344,-0.0294 -0.376721,0.0941 -0.07034,0.22628 0.38853,0.31107 0.470772,0.5333 0.257579,0.69602 -0.04281,1.48415 -0.03152,2.22622 0.03216,2.11313 0.07523,4.23076 0.282153,6.33398 0.149068,1.51521 0.490801,3.00551 0.68988,4.51497 0.0495,0.37534 0.336503,0.81422 0.125574,1.12861 -0.04239,0.0632 -0.143559,0.0611 -0.219625,0.0631 -0.321883,0.008 -0.64714,-0.0869 -0.940511,-0.21962 -0.08192,-0.0371 -0.170925,-0.081 -0.219625,-0.15658 -0.351961,-0.54621 -0.251995,-1.27527 -0.376204,-1.91307 -0.337759,-1.73436 -0.517284,-3.50613 -1.003556,-5.20485 -0.120192,-0.41987 -0.371715,-0.79719 -0.470256,-1.22266 -0.160983,-0.69509 0.05439,-1.46116 -0.188102,-2.13217 -0.05617,-0.15542 -0.152599,-0.30513 -0.282153,-0.40773 -0.246494,-0.1952 -0.59429,-0.20962 -0.877983,-0.3452 -0.629295,-0.30074 -1.21877,-0.67849 -1.818494,-1.03456 -0.221964,-0.13179 -0.406018,-0.35576 -0.658874,-0.40772 -0.207051,-0.0426 -0.42789,0.0226 -0.626835,0.0941 -0.229439,0.0824 -0.486925,0.17693 -0.627352,0.3762 -0.153498,0.21782 -0.122544,0.51964 -0.15658,0.78393 -0.0682,0.52959 -0.138863,1.06731 -0.09405,1.59939 0.05851,0.69477 0.296038,1.36301 0.470256,2.03812 0.323222,1.25251 0.656589,2.50402 1.066084,3.73103 0.379136,1.13604 0.780083,2.26969 1.28571,3.35536 0.327873,0.704 0.749694,1.36022 1.128613,2.03811 0.456693,0.81703 1.100308,1.55253 1.379761,2.44585 0.13476,0.43078 0.187312,0.90111 0.125574,1.34824 -0.03982,0.28842 -0.148975,0.57484 -0.313676,0.81493 -0.334878,0.48816 -0.871451,0.80214 -1.317232,1.19166 -0.988587,0.86382 -2.065113,1.62864 -3.010153,2.5399 -0.884169,0.85256 -1.658269,1.81228 -2.476851,2.728 -0.463941,0.519 -0.99093,0.98993 -1.379761,1.56735 -0.365516,0.54279 -0.589706,1.16849 -0.877982,1.75596 -0.275953,0.56236 -0.588672,1.10932 -0.814937,1.69344 -0.342804,0.88497 -0.505798,1.83089 -0.8154545,2.728 -0.4103668,1.18888 -0.8007144,2.39545 -1.3797607,3.51193 -0.4898088,0.94442 -1.1086008,1.8207 -1.7559652,2.66495 -0.6036877,0.78729 -1.2489853,1.55016 -1.9750733,2.22622 -1.1184063,1.04135 -2.3941572,1.90208 -3.637504,2.79053 -1.49061335,1.06513 -2.9773913,2.15036 -4.5780152,3.04167 -0.1781832,0.0992 -0.3925883,0.13854 -0.5746419,0.22738 -0.012884,-0.015 -0.020671,-0.0238 -0.020671,-0.0238 0,0 -0.2747821,0.20964 -0.4118611,0.31471 -0.3367162,0.2581 -0.6520735,0.54641 -1.008724,0.77618 -0.4398362,0.28336 -0.9423515,0.45949 -1.3859619,0.7369 -0.3409164,0.21319 -0.6727192,0.44512 -0.975651,0.70952 -0.2815741,0.24576 -0.5417613,0.51775 -0.7756634,0.80925 -0.250152,0.31175 -0.472314,0.64801 -0.665592,0.99788 -0.170365,0.30839 -0.341255,0.62385 -0.432015,0.96428 -0.0861,0.32295 -0.121586,0.66435 -0.099736,0.99787 0.02432,0.37119 0.081209,0.75722 0.254765,1.08624 0.189152,0.35859 0.517078,0.62938 0.820622,0.89813 0.2241739,0.19848 0.4663576,0.38128 0.7312213,0.5209 0.4178057,0.22024 0.8803097,0.34554 1.3306681,0.48783 0.382908,0.12098 0.7693308,0.23517 1.1637532,0.31057 0.1039172,0.0199 0.2438707,0.0389 0.3839559,0.0553 0.5694141,0.49251 1.5065919,0.39263 2.2613607,0.54105 1.1270263,0.22163 2.27042075,0.38729 3.41787929,0.43873 1.36881531,0.0614 2.74156051,-0.0521 4.10775951,-0.15658 1.1853875,-0.0907 2.3996433,-0.0818 3.5429362,-0.40772 0.9891767,-0.28202 1.8132068,-0.99654 2.790528,-1.31724 0.930962,-0.30549 1.908015,-0.49131 2.885095,-0.5643 2.128324,-0.15899 4.262562,0.24599 6.396509,0.28215 2.048375,0.0347 4.096834,-0.0866 6.145361,-0.0625 2.47833,0.0292 4.953278,0.2198 7.431588,0.25063 1.18102,0.0147 2.385629,-0.26693 3.542936,-0.031 0.4357,0.0888 0.841298,0.30499 1.223181,0.53278 1.106118,0.6598 2.051306,1.55929 3.041158,2.38332 1.200755,0.9996 2.44732,1.96069 3.51193,3.1042 0.797689,0.85681 1.443811,1.84365 2.13217,2.79053 0.508029,0.69883 1.140154,1.33522 1.473812,2.13217 0.258862,0.6183 0.363328,1.3049 0.376204,1.97507 0.01076,0.56012 -0.0013,1.16023 -0.25063,1.66192 -0.245556,0.49416 -0.71198,0.85713 -1.155485,1.18545 -1.003305,0.74273 -2.237418,1.11069 -3.328479,1.71721 -2.146873,1.19344 -4.201123,2.54679 -6.326229,3.77858 -2.144853,1.24323 -4.324892,2.42432 -6.482809,3.64474 -2.361704,1.33567 -4.76577,2.60065 -7.07502,4.02508 -0.983486,0.60666 -1.94168,1.25467 -2.884062,1.92339 -1.155032,0.81962 -2.298924,1.65859 -3.392558,2.5585 -0.602767,0.496 -1.17366,1.02979 -1.743562,1.56322 -0.87166,0.81588 -1.681561,1.69636 -2.561601,2.5032 -0.549221,0.50353 -1.129696,0.97185 -1.694987,1.45728 -0.742869,0.63791 -1.473147,1.29058 -2.2298384,1.91203 -0.730794,0.60018 -1.4213292,1.26424 -2.2303548,1.75389 -0.7329866,0.44363 -1.5571206,0.7155 -2.3445597,1.05317 -0.6395406,0.27424 -1.2698833,0.57612 -1.9321818,0.78962 -0.6744838,0.21743 -1.4698949,0.11584 -2.067574,0.49661 -0.2670299,0.17011 -0.3929077,0.49625 -0.59117842,0.7431 -0.28063852,0.34939 -0.91243845,0.36953 -1.20172455,0.7118 -0.62792613,0.74293 -1.49822513,0.90799 -1.90639273,1.79096 -0.2956665,0.63961 -1.0760266,1.44814 -0.9241494,2.13621 0.1124102,0.50927 0.5410309,0.60989 0.9821432,0.88812 0.4357943,0.27487 0.6084666,0.41968 1.0702026,0.77133 0.22295722,0.1698 0.45313087,0.74923 0.65466787,0.91685 0.1072127,0.0892 0.8059532,0.1243 0.9446912,0.11028 0.44544892,-0.0451 1.12765543,0.37787 1.54694493,0.5349 0.2081272,0.0779 0.4264768,0.029 0.9445991,-0.10895 0.367176,-0.0978 0.6336364,-0.18058 1.0042264,-0.26442 0.2097846,-0.0475 0.5260501,-0.20192 0.7388197,-0.23339 0.2591723,-0.0383 0.430355,0.0185 0.6531901,0.006 0.3999573,-0.0227 0.8144099,0.0368 1.1942423,0.13332 0.2120652,0.0539 0.4295212,-0.12715 0.6361369,-0.21239 0.6731688,-0.27773 1.3040557,-0.64804 1.9569865,-0.97048 0.551859,-0.27253 1.10717,-0.53784 1.656747,-0.81494 1.07913,-0.54412 2.185079,-1.04237 3.221508,-1.66398 0.947275,-0.56814 1.84352,-1.21935 2.727999,-1.88102 1.077024,-0.80571 2.153419,-1.62108 3.135726,-2.5399 0.999242,-0.93466 1.858339,-2.0086 2.790528,-3.01015 0.5945,-0.63873 1.205677,-1.26177 1.786971,-1.91254 0.375345,-0.42021 0.706299,-0.88033 1.097607,-1.28571 0.118165,-0.12242 0.226774,-0.26384 0.376204,-0.3452 0.218194,-0.1188 0.476693,-0.14522 0.721403,-0.1881 0.899446,-0.15759 1.828718,-0.0921 2.727999,-0.25063 0.202229,-0.0356 0.425029,-0.0426 0.59583,-0.15658 0.229514,-0.15318 0.264049,-0.51792 0.501261,-0.65888 0.118179,-0.0702 0.286619,-0.12757 0.407727,-0.0625 0.263675,0.14161 0.104915,0.68904 0.376204,0.81546 0.216034,0.10067 0.463896,-0.11237 0.689881,-0.18811 1.761132,-0.59022 3.454148,-1.36779 5.173844,-2.06964 2.316514,-0.94542 4.714132,-1.72133 6.929293,-2.88457 2.168939,-1.13896 4.14639,-2.61232 6.177401,-3.98219 0.827006,-0.55779 1.633668,-1.14579 2.445845,-1.72496 1.091137,-0.7781 2.211209,-1.51796 3.260783,-2.35128 0.510534,-0.40534 1.057065,-0.78444 1.473812,-1.28571 0.170752,-0.20538 0.33119,-0.43399 0.407727,-0.68988 0.06296,-0.21051 0.0081,-0.43983 0.03101,-0.65836 0.10172,-0.96895 0.261823,-1.93286 0.470255,-2.88457 0.176307,-0.80503 0.462705,-1.5829 0.658875,-2.38332 0.178108,-0.72673 0.315221,-1.4627 0.470255,-2.1947 0.285418,-1.34761 0.538253,-2.70213 0.84646,-4.04471 0.13499,-0.58803 0.249009,-1.18325 0.438733,-1.75597 0.08545,-0.25796 0.200587,-0.50582 0.313676,-0.75292 0.0778,-0.17 0.08454,-0.41643 0.251148,-0.50127 0.113305,-0.0577 0.26529,3.6e-4 0.376204,0.0625 0.180975,0.10144 0.338081,0.27483 0.407727,0.47026 0.119345,0.33488 -0.01383,0.71101 -0.03152,1.06608 -0.09647,1.93597 -0.113388,3.88479 -0.407727,5.80068 -0.07506,0.48861 -0.286799,0.95135 -0.344682,1.44229 -0.05752,0.48785 -0.01885,0.98294 0,1.47381 0.03661,0.95323 0.137136,1.90318 0.219108,2.85358 0.122702,1.42264 0.190623,2.85302 0.407727,4.26434 0.09911,0.64431 0.384272,1.26108 0.407727,1.91254 0.01367,0.37963 -0.01723,0.77521 -0.15658,1.12861 -0.126584,0.32102 -0.368476,0.58739 -0.595829,0.84698 -0.852805,0.97372 -1.939706,1.71729 -2.853573,2.63395 -1.091564,1.0949 -2.060595,2.30632 -3.135725,3.41736 -2.523576,2.60787 -5.222626,5.04075 -7.775753,7.61969 -1.284559,1.29755 -2.596944,2.57205 -3.794084,3.95066 -0.766328,0.8825 -1.282416,1.9918 -2.163692,2.75953 -0.939405,0.81837 -2.242823,1.12067 -3.229777,1.88102 -0.889903,0.68558 -1.569105,1.60881 -2.3828,2.38331 -0.868285,0.82646 -1.654507,1.77019 -2.665471,2.41433 -1.090313,0.6947 -2.372508,1.02868 -3.574459,1.50481 -1.534246,0.60776 -3.113062,1.09988 -4.640543,1.72445 -1.303493,0.53298 -2.486085,1.4012 -3.856612,1.72496 -0.702524,0.16596 -1.443808,0.0406 -2.163693,0.094 -1.498704,0.11109 -3.112701,-0.14464 -4.483964,0.47025 -0.864128,0.38749 -1.813021,0.76163 -2.38888,1.51346 -0.50027,0.65314 -1.53597,1.64428 -1.439017,2.46127 0.152835,1.28788 1.925689,2.75081 2.983332,3.5014 0.558732,0.39652 1.383546,0.68486 2.023404,0.92979 1.874774,0.71765 3.890961,1.59511 5.821472,2.1455 1.106521,0.31546 1.709226,0.35576 3.548301,-0.50643 1.068462,-0.50092 2.26364,-1.06634 3.369549,-1.5298 1.448186,-0.6069 2.798786,-1.13105 4.11123,-1.99306 2.346952,-1.54147 4.53088,-3.31952 6.835758,-4.92322 2.615093,-1.81955 5.263919,-3.5908 7.932849,-5.33042 2.392778,-1.55962 4.796304,-3.10471 7.243486,-4.5775 1.496183,-0.90045 3.034423,-1.72943 4.546492,-2.60294 2.587564,-1.49481 5.197122,-2.95306 7.744747,-4.51497 2.64961,-1.62444 5.273615,-3.29355 7.838798,-5.04827 1.204421,-0.82389 2.406517,-1.65614 3.543453,-2.57091 0.992082,-0.79822 2.073116,-1.53337 2.853056,-2.53989 0.755887,-0.97547 1.189253,-2.16594 1.693437,-3.29231 0.690724,-1.54311 1.379465,-3.10194 1.818493,-4.73459 0.20615,-0.76663 0.178959,-1.58283 0.376205,-2.3518 0.339245,-1.32255 0.812354,-2.61525 1.379761,-3.85713 0.583468,-1.27704 1.238731,-2.53639 2.069124,-3.66851 0.524823,-0.71552 1.0646,-1.47686 1.81901,-1.94406 0.714082,-0.44223 1.587856,-0.57112 2.414323,-0.72089 1.206082,-0.21856 2.442891,-0.26725 3.66851,-0.25115 1.217743,0.016 2.41943,0.3186 3.636989,0.3452 2.87731,0.0628 5.76194,-0.12985 8.62325,-0.43925 2.9178,-0.31551 5.80957,-0.85617 8.68526,-1.44229 3.35085,-0.68297 6.69687,-1.42694 9.97097,-2.41432 4.77992,-1.4415 9.5225,-3.06962 14.07872,-5.1108 3.21784,-1.44159 6.30446,-3.17778 9.31261,-5.01726 3.34649,-2.04637 6.51095,-4.37916 9.68882,-6.67867 2.64701,-1.91537 5.30159,-3.83 7.80779,-5.92625 2.32061,-1.94101 4.46122,-4.39889 6.55324,-6.58434 1.02071,-1.06629 1.45778,-1.91082 2.47679,-2.97874 0.87065,-0.91244 1.3759,-1.60361 1.85042,-2.00708 0.68121,-0.57921 0.44602,-0.30171 1.25386,-0.97188 0.7497,-0.62194 0.83424,-0.15807 1.22287,0.47012 0.35477,0.57347 1.84152,2.76808 2.35178,3.57447 0.74454,1.17664 2.20343,2.78903 3.19839,3.76313 1.52473,1.49278 3.48589,2.42961 5.39331,3.38615 1.63679,0.82082 3.46732,1.59633 5.26756,1.91274 1.25975,0.22141 2.4891,0.0998 3.76256,0.21936 2.0397,0.19147 4.10565,0.12321 6.14588,-0.0625 2.19723,-0.20003 4.3713,-0.63671 6.52208,-1.12861 3.56042,-0.81429 7.06283,-1.87799 10.53528,-3.01015 2.07491,-0.67651 4.15947,-1.35378 6.14587,-2.25774 1.10696,-0.50375 2.11359,-1.20587 3.19826,-1.75597 0.3086,-0.15651 0.61072,-0.54398 0.94051,-0.43925 0.16062,0.051 0.22672,0.27243 0.25063,0.43925 0.40863,2.85073 -1.33991,5.60147 -2.00659,8.4031 -0.96482,4.05455 -2.07516,8.07778 -2.88458,12.16619 -0.56732,2.86553 -1.28542,5.73463 -1.37976,8.65425 -0.0217,0.6715 0.003,1.36065 0.1881,2.0066 0.26991,0.94374 0.81041,1.79302 1.31671,2.63394 0.64927,1.07837 1.32107,2.16698 2.19522,3.07268 0.2381,0.24669 0.49035,0.51696 0.81494,0.62736 0.2177,0.074 0.46006,0.007 0.68988,0 0.64902,-0.0209 1.30677,-9.8e-4 1.94406,-0.12558 0.32438,-0.0634 0.64986,-0.15727 0.94103,-0.31367 0.53784,-0.28888 0.89376,-0.86059 1.44229,-1.12862 0.61951,-0.30271 1.38267,-0.20829 2.0066,-0.50178 1.24469,-0.58549 2.4088,-1.4188 3.32382,-2.44584 0.78476,-0.88084 1.47558,-1.92677 1.75597,-3.07268 0.25358,-1.03634 0.12069,-2.16015 -0.12557,-3.19826 -0.1749,-0.73728 -0.52009,-1.43923 -0.94051,-2.06964 -0.45955,-0.68909 -1.17984,-1.16868 -1.69344,-1.81849 -0.46735,-0.5913 -1.09058,-1.14582 -1.25419,-1.88154 -0.3029,-1.36212 0.39631,-2.76264 0.62735,-4.13877 0.62997,-3.75231 1.69095,-7.43917 2.06913,-11.22515 0.24728,-2.47557 0.0102,-4.97738 0.12557,-7.46259 0.1149,-2.47113 0.54428,-4.92635 0.56431,-7.40007 0.008,-1.04703 0.17263,-2.15276 -0.1881,-3.13572 -0.10803,-0.29436 -0.25914,-0.68037 -0.56431,-0.75241 -0.40942,-0.0966 -0.72842,0.43624 -1.12913,0.5643 -1.93471,0.61829 -3.99229,0.81994 -6.01979,0.94103 -1.16927,0.0698 -2.34672,-0.006 -3.51193,-0.12557 -0.8649,-0.0889 -1.74277,-0.176 -2.57142,-0.43925 -1.01585,-0.32273 -1.96408,-0.84187 -2.88458,-1.37925 -0.66108,-0.38593 -1.66805,-0.58211 -1.88154,-1.31723 -0.0758,-0.26096 0.19452,-0.50818 0.31368,-0.75241 0.74698,-1.53099 1.82205,-2.89332 2.50837,-4.45244 0.97476,-2.21436 1.62862,-4.56211 2.25775,-6.89829 0.60021,-2.22883 1.15519,-4.48241 1.44229,-6.77271 0.26281,-2.09652 0.46199,-4.2316 0.25114,-6.33398 -0.18467,-1.8413 -0.71033,-3.64476 -1.31723,-5.39295 -0.79148,-2.27988 -1.82802,-4.48059 -3.01015,-6.58461 -0.15883,-0.2827 -0.31632,-0.56764 -0.47336,-0.8537 0.82719,0.0933 1.65663,0.17264 2.47996,0.28887 2.42668,0.34258 4.83615,0.82498 7.275,1.06609 3.22865,0.31919 6.47546,0.48758 9.71982,0.50178 2.92917,0.0128 5.86574,-0.0791 8.77983,-0.37621 2.86502,-0.2921 5.71051,-0.78683 8.52868,-1.37976 2.11359,-0.44469 4.25024,-0.86761 6.27093,-1.63039 2.2565,-0.85179 4.34461,-2.10133 6.45956,-3.26078 2.51488,-1.3787 5.02708,-2.77845 7.39955,-4.38992 2.40383,-1.63277 4.71675,-3.41072 6.89828,-5.33042 3.12922,-2.75365 6.11896,-5.68676 8.84236,-8.84235 2.24535,-2.60167 4.23395,-5.42239 6.14588,-8.27805 2.21186,-3.30363 4.43223,-6.63391 6.14536,-10.2216 1.73535,-3.6342 2.97513,-7.4954 4.13928,-11.35073 0.90134,-2.98496 1.62716,-6.02698 2.1947,-9.09298 0.67911,-3.66874 1.21617,-7.375892 1.44229,-11.100098 0.15963,-2.629109 -0.0645,-5.267893 -0.0625,-7.901843 0.002,-2.132281 0.28567,-4.275936 0.0625,-6.396509 -0.29137,-2.768991 -0.0478,-7.367334 -0.88306,-10.023361 -0.49495,-1.573808 -0.80883,-3.176416 -1.50736,-4.671042 -0.76013,-1.626428 -1.59716,-4.047551 -2.41482,-5.795106 -0.67099,-1.434097 -1.72268,-3.835812 -2.7168,-5.022368 -0.84586,-1.009591 -3.33052,-3.133067 -4.50789,-3.723437 -1.19387,-0.598643 -3.41594,5.344312 -4.71375,5.02904 -0.263,-0.06389 -0.56232,-0.250514 -0.82218,-0.255282 z"
             sodipodi:nodetypes="cscsssssssssssscsssssscsssssssscssssssssscssssssssssssssssscsssssssssssssssssssssssssssssssssccssssssssssssscsssssssssssssssssssssssssssssssssssssssssssssssssssssssssssssssssssssscssssssssssssssssssssssssssssssssssssssssssssssssssssssssssssssssssssssssssssssssssscssscssssssssssssccsssscsssssssssscssssssssssssssscssssssscc" /><path
             id="path22"
             style="fill:#000000;fill-opacity:1;stroke-width:0.264583"
             inkscape:label="overshadow"
             d="m 301.65297,40.506621 c -0.0866,-0.0016 -0.16888,0.01708 -0.24391,0.06718 -0.48083,0.32106 -0.3095,0.188754 -0.3762,1.69292 -0.52914,2.093721 -1.00191,4.046534 -1.44229,6.08335 -0.59865,2.768842 -0.74974,5.648288 -1.63091,8.340576 -1.20713,3.688206 -3.11019,7.120664 -4.95422,10.535274 -1.48041,2.741291 -2.85392,5.607281 -4.89118,7.964372 -2.60074,3.009036 -5.93674,5.315253 -9.15603,7.650696 -3.41311,2.476047 -7.1452,4.479305 -10.72337,6.710185 -4.13474,2.577884 -8.29511,5.114554 -12.41682,7.713224 -4.95419,3.123532 -10.10963,5.962612 -14.80013,9.469702 -4.36724,3.26539 -8.37935,6.9898 -12.35376,10.72338 -2.67183,2.50992 -5.10382,5.26456 -7.71374,7.8388 -2.41047,2.37751 -5.01948,4.55568 -7.33702,7.02386 -1.55361,1.65459 -2.91808,3.47711 -4.38992,5.20485 -0.0265,0.0311 -0.0532,0.0621 -0.0806,0.093 -0.2028,-0.0541 -0.4061,-0.1058 -0.60927,-0.15555 -1.40111,-0.34311 -2.88455,-0.039 -4.32687,-0.0625 -4.61986,-0.0753 -9.24196,-0.4266 -13.8591,-0.25115 -2.22402,0.0845 -4.46905,0.17227 -6.64765,0.62736 -3.27418,0.68395 -6.44386,1.84997 -9.53172,3.13572 -2.25255,0.93793 -4.41861,2.08674 -6.52208,3.32331 -2.69155,1.5823 -6.06223,2.61691 -7.85741,5.14284 -1.63376,1.53135 -4.19537,3.88072 -5.87664,5.17333 -4.33207,3.33061 -9.05636,6.12184 -13.70201,8.99893 -3.40467,2.10854 -6.80099,4.25244 -10.37869,6.05183 -3.15833,1.58846 -6.43064,2.95878 -9.75186,4.17029 -2.36065,0.86111 -4.80503,1.47297 -7.21196,2.1947 -2.93338,0.87959 -5.84333,1.84592 -8.81083,2.60242 -2.31025,0.58894 -4.657263,1.02419 -6.99235,1.50534 -2.013634,0.41491 -4.008821,0.95689 -6.051311,1.19165 -3.013005,0.34631 -6.060143,0.3138 -9.092985,0.31316 -5.992561,-0.001 -11.988582,-0.21335 -17.966862,-0.62683 -2.631165,-0.18198 -5.254248,-0.48033 -7.87032,-0.81546 -3.726308,-0.47735 -11.207671,-1.50911 -12.372059,-1.88899 -1.033974,-0.33733 -1.263411,-0.36354 -2.409119,-0.89852 -0.877119,-0.40956 -2.009363,-0.65442 -2.718184,-1.3137 -0.838435,-0.77983 -2.60231,-1.42264 -3.563068,-2.04558 -1.65947,-1.07597 -2.889994,-2.16162 -4.442892,-3.1768 -1.522441,-0.99527 -2.710139,-1.4442 -4.199201,-2.48875 -0.776054,-0.54439 -1.655047,-0.83352 -2.529169,-1.2003 -0.393151,-0.16496 -0.83029,-0.20489 -1.254187,-0.25063 -0.59241,-0.0639 -0.925572,-0.0118 -1.52091,0.0128 -0.169242,0.007 -0.175021,-0.0169 -0.172009,0.58306 0.0052,1.03144 -0.04281,1.48415 -0.03152,2.22622 0.03215,2.11313 0.07523,4.23076 0.282153,6.33398 0.149068,1.51521 0.490801,3.00551 0.68988,4.51497 0.0495,0.37534 0.336503,0.81422 0.125574,1.12861 -0.04239,0.0632 -0.143559,0.0611 -0.219625,0.0631 -0.321883,0.008 -0.64714,-0.0869 -0.940511,-0.21962 -0.08192,-0.0371 -0.170925,-0.081 -0.219625,-0.15658 -0.351961,-0.54621 -0.251995,-1.27527 -0.376204,-1.91307 -0.337759,-1.73436 -0.517284,-3.50613 -1.003556,-5.20485 -0.120192,-0.41987 -0.371715,-0.79719 -0.470256,-1.22266 -0.160983,-0.69509 -0.024,-1.10057 -0.266491,-1.77158 -0.05617,-0.15542 -0.3521,-0.25462 -0.51732,-0.25095 -0.387594,0.009 -0.59429,-0.39776 -0.877983,-0.53334 -0.629295,-0.30074 -1.030636,-0.69416 -1.63036,-1.05023 -0.221964,-0.13179 -0.343307,-0.0736 -0.596163,-0.12552 -0.207051,-0.0426 -0.02027,0.0696 -0.219213,0.14113 -0.229439,0.0824 -0.533958,-0.10527 -0.674385,0.094 -0.153498,0.21782 -0.420422,0.15905 -0.454458,0.42334 -0.0682,0.52959 -0.138863,1.06731 -0.09405,1.59939 0.05851,0.69477 0.296038,1.36301 0.470256,2.03812 0.323222,1.25251 0.656589,2.50402 1.066084,3.73103 0.379136,1.13604 0.780083,2.26969 1.28571,3.35536 0.327873,0.704 0.749694,1.36022 1.128613,2.03811 0.456693,0.81703 1.100308,1.55253 1.379761,2.44585 0.13476,0.43078 0.187312,0.90111 0.125574,1.34824 -0.03982,0.28842 -0.148975,0.57484 -0.313676,0.81493 -0.334878,0.48816 -0.871451,0.80214 -1.317232,1.19166 -0.988587,0.86382 -2.065113,1.62864 -3.010153,2.5399 -0.884169,0.85256 -1.658269,1.81228 -2.476851,2.728 -0.463941,0.519 -0.99093,0.98993 -1.379761,1.56735 -0.365516,0.54279 -0.589706,1.16849 -0.877982,1.75596 -0.275953,0.56236 -0.588672,1.10932 -0.814937,1.69344 -0.342804,0.88497 -0.505798,1.83089 -0.8154545,2.728 -0.4103668,1.18888 -0.8007144,2.39545 -1.3797607,3.51193 -0.4898088,0.94442 -1.1086008,1.8207 -1.7559652,2.66495 -0.6036877,0.78729 -1.2489853,1.55016 -1.9750733,2.22622 -1.1184063,1.04135 -2.39415722,1.90208 -3.63750402,2.79053 -1.49061338,1.06513 -2.97739128,2.15036 -4.57801518,3.04167 -0.1781832,0.0992 -0.3925883,0.13854 -0.5746419,0.22738 -0.012884,-0.015 -0.020671,-0.0238 -0.020671,-0.0238 0,0 -0.2747821,0.20964 -0.4118611,0.31471 -0.3367162,0.2581 -0.6520735,0.54641 -1.008724,0.77618 -0.4398362,0.28336 -0.9423515,0.45949 -1.3859619,0.7369 -0.3409164,0.21319 -0.6727192,0.44512 -0.975651,0.70952 -0.2815742,0.24576 -0.5417612,0.51775 -0.7756632,0.80925 -0.250152,0.31175 -0.472314,0.64801 -0.665592,0.99788 -0.170365,0.30839 -0.341255,0.62385 -0.432015,0.96428 -0.0861,0.32295 -0.121586,0.66435 -0.09974,0.99787 0.02432,0.37119 0.08121,0.75722 0.254765,1.08624 0.189152,0.35859 0.517078,0.62938 0.820622,0.89813 0.224174,0.19848 0.466357,0.38128 0.731221,0.5209 0.4178058,0.22024 0.8803098,0.34554 1.3306682,0.48783 0.382908,0.12098 0.7693308,0.23517 1.1637532,0.31057 0.1039172,0.0199 0.2438707,0.0389 0.3839559,0.0553 0.5694141,0.49251 1.5065919,0.39263 2.2613607,0.54105 1.1270263,0.22163 2.2704207,0.38729 3.4178793,0.43873 1.36881528,0.0614 2.7415605,-0.0521 4.1077595,-0.15658 1.1853875,-0.0907 2.3996433,-0.0818 3.5429362,-0.40772 0.9891767,-0.28202 1.8132068,-0.99654 2.790528,-1.31724 0.930962,-0.30549 1.908015,-0.49131 2.885095,-0.5643 2.128324,-0.15899 4.262562,0.24599 6.396509,0.28215 2.048375,0.0347 4.096834,-0.0866 6.145361,-0.0625 2.47833,0.0292 4.953278,0.2198 7.431588,0.25063 1.18102,0.0147 2.385629,-0.26693 3.542936,-0.031 0.4357,0.0888 0.841298,0.30499 1.223181,0.53278 1.106118,0.6598 2.051306,1.55929 3.041158,2.38332 1.200755,0.9996 2.44732,1.96069 3.51193,3.1042 0.797689,0.85681 1.443811,1.84365 2.13217,2.79053 0.508029,0.69883 1.140154,1.33522 1.473812,2.13217 0.258862,0.6183 0.363328,1.3049 0.376204,1.97507 0.01076,0.56012 -0.0013,1.16023 -0.25063,1.66192 -0.245556,0.49416 -0.71198,0.85713 -1.155485,1.18545 -1.003305,0.74273 -2.237418,1.11069 -3.328479,1.71721 -2.146873,1.19344 -4.201123,2.54679 -6.326229,3.77858 -2.144853,1.24323 -4.324892,2.42432 -6.482809,3.64474 -2.361704,1.33567 -4.76577,2.60065 -7.07502,4.02508 -0.983486,0.60666 -1.94168,1.25467 -2.884062,1.92339 -1.155032,0.81962 -2.298924,1.65859 -3.392558,2.5585 -0.602767,0.496 -1.17366,1.02979 -1.743562,1.56322 -0.87166,0.81588 -1.681561,1.69636 -2.561601,2.5032 -0.549221,0.50353 -1.129696,0.97185 -1.694987,1.45728 -0.742869,0.63791 -1.473147,1.29058 -2.2298384,1.91203 -0.730794,0.60018 -1.4213292,1.26424 -2.2303548,1.75389 -0.7329866,0.44363 -1.5571206,0.7155 -2.3445597,1.05317 -0.6395406,0.27424 -1.2698833,0.57612 -1.9321818,0.78962 -0.67448382,0.21743 -1.46989492,0.11584 -2.06757402,0.49661 -0.2670299,0.17011 -0.3929077,0.49625 -0.59117838,0.7431 -0.2806386,0.34939 -0.5576907,0.70211 -0.8469768,1.04438 -0.6279261,0.74293 -1.5203968,1.30708 -1.9285644,2.19005 -0.2956665,0.63961 -0.4552179,1.40379 -0.3033407,2.09186 0.1124102,0.50927 0.2664643,1.2684 0.5453574,1.70909 0.310372,0.49044 0.75234,0.7925 1.0203638,1.3073 0.1210516,0.23251 0.2853411,0.36961 0.5132217,0.49916 0.1958997,0.11137 0.268989,0.10862 0.407727,0.0946 0.445449,-0.0451 0.81177908,-0.37839 1.22163088,-0.55862 0.4908169,-0.21583 0.963441,-0.48836 1.4815633,-0.62632 0.36717602,-0.0978 0.76112392,-0.0531 1.13171392,-0.13694 0.2097846,-0.0475 0.4043005,-0.14734 0.6113322,-0.20568 0.2148288,-0.0605 0.430355,-0.13668 0.6531901,-0.14934 0.3999573,-0.0227 0.8144099,0.0368 1.1942423,0.13332 0.2120652,0.0539 0.4295212,-0.12715 0.6361369,-0.21239 0.6731688,-0.27773 1.3040557,-0.64804 1.9569865,-0.97048 0.551859,-0.27253 1.10717,-0.53784 1.656747,-0.81494 1.07913,-0.54412 2.185079,-1.04237 3.221508,-1.66398 0.947275,-0.56814 1.84352,-1.21935 2.727999,-1.88102 1.077024,-0.80571 2.153419,-1.62108 3.135726,-2.5399 0.999242,-0.93466 1.858339,-2.0086 2.790528,-3.01015 0.5945,-0.63873 1.205677,-1.26177 1.786971,-1.91254 0.375345,-0.42021 0.706299,-0.88033 1.097607,-1.28571 0.118165,-0.12242 0.226774,-0.26384 0.376204,-0.3452 0.218194,-0.1188 0.476693,-0.14522 0.721403,-0.1881 0.899446,-0.15759 1.828718,-0.0921 2.727999,-0.25063 0.202229,-0.0356 0.425029,-0.0426 0.59583,-0.15658 0.229514,-0.15318 0.264049,-0.51792 0.501261,-0.65888 0.118179,-0.0702 0.286619,-0.12757 0.407727,-0.0625 0.263675,0.14161 0.104915,0.68904 0.376204,0.81546 0.216034,0.10067 0.463896,-0.11237 0.689881,-0.18811 1.761132,-0.59022 3.454148,-1.36779 5.173844,-2.06964 2.316514,-0.94542 4.714132,-1.72133 6.929293,-2.88457 2.168939,-1.13896 4.14639,-2.61232 6.177401,-3.98219 0.827006,-0.55779 1.633668,-1.14579 2.445845,-1.72496 1.091137,-0.7781 2.211209,-1.51796 3.260783,-2.35128 0.510534,-0.40534 1.057065,-0.78444 1.473812,-1.28571 0.170752,-0.20538 0.33119,-0.43399 0.407727,-0.68988 0.06296,-0.21051 0.0081,-0.43983 0.03101,-0.65836 0.10172,-0.96895 0.261823,-1.93286 0.470255,-2.88457 0.176307,-0.80503 0.462705,-1.5829 0.658875,-2.38332 0.178108,-0.72673 0.315221,-1.4627 0.470255,-2.1947 0.285418,-1.34761 0.538253,-2.70213 0.84646,-4.04471 0.13499,-0.58803 0.249009,-1.18325 0.438733,-1.75597 0.08545,-0.25796 0.200587,-0.50582 0.313676,-0.75292 0.0778,-0.17 0.08454,-0.41643 0.251148,-0.50127 0.113305,-0.0577 0.26529,3.6e-4 0.376204,0.0625 0.180975,0.10144 0.338081,0.27483 0.407727,0.47026 0.119345,0.33488 -0.01383,0.71101 -0.03152,1.06608 -0.09647,1.93597 -0.113388,3.88479 -0.407727,5.80068 -0.07506,0.48861 -0.286799,0.95135 -0.344682,1.44229 -0.05752,0.48785 -0.01885,0.98294 0,1.47381 0.03661,0.95323 0.137136,1.90318 0.219108,2.85358 0.122702,1.42264 0.190623,2.85302 0.407727,4.26434 0.09911,0.64431 0.384272,1.26108 0.407727,1.91254 0.01367,0.37963 -0.01723,0.77521 -0.15658,1.12861 -0.126584,0.32102 -0.368476,0.58739 -0.595829,0.84698 -0.852805,0.97372 -1.939706,1.71729 -2.853573,2.63395 -1.091564,1.0949 -2.060595,2.30632 -3.135725,3.41736 -2.523576,2.60787 -5.222626,5.04075 -7.775753,7.61969 -1.284559,1.29755 -2.596944,2.57205 -3.794084,3.95066 -0.766328,0.8825 -1.282416,1.9918 -2.163692,2.75953 -0.939405,0.81837 -2.242823,1.12067 -3.229777,1.88102 -0.889903,0.68558 -1.569105,1.60881 -2.3828,2.38331 -0.868285,0.82646 -1.654507,1.77019 -2.665471,2.41433 -1.090313,0.6947 -2.372508,1.02868 -3.574459,1.50481 -1.534246,0.60776 -3.113062,1.09988 -4.640543,1.72445 -1.303493,0.53298 -2.486085,1.4012 -3.856612,1.72496 -0.702524,0.16596 -1.443808,0.0406 -2.163693,0.094 -1.498704,0.11109 -3.112701,-0.14464 -4.483964,0.47025 -0.864128,0.38749 -1.524788,1.16072 -2.100647,1.91255 -0.50027,0.65314 -0.9595051,1.40039 -1.128613,2.19521 -0.2698947,1.26852 0.441726,2.76777 1.364795,3.67878 0.53656,0.52955 2.292587,2.56945 2.932445,2.81438 1.874774,0.71765 3.820649,-1.03121 5.799301,-0.69248 1.195207,0.20461 2.435656,0.10184 3.636988,-0.063 1.18796,-0.16304 2.374498,-0.44553 3.480407,-0.90899 1.448186,-0.6069 2.732271,-1.55231 4.044715,-2.41432 2.346952,-1.54147 4.53088,-3.31952 6.835758,-4.92322 2.615093,-1.81955 5.263919,-3.5908 7.932849,-5.33042 2.392778,-1.55962 4.796304,-3.10471 7.243486,-4.5775 1.496183,-0.90045 3.034423,-1.72943 4.546492,-2.60294 2.587564,-1.49481 5.197122,-2.95306 7.744747,-4.51497 2.64961,-1.62444 5.273615,-3.29355 7.838798,-5.04827 1.204421,-0.82389 2.406517,-1.65614 3.543453,-2.57091 0.992082,-0.79822 2.073116,-1.53337 2.853056,-2.53989 0.755887,-0.97547 1.189253,-2.16594 1.693437,-3.29231 0.690724,-1.54311 1.379465,-3.10194 1.818493,-4.73459 0.20615,-0.76663 0.178959,-1.58283 0.376205,-2.3518 0.339245,-1.32255 0.812354,-2.61525 1.379761,-3.85713 0.583468,-1.27704 1.238731,-2.53639 2.069124,-3.66851 0.524823,-0.71552 1.0646,-1.47686 1.81901,-1.94406 0.714082,-0.44223 1.587856,-0.57112 2.414323,-0.72089 1.206082,-0.21856 2.442891,-0.26725 3.66851,-0.25115 1.217743,0.016 2.41943,0.3186 3.636989,0.3452 2.877316,0.0628 5.761946,-0.12985 8.623256,-0.43925 2.9178,-0.31551 5.80957,-0.85617 8.68526,-1.44229 3.35085,-0.68297 6.69687,-1.42694 9.97097,-2.41432 4.77992,-1.4415 9.5225,-3.06962 14.07872,-5.1108 3.21784,-1.44159 6.30446,-3.17778 9.31261,-5.01726 3.34649,-2.04637 6.51095,-4.37916 9.68882,-6.67867 2.64701,-1.91537 5.30159,-3.83 7.80779,-5.92625 2.32061,-1.94101 4.46122,-4.39889 6.55324,-6.58434 1.02071,-1.06629 1.45778,-1.91082 2.47679,-2.97874 0.87065,-0.91244 1.3759,-1.60361 1.85042,-2.00708 0.68121,-0.57921 0.44602,-0.30171 1.25386,-0.97188 0.7497,-0.62194 0.83424,-0.15807 1.22287,0.47012 0.35477,0.57347 1.84152,2.76808 2.35178,3.57447 0.74454,1.17664 2.20343,2.78903 3.19839,3.76313 1.52473,1.49278 3.48589,2.42961 5.39331,3.38615 1.63679,0.82082 3.46732,1.59633 5.26756,1.91274 1.25975,0.22141 2.4891,0.0998 3.76256,0.21936 2.0397,0.19147 4.10565,0.12321 6.14588,-0.0625 2.19723,-0.20003 4.3713,-0.63671 6.52208,-1.12861 3.56042,-0.81429 7.06283,-1.87799 10.53528,-3.01015 2.07491,-0.67651 4.15947,-1.35378 6.14587,-2.25774 1.10696,-0.50375 2.11359,-1.20587 3.19826,-1.75597 0.3086,-0.15651 0.61072,-0.54398 0.94051,-0.43925 0.16062,0.051 0.22672,0.27243 0.25063,0.43925 0.40863,2.85073 -1.33991,5.60147 -2.00659,8.4031 -0.96482,4.05455 -2.07516,8.07778 -2.88458,12.16619 -0.56732,2.86553 -1.28542,5.73463 -1.37976,8.65425 -0.0217,0.6715 0.003,1.36065 0.1881,2.0066 0.26991,0.94374 0.81041,1.79302 1.31671,2.63394 0.64927,1.07837 1.32107,2.16698 2.19522,3.07268 0.2381,0.24669 0.49035,0.51696 0.81494,0.62736 0.2177,0.074 0.46006,0.007 0.68988,0 0.64902,-0.0209 1.30677,-9.8e-4 1.94406,-0.12558 0.32438,-0.0634 0.64986,-0.15727 0.94103,-0.31367 0.53784,-0.28888 0.89376,-0.86059 1.44229,-1.12862 0.61951,-0.30271 1.38267,-0.20829 2.0066,-0.50178 1.24469,-0.58549 2.4088,-1.4188 3.32382,-2.44584 0.78476,-0.88084 1.47558,-1.92677 1.75597,-3.07268 0.25358,-1.03634 0.12069,-2.16015 -0.12557,-3.19826 -0.1749,-0.73728 -0.52009,-1.43923 -0.94051,-2.06964 -0.45955,-0.68909 -1.17984,-1.16868 -1.69344,-1.81849 -0.46735,-0.5913 -1.09058,-1.14582 -1.25419,-1.88154 -0.3029,-1.36212 0.39631,-2.76264 0.62735,-4.13877 0.62997,-3.75231 1.69095,-7.43917 2.06913,-11.22515 0.24728,-2.47557 0.0102,-4.97738 0.12557,-7.46259 0.1149,-2.47113 0.54428,-4.92635 0.56431,-7.40007 0.008,-1.04703 0.17263,-2.15276 -0.1881,-3.13572 -0.10803,-0.29436 -0.25914,-0.68037 -0.56431,-0.75241 -0.40942,-0.0966 -0.72842,0.43624 -1.12913,0.5643 -1.93471,0.61829 -3.99229,0.81994 -6.01979,0.94103 -1.16927,0.0698 -2.34672,-0.006 -3.51193,-0.12557 -0.8649,-0.0889 -1.74277,-0.176 -2.57142,-0.43925 -1.01585,-0.32273 -1.96408,-0.84187 -2.88458,-1.37925 -0.66108,-0.38593 -1.66805,-0.58211 -1.88154,-1.31723 -0.0758,-0.26096 0.19452,-0.50818 0.31368,-0.75241 0.74698,-1.53099 1.82205,-2.89332 2.50837,-4.45244 0.97476,-2.21436 1.62862,-4.56211 2.25775,-6.89829 0.60021,-2.22883 1.15519,-4.48241 1.44229,-6.77271 0.26281,-2.09652 0.46199,-4.2316 0.25114,-6.33398 -0.18467,-1.8413 -0.71033,-3.64476 -1.31723,-5.39295 -0.79148,-2.27988 -1.82802,-4.48059 -3.01015,-6.58461 -0.15883,-0.2827 -0.31632,-0.56764 -0.47336,-0.8537 0.82719,0.0933 1.65663,0.17264 2.47996,0.28887 2.42668,0.34258 4.83615,0.82498 7.275,1.06609 3.22865,0.31919 6.47546,0.48758 9.71982,0.50178 2.92917,0.0128 5.86574,-0.0791 8.77983,-0.37621 2.86502,-0.2921 5.71051,-0.78683 8.52868,-1.37976 2.11359,-0.44469 4.25024,-0.86761 6.27093,-1.63039 2.2565,-0.85179 4.34461,-2.10133 6.45956,-3.26078 2.51488,-1.3787 5.02708,-2.77845 7.39955,-4.38992 2.40383,-1.63277 4.71675,-3.41072 6.89828,-5.33042 3.12922,-2.75365 6.11896,-5.68676 8.84236,-8.84235 2.24535,-2.60167 4.23395,-5.42239 6.14588,-8.27805 2.21186,-3.30363 4.43223,-6.63391 6.14536,-10.2216 1.73535,-3.6342 2.97513,-7.4954 4.13928,-11.350732 0.90134,-2.98496 1.62716,-6.02698 2.1947,-9.09298 0.67911,-3.66874 1.21617,-7.375892 1.44229,-11.100098 0.15963,-2.629109 -0.0645,-5.267893 -0.0625,-7.901843 0.002,-2.132281 0.28567,-4.275936 0.0625,-6.396509 -0.29137,-2.768991 -0.9832,-5.496447 -1.8185,-8.152474 -0.49495,-1.573808 -1.18301,-3.082872 -1.88154,-4.577498 -0.76013,-1.626428 -1.41008,-3.345968 -2.50837,-4.766118 -0.96861,-1.252462 -2.28395,-2.198787 -3.51193,-3.198254 -1.02151,-0.831422 -2.02089,-1.729902 -3.19826,-2.320272 -1.19387,-0.598643 -2.52727,-0.876386 -3.82508,-1.191658 -0.263,-0.06389 -0.56232,-0.250514 -0.82218,-0.255282 z"
             sodipodi:nodetypes="cscsssssssssssscsssssscsssssssscsssssssssssssssscsssssssssssssssssssssssssssssssssccssssssssssssscsssssssssssssssssssssssssssssssssssssssssssssssssssssssssssssssssssssscssssssssssssssssssssssssssssssssssssssssssssssssssssssssssssssssssssssssssssssssssscssscssssssssssssccsssscsssssssssscssssssssssssssscssssssscc" /><path
             style="fill:#000000;fill-opacity:1;stroke-width:0.264583"
             d="m 241.65798,189.49036 c -0.54042,-0.21881 -1.13287,-0.40438 -1.71348,-0.35127 -1.14012,0.1043 -2.09637,0.93032 -3.18369,1.28877 -0.99433,0.32779 -1.99519,0.74689 -3.0415,0.7839 -1.67793,0.0594 -4.95419,-0.90931 -4.95419,-0.90931 l 1.41101,9.65751 6.45925,8.21516 -2.69658,10.84902 10.62952,0.37631 c 0,0 0.49372,-8.56808 0.65847,-12.8558 0.12525,-3.25965 0.45999,-6.5276 0.25086,-9.78294 -0.0787,-1.2244 -0.14961,-2.48255 -0.56441,-3.63723 -0.26301,-0.73214 -0.69205,-1.41032 -1.1915,-2.00676 -0.39012,-0.46588 -0.89218,-0.82874 -1.37965,-1.19152 -0.2169,-0.16142 -0.43349,-0.33434 -0.68411,-0.43581 z"
             id="path25"
             sodipodi:nodetypes="aaaacccccaaaaaaa"
             inkscape:label="rearankleextra" /><path
             style="fill:#000000;fill-opacity:1;stroke-width:0.264583"
             d="m 14.982827,190.30245 c 0.254731,-0.37837 0.521817,-0.83998 0.689822,-1.30127 0.153634,-0.42184 0.256768,-0.86871 0.282202,-1.31693 0.01517,-0.26737 -0.01089,-0.54042 -0.07839,-0.79957 -0.148063,-0.56843 -0.497731,-1.06538 -0.705498,-1.61481 -0.386397,-1.0218 -0.761287,-2.05463 -1.00338,-3.11989 -0.213905,-0.94123 -0.288356,-1.90938 -0.391946,-2.86903 -0.205357,-1.90242 -0.318388,-3.81377 -0.454654,-5.72238 -0.08241,-1.15431 -0.550536,-2.35591 -0.219488,-3.4648 0.112122,-0.37557 0.368239,-0.74098 0.705498,-0.94067 0.317971,-0.18827 0.734119,-0.22418 1.097447,-0.15677 1.170819,0.21724 2.030296,1.25981 3.119879,1.74024 0.136091,0.06 0.274591,0.14386 0.423299,0.14111 0.178573,-0.003 0.352104,-0.0906 0.50169,-0.18815 0.519981,-0.33923 0.901104,-0.85791 1.301258,-1.3326 0.166413,-0.19741 0.340173,-0.39568 0.454654,-0.62711 0.120961,-0.24453 0.127002,-0.53346 0.235167,-0.78391 0.107684,-0.24933 0.138819,-0.66666 0.407623,-0.70549 1.006093,-0.14533 1.800426,1.1707 2.21058,2.10082 1.811613,4.10825 1.737932,9.22521 0.266515,13.46721 -0.396683,1.14361 -1.589127,1.82999 -2.30464,2.80633 -0.962201,1.31296 -1.548768,2.90735 -2.665225,4.09192 -1.025139,1.08769 -2.231041,3.25151 -3.605889,2.6652 -0.639767,-0.27283 -0.672429,-1.46653 -0.266524,-2.06945 z"
             id="path23"
             inkscape:label="earextra"
             sodipodi:nodetypes="saaaaaaaaaaaaaaaaaaaaaas" /></g><g
           id="g6"
           inkscape:label="body"
           style="display:inline;fill:url(#linearGradient3)"><path
             style="fill:url(#linearGradient51);fill-opacity:1;stroke-width:0.264583"
             d="m -6.9660748,224.91901 c 0.076038,0.51713 -0.044928,1.15602 0.3135551,1.53641 0.5564097,0.59041 1.5556324,0.47057 2.3516696,0.62711 1.1270263,0.22163 2.2702992,0.38753 3.41775776,0.43897 1.36881529,0.0614 2.74138044,-0.0523 4.10757944,-0.15676 1.1853875,-0.0907 2.399888,-0.0817 3.5431809,-0.40762 0.9891767,-0.28202 1.8133245,-0.99624 2.7906451,-1.31694 0.9309629,-0.30549 1.9076319,-0.49142 2.8847119,-0.56441 2.128324,-0.15899 4.262591,0.24605 6.396538,0.28221 2.048375,0.0347 4.097159,-0.0868 6.145686,-0.0627 2.47833,0.0292 4.952963,0.22 7.431273,0.25083 1.18102,0.0147 2.385887,-0.26733 3.543194,-0.0314 0.4357,0.0888 0.840968,0.30527 1.222851,0.53306 1.106118,0.6598 2.051639,1.55899 3.041491,2.38302 1.200755,0.9996 2.447231,1.96069 3.511841,3.1042 0.797689,0.85681 1.443812,1.84376 2.132171,2.79064 0.508029,0.69883 1.140045,1.33525 1.473703,2.1322 0.258862,0.6183 0.363388,1.30521 0.376264,1.97538 0.01076,0.56012 -0.0015,1.16015 -0.250825,1.66184 -0.245556,0.49416 -0.711924,0.85718 -1.155429,1.1855 -1.003305,0.74273 -2.237098,1.11042 -3.328159,1.71694 -2.146873,1.19344 -4.201111,2.54702 -6.326217,3.77881 -2.144853,1.24323 -4.32509,2.42442 -6.483007,3.64484 -2.361704,1.33567 -4.765686,2.60051 -7.074936,4.02494 -0.983486,0.60666 -1.941679,1.25473 -2.884061,1.92345 -1.155032,0.81962 -2.298799,1.65826 -3.392433,2.55817 -0.602767,0.496 -1.173676,1.0299 -1.743578,1.56333 -0.87166,0.81588 -1.681934,1.69623 -2.561974,2.50307 -0.549221,0.50353 -1.129483,0.97212 -1.694774,1.45755 -0.742869,0.63791 -1.4733596,1.2906 -2.2300505,1.91205 -0.730794,0.60018 -1.4210245,1.26403 -2.2300501,1.75368 -0.7329866,0.44363 -1.5572734,0.71543 -2.3447125,1.0531 -0.6395406,0.27424 -1.2700643,0.57641 -1.9323628,0.78991 -0.6744838,0.21743 -1.46956149,0.11556 -2.06724059,0.49633 -0.26702988,0.17011 -0.39302697,0.4965 -0.59129771,0.74335 -0.28063852,0.34939 -0.5575851,0.70192 -0.8468712,1.04419 -0.6279261,0.74293 -1.5203915,1.30719 -1.9285591,2.19016 -0.2956665,0.63961 -0.4553272,1.40394 -0.30345,2.09201 0.1124102,0.50927 0.5766204,0.86928 0.8555135,1.30997 0.310372,0.49044 0.6419413,0.96968 0.9099651,1.48448 0.1210516,0.23251 0.1120181,0.55356 0.3135551,0.72118 0.1072127,0.0892 0.2688843,0.10815 0.4076223,0.0941 0.44544886,-0.0451 0.81176647,-0.37815 1.22161826,-0.55838 0.49081684,-0.21583 0.97393284,-0.45379 1.48164844,-0.62615 0.5685664,-0.19302 0.4040172,-0.21622 1.743193,-0.45386 0.2197521,-0.039 0.4348747,-0.044 0.6527604,-0.0383 0.4004642,0.0105 0.8145615,0.0368 1.1943939,0.13328 0.2120652,0.0539 0.4293533,-0.12725 0.635969,-0.21249 0.6731688,-0.27773 1.3044836,-0.64768 1.9574144,-0.97012 0.551859,-0.27253 1.1071612,-0.53814 1.6567383,-0.81524 1.0791308,-0.54412 2.1849338,-1.04214 3.2213628,-1.66375 0.947275,-0.56814 1.843455,-1.21965 2.727934,-1.88132 1.077024,-0.80571 2.153251,-1.62099 3.135558,-2.53981 0.999242,-0.93466 1.858456,-2.00859 2.790645,-3.01014 0.5945,-0.63873 1.205975,-1.26191 1.787269,-1.91268 0.375345,-0.42021 0.706144,-0.8802 1.097452,-1.28558 0.118165,-0.12242 0.226834,-0.26355 0.376264,-0.34491 0.218194,-0.1188 0.476464,-0.14527 0.721174,-0.18815 0.899446,-0.15759 1.828653,-0.0923 2.727934,-0.25085 0.202229,-0.0356 0.424961,-0.0428 0.595762,-0.15676 0.229514,-0.15318 0.264465,-0.51751 0.501677,-0.65847 0.118179,-0.0702 0.286509,-0.12774 0.407617,-0.0627 0.263675,0.14161 0.105001,0.68882 0.37629,0.81524 0.216034,0.10067 0.463837,-0.11238 0.689822,-0.18812 1.761132,-0.59022 3.453966,-1.36762 5.173662,-2.06947 2.316514,-0.94542 4.714409,-1.72148 6.92957,-2.88472 2.168939,-1.13896 4.146057,-2.6123 6.177068,-3.98217 0.827006,-0.55779 1.633552,-1.14538 2.445729,-1.72455 1.091137,-0.7781 2.211389,-1.51835 3.260963,-2.35167 0.510534,-0.40534 1.056982,-0.78429 1.473729,-1.28556 0.170752,-0.20538 0.33108,-0.43396 0.407617,-0.68985 0.06296,-0.21051 0.0084,-0.43991 0.03135,-0.65844 0.10172,-0.96895 0.261891,-1.93301 0.470323,-2.88472 0.176307,-0.80503 0.462298,-1.58261 0.658468,-2.38303 0.178108,-0.72673 0.315316,-1.46287 0.47035,-2.19487 0.285418,-1.34761 0.53838,-2.70229 0.846587,-4.04487 0.13499,-0.58803 0.249273,-1.18322 0.438997,-1.75594 0.08545,-0.25796 0.200469,-0.50543 0.313558,-0.75253 0.0778,-0.17 0.08422,-0.41683 0.250825,-0.50167 0.113305,-0.0577 0.26535,5.3e-4 0.376264,0.0627 0.180975,0.10144 0.337997,0.2749 0.407643,0.47033 0.119345,0.33488 -0.01369,0.71101 -0.03138,1.06608 -0.09647,1.93597 -0.113278,3.88492 -0.407617,5.80081 -0.07506,0.48861 -0.287028,0.95141 -0.344911,1.44235 -0.05752,0.48785 -0.01885,0.98283 0,1.4737 0.03661,0.95323 0.137526,1.90297 0.219498,2.85337 0.122702,1.42264 0.190513,2.85302 0.407617,4.26434 0.09911,0.64431 0.384162,1.26124 0.407617,1.9127 0.01367,0.37963 -0.01741,0.7754 -0.156765,1.1288 -0.126584,0.32102 -0.36841,0.58702 -0.595763,0.84661 -0.852805,0.97372 -1.939479,1.71719 -2.853346,2.63385 -1.091564,1.0949 -2.060447,2.30671 -3.135577,3.41775 -2.523576,2.60787 -5.223056,5.04048 -7.776183,7.61942 -1.284559,1.29755 -2.596879,2.5722 -3.794019,3.95081 -0.766328,0.8825 -1.282249,1.99156 -2.163525,2.75929 -0.939405,0.81837 -2.242682,1.12097 -3.229636,1.88132 -0.889903,0.68558 -1.569328,1.60852 -2.383023,2.38302 -0.868285,0.82646 -1.654263,1.77024 -2.665227,2.41438 -1.090313,0.6947 -2.37257,1.02895 -3.574521,1.50508 -1.534246,0.60776 -3.113152,1.09998 -4.640633,1.72455 -1.303493,0.53298 -2.486203,1.4008 -3.85673,1.72456 -0.702524,0.16596 -1.44365,0.0407 -2.163535,0.0941 -1.498704,0.11109 -3.112583,-0.14454 -4.483846,0.47035 -0.864128,0.38749 -1.524965,1.16084 -2.100824,1.91267 -0.50027,0.65314 -1.225755,1.37791 -1.128802,2.1949 0.152835,1.28788 1.482158,2.19684 2.539801,2.94743 0.558732,0.39652 1.272834,0.5076 1.912692,0.75253 1.874774,0.71765 3.66535,1.76209 5.644002,2.10082 1.195207,0.20461 2.43591,0.10218 3.637242,-0.0627 1.18796,-0.16304 2.374553,-0.44586 3.480462,-0.90932 1.448186,-0.6069 2.732426,-1.55236 4.04487,-2.41437 2.346952,-1.54147 4.530659,-3.31914 6.835537,-4.92284 2.615093,-1.81955 5.264019,-3.59081 7.932949,-5.33043 2.392778,-1.55962 4.795946,-3.10513 7.243128,-4.57792 1.496183,-0.90045 3.034504,-1.72899 4.546573,-2.6025 2.587564,-1.49481 5.197206,-2.95331 7.744831,-4.51522 2.64961,-1.62444 5.273706,-3.29353 7.838889,-5.04825 1.204421,-0.82389 2.406232,-1.65637 3.543168,-2.57114 0.992082,-0.79822 2.073432,-1.5333 2.853372,-2.53982 0.755887,-0.97547 1.189017,-2.16594 1.693201,-3.29231 0.690724,-1.54311 1.379586,-3.10204 1.818614,-4.73469 0.20615,-0.76663 0.179018,-1.5827 0.376264,-2.35167 0.339245,-1.32255 0.812236,-2.61488 1.379643,-3.85676 0.583468,-1.27704 1.239072,-2.53648 2.069465,-3.6686 0.524823,-0.71552 1.06423,-1.47683 1.81864,-1.94403 0.714082,-0.44223 1.587909,-0.5714 2.414376,-0.72117 1.206082,-0.21856 2.442988,-0.26695 3.668607,-0.25085 1.217743,0.016 2.419669,0.31831 3.637227,0.34491 2.877303,0.0628 5.761483,-0.12957 8.622793,-0.43897 2.9178,-0.31551 5.80979,-0.85626 8.68548,-1.44238 3.35085,-0.68297 6.69698,-1.427 9.97108,-2.41438 4.77992,-1.4415 9.52242,-3.06977 14.07864,-5.11095 3.21784,-1.44159 6.30447,-3.17742 9.31262,-5.0169 3.34649,-2.04637 6.51101,-4.37921 9.68888,-6.67872 2.64701,-1.91537 5.30134,-3.82996 7.80754,-5.92621 2.32061,-1.94101 4.5867,-3.96024 6.67872,-6.14569 1.02071,-1.06629 2.08501,-2.12606 2.85337,-3.3864 0.21218,-0.34804 0.37734,-0.73193 0.47032,-1.1288 0.14574,-0.62209 0.16753,-1.27515 0.12542,-1.9127 -0.0597,-0.90403 -0.33681,-1.78072 -0.53303,-2.66522 -0.19106,-0.86124 -0.52185,-1.69529 -0.62712,-2.57117 -0.13844,-1.15186 -0.10218,-2.32481 0,-3.48046 0.0944,-1.0681 0.28457,-2.1318 0.56441,-3.16691 0.31671,-1.17148 0.73958,-2.31875 1.25422,-3.41776 0.65533,-1.39948 1.3991,-2.77279 2.3203,-4.01351 0.5466,-0.73618 1.31828,-1.2831 1.88135,-2.00676 0.76203,-0.97937 2.00676,-3.13555 2.00676,-3.13555 L 172.26237,162.96047 161.91502,148.8191 c 0,0 -4.79646,4.62167 -7.43127,6.64738 -4.33207,3.33061 -9.05672,6.12196 -13.70237,8.99905 -3.40467,2.10854 -6.80101,4.25224 -10.37871,6.05163 -3.15833,1.58846 -6.43034,2.95877 -9.75156,4.17028 -2.36065,0.86111 -4.80487,1.47317 -7.2118,2.1949 -2.93338,0.87959 -5.84342,1.846 -8.81092,2.6025 -2.31025,0.58894 -4.657185,1.02393 -6.992268,1.50508 -2.013634,0.41491 -4.009139,0.95674 -6.051629,1.1915 -3.013005,0.34631 -6.060279,0.3142 -9.093121,0.31356 -5.992561,-0.001 -11.988462,-0.21364 -17.966742,-0.62712 -2.631165,-0.18198 -5.256331,-0.46365 -7.870243,-0.81523 -3.548934,-0.47735 -9.563895,-1.5309 -10.598203,-1.75591 -0.08464,-0.0184 -0.475658,-0.10997 -0.615137,0.0446 0.246187,0.68488 0.6008,1.07873 0.834635,1.64854 0.325014,0.792 0.609075,1.60767 0.783881,2.44573 0.296027,1.41922 0.440751,2.87731 0.438997,4.32707 -9.79e-4,0.80912 0.051,1.66366 -0.250851,2.41438 -0.04446,0.11057 -0.105849,0.24634 -0.219499,0.2822 -0.135573,0.0428 -0.297258,-0.0358 -0.407617,-0.12543 -0.435809,-0.35388 -0.584809,-0.96179 -0.815234,-1.47371 -0.359568,-0.79883 -0.508549,-1.68276 -0.877967,-2.47708 -0.653878,-1.40597 -1.538795,-2.69309 -2.351669,-4.01352 -0.540321,-0.8777 -1.04424,-1.78431 -1.677992,-2.59712 -0.616845,-0.79112 -1.28944,-1.55 -2.053321,-2.20028 -0.871899,-0.74223 -1.883895,-1.30338 -2.853346,-1.9127 -1.570783,-0.98728 -3.244501,-1.80681 -4.797399,-2.82199 -1.522441,-0.99527 -2.932072,-2.15373 -4.421134,-3.19828 -0.776054,-0.54439 -1.477548,-1.23234 -2.35167,-1.59912 -0.393151,-0.16496 -0.830336,-0.20511 -1.254233,-0.25085 -0.59241,-0.0639 -1.316321,-0.0552 -1.787269,-0.0314 -0.02642,0.001 0.01257,0.0514 0.01728,0.0775 0.03297,0.18205 0.06526,0.36503 0.07679,0.54968 0.04625,0.74071 -0.04265,1.48417 -0.03136,2.22624 0.03216,2.11313 0.07528,4.23061 0.282199,6.33383 0.149068,1.51521 0.490743,3.00573 0.689822,4.51519 0.0495,0.37534 0.336352,0.81443 0.125423,1.12882 -0.04239,0.0632 -0.143422,0.0608 -0.219488,0.0627 -0.321883,0.008 -0.647297,-0.0868 -0.940668,-0.2195 -0.08192,-0.0371 -0.17079,-0.0812 -0.21949,-0.15677 -0.351961,-0.54621 -0.252058,-1.2749 -0.376267,-1.9127 -0.337759,-1.73436 -0.517104,-3.50629 -1.003376,-5.20501 -0.120192,-0.41987 -0.371793,-0.79741 -0.470334,-1.22288 -0.160983,-0.69509 0.05436,-1.46116 -0.188135,-2.13217 -0.05617,-0.15542 -0.152645,-0.30502 -0.282199,-0.40762 -0.246494,-0.1952 -0.594263,-0.20933 -0.877956,-0.34491 -0.629295,-0.30074 -1.2189,-0.67869 -1.818624,-1.03476 -0.221964,-0.13179 -0.40561,-0.35565 -0.658466,-0.40761 -0.207051,-0.0426 -0.428168,0.0227 -0.627113,0.0941 -0.229439,0.0824 -0.486683,0.177 -0.62711,0.37627 -0.153498,0.21782 -0.122743,0.51959 -0.156779,0.78388 -0.0682,0.52959 -0.138882,1.06706 -0.09407,1.59914 0.05851,0.69477 0.296116,1.363 0.470334,2.03811 0.323222,1.25251 0.656595,2.5043 1.06609,3.73131 0.379136,1.13604 0.779952,2.26938 1.285579,3.35505 0.327873,0.704 0.749881,1.36022 1.1288,2.03811 0.456693,0.81703 1.100193,1.55241 1.379646,2.44573 0.13476,0.43078 0.187158,0.90116 0.12542,1.34829 -0.03982,0.28842 -0.148854,0.57515 -0.313555,0.81524 -0.334878,0.48816 -0.871153,0.802 -1.316934,1.19152 -0.988587,0.86382 -2.065096,1.62853 -3.010136,2.53979 -0.884169,0.85256 -1.658508,1.81221 -2.47709,2.72793 -0.463941,0.519 -0.990812,0.99037 -1.379643,1.56779 -0.365516,0.54279 -0.58968,1.16844 -0.877956,1.75591 -0.2759524,0.56236 -0.5889794,1.10908 -0.8152452,1.6932 -0.3428037,0.88497 -0.5055878,1.83082 -0.8152447,2.72793 -0.4103668,1.18888 -0.8005997,2.39536 -1.379646,3.51184 -0.4898088,0.94442 -1.1085481,1.82096 -1.7559125,2.66521 -0.6036877,0.78729 -1.2493124,1.55019 -1.9754004,2.22625 -1.1184063,1.04135 -2.39390142,1.90219 -3.63724816,2.79064 -1.49061334,1.06513 -2.97728944,2.15018 -4.57791334,3.04149 -0.2410789,0.13425 -0.5488941,0.15871 -0.7525332,0.34491 -0.8706238,0.79609 -1.5050974,1.9201 -1.7559126,3.07285 -0.3436139,1.57925 0.2038767,3.22968 0.4389903,4.82869 z"
             id="path7"
             inkscape:label="main body"
             sodipodi:nodetypes="aaaaaaaaaaaaaaaaaaaaaaaaaaaaaaaaaaaaaaaaaaaasasaaaaaaaaaaaaaaaaaaaaaaaaaaaaaaaaaaaaaaaaaaaaaaaaaaaaaaaaaaaaaaaaaaaaaaaaaaaaaaaaaaaaaaaaaaaaaaaaaaacccaaaaaaaaaaascaaaaaaaaaaaaaaaasaaaaaaaaaaaaaaaaaaaaaaaaaaaaaaaaaaaaaaaaaaaa" /><path
             style="fill:url(#linearGradient52);fill-opacity:1;stroke-width:0.264583"
             d="m 209.79501,138.44033 c 1.47184,-1.72774 2.83617,-3.55044 4.38978,-5.20503 2.31754,-2.46818 4.92675,-4.64614 7.33722,-7.02365 2.60992,-2.57424 5.04162,-5.32897 7.71345,-7.83889 3.97441,-3.73358 7.98687,-7.45822 12.35411,-10.72361 4.6905,-3.50709 9.84565,-6.34585 14.79984,-9.469382 4.12171,-2.598667 8.28205,-5.135584 12.41679,-7.713469 3.57817,-2.23088 7.3105,-4.234045 10.72361,-6.710092 3.21929,-2.335443 6.55509,-4.641725 9.15583,-7.650761 2.03726,-2.357091 3.41105,-5.223024 4.89146,-7.964315 1.84403,-3.41461 3.74706,-6.847267 4.95419,-10.535473 0.88117,-2.692288 1.03184,-5.571743 1.63049,-8.340585 0.44038,-2.036816 0.91321,-3.989258 1.44235,-6.082979 0.0667,-1.504166 -0.10457,-1.372141 0.37626,-1.693201 0.3001,-0.200384 0.71543,0.102948 1.06609,0.188132 1.29781,0.315272 2.63153,0.592868 3.8254,1.191511 1.17737,0.59037 2.17675,1.488892 3.19826,2.320314 1.22798,0.999467 2.5432,1.945805 3.51181,3.198267 1.09829,1.42015 1.74833,3.13962 2.50846,4.766048 0.69853,1.494626 1.38637,3.004106 1.88132,4.577914 0.8353,2.656027 1.52727,5.383459 1.81864,8.15245 0.22314,2.120573 -0.0607,4.264256 -0.0627,6.396537 -0.002,2.63395 0.22233,5.272495 0.0627,7.901604 -0.22612,3.724206 -0.76324,7.431134 -1.44235,11.099874 -0.56754,3.066005 -1.29356,6.108143 -2.1949,9.093116 -1.16415,3.85533 -2.40358,7.71652 -4.13893,11.35072 -1.71313,3.58769 -3.93383,6.91828 -6.14569,10.22191 -1.91193,2.85566 -3.90034,5.67621 -6.14569,8.27788 -2.7234,3.15559 -5.71307,6.08862 -8.84229,8.84227 -2.18153,1.9197 -4.49439,3.69768 -6.89822,5.33045 -2.37247,1.61147 -4.88504,3.01108 -7.39992,4.38978 -2.11495,1.15945 -4.20275,2.40919 -6.45925,3.26098 -2.02069,0.76278 -4.15751,1.1858 -6.2711,1.63049 -2.81817,0.59293 -5.66372,1.08754 -8.52874,1.37964 -2.91409,0.2971 -5.85036,0.38906 -8.77953,0.37627 -3.24436,-0.0142 -6.49159,-0.1825 -9.72024,-0.50169 -2.43885,-0.24111 -4.84783,-0.72351 -7.27451,-1.06609 -1.69196,-0.23886 -3.41076,-0.3227 -5.0796,-0.68982 -7.36833,-1.62091 -19.54254,0.60104 -21.63535,-6.64739 -0.98682,-3.41783 4.65402,-5.38169 6.96095,-8.08973 z"
             id="path5"
             sodipodi:nodetypes="aaaaaaaaaaaacccaaaaaaaaaaaaaaaaaaaaaaaaa"
             inkscape:label="tail" /><path
             style="fill:url(#linearGradient53);fill-opacity:1;stroke-width:0.264583"
             d="m 183.01735,179.8924 c 0.29333,1.14094 -1.17689,2.04833 -1.63049,3.13555 -0.47345,1.13479 -0.87808,2.30806 -1.12879,3.51182 -0.34267,1.64533 -0.52579,3.33642 -0.50171,5.01689 0.0187,1.30665 0.23712,2.6084 0.50171,3.88811 0.50638,2.44914 1.11598,4.89972 2.06946,7.21177 0.36381,0.8822 0.86938,1.70205 1.37964,2.50844 0.74454,1.17664 1.45077,2.4123 2.44573,3.3864 1.52473,1.49278 3.36033,2.68071 5.26775,3.63725 1.63679,0.82082 3.43614,1.28273 5.20502,1.75591 1.23562,0.33053 2.4892,0.63301 3.76266,0.75255 2.0397,0.19147 4.10546,0.12304 6.14569,-0.0627 2.19723,-0.20003 4.3712,-0.63689 6.52198,-1.12879 3.56042,-0.81429 7.06302,-1.87798 10.53547,-3.01014 2.07491,-0.67651 4.15929,-1.35365 6.14569,-2.25761 1.10696,-0.50375 2.11359,-1.20581 3.19826,-1.75591 0.3086,-0.15651 0.61088,-0.5437 0.94067,-0.43897 0.16062,0.051 0.22694,0.27215 0.25085,0.43897 0.40863,2.85073 -1.34008,5.60167 -2.00676,8.4033 -0.96482,4.05455 -2.0753,8.07756 -2.88472,12.16597 -0.56732,2.86553 -1.28531,5.73453 -1.37965,8.65415 -0.0217,0.6715 0.003,1.36081 0.18815,2.00676 0.26991,0.94374 0.81064,1.79292 1.31694,2.63384 0.64927,1.07837 1.32072,2.16715 2.19487,3.07285 0.2381,0.24669 0.49067,0.51671 0.81526,0.62711 0.2177,0.074 0.46001,0.007 0.68983,0 0.64902,-0.0209 1.30673,-8.1e-4 1.94402,-0.12541 0.32438,-0.0634 0.6495,-0.15716 0.94067,-0.31356 0.53784,-0.28888 0.89382,-0.86076 1.44235,-1.12879 0.61951,-0.30271 1.38283,-0.20821 2.00676,-0.5017 1.24469,-0.58549 2.40868,-1.41869 3.3237,-2.44573 0.78476,-0.88084 1.47552,-1.92693 1.75591,-3.07284 0.25358,-1.03634 0.12084,-2.16018 -0.12542,-3.19829 -0.1749,-0.73728 -0.52025,-1.43905 -0.94067,-2.06946 -0.45955,-0.68909 -1.1796,-1.16881 -1.6932,-1.81862 -0.46735,-0.5913 -1.09059,-1.14562 -1.2542,-1.88134 -0.3029,-1.36212 0.39604,-2.7628 0.62708,-4.13893 0.62997,-3.75231 1.69132,-7.43931 2.0695,-11.22529 0.24728,-2.47557 0.01,-4.97742 0.12541,-7.46263 0.1149,-2.47113 0.54438,-4.9262 0.56441,-7.39992 0.008,-1.04703 0.17258,-2.15259 -0.18815,-3.13555 -0.10803,-0.29436 -0.25924,-0.68049 -0.56441,-0.75253 -0.40942,-0.0966 -0.72808,0.43633 -1.12879,0.56439 -1.93471,0.61829 -3.99278,0.81958 -6.02028,0.94067 -1.16927,0.0698 -2.3466,-0.006 -3.51181,-0.12541 -0.8649,-0.0889 -1.74252,-0.17575 -2.57117,-0.439 -1.01585,-0.32273 -1.9642,-0.84226 -2.8847,-1.37964 -0.66108,-0.38593 -1.66785,-0.58182 -1.88134,-1.31694 -0.0758,-0.26096 0.19439,-0.5083 0.31355,-0.75253 0.74698,-1.53099 1.82215,-2.89337 2.50847,-4.45249 0.97476,-2.21436 1.62845,-4.56203 2.25758,-6.89821 0.60021,-2.22883 1.15525,-4.48251 1.44235,-6.77281 0.26281,-2.09652 0.4617,-4.23145 0.25085,-6.33383 -0.18467,-1.8413 -0.71004,-3.64497 -1.31694,-5.39316 -0.79148,-2.27988 -1.828,-4.48065 -3.01013,-6.58467 -2.0277,-3.609 -3.85096,-7.5525 -6.96093,-10.28463 -3.21663,-2.82583 -7.31743,-4.75102 -11.47614,-5.76943 -1.40111,-0.34311 -2.88476,-0.0392 -4.32708,-0.0627 -4.61986,-0.0753 -9.24202,-0.42629 -13.85916,-0.25084 -2.22402,0.0845 -4.46877,0.17202 -6.64737,0.62711 -3.27418,0.68395 -6.44423,1.84981 -9.53209,3.13556 -2.25255,0.93793 -4.41851,2.08712 -6.52198,3.32369 -2.77889,1.63364 -6.28158,2.68308 -8.027,5.39316 -0.20655,0.3207 -0.27755,0.75797 -0.18815,1.1288 2.62289,10.88032 8.9469,25.23878 20.00485,26.96579 0.99157,0.15486 1.67378,-2.39723 2.44573,-1.75591 0.56825,0.47208 -1.13929,1.29521 -0.94064,2.00676 0.16213,0.58074 1.35492,0.41939 1.50505,1.00334 z"
             id="path6"
             sodipodi:nodetypes="aaaaaaaaaaaaaaaaaaaaaaaaaaaaaaaaaaaaaaaaaaaaaaaaaaaaaaaaaaaaaaaaaaaa"
             inkscape:label="back leg" /></g><g
           id="g8"
           inkscape:label="highlights"><path
             style="display:inline;fill:#ffffff;stroke-width:0.264583"
             d="m 315.77685,81.185049 c -0.31768,1.459729 -0.4984,2.116632 -0.89283,3.54788 -0.217,0.787402 -0.73372,1.856773 -0.89391,2.520206 -0.26909,1.114361 -0.63736,2.266518 -1.00444,3.322648 -0.41023,1.180249 -0.78436,2.357525 -1.22233,3.527762 -1.23053,3.287916 -2.59951,6.533765 -4.20164,9.657515 -1.09943,2.14361 -2.47074,4.1365 -3.69996,6.20841 -1.8457,3.11101 -3.45319,6.37427 -5.5186,9.34396 -2.85948,4.11142 -6.18722,7.88167 -9.46936,11.66427 -1.53168,1.76523 -3.01841,3.59062 -4.76607,5.14232 -1.27567,1.13263 -2.8024,1.95 -4.13893,3.01013 -0.95214,0.75523 -1.79723,1.64048 -2.75929,2.38302 -1.92783,1.48794 -3.88296,2.97173 -6.02027,4.13894 -1.61165,0.88014 -3.22804,1.45705 -5.0796,2.13218 -0.92324,0.33664 1.98415,0.25707 2.94743,0.0627 1.66026,-0.335 3.14732,-1.27027 4.64063,-2.06947 1.2425,-0.66497 2.38042,-1.50919 3.57452,-2.2576 1.71041,-1.07201 3.47624,-2.05857 5.14231,-3.19827 1.38025,-0.94418 2.75732,-1.90626 4.01352,-3.01013 1.71006,-1.50269 3.17992,-3.25849 4.76604,-4.89147 1.2772,-1.31493 2.61962,-2.5701 3.8254,-3.95081 1.55692,-1.78279 2.99148,-3.67156 4.38978,-5.58129 1.07552,-1.46889 2.11884,-2.96464 3.07285,-4.5152 1.40229,-2.27916 2.69551,-4.62808 3.88808,-7.02365 1.2845,-2.58024 2.41878,-5.23461 3.51184,-7.9016 0.99092,-2.41778 1.91142,-4.865628 2.75928,-7.337209 0.73158,-2.132606 1.39865,-4.288206 2.00676,-6.459247 0.30221,-1.078922 0.56308,-2.169278 0.81524,-3.260981 0.1587,-0.687081 0.29666,-1.378807 0.43897,-2.069468 0.21511,-1.043953 0.61305,-1.935001 0.62711,-3.135556 0.003,-0.250826 -0.69919,-0.245096 -0.75253,1e-5 z"
             id="path4"
             sodipodi:nodetypes="sssssssssssssssssssssssssssssss"
             inkscape:label="tail highlight" /><path
             style="fill:#ffffff;fill-opacity:1;stroke-width:0.264583"
             d="m 103.75046,182.96525 c 0,0 3.94075,-0.91918 5.89484,-1.44235 2.81808,-0.75448 5.64515,-1.49528 8.4033,-2.44576 3.0864,-1.0636 6.08548,-2.36787 9.09312,-3.63723 2.4658,-1.04068 4.93715,-2.07655 7.33721,-3.26099 2.15578,-1.06389 4.22452,-2.29577 6.33381,-3.4491 2.13419,-1.16695 4.34981,-2.19753 6.39654,-3.51185 1.79765,-1.15437 3.4425,-2.53125 5.14231,-3.82537 1.8132,-1.38045 3.64756,-2.73665 5.39316,-4.20164 1.33775,-1.1227 3.88811,-3.51182 3.88811,-3.51182 0,0 -1.40252,2.80546 -2.38303,4.01351 -1.53836,1.89535 -3.53192,3.37472 -5.39316,4.95418 -1.68026,1.42588 -3.40323,2.80737 -5.20501,4.07623 -2.62691,1.84993 -5.35916,3.55476 -8.15248,5.14231 -1.12162,0.63746 -2.28322,1.20354 -3.44911,1.7559 -2.72369,1.29041 -5.46662,2.55074 -8.27786,3.63726 -3.31107,1.2797 -6.66235,2.48784 -10.0965,3.3864 -2.16158,0.56559 -4.38218,0.87815 -6.58465,1.25423 -1.79221,0.30603 -3.58755,0.60215 -5.39317,0.81523 -0.97923,0.11556 -2.94743,0.25086 -2.94743,0.25086 z"
             id="path8"
             inkscape:label="back highlight"
             sodipodi:nodetypes="caaaaaaaacaaaaaaaaac" /><path
             style="fill:#ffffff;fill-opacity:1;stroke-width:0.264583"
             d="m 24.452219,184.43895 c 0.05194,0.17961 0.141527,0.35002 0.250852,0.5017 0.129638,0.17986 0.291955,0.33863 0.470323,0.47032 1.150988,0.84975 2.511097,1.37354 3.794019,2.00676 1.010699,0.49885 1.992411,1.09002 3.072845,1.411 0.273472,0.0812 0.564895,0.17041 0.846613,0.12544 0.138475,-0.0221 0.274125,-0.0921 0.376264,-0.18815 0.167138,-0.15722 0.27623,-0.37681 0.344911,-0.59576 0.07534,-0.24017 0.108316,-0.50498 0.06271,-0.75253 -0.105027,-0.57009 -0.505638,-1.04331 -0.752528,-1.56779 -0.509887,-1.08317 -1.003731,-2.17381 -1.505082,-3.26096 -0.491571,-1.06594 -0.961971,-2.14187 -1.473702,-3.19828 -0.30159,-0.6226 -0.575913,-1.26215 -0.940674,-1.84997 -0.350495,-0.56483 -0.788534,-1.07046 -1.191498,-1.59914 -0.51701,-0.6783 -1.017403,-1.37091 -1.573161,-2.01785 -0.404694,-0.47108 -0.844833,-0.91075 -1.27987,-1.35397 -0.297562,-0.30316 -0.537932,-0.68689 -0.909635,-0.89252 -0.05493,-0.0304 -0.129733,-0.0767 -0.183171,-0.0438 -0.05493,0.0339 -0.03787,0.12425 -0.04434,0.18846 -0.06113,0.60693 0.02921,1.21973 0.05543,1.82917 0.0913,2.12243 0.188093,4.24546 0.354727,6.36331 0.05157,0.6554 0.169924,1.30541 0.199549,1.96217 0.02981,0.66083 -0.05136,1.32352 -0.02222,1.98438 0.0071,0.15997 0.0032,0.32419 0.04764,0.47801 z"
             id="path9"
             sodipodi:nodetypes="aaaaaaaaaaaaaaaaaaaaaaaa"
             inkscape:label="left ear" /><path
             style="fill:#ffffff;fill-opacity:1;stroke-width:0.264583"
             d="m 19.393817,180.00326 c 0.06735,0.39344 0.0082,0.79927 -0.02217,1.19727 -0.02951,0.38665 -0.04108,0.78232 -0.155202,1.15292 -0.0535,0.17373 -0.101556,0.3747 -0.24389,0.48778 -0.148776,0.1182 -0.366099,0.15926 -0.554294,0.13304 -0.134376,-0.0187 -0.2617,-0.10081 -0.354748,-0.19955 -0.42844,-0.45465 -0.567456,-1.11382 -0.820354,-1.68505 -0.612249,-1.38292 -1.162543,-2.79339 -1.685052,-4.21265 -0.495768,-1.34662 -1.142481,-2.6635 -1.374648,-4.07958 -0.05859,-0.35737 -0.107032,-0.74046 0,-1.08643 0.05029,-0.16254 0.144507,-0.3302 0.288232,-0.42125 0.158065,-0.10014 0.367179,-0.0884 0.554294,-0.0887 0.381529,-5.9e-4 0.792931,7e-5 1.130761,0.17737 0.180523,0.0947 0.323093,0.26474 0.421261,0.44342 0.322799,0.58756 0.28884,1.31093 0.487778,1.95112 0.657899,2.11715 1.953954,4.04507 2.328032,6.23029 z"
             id="path10"
             sodipodi:nodetypes="aaaaaaaaaaaaaaaa"
             inkscape:label="right ear" /></g><g
           id="g11"
           inkscape:label="face"><path
             style="fill:#000000;fill-opacity:1;stroke-width:0.264583"
             d="m 12.580212,205.69412 c 0,0 0.946986,-0.85353 1.422757,-1.27775 0.397215,-0.35417 0.780806,-0.72464 1.195433,-1.05826 0.391919,-0.31535 0.809228,-0.59786 1.218948,-0.88971 0.365441,-0.26031 0.724258,-0.53128 1.105284,-0.76819 0.334718,-0.20812 0.683641,-0.39313 1.034732,-0.57225 0.329036,-0.16787 0.664845,-0.32257 1.00338,-0.47035 0.204113,-0.0891 0.402823,-0.19838 0.619273,-0.25082 0.168296,-0.0408 0.344353,-0.0543 0.517366,-0.047 0.09013,0.004 0.190832,-0.002 0.266523,0.047 0.08999,0.0583 0.147189,0.16449 0.180295,0.26651 0.04923,0.15169 0.04832,0.32208 0.01569,0.47819 -0.05093,0.24368 -0.209021,0.452 -0.321395,0.67413 -0.112402,0.22219 -0.238269,0.43735 -0.352751,0.65847 -0.134313,0.25943 -0.229173,0.54129 -0.391943,0.78388 -0.261041,0.38905 -0.601189,0.71965 -0.924991,1.05825 -0.284838,0.29786 -0.559334,0.61342 -0.893633,0.85445 -0.208586,0.15039 -0.443148,0.26529 -0.681984,0.3606 -0.252019,0.10057 -0.515394,0.18025 -0.783889,0.21947 -0.455119,0.0665 -0.919697,0.0248 -1.379644,0.0236 -0.467836,-10e-4 -0.935556,-0.0167 -1.403162,-0.0314 -0.482255,-0.0152 -1.446289,-0.0588 -1.446289,-0.0588 z"
             id="path11"
             sodipodi:nodetypes="caaaaaaaaaaaaaaaaaaaac"
             inkscape:label="eye" /><path
             style="fill:#000000;fill-opacity:1;stroke-width:0.264583"
             d="m -6.0097251,226.59652 c 0,0 0.2297047,-0.40775 0.3449108,-0.61143 0.1981803,-0.35037 0.3911676,-0.70375 0.595757,-1.05042 0.1371167,-0.23234 0.3392642,-0.43346 0.423299,-0.68982 0.039204,-0.1196 0.046336,-0.25131 0.031356,-0.37627 -0.029504,-0.24612 -0.1616057,-0.46877 -0.2351669,-0.70548 -0.1678652,-0.54018 -0.2646018,-1.10358 -0.4703339,-1.6305 -0.1232525,-0.31567 -0.2988484,-0.60838 -0.4546547,-0.90932 -0.07632,-0.14741 -0.2125664,-0.27452 -0.235167,-0.43897 -0.019679,-0.1432 0.061262,-0.28253 0.094067,-0.4233 0.050053,-0.21479 0.024113,-0.4666 0.1567762,-0.64278 0.076035,-0.10098 0.2435394,-0.0952 0.3292343,-0.18815 0.1252087,-0.13576 0.1738425,-0.32746 0.235167,-0.50167 0.066079,-0.18771 0.1417351,-0.3811 0.1410996,-0.5801 -6.192e-4,-0.19392 -0.058851,-0.38877 -0.1410996,-0.56438 -0.071382,-0.15241 -0.2978785,-0.40765 -0.2978785,-0.40765 0,0 -0.2747,0.20944 -0.411779,0.31451 -0.3367162,0.2581 -0.6521634,0.54626 -1.0088139,0.77603 -0.4398362,0.28336 -0.9421236,0.45979 -1.385734,0.7372 -0.3409164,0.21319 -0.672624,0.44508 -0.9755558,0.70948 -0.2815741,0.24576 -0.5421106,0.51778 -0.7760125,0.80928 -0.250152,0.31175 -0.471874,0.64785 -0.665152,0.99772 -0.170365,0.30839 -0.341587,0.62406 -0.432347,0.96449 -0.0861,0.32295 -0.12163,0.6642 -0.09978,0.99772 0.02432,0.37119 0.08142,0.75741 0.254976,1.08643 0.189152,0.35859 0.51681,0.62919 0.820354,0.89794 0.2241745,0.19848 0.4668048,0.38142 0.7316685,0.52104 0.4178057,0.22024 0.8799454,0.34547 1.3303038,0.48776 0.382908,0.12098 0.7695935,0.23501 1.1640159,0.31041 0.3087277,0.059 0.9364897,0.11023 0.9364897,0.11023 z"
             id="path12"
             sodipodi:nodetypes="caaaaaaaaaaaaaacaaaaaaaaaaaaac"
             inkscape:label="nose" /></g></g></g></g></svg>
